<svg width="100%" height="100%" viewBox="0 0 78 78" fill="none" xmlns="http://www.w3.org/2000/svg">
  <g clip-path="url(#clip0)">
    <path d="M63.2605 24.0703C58.2783 24.0703 54.9296 26.1122 52.1935 28.8075L42.3516 38.9352L52.1935 49.063C54.9296 51.7583 58.2783 53.8002 63.2605 53.8002C71.4689 53.8002 77.7579 47.1436 77.7579 38.9352C77.7579 30.7269 71.5097 24.0703 63.2605 24.0703ZM63.2605 30.441C67.7935 30.441 71.3872 34.1981 71.3872 38.9352C71.3872 43.7132 67.8343 47.4295 63.2605 47.4295C60.6469 47.4295 58.7683 46.6127 56.6856 44.53L51.0092 38.8944L56.6448 33.2996C58.7683 31.2577 60.6469 30.441 63.2605 30.441Z" fill="white"/>
    <path d="M14.4974 24.0703C6.24817 24.0703 0 30.7269 0 38.9352C0 47.1436 6.24817 53.8002 14.4565 53.8002C19.4387 53.8002 22.7874 51.7583 25.5236 49.063L35.3654 38.9352L25.5644 28.8075C22.8283 26.1122 19.4387 24.0703 14.4974 24.0703ZM14.4974 30.441C17.111 30.441 18.9895 31.2577 21.1131 33.3405L26.7895 38.9761L21.1131 44.53C18.9895 46.6536 17.111 47.4295 14.4974 47.4295C9.9644 47.4295 6.37068 43.7132 6.37068 38.9352C6.37068 34.1572 9.92356 30.441 14.4974 30.441Z" fill="white"/>
    <path d="M38.9352 42.4277C38.0776 42.4277 28.8075 52.2696 28.8075 52.2696C26.1122 55.0057 24.0703 58.3544 24.0703 63.3366C24.0703 71.545 30.7269 77.7932 38.9352 77.7932C47.1436 77.7932 53.8002 71.545 53.8002 63.3366C53.8002 58.3544 51.7583 55.0057 49.063 52.2696L38.9352 42.4277ZM38.9352 51.0853L44.53 56.7209C46.6127 58.8853 47.4295 60.723 47.4295 63.3366C47.4295 67.9513 43.7541 71.4633 38.9352 71.4633C34.0755 71.4633 30.441 67.9921 30.441 63.3366C30.441 60.723 31.2577 58.8445 33.2996 56.7209L38.9352 51.0853Z" fill="white"/>
    <path d="M38.9352 0C30.7269 0 24.0703 6.24817 24.0703 14.4565C24.0703 19.4387 26.1122 22.7874 28.8075 25.5236L38.9352 35.3654L49.063 25.5236C51.7583 22.7874 53.8002 19.4387 53.8002 14.4565C53.8002 6.24817 47.1436 0 38.9352 0ZM38.9352 6.37068C43.7132 6.37068 47.4295 9.92356 47.4295 14.4974C47.4295 17.111 46.6127 18.9895 44.53 21.1131L38.9352 26.7487L33.3405 21.1131C31.2577 18.9895 30.441 17.111 30.441 14.4974C30.441 9.84188 34.0755 6.37068 38.9352 6.37068Z" fill="white"/>
  </g>
  <defs>
    <clipPath id="clip0">
      <rect width="78" height="78" fill="white"/>
    </clipPath>
  </defs>
</svg>