<?xml version="1.0" encoding="utf-8"?>
<!-- Generator: Adobe Illustrator 24.0.0, SVG Export Plug-In . SVG Version: 6.00 Build 0)  -->
<svg version="1.1" id="Layer_1" xmlns="http://www.w3.org/2000/svg" xmlns:xlink="http://www.w3.org/1999/xlink" x="0px" y="0px"
	 viewBox="0 0 46.2 46.2" style="enable-background:new 0 0 46.2 46.2;" xml:space="preserve">
<style type="text/css">
	.st0{fill-rule:evenodd;clip-rule:evenodd;}
	.st1{fill-rule:evenodd;clip-rule:evenodd;fill:#FFF200;}
</style>
<!-- <path class="st0" d="M0,0h46.2v46.2H0V0z"/> -->
<path class="st1" d="M1.3,1.3h43.5v43.5H1.3V1.3z"/>
<path class="st0" d="M3.6,36.1l5.7,5.8l13.3-13.5l13.7,13.8l5.8-5.7L28.5,22.8l2.6-2.5v-5.4l1.6-1.4v4.2l2.1,1.7l6.3-6.3l2,1.6
	c1.2-4.4-5.7-14.5-11.5-8.9l-6.7,6.6l1.4,1.6l-3.4,3.3l-3.3-3.2l1.7-1.6l-7.3-7.1C8.7,1,3,7.9,2.8,14.6l2-1.7l6.1,6.6l2.2-1.8v-4.1
	l1.4,1V20l2.7,2.7L3.6,36.1z"/>
</svg>
