<svg id="Слой_1" data-name="Слой 1" xmlns="http://www.w3.org/2000/svg" viewBox="0 0 38 39"><defs><style>.cls-1{fill:#3cd52e;}</style></defs><title>стрелочка</title><path class="cls-1" d="M.32,19.5A18.68,18.68,0,1,0,19,.82,18.7,18.7,0,0,0,.32,19.5Zm1.38,0A17.3,17.3,0,1,1,19,36.79,17.32,17.32,0,0,1,1.7,19.5Z"/><path class="cls-1" d="M22.2,9.45a.7.7,0,0,1,1,0,.69.69,0,0,1,.2.49.7.7,0,0,1-.2.49L14,19.66l9.23,9.23a.69.69,0,0,1,0,1,.69.69,0,0,1-1,0l-9.72-9.72a.69.69,0,0,1-.2-.49.68.68,0,0,1,.2-.49Z"/></svg>