<svg id="Слой_1" data-name="Слой 1" xmlns="http://www.w3.org/2000/svg" viewBox="0 0 39 33"><defs><style>.cls-1{fill:#f5f7f6;stroke:#e2e2e2;stroke-miterlimit:10;stroke-width:0.7px;}.cls-2{opacity:0.3;}.cls-3{fill:#bcbcbc;}</style></defs><title>иконка загрузки_соискатель</title><rect class="cls-1" x="1" y="2" width="37" height="29" rx="12.54" ry="12.54"/><g class="cls-2"><path class="cls-3" d="M9,13.18v9.3a2.58,2.58,0,0,0,2.57,2.57H27.47A2.58,2.58,0,0,0,30,22.48v-9.3a2.45,2.45,0,0,0-2.45-2.45H24.17l-.08-.36A3.13,3.13,0,0,0,21,7.94H18a3.14,3.14,0,0,0-3.06,2.43l-.08.36H11.4A2.45,2.45,0,0,0,9,13.18Zm6.29-1.39a.52.52,0,0,0,.51-.41l.18-.77A2.08,2.08,0,0,1,18,9H21a2.08,2.08,0,0,1,2,1.61l.18.77a.53.53,0,0,0,.51.41h3.84A1.39,1.39,0,0,1,29,13.18v9.3A1.52,1.52,0,0,1,27.47,24H11.53A1.52,1.52,0,0,1,10,22.48v-9.3a1.39,1.39,0,0,1,1.39-1.39h3.84Z"/><circle class="cls-3" cx="12.52" cy="14.04" r="0.71"/><path class="cls-3" d="M19.5,22.35a4.43,4.43,0,1,0-4.43-4.43A4.44,4.44,0,0,0,19.5,22.35Zm0-7.8a3.37,3.37,0,1,1-3.37,3.37A3.38,3.38,0,0,1,19.5,14.55Z"/></g></svg>