<?xml version="1.0" encoding="utf-8"?>
<!-- Generator: Adobe Illustrator 21.0.0, SVG Export Plug-In . SVG Version: 6.00 Build 0)  -->
<svg version="1.1" id="Слой_1" xmlns="http://www.w3.org/2000/svg" xmlns:xlink="http://www.w3.org/1999/xlink" x="0px" y="0px"
	 viewBox="0 0 132 94" style="enable-background:new 0 0 132 94;" xml:space="preserve">
<style type="text/css">
	.st0{fill:#F5F7F6;stroke:#E2E2E2;stroke-width:0.78;stroke-miterlimit:10;}
	.st1{enable-background:new    ;}
	.st2{fill:#E2E2E2;}
</style>
<title>картинка для лого_соискатель</title>
<rect x="1.5" y="0.6" class="st0" width="129" height="92.9"/>
<g class="st1">
	<path class="st2" d="M25.6,52.5h0.6c0.9,0,1.5-0.2,2-0.6c0.9-0.8,1.5-3.2,1.5-8.3v-7.8h13.9v20h-3.4V38.9h-7.4V44
		c0,4.8-0.4,7.8-1.6,9.5c-1.1,1.7-2.6,2.2-5,2.2h-0.6V52.5z"/>
	<path class="st2" d="M56.9,35.5c3,0,5.3,1,7,2.9c1.7,1.9,2.5,4.4,2.5,7.4c0,3-0.8,5.5-2.5,7.4c-1.7,1.9-4,2.9-7,2.9s-5.3-1-7-2.9
		c-1.7-1.9-2.5-4.4-2.5-7.4c0-3,0.8-5.5,2.5-7.4C51.6,36.5,53.9,35.5,56.9,35.5z M56.9,53.1c2,0,3.5-0.7,4.6-2.1
		c1-1.4,1.5-3.1,1.5-5.2c0-2.1-0.5-3.9-1.5-5.2c-1-1.4-2.5-2.1-4.6-2.1s-3.6,0.7-4.6,2.1c-1,1.4-1.5,3.1-1.5,5.2
		c0,2.1,0.5,3.9,1.5,5.2S54.9,53.1,56.9,53.1z"/>
</g>
<g class="st1">
	<path class="st2" d="M84.4,38.9H73.7v16.9h-3.4v-20h14.1V38.9z"/>
</g>
<g class="st1">
	<path class="st2" d="M95.9,35.5c3,0,5.3,1,7,2.9c1.7,1.9,2.5,4.4,2.5,7.4c0,3-0.8,5.5-2.5,7.4c-1.7,1.9-4,2.9-7,2.9s-5.3-1-7-2.9
		c-1.7-1.9-2.5-4.4-2.5-7.4c0-3,0.8-5.5,2.5-7.4C90.6,36.5,92.9,35.5,95.9,35.5z M95.9,53.1c2,0,3.5-0.7,4.6-2.1s1.5-3.1,1.5-5.2
		c0-2.1-0.5-3.9-1.5-5.2c-1-1.4-2.5-2.1-4.6-2.1c-2,0-3.6,0.7-4.6,2.1c-1,1.4-1.5,3.1-1.5,5.2c0,2.1,0.5,3.9,1.5,5.2
		C92.3,52.4,93.9,53.1,95.9,53.1z"/>
</g>
</svg>
