<svg id="Слой_1" data-name="Слой 1" xmlns="http://www.w3.org/2000/svg" viewBox="0 0 22 24"><defs><style>.cls-1{fill:#3cd52e;}</style></defs><title>телеграм</title><g id="_Группа_" data-name="&lt;Группа&gt;"><path id="_Составной_контур_" data-name="&lt;Составной контур&gt;" class="cls-1" d="M.82,11.62l4.86,1.81,1.88,6.05a.57.57,0,0,0,.91.27l2.71-2.21a.81.81,0,0,1,1,0l4.89,3.55a.57.57,0,0,0,.9-.35L21.54,3.5a.57.57,0,0,0-.77-.65l-20,7.7A.57.57,0,0,0,.82,11.62Zm6.44.85,9.5-5.85a.17.17,0,0,1,.2.26L9.12,14.17a1.63,1.63,0,0,0-.5,1l-.27,2a.25.25,0,0,1-.48,0l-1-3.61A1,1,0,0,1,7.26,12.47Z"/></g></svg>