<svg id="Слой_1" data-name="Слой 1" xmlns="http://www.w3.org/2000/svg" viewBox="0 0 20 18"><defs><style>.cls-1{fill:#3cd52e;}</style></defs><title>конветр</title><path class="cls-1" d="M.9,2.53C3.5,4.74,8.08,8.62,9.42,9.84a.79.79,0,0,0,1.15,0c1.35-1.21,5.92-5.1,8.53-7.31A.4.4,0,0,0,19.16,2a1.57,1.57,0,0,0-1.24-.61H2.08A1.57,1.57,0,0,0,.84,2,.4.4,0,0,0,.9,2.53Z"/><path class="cls-1" d="M19.27,4.73a.39.39,0,0,0-.42.06C16,7.24,12.27,10.38,11.1,11.43a1.6,1.6,0,0,1-2.21,0C7.66,10.31,3.51,6.79,1.15,4.79a.4.4,0,0,0-.65.3V15a1.58,1.58,0,0,0,1.58,1.58H17.92A1.58,1.58,0,0,0,19.5,15v-10A.4.4,0,0,0,19.27,4.73Z"/></svg>