<svg id="Слой_1" data-name="Слой 1" xmlns="http://www.w3.org/2000/svg" viewBox="0 0 20 18"><defs><style>.cls-1{fill:#3cd52e;}</style></defs><title>трубка</title><path id="WhatsApp" class="cls-1" d="M19,13c-.11-.19-.41-.3-.86-.52s-2.65-1.3-3.06-1.45-.71-.22-1,.22S13,12.74,12.7,13s-.52.34-1,.11a12.28,12.28,0,0,1-3.61-2.21A13.42,13.42,0,0,1,5.62,7.86c-.26-.45,0-.69.2-.91s.45-.52.67-.78a3,3,0,0,0,.45-.74.81.81,0,0,0,0-.78c-.11-.22-1-2.41-1.38-3.3s-.75-.74-1-.74-.56,0-.86,0a1.66,1.66,0,0,0-1.2.56A5,5,0,0,0,.89,4.84a8.61,8.61,0,0,0,1.83,4.6c.22.3,3.1,4.94,7.66,6.72s4.56,1.19,5.38,1.11a4.54,4.54,0,0,0,3-2.11A3.71,3.71,0,0,0,19,13Z"/></svg>