<svg id="Слой_1" data-name="Слой 1" xmlns="http://www.w3.org/2000/svg" viewBox="0 0 20 24"><defs><style>.cls-1{fill:#3cd52e;}</style></defs><title>сайт</title><path class="cls-1" d="M18.15,21.58H11.44V21.1a.48.48,0,0,0-.48-.48h-.48V19.55c1-.44,1.85-2.13,2.38-4.57a.48.48,0,0,0-.47-.58H7.61a.48.48,0,0,0-.47.58c.53,2.44,1.43,4.13,2.38,4.57v1.08H9a.48.48,0,0,0-.48.48v.48H1.85a.48.48,0,1,0,0,1H8.56V23A.48.48,0,0,0,9,23.5H11a.48.48,0,0,0,.48-.48v-.48h6.71a.48.48,0,1,0,0-1Z"/><path class="cls-1" d="M12.77,18.94a.48.48,0,0,0,.36.16.47.47,0,0,0,.16,0,9.63,9.63,0,0,0,4.84-3.94.48.48,0,0,0-.41-.73H14.35a.48.48,0,0,0-.47.39,13.7,13.7,0,0,1-1.17,3.62A.48.48,0,0,0,12.77,18.94Z"/><path class="cls-1" d="M7.23,5.59a.48.48,0,0,0,.37.18h4.79a.48.48,0,0,0,.47-.58C12.25,2.34,11.12.5,10,.5S7.75,2.34,7.14,5.19A.48.48,0,0,0,7.23,5.59Z"/><path class="cls-1" d="M12.71,13.44a.48.48,0,0,0,.48-.42,25.44,25.44,0,0,0,.16-2.93,25.44,25.44,0,0,0-.16-2.93.48.48,0,0,0-.48-.42H7.29a.48.48,0,0,0-.48.42,26.15,26.15,0,0,0,0,5.86.48.48,0,0,0,.48.42Z"/><path class="cls-1" d="M5.72,13.28a.48.48,0,0,0,.12-.37,26,26,0,0,1,0-5.65.48.48,0,0,0-.48-.53h-4a.48.48,0,0,0-.45.33,9.5,9.5,0,0,0,0,6.05.48.48,0,0,0,.45.33h4A.48.48,0,0,0,5.72,13.28Z"/><path class="cls-1" d="M2.27,5.77H5.65a.48.48,0,0,0,.47-.39A13.7,13.7,0,0,1,7.29,1.76a.48.48,0,0,0-.59-.67A9.63,9.63,0,0,0,1.86,5a.48.48,0,0,0,.41.73Z"/><path class="cls-1" d="M19.09,7.06a.48.48,0,0,0-.45-.33h-4a.48.48,0,0,0-.48.53,26.25,26.25,0,0,1,.15,2.82,26.25,26.25,0,0,1-.15,2.82.48.48,0,0,0,.48.53h4a.48.48,0,0,0,.45-.33,9.5,9.5,0,0,0,0-6.05Z"/><path class="cls-1" d="M5.65,14.4H2.27a.48.48,0,0,0-.41.73A9.63,9.63,0,0,0,6.7,19.07a.47.47,0,0,0,.16,0,.48.48,0,0,0,.43-.7,13.7,13.7,0,0,1-1.17-3.62A.48.48,0,0,0,5.65,14.4Z"/><path class="cls-1" d="M13.88,5.38a.48.48,0,0,0,.47.39h3.38A.48.48,0,0,0,18.14,5,9.63,9.63,0,0,0,13.3,1.09a.48.48,0,0,0-.59.67A13.7,13.7,0,0,1,13.88,5.38Z"/></svg>