<svg width="176px" height="auto" viewBox="0 0 176 38" fill="none" xmlns="http://www.w3.org/2000/svg">
<path d="M37.2799 0.85498H0.376709V37.905H37.2799V0.85498Z" fill="black"/>
<path d="M36.1448 1.8999H1.41797V36.7649H36.1448V1.8999Z" fill="#FFED00"/>
<path d="M3.21779 29.735L7.75972 34.39L18.3576 23.56L29.3339 34.58L33.9705 30.02L23.0888 19.095L25.1705 17.1V12.73L26.4952 11.59V15.01L28.1984 16.435L33.2135 11.4L34.8221 12.635C35.7683 9.12003 30.2802 1.04503 25.6436 5.51003L20.3447 10.83L21.4802 12.16L18.7361 14.82L16.0866 12.255L17.506 11.02L11.6393 5.32002C7.2866 1.71002 2.74467 7.22003 2.55542 12.635L4.16402 11.305L9.08445 16.625L10.8823 15.2V11.97L12.0178 12.825V17.1L14.1941 19.285L3.21779 29.735Z" fill="black"/>
<path d="M164.171 16.055H167.766V11.875H171.078V16.055H174.674V5.70001H171.078V9.31001H167.766V5.70001H164.171V16.055ZM142.218 8.64501C142.975 8.17001 144.016 7.79001 144.867 7.79001C145.341 7.79001 146.287 7.88501 146.287 8.74001C146.287 9.59501 145.435 9.59501 145.057 9.59501H143.259V11.875H144.867C145.341 11.875 146.381 11.97 146.381 12.73C146.381 13.11 146.192 13.775 144.867 13.775C143.637 13.775 142.786 13.395 141.745 12.825L140.799 15.295C142.786 16.435 144.584 16.53 145.435 16.53C149.599 16.53 150.072 14.155 150.072 13.3C150.072 12.16 149.409 11.115 147.99 10.735C148.936 10.355 149.504 9.40501 149.504 8.36001C149.504 5.89001 146.949 5.41501 145.435 5.41501C144.016 5.41501 142.313 5.79501 141.177 6.46001L142.218 8.64501ZM134.364 4.37001C135.973 4.37001 137.676 3.70501 138.433 1.99501L136.067 1.14001C135.784 2.37501 134.743 2.37501 134.364 2.37501C133.986 2.37501 132.945 2.28001 132.661 1.14001L130.295 1.90001C130.958 3.70501 132.661 4.37001 134.364 4.37001ZM128.687 5.70001V16.055H132.188L135.784 10.355V16.055H139.379V5.70001H135.878L132.283 11.305V5.70001H128.687ZM104.652 13.775V8.07501C103.422 8.07501 102.192 8.93001 102.192 10.925C102.192 12.92 103.422 13.87 104.652 13.775ZM107.775 8.07501V13.775C109.005 13.775 110.235 12.92 110.235 10.925C110.235 8.93001 109.005 8.07501 107.775 8.07501ZM104.463 20.52V16.15C102.287 16.15 98.7858 15.295 98.7858 10.83C98.7858 6.36501 102.287 5.51001 104.463 5.51001V1.04501H108.059V5.60501C110.235 5.60501 113.736 6.46001 113.736 10.925C113.736 15.39 110.141 16.245 108.059 16.245V20.615H104.463V20.52ZM88.3772 13.775V8.07501C87.1471 8.07501 85.9169 8.93001 85.9169 10.925C85.9169 12.92 87.1471 13.87 88.3772 13.775ZM91.4997 8.07501V13.775C92.7298 13.775 93.96 12.92 93.96 10.925C93.96 8.93001 92.7298 8.07501 91.4997 8.07501ZM88.0933 20.52V16.15C85.9169 16.15 82.4159 15.295 82.4159 10.83C82.4159 6.36501 85.9169 5.51001 88.0933 5.51001V1.04501H91.7836V5.60501C93.96 5.60501 97.461 6.46001 97.461 10.925C97.461 15.39 93.8653 16.245 91.7836 16.245V20.615H88.0933V20.52ZM75.603 4.37001C77.2116 4.37001 78.9148 3.70501 79.6718 1.99501L77.3062 1.14001C77.0223 2.37501 75.9815 2.37501 75.603 2.37501C75.2245 2.37501 74.1836 2.28001 73.8997 1.14001L71.5342 1.90001C72.2911 3.70501 73.9944 4.37001 75.603 4.37001ZM69.9256 5.70001V16.055H73.4266L77.0223 10.355V16.055H80.618V5.70001H77.1169L73.5212 11.305V5.70001H69.9256ZM47.7836 4.08501V7.60001H49.1084C51.0008 7.60001 51.0954 6.46001 51.0954 5.79501C51.0954 5.03501 50.8116 4.08501 49.1084 4.08501H47.9729H47.7836ZM43.9041 16.055V0.76001H50.0546C54.218 0.76001 55.3535 3.70501 55.3535 5.79501C55.3535 7.88501 54.1234 10.83 50.0546 10.83H47.8782V16.055H43.9041ZM126.416 5.70001V16.055H122.82V14.915C122.158 15.96 120.928 16.435 119.698 16.435C116.67 16.435 114.588 13.87 114.588 10.925C114.588 7.98001 116.67 5.41501 119.698 5.41501C120.833 5.41501 122.158 5.89001 122.82 6.74501V5.70001H126.416ZM120.644 8.55001C119.13 8.55001 118.278 9.59501 118.278 10.925C118.278 12.255 119.13 13.3 120.644 13.3C122.063 13.3 123.009 12.255 123.009 10.925C122.915 9.59501 122.063 8.55001 120.644 8.55001ZM67.6546 5.70001V16.055H64.0589V14.915C63.3965 15.96 62.1664 16.435 60.9363 16.435C57.9084 16.435 55.8266 13.87 55.8266 10.925C55.8266 7.98001 57.9084 5.41501 60.9363 5.41501C62.0718 5.41501 63.3965 5.89001 64.1535 6.74501V5.70001H67.6546ZM61.8825 8.55001C60.3686 8.55001 59.517 9.59501 59.517 10.925C59.517 12.255 60.3686 13.3 61.8825 13.3C63.3019 13.3 64.2481 12.255 64.2481 10.925C64.2481 9.59501 63.3019 8.55001 61.8825 8.55001ZM162.373 11.305V11.685H154.803C154.803 13.205 155.56 13.965 157.074 13.965C157.831 13.965 158.399 13.68 158.777 13.015H162.278C161.71 15.485 159.44 16.625 157.074 16.625C153.667 16.625 151.207 14.725 151.207 11.115C151.207 7.60001 153.573 5.60501 156.885 5.60501C160.291 5.51001 162.373 7.79001 162.373 11.305ZM154.803 9.59501H158.966C158.777 8.64501 157.926 7.98001 156.885 7.98001C155.938 7.88501 154.992 8.45501 154.803 9.59501Z" fill="#fff"/>
<path d="M48.6352 34.5799H49.2976C49.96 34.5799 50.5277 34.5799 50.9062 34.4849C51.2847 34.3899 51.6632 34.2949 51.9471 34.0099C52.2309 33.7249 52.5148 33.3449 52.6094 32.7749C52.704 32.2999 52.7041 31.8249 52.5148 31.6349C52.3256 31.3499 52.0417 31.2549 51.6632 31.1599C51.2847 31.0649 50.717 31.0649 50.0546 31.0649H49.3922L48.6352 34.5799ZM57.246 22.4199L56.489 25.8399H50.3385L49.8653 27.9299H52.1363C53.2718 27.9299 54.218 28.1199 54.975 28.4999C55.732 28.8799 56.2051 29.4499 56.489 30.2099C56.7729 30.9699 56.7729 31.9199 56.489 32.9649C56.2998 34.0099 55.8266 34.8649 55.2589 35.6249C54.5965 36.3849 53.8395 36.9549 52.9879 37.2399C52.0417 37.6199 51.0954 37.8099 49.96 37.8099H43.9041L47.1213 22.4199H57.246V22.4199Z" fill="#fff"/>
<path d="M66.8028 27.1699L64.0587 32.1099H67.3705L66.8028 27.1699ZM62.3554 35.1499L60.7468 37.8099H56.4888L65.6673 22.4199H70.02L72.5748 37.8099H68.3167L67.8436 35.1499H62.3554Z" fill="#fff"/>
<path d="M85.9177 28.4049L87.2424 22.4199H91.2167L87.9048 37.8099H83.9306L85.2553 31.5399H79.5779L78.2532 37.8099H74.1843L77.4962 22.4199H81.4704L80.2403 28.4049H85.9177Z" fill="#fff"/>
<path d="M103.14 22.4199H108.06L100.49 29.7349L105.411 37.8099H100.206L96.516 31.1599H96.4214L95.002 37.8099H91.0278L94.3397 22.4199H98.3139L96.9891 28.7849L103.14 22.4199Z" fill="#fff"/>
</svg>
