<?xml version="1.0" encoding="utf-8"?>
<!-- Generator: Adobe Illustrator 21.0.0, SVG Export Plug-In . SVG Version: 6.00 Build 0)  -->
<svg version="1.1" id="Слой_1" xmlns="http://www.w3.org/2000/svg" xmlns:xlink="http://www.w3.org/1999/xlink" x="0px" y="0px"
	 viewBox="0 0 50 50" style="enable-background:new 0 0 50 50;" xml:space="preserve">
<style type="text/css">
	.st0{display:none;}
	.st1{display:inline;}
	.st2{fill:#3CD52E;}
	.st3{display:inline;fill:none;stroke:#3CD52E;stroke-width:0.98;stroke-miterlimit:10;}
	.st4{display:inline;fill:none;stroke:#3CD52E;stroke-width:0.985;stroke-miterlimit:10;}
	.st5{fill:none;stroke:#3CD52E;stroke-width:0.98;stroke-miterlimit:10;}
</style>
<g class="st0">
	<g class="st1">
		<g>
			<g>
				<path class="st2" d="M27.1,27.7c-0.8-0.5-1.9-0.5-2.8-0.5h-2.9v6h2.7c1,0,2.3,0.1,3.1-0.5c0.8-0.5,1.2-1.6,1.2-2.6
					C28.4,29.2,27.8,28.1,27.1,27.7z M26,22.5c0.6-0.5,1-1.4,1-2.2c0-0.9-0.4-1.7-1.2-2.2c-0.8-0.5-2.2-0.4-3.1-0.4h-1.3v5.3h1.7
					C24,23.1,25.1,23.2,26,22.5z M25.7,37.7h-10V13.5h11c3.2,0,6.1,2,6.1,5.6c0,2.8-1.5,4.6-3.5,5.2v0.1c2.9,0.6,5,2.2,5,6
					C34.3,33.9,31.9,37.7,25.7,37.7z"/>
			</g>
		</g>
	</g>
	<rect x="0.5" y="0.5" class="st3" width="49" height="49"/>
</g>
<g class="st0">
	<rect x="0.5" y="0.5" class="st3" width="49" height="49"/>
	<g class="st1">
		<path class="st2" d="M16.7,13.1h17.5c1.7,0,3,1.2,3,3v17.5c0,1.8-1.4,3-3,3H16.7c-1.7,0-3-1.2-3-3V16.2
			C13.7,14.4,15.1,13.1,16.7,13.1L16.7,13.1z M30.9,15.8c-0.6,0-1.1,0.5-1.1,1.1v2.5c0,0.6,0.5,1.1,1.1,1.1h2.7
			c0.6,0,1.1-0.5,1.1-1.1v-2.5c0-0.6-0.5-1.1-1.1-1.1H30.9L30.9,15.8z M34.6,23.1h-2.1c0.2,0.6,0.3,1.3,0.3,2c0,3.9-3.3,7.1-7.3,7.1
			c-4,0-7.3-3.2-7.3-7.1c0-0.7,0.1-1.4,0.3-2h-2.2V33c0,0.5,0.4,0.9,0.9,0.9h16.4c0.5,0,0.9-0.4,0.9-0.9L34.6,23.1L34.6,23.1z
			 M25.5,20.3c-2.6,0-4.7,2-4.7,4.6s2.1,4.6,4.7,4.6c2.6,0,4.7-2,4.7-4.6S28.1,20.3,25.5,20.3z"/>
	</g>
</g>
<g class="st0">
	<rect x="0.4" y="0.4" class="st4" width="49.2" height="49.2"/>
	<g id="XMLID_17_" class="st1">
		<path id="XMLID_18_" class="st2" d="M12.1,25.2l6.2,2.3l2.4,7.7c0.2,0.5,0.8,0.7,1.2,0.3l3.4-2.8c0.4-0.3,0.9-0.3,1.3,0l6.2,4.5
			c0.4,0.3,1,0.1,1.1-0.4l4.5-21.9c0.1-0.6-0.4-1-1-0.8l-25.3,9.8C11.4,24,11.4,24.9,12.1,25.2z M20.3,26.2l12.1-7.4
			c0.2-0.1,0.4,0.2,0.3,0.3l-10,9.3c-0.4,0.3-0.6,0.8-0.6,1.2l-0.3,2.5c0,0.3-0.5,0.4-0.6,0l-1.3-4.6C19.6,27.1,19.8,26.5,20.3,26.2
			z"/>
	</g>
</g>
<g>
	<rect x="0.5" y="0.5" class="st5" width="49" height="49"/>
	<g>
		<path class="st2" d="M32.2,11.8l-3.7,0c-4.2,0-6.8,2.8-6.8,7V22H18c-0.3,0-0.6,0.3-0.6,0.6v4.7c0,0.3,0.3,0.6,0.6,0.6h3.7v11.8
			c0,0.3,0.3,0.6,0.6,0.6h4.9c0.3,0,0.6-0.3,0.6-0.6V27.9H32c0.3,0,0.6-0.3,0.6-0.6l0-4.7c0-0.2-0.1-0.3-0.2-0.4
			C32.4,22.1,32.2,22,32,22h-4.4v-2.7c0-1.3,0.3-2,2-2l2.5,0c0.3,0,0.6-0.3,0.6-0.6v-4.4C32.8,12,32.5,11.8,32.2,11.8z"/>
	</g>
</g>
</svg>
