<svg id="Слой_1" data-name="Слой 1" xmlns="http://www.w3.org/2000/svg" viewBox="0 0 50 50"><defs><style>.cls-1{fill:none;stroke:#3cd52e;stroke-miterlimit:10;stroke-width:0.98px;}.cls-2{fill:#3cd52e;}</style></defs><title>instagram</title><rect class="cls-1" x="0.5" y="0.5" width="49" height="49"/><path class="cls-2" d="M16.75,13.14H34.23a3,3,0,0,1,3,3V33.64a3,3,0,0,1-3,3H16.75a3,3,0,0,1-3-3V16.16a3,3,0,0,1,3-3Zm14.11,2.61a1.06,1.06,0,0,0-1.06,1.06v2.53a1.06,1.06,0,0,0,1.06,1.06h2.66a1.06,1.06,0,0,0,1.06-1.06V16.81a1.06,1.06,0,0,0-1.06-1.06Zm3.73,7.33H32.52a6.88,6.88,0,0,1,.3,2,7.31,7.31,0,0,1-14.62,0,6.87,6.87,0,0,1,.3-2H16.34V33a.94.94,0,0,0,.94.94H33.66a.94.94,0,0,0,.94-.94V23.08Zm-9.08-2.81a4.58,4.58,0,1,0,4.72,4.58A4.65,4.65,0,0,0,25.51,20.27Z"/></svg>