<svg id="Слой_1" data-name="Слой 1" xmlns="http://www.w3.org/2000/svg" viewBox="0 0 50 50"><defs><style>.cls-1{fill:none;stroke:#3cd52e;stroke-miterlimit:10;stroke-width:0.99px;}.cls-2{fill:#3cd52e;}</style></defs><title>telegram</title><rect class="cls-1" x="0.38" y="0.38" width="49.25" height="49.25"/><g id="_Группа_" data-name="&lt;Группа&gt;"><path id="_Составной_контур_" data-name="&lt;Составной контур&gt;" class="cls-2" d="M12.08,25.17l6.17,2.3,2.39,7.68a.73.73,0,0,0,1.15.35l3.44-2.81a1,1,0,0,1,1.25,0l6.21,4.51a.73.73,0,0,0,1.14-.44l4.55-21.87a.73.73,0,0,0-1-.83L12.07,23.81A.73.73,0,0,0,12.08,25.17Zm8.18,1.08,12.07-7.43a.21.21,0,0,1,.25.33l-10,9.26A2.06,2.06,0,0,0,22,29.64l-.34,2.51a.31.31,0,0,1-.61,0l-1.3-4.58A1.21,1.21,0,0,1,20.25,26.25Z"/></g></svg>