<svg id="Слой_1" data-name="Слой 1" xmlns="http://www.w3.org/2000/svg" viewBox="0 0 50 50"><defs><style>.cls-1{fill:#3cd52e;}.cls-2{fill:none;stroke:#3cd52e;stroke-miterlimit:10;stroke-width:0.98px;}</style></defs><title>vk</title><path class="cls-1" d="M27.06,27.68a5.69,5.69,0,0,0-2.77-.46H21.37v6h2.68a5.51,5.51,0,0,0,3.11-.53,3.12,3.12,0,0,0,1.23-2.55A3.06,3.06,0,0,0,27.06,27.68ZM26,22.55a2.8,2.8,0,0,0,1-2.19,2.53,2.53,0,0,0-1.16-2.19,7.18,7.18,0,0,0-3.14-.35H21.37v5.29h1.68A4.62,4.62,0,0,0,26,22.55Zm-.21,15.17h-10V13.52h11c3.17,0,6.1,2,6.1,5.58a5.15,5.15,0,0,1-3.49,5.22v.07c2.9.6,5,2.18,5,6C34.26,33.89,31.86,37.71,25.75,37.71Z"/><rect class="cls-2" x="0.5" y="0.5" width="49" height="49"/></svg>