<?xml version="1.0" standalone="no"?>
<!DOCTYPE svg PUBLIC "-//W3C//DTD SVG 20010904//EN"
 "http://www.w3.org/TR/2001/REC-SVG-20010904/DTD/svg10.dtd">
<svg version="1.0" xmlns="http://www.w3.org/2000/svg"
 width="512.000000pt" height="512.000000pt" viewBox="0 0 512.000000 512.000000"
 preserveAspectRatio="xMidYMid meet">
<metadata>
Created by potrace 1.11, written by Peter Selinger 2001-2013
</metadata>
<g transform="translate(0.000000,512.000000) scale(0.100000,-0.100000)"
fill="#000000" stroke="none">
<path d="M2379 5116 c-2 -2 -35 -6 -74 -9 -109 -10 -290 -43 -410 -76 -434
-118 -809 -333 -1132 -648 -57 -56 -85 -87 -182 -198 -44 -51 -180 -244 -223
-319 -189 -323 -306 -675 -345 -1041 -15 -138 -8 -493 11 -625 90 -603 381
-1144 832 -1550 349 -315 839 -549 1289 -616 22 -3 51 -8 65 -10 113 -19 472
-26 605 -11 127 14 139 16 269 42 124 25 378 103 475 146 397 178 701 405 978
732 152 179 332 490 416 717 37 101 85 254 93 296 3 15 11 54 19 88 37 158 49
292 50 521 0 206 -15 386 -39 480 -2 6 -6 28 -10 50 -13 70 -57 227 -88 315
-189 534 -520 962 -990 1284 -53 36 -100 66 -104 66 -4 0 -15 6 -23 14 -28 25
-292 152 -392 190 -172 64 -403 123 -554 141 -27 4 -61 9 -75 11 -30 6 -455
15 -461 10z m1016 -1368 c9 -8 9 -374 0 -388 -4 -6 -191 -10 -563 -9 -306 0
-582 0 -612 0 l-56 -1 1 -152 c0 -84 -1 -159 -3 -165 -3 -10 -58 -13 -228 -13
l-224 0 0 368 0 368 839 -1 c462 0 842 -3 846 -7z m-598 -772 c279 -60 488
-231 583 -478 97 -252 81 -546 -43 -783 -53 -102 -181 -234 -282 -292 -150
-86 -285 -118 -495 -117 -112 1 -164 6 -226 22 -211 54 -369 159 -476 315 -34
51 -87 151 -95 182 -49 184 -61 323 -42 460 45 307 238 556 509 654 56 20 171
48 225 54 65 8 274 -2 342 -17z"/>
<path d="M2498 2629 c-113 -17 -226 -97 -276 -195 -72 -141 -77 -387 -12 -529
21 -44 65 -110 95 -140 76 -78 237 -117 371 -89 144 29 238 118 290 274 26 77
26 290 0 375 -70 229 -238 339 -468 304z"/>
</g>
</svg>
