<svg id="Слой_1" data-name="Слой 1" xmlns="http://www.w3.org/2000/svg" viewBox="0 0 58 76"><defs><style>.cls-1{fill:#f7f7f7;}.cls-2{fill:#979797;}.cls-3{fill:#a3a3a3;}.cls-4{fill:#949494;}.cls-5{fill:#a8a8a8;}.cls-6{fill:#a6a6a6;}.cls-7{fill:#b0b0b0;}.cls-8{fill:#b1b1b1;}.cls-9{fill:#9e9e9e;}.cls-10{fill:#aaa;}.cls-11{fill:#a7a7a7;}.cls-12{fill:#9c9c9c;}.cls-13{fill:#929292;}.cls-14{fill:#a1a1a1;}.cls-15{fill:#a9a9a9;}.cls-16{fill:#b6b6b6;}.cls-17{fill:#919191;}.cls-18{fill:#a2a2a2;}.cls-19{fill:#9b9b9b;}.cls-20{fill:#acacac;}.cls-21{fill:#989898;}.cls-22{fill:#ababab;}.cls-23{fill:#9a9a9a;}.cls-24{fill:#9f9f9f;}.cls-25{fill:#a4a4a4;}.cls-26{fill:#969696;}.cls-27{fill:#999;}.cls-28{fill:#a5a5a5;}.cls-29{fill:#959595;}.cls-30{fill:#8f8f8f;}.cls-31{fill:#909090;}.cls-32{fill:#afafaf;}.cls-33{fill:#a0a0a0;}.cls-34{fill:#9d9d9d;}.cls-35{fill:#868686;}.cls-36{fill:#aeaeae;}.cls-37{fill:#b8b8b8;}.cls-38{fill:#c2c2c2;}.cls-39{fill:#bebebe;}.cls-40{fill:#b4b4b4;}.cls-41{fill:#b2b2b2;}.cls-42{fill:silver;}.cls-43{fill:#bcbcbc;}.cls-44{fill:#c1c1c1;}.cls-45{fill:#bfbfbf;}.cls-46{fill:#adadad;}.cls-47{fill:#b3b3b3;}.cls-48{fill:#939393;}.cls-49{fill:#bbb;}.cls-50{fill:#b7b7b7;}.cls-51{fill:#b5b5b5;}.cls-52{fill:#b9b9b9;}.cls-53{fill:#bababa;}.cls-54{fill:#c6c6c6;}.cls-55{fill:#c9c9c9;}.cls-56{fill:#c8c8c8;}.cls-57{fill:#cacaca;}.cls-58{fill:#c5c5c5;}.cls-59{fill:#c3c3c3;}.cls-60{fill:#c4c4c4;}.cls-61{fill:#cbcbcb;}.cls-62{fill:#bdbdbd;}.cls-63{fill:#f8f8f8;}.cls-64{fill:#fbfbfb;}.cls-65{fill:#dadada;}.cls-66{fill:#ededed;}.cls-67{fill:#efefef;}.cls-68{fill:#c7c7c7;}.cls-69{fill:#cdcdcd;}.cls-70{fill:#e4e4e4;}.cls-71{fill:#ccc;}.cls-72{fill:#cfcfcf;}.cls-73{fill:#cecece;}.cls-74{fill:#d0d0d0;}.cls-75{fill:#d3d3d3;}.cls-76{fill:#ddd;}.cls-77{fill:#ebebeb;}.cls-78{fill:#f3f3f3;}.cls-79{fill:#eee;}.cls-80{fill:#f0f0f0;}.cls-81{fill:#f4f4f4;}.cls-82{fill:#f5f5f5;}.cls-83{fill:#f1f1f1;}.cls-84{fill:#f2f2f2;}.cls-85{fill:#e3e3e3;}.cls-86{fill:#eaeaea;}.cls-87{fill:#e7e7e7;}.cls-88{fill:#d1d1d1;}.cls-89{fill:#e5e5e5;}.cls-90{fill:#e1e1e1;}.cls-91{fill:#d2d2d2;}.cls-92{fill:#e9e9e9;}.cls-93{fill:#e8e8e8;}.cls-94{fill:#e6e6e6;}.cls-95{fill:#d8d8d8;}.cls-96{fill:#d7d7d7;}.cls-97{fill:#ececec;}.cls-98{fill:#d5d5d5;}.cls-99{fill:#dbdbdb;}.cls-100{fill:#dedede;}.cls-101{fill:#dfdfdf;}.cls-102{fill:#d9d9d9;}.cls-103{fill:#e2e2e2;}.cls-104{fill:#e0e0e0;}</style></defs><title>флажки</title><polygon class="cls-1" points="57.5 75 29.5 67 0.5 75 0.5 1 57.5 1 57.5 75"/><path class="cls-2" d="M21.16,34.62H18.34c-.1,0-.4.06-.09-.18a6.59,6.59,0,0,1,1.18-.06H28c1.06,0,2.12,0,3.18,0,.2,0,.48-.1.55.24a.52.52,0,0,1-.29,0h-10A.69.69,0,0,1,21.16,34.62Z"/><path class="cls-3" d="M38.21,19.52a11.76,11.76,0,0,1-1,1.51,2.47,2.47,0,0,1-.42-.2c-.11-.18,0-.29.11-.42s-.09-.24,0-.36.18-.27.24-.42l.58-.51c.13,0,.21.16.32.22A.36.36,0,0,1,38.21,19.52Z"/><path class="cls-4" d="M24.68,45.07a1.4,1.4,0,0,1-.55.41c-.2.1-.38.13-.48-.12a.52.52,0,0,1,.11-.44.21.21,0,0,1,.12-.06s.12.06.13,0-.09-.06-.16,0-.23.15-.36.2a.29.29,0,0,1-.28-.15c.29-.33.47-.77.9-1a.18.18,0,0,1,.19,0c.2.18-.06.59.33.68a.44.44,0,0,1,.06.12A.73.73,0,0,1,24.68,45.07Z"/><path class="cls-5" d="M21.16,34.62H31.75a.16.16,0,0,1,.13.12.21.21,0,0,1-.12.2.13.13,0,0,1-.11,0c0-.33-.31-.18-.46-.18l-9.5,0A.9.9,0,0,1,21.16,34.62Z"/><path class="cls-6" d="M37,20.41l-.2.39a.08.08,0,0,1,0,.08v0c-.16.06-.35,0-.49.12s-.21.14-.32.22l-.51.2a.26.26,0,0,1-.15,0c-.14-.14-.1-.28,0-.43L36.55,20A2.78,2.78,0,0,1,37,20.41Z"/><path class="cls-5" d="M35.37,21c0,.14,0,.3.1.4s-.11.3-.23.39-.53.24-.74.45a1.74,1.74,0,0,1-.58.38,1.1,1.1,0,0,1-.27.08.33.33,0,0,1-.27,0,.1.1,0,0,1,0-.12A19.44,19.44,0,0,1,35.37,21Z"/><path class="cls-7" d="M31.72,29.82l.13.17a3.68,3.68,0,0,0,1.11.07H34.4c1.06,0,2.13,0,3.19,0a.1.1,0,0,1,0,.15.67.67,0,0,1-.42.11,13.44,13.44,0,0,1-2.37,0,6.36,6.36,0,0,0-1.75.09,1.62,1.62,0,0,1-.44,0c-.12-.05-.21-.19-.37-.11l-.12,0c-.13,0-.26,0-.39,0a.23.23,0,0,1-.12-.05c-.06-.1,0-.21,0-.31S31.6,29.82,31.72,29.82Z"/><path class="cls-8" d="M39.87,34.12l-.84.6a1.59,1.59,0,0,0-.72.54l-.1,0c-.19-.11-.22.12-.34.15a.18.18,0,0,1-.21-.13.58.58,0,0,1,.15-.46,1.51,1.51,0,0,1,.47-.39,2.5,2.5,0,0,0,.39-.23,2.62,2.62,0,0,1,.71-.34.26.26,0,0,1,.12,0,1.48,1.48,0,0,0,.27.14A.24.24,0,0,1,39.87,34.12Z"/><path class="cls-5" d="M37.15,21.2a13.51,13.51,0,0,1-1,1.56c-.12,0-.19,0-.25-.1a.35.35,0,0,1,0-.28.86.86,0,0,0,.2-.79.72.72,0,0,1,.21-.42l.34-.22a1.82,1.82,0,0,1,.21,0C37.06,20.92,37.12,21,37.15,21.2Z"/><path class="cls-9" d="M28.25,38.92a4.82,4.82,0,0,1,.93-1.09c.08,0,.14-.11.23-.13a.26.26,0,0,1,.23.12.29.29,0,0,1,0,.2.67.67,0,0,1-.11.18,10,10,0,0,1-1.11,1.25.23.23,0,0,1-.2,0C28.13,39.26,28.36,39.09,28.25,38.92Z"/><path class="cls-10" d="M43.91,31.2a1.45,1.45,0,0,1-.51.35c-.1-.15-.32,0-.43-.2a.19.19,0,0,1,.08-.23c.15-.07.3-.15.2-.36s0-.28-.24-.26-.44,0-.35-.35c.38,0,.77,0,1.15,0a.21.21,0,0,1,.17.14c0,.22.24.34.34.52l-.15.17a.47.47,0,0,1-.28,0s-.06,0-.06,0,0,0,0,0A.2.2,0,0,1,43.91,31.2Z"/><path class="cls-11" d="M38.31,30c1.38,0,2.76-.06,4.14.07-.17.2-.43.11-.63.21a2.9,2.9,0,0,1-.52,0H38.79a1.13,1.13,0,0,1-.35,0C38.32,30.24,38.23,30.17,38.31,30Z"/><path class="cls-12" d="M19.31,33.61a16.06,16.06,0,0,1,1.58-1.25l0,0a.36.36,0,0,1,0,.26.46.46,0,0,1-.06.12c-.12.15-.29.27-.43.41a1,1,0,0,0-.27.36c-.08.07-.2.08-.26.19l-.07.17a.66.66,0,0,1-.13.21.17.17,0,0,1-.12,0,.32.32,0,0,1-.1-.08C19.46,33.91,19.25,33.82,19.31,33.61Z"/><path class="cls-13" d="M23.19,44.87l.33.11c.06.1,0,.21,0,.32a.36.36,0,0,1-.08.18c-.09.06-.21,0-.3,0a.46.46,0,0,0-.13.19c-.05.18.16.35,0,.53l-.18.12c-.07.05-.12,0-.17,0a.79.79,0,0,0-.31-.22c-.08-.07-.1-.15,0-.24Z"/><path class="cls-12" d="M28.25,38.92c.45.18,0,.32,0,.49a.23.23,0,0,1,0,.32c-.11.11-.26.17-.34.32s-.15.41-.43.38-.18-.2-.21-.34Z"/><path class="cls-14" d="M28.51,26.45a2.76,2.76,0,0,1,1.27-1c.19.23,0,.39-.11.54a3.81,3.81,0,0,0-.38.3,1.62,1.62,0,0,1-.66.44.28.28,0,0,1-.21-.05C28.36,26.58,28.48,26.53,28.51,26.45Z"/><path class="cls-6" d="M26,28.43a3.88,3.88,0,0,1,.89-.78.64.64,0,0,1,.28.14.24.24,0,0,1,.07.1c0,.18-.12.27-.2.39s-.26.35-.5.37-.18-.07-.28,0l-.12,0a.19.19,0,0,1-.1-.07A.31.31,0,0,1,26,28.43Z"/><path class="cls-15" d="M42.55,32.17a8.67,8.67,0,0,1-1.36,1,.44.44,0,0,1-.3,0,.17.17,0,0,1-.08-.19c.09-.27.38-.33.55-.51a.87.87,0,0,1,.21-.19.86.86,0,0,1,.29-.07C42.1,32.27,42.3,31.93,42.55,32.17Z"/><path class="cls-16" d="M36,36.87c0,.09-.09.17-.2.18-.09-.17-.28-.08-.4-.16a.36.36,0,0,1-.13-.24c0-.17.14-.23.28-.28.31-.07.53-.33.83-.42a.66.66,0,0,1,.4.12c.07.27-.18.29-.31.4S36.13,36.74,36,36.87Z"/><path class="cls-10" d="M32.75,28.15c-.35.37-.47.88-.8,1.26a.66.66,0,0,1-.34-.2c-.11-.25.09-.37.23-.51a1.46,1.46,0,0,0,.25-.45.45.45,0,0,1,.09-.1.67.67,0,0,1,.36-.17A.23.23,0,0,1,32.75,28.15Z"/><path class="cls-15" d="M35.28,24.15a4.14,4.14,0,0,1-.55.88.32.32,0,0,1-.3,0c-.13-.1-.09-.22,0-.33a.74.74,0,0,0,.2-.42c.06-.13.2-.24.09-.41a.37.37,0,0,1,.2-.08.53.53,0,0,1,.29.06C35.26,24,35.34,24,35.28,24.15Z"/><path class="cls-17" d="M22.37,46.66l-.15.18a2,2,0,0,0-.56.38l-.08,0c-.14,0-.29.14-.32-.12l.91-1.06c.21,0,.16.17.17.3A.68.68,0,0,0,22.37,46.66Z"/><path class="cls-18" d="M20.89,32.36l.39-.3c.17,0,.26-.06.28-.22l.7-.56c.09,0,.12,0,.14.08a.36.36,0,0,0-.09.38.53.53,0,0,1-.2.25l-.21.14a3.28,3.28,0,0,1-.29.22,2.34,2.34,0,0,1-.35.24.23.23,0,0,1-.12,0,2.28,2.28,0,0,1-.24-.19Z"/><path class="cls-19" d="M24.5,43.4l.18-.19a.75.75,0,0,1,.38-.2h.22a.53.53,0,0,1,.2.06,2.73,2.73,0,0,1,.43.44.24.24,0,0,1,0,.21.36.36,0,0,1-.13.07.51.51,0,0,1-.35,0,.71.71,0,0,1-.19-.19.18.18,0,0,0-.3,0c-.12.09-.18.32-.4.17A.22.22,0,0,1,24.5,43.4Z"/><path class="cls-7" d="M33.5,27a4.66,4.66,0,0,1-.56.9l-.05,0a2.63,2.63,0,0,0-.2-.38.31.31,0,0,1,0-.19c.06-.14.13-.27.2-.4a.75.75,0,0,1,.3-.24.27.27,0,0,1,.13,0A.52.52,0,0,1,33.5,27Z"/><path class="cls-20" d="M33.5,27a.3.3,0,0,1-.19-.29c-.13-.2.07-.3.13-.45s.15-.57.53-.56c.19.16.1.34,0,.51Z"/><path class="cls-21" d="M27.26,40.09l.19.29c.17.43-.32.5-.42.78a.92.92,0,0,1-.26.22.22.22,0,0,1-.23-.13,1,1,0,0,1,.13-.46l.17-.23c.19,0,.2-.26.32-.36Z"/><path class="cls-5" d="M33.4,22.53v.13c0,.31-.32.4-.45.63-.29.16-.47.47-.8.58a.24.24,0,0,1-.24-.1.11.11,0,0,1,0-.13A13.35,13.35,0,0,1,33.4,22.53Z"/><path class="cls-22" d="M39.87,34.12h-.09a1.28,1.28,0,0,1-.28-.19h0c0-.31.27-.35.45-.48s.49-.36.82-.33c.28.21-.05.29-.09.43h0c-.08.08-.27,0-.29.2h0c-.11.06-.24.08-.29.22Z"/><path class="cls-21" d="M25.29,43.13h-.2c-.06-.09-.2-.1-.24-.21a4.24,4.24,0,0,1,.83-.94c.09.12,0,.25,0,.37a1.55,1.55,0,0,0-.06.37.79.79,0,0,1-.18.25C25.41,43,25.34,43.07,25.29,43.13Z"/><path class="cls-11" d="M37.63,30.2c-.14-.16-.33-.09-.51-.09H34.39s0,0,0-.06l0,0h3.53C38,30.33,37.81,30.28,37.63,30.2Z"/><path class="cls-10" d="M42.55,32.17c-.27-.07-.44.28-.72.19,0-.39.38-.44.58-.65s.36-.16.54-.22.26,0,.35.09Z"/><path class="cls-23" d="M31.07,40.4a1.54,1.54,0,0,1-.78.58.09.09,0,0,1-.13,0,.3.3,0,0,1-.05-.21,1.26,1.26,0,0,1,.65-.65.34.34,0,0,1,.22,0C31.06,40.21,31.13,40.28,31.07,40.4Z"/><path class="cls-14" d="M33.9,38.42a1.82,1.82,0,0,1-.55.41c-.12,0-.25.07-.31.21h0a.11.11,0,0,1-.14,0,.32.32,0,0,1-.05-.21.93.93,0,0,1,.57-.64.46.46,0,0,1,.36,0A.26.26,0,0,1,33.9,38.42Z"/><path class="cls-13" d="M23.13,45.48c.1-.3.2,0,.29,0,.25,0,.29.17.2.38a1.5,1.5,0,0,1-.59.39c0-.2-.29-.35-.1-.58C23,45.58,23.26,45.74,23.13,45.48Z"/><path class="cls-10" d="M31.95,23.64v.09c.06.18-.08.29-.16.42s-.46.32-.58.59c-.1.09-.18.21-.33.19a.42.42,0,0,1-.23-.24Z"/><path class="cls-5" d="M35.28,24.15l-.11-.21c-.19-.35.12-.53.25-.78a.37.37,0,0,1,.2-.09l.15,0c.07,0,.13.08.09.17Z"/><path class="cls-23" d="M30.18,41h.11a5.66,5.66,0,0,1-1,.78.34.34,0,0,1-.16-.22.28.28,0,0,1,0-.2,2.06,2.06,0,0,1,.72-.45A.32.32,0,0,1,30.18,41Z"/><path class="cls-5" d="M36.35,36.37c.14-.08.32-.12.39-.29a1,1,0,0,1,.23-.28.69.69,0,0,1,.27-.19l.14,0a.3.3,0,0,1,.25.11,11.64,11.64,0,0,1-1.29,1A.21.21,0,0,1,36.35,36.37Z"/><path class="cls-24" d="M31,35.68l.5-.58a.09.09,0,0,1,.1,0c.07.07.19.08.24.17a.3.3,0,0,1,0,.25c-.11.15-.27.27-.37.43s-.12.18-.25.18S31.06,35.81,31,35.68Z"/><path class="cls-19" d="M31.07,40.4,31,40.19c-.06-.09,0-.16,0-.24a.41.41,0,0,1,.18-.18,4,4,0,0,1,.42-.11.76.76,0,0,1,.3.07.17.17,0,0,1,.08.09Z"/><path class="cls-3" d="M44.32,30.81a.45.45,0,0,1-.43-.41,1,1,0,0,1,.33-.24h.41c.22,0,.24.16.09.28a1.32,1.32,0,0,0-.25.33Z"/><path class="cls-3" d="M44.48,30.77c0-.18-.16-.38.19-.39.1,0,.09-.11,0-.17s0,0,0-.06,0,0,0,0h.67A2.6,2.6,0,0,1,44.48,30.77Z"/><path class="cls-25" d="M30.64,24.7c.13,0,.23.07.23.21,0,.33-.26.38-.5.46s-.32,0-.29-.26Z"/><path class="cls-9" d="M44.68,30.1s0,.06,0,.1h-.49a.21.21,0,0,1-.29,0H42.62a.62.62,0,0,1-.78,0c.18-.18.41-.06.61-.11Z"/><path class="cls-3" d="M22.64,31l.49-.4c.16,0,.33-.14.49,0s0,.16,0,.24a1.59,1.59,0,0,1-.3.24,1.85,1.85,0,0,1-.25.19l-.12,0a.27.27,0,0,1-.18-.06C22.8,31.09,22.71,31,22.64,31Z"/><path class="cls-26" d="M19.31,33.61c.13.15.3.28.3.51-.19.17-.43.07-.65.11a.3.3,0,0,1-.27-.12A2.44,2.44,0,0,1,19.31,33.61Z"/><path class="cls-24" d="M27.05,27.85a.35.35,0,0,1-.2-.2l.78-.6a.5.5,0,0,1,.23.21.19.19,0,0,1,0,.13.65.65,0,0,1-.22.15A6.59,6.59,0,0,1,27.05,27.85Z"/><path class="cls-18" d="M23.62,30.2l.78-.61a.33.33,0,0,1,.16.22c0,.25-.19.3-.32.42l-.13.06-.15,0A.41.41,0,0,1,23.62,30.2Z"/><path class="cls-21" d="M26.66,40.8a.79.79,0,0,1-.1.47.93.93,0,0,1-.52.56.22.22,0,0,1-.2-.08A4.75,4.75,0,0,1,26.66,40.8Z"/><path class="cls-17" d="M18.69,34.1l.33,0c0,.11,0,.19.18.2s.23,0,.21.18a3.59,3.59,0,0,1-1.16-.07Z"/><path class="cls-25" d="M37.92,18.94l.4-.28c.21.05.14.23.18.37a.43.43,0,0,1-.17.32,1.22,1.22,0,0,1-.3,0C37.84,19.23,37.87,19.09,37.92,18.94Z"/><path class="cls-10" d="M29.2,26.28c0-.2.19-.23.32-.31a.45.45,0,0,0,.26-.51l.07-.08c.11-.06.19,0,.26.08a.43.43,0,0,1-.05.42.77.77,0,0,1-.24.25c-.1.05-.2.08-.31.12S29.31,26.35,29.2,26.28Z"/><path class="cls-22" d="M34.4,25h.33a2.41,2.41,0,0,1-.43.67c-.13.09-.21,0-.26-.09a.34.34,0,0,1,0-.13,2.51,2.51,0,0,0,.18-.41C34.28,25,34.32,25,34.4,25Z"/><path class="cls-18" d="M23.62,30.2H24c.05.23-.12.32-.27.42a.12.12,0,0,1-.12,0c-.16-.07-.33.19-.49,0Z"/><path class="cls-12" d="M28.51,26.45l-.09.23c0,.25-.14.34-.3.45a.47.47,0,0,1-.22,0c-.09,0-.21,0-.17-.2C28,26.79,28.15,26.46,28.51,26.45Z"/><path class="cls-27" d="M28.44,42.36a3.23,3.23,0,0,1-.8.57l0-.05a.28.28,0,0,1,0-.21c.17-.28.36-.51.74-.41A.2.2,0,0,1,28.44,42.36Z"/><path class="cls-23" d="M29.6,37.84l-.2-.1c-.06-.13,0-.2.1-.28l.16-.12c.17-.08.36-.32.48.05C30,37.64,29.91,37.85,29.6,37.84Z"/><path class="cls-28" d="M35.18,37.45l-.2.09a.48.48,0,0,1-.5.2.26.26,0,0,1,0-.28.29.29,0,0,1,.1-.1c.29,0,.44-.34.74-.36.11,0,.24.08.2.25h0A.78.78,0,0,0,35.18,37.45Z"/><path class="cls-19" d="M30.09,37.44c-.06-.34-.29,0-.42-.11s0-.23.12-.29a.66.66,0,0,0,.38-.4h0a.11.11,0,0,1,.14,0c.13.19,0,.38,0,.57a.47.47,0,0,1-.09.19A.12.12,0,0,1,30.09,37.44Z"/><path class="cls-21" d="M21.27,47.13c.07.13.2.11.32.12,0,0-.07.13-.12.14-.21.07-.3.49-.54.28S21.07,47.27,21.27,47.13Z"/><path class="cls-4" d="M23.62,45.85a.54.54,0,0,0-.2-.38v-.2a.21.21,0,0,1,.29,0c0,.27.25.17.4.2A1.7,1.7,0,0,1,23.62,45.85Z"/><path class="cls-19" d="M24.66,29.4a3.33,3.33,0,0,1,.72-.57.17.17,0,0,1,.21,0c0,.4-.37.51-.65.69A.28.28,0,0,1,24.66,29.4Z"/><path class="cls-3" d="M37,20.41c-.29,0-.39-.17-.48-.37a.06.06,0,0,1,.06,0c.11,0,.22-.08.33,0s.07.15.16.21S37.17,20.38,37,20.41Z"/><path class="cls-29" d="M25.84,41.74h.23a.24.24,0,0,1,.09.17c0,.2-.15.29-.25.42a.19.19,0,0,1-.18,0l0,0c-.09-.13,0-.25,0-.38Z"/><path class="cls-24" d="M38.49,19l-.18-.37.27-.22c.13-.06.23-.06.23.13A1.41,1.41,0,0,1,38.49,19Z"/><path class="cls-23" d="M31,35.68c.26,0,.13.26.2.39a.25.25,0,0,1-.21.26.24.24,0,0,1-.2-.07c-.09-.17.06-.27.11-.4S30.85,35.7,31,35.68Z"/><path class="cls-24" d="M24.66,29.4l.33,0a.12.12,0,0,1,0,.12.73.73,0,0,1-.33.32.18.18,0,0,1-.18-.05.24.24,0,0,1-.11-.22A.4.4,0,0,1,24.66,29.4Z"/><path class="cls-30" d="M22.37,46.66c-.11,0-.27,0-.12-.21s.06-.27.24-.28a.27.27,0,0,1,.25.08l.11.1C22.69,46.46,22.59,46.65,22.37,46.66Z"/><path class="cls-7" d="M37.63,30.2c.13,0,.28,0,.29-.18h.39a.18.18,0,0,0,.1.18c-.28.32-.5.32-.78,0Z"/><path class="cls-5" d="M31.65,29.22c.14,0,.28,0,.29.19l-.11.2a.3.3,0,0,1-.28.07c-.23-.13-.12-.29,0-.45A.1.1,0,0,1,31.65,29.22Z"/><path class="cls-31" d="M24.5,43.4l.1.31a.11.11,0,0,1,0,.09s0,0,0,0-.18.16-.31.06H24.1C24.11,43.64,24.33,43.54,24.5,43.4Z"/><path class="cls-25" d="M36.94,20h-.33a1,1,0,0,1,.52-.38c0,.07.21.09,0,.19s-.3,0-.07.15c0,0,.11.1,0,.12S37,20,36.94,20Z"/><path class="cls-18" d="M22.64,31c.16,0,.16.08.11.2.1.19,0,.24-.17.28a.28.28,0,0,1-.22-.09l-.1-.1Z"/><path class="cls-25" d="M34.39,30s0,.06,0,.09H32.93s0,0,0-.06,0,0,0,0Z"/><path class="cls-10" d="M38.31,35.26c.12-.33.3-.6.72-.54A3.37,3.37,0,0,1,38.31,35.26Z"/><path class="cls-32" d="M32.75,28.15,32.54,28a.3.3,0,0,1-.06-.35.19.19,0,0,1,.19-.09c.14,0,.16.16.25.23l0,0A.42.42,0,0,1,32.75,28.15Z"/><path class="cls-24" d="M34.7,37.84a1.06,1.06,0,0,1-.6.39A.23.23,0,0,1,34,38c.08-.19.21-.3.44-.24S34.64,37.77,34.7,37.84Z"/><path class="cls-33" d="M32.92,39,33,39a1.15,1.15,0,0,1-.5.38l-.07,0a.21.21,0,0,1-.07-.2.34.34,0,0,1,.25-.25A.3.3,0,0,1,32.92,39Z"/><path class="cls-10" d="M37.64,35.69h-.31c-.05-.23.16-.29.27-.41a.11.11,0,0,1,.12,0,.2.2,0,0,0,.2.1.06.06,0,0,1,.1,0C37.9,35.5,37.83,35.66,37.64,35.69Z"/><path class="cls-29" d="M24.68,45.07c-.12-.11-.06-.25-.07-.38.17-.14.31-.07.46,0l0,.06A1,1,0,0,1,24.68,45.07Z"/><path class="cls-5" d="M35.86,23.25l-.1-.1c-.11-.14,0-.27,0-.41s.09-.11.18-.08l.2.1A1.36,1.36,0,0,1,35.86,23.25Z"/><path class="cls-7" d="M34.1,25.5a.19.19,0,0,0,.2.2l-.3.48c0-.16.07-.35-.1-.49S33.9,25.43,34.1,25.5Z"/><path class="cls-5" d="M30.09,25.5l-.23-.11a.38.38,0,0,1,.23-.28l.3.2c0,.11,0,.18-.1.24A.18.18,0,0,1,30.09,25.5Z"/><path class="cls-28" d="M36.35,36.37v.29a.59.59,0,0,1-.39.21C36,36.66,36.09,36.43,36.35,36.37Z"/><path class="cls-6" d="M43.32,31.58h-.4a.16.16,0,0,1,0-.19.09.09,0,0,1,.12,0c.15,0,.41-.23.39.17Z"/><path class="cls-3" d="M37.15,21.2C37,21.14,37,21,36.84,21s0,0,0-.06,0,0,0,0v-.1c.18,0,.38,0,.41.23Z"/><path class="cls-26" d="M26.85,43.52l-.29.21a.19.19,0,0,1-.2,0c-.14-.21.06-.34.13-.49a.19.19,0,0,1,.11-.06c.15,0,.18.16.23.27Z"/><path class="cls-27" d="M29,42a1.91,1.91,0,0,1-.57.41l0,0a.19.19,0,0,1,0-.21.55.55,0,0,1,.42-.26A.25.25,0,0,1,29,42Z"/><path class="cls-18" d="M25.58,28.83h-.2a1,1,0,0,1,.39-.31.44.44,0,0,1,.3.12h0a.09.09,0,0,1,0,.08s0,0,0,0a.51.51,0,0,1-.31.15A.23.23,0,0,1,25.58,28.83Z"/><path class="cls-26" d="M26,44.13a1.43,1.43,0,0,1-.51.37.08.08,0,0,1-.12,0,.23.23,0,0,1,0-.13c0-.16.29-.1.24-.31a.35.35,0,0,1,.32,0A.18.18,0,0,1,26,44.13Z"/><path class="cls-24" d="M32.93,30v.09c-.36-.06-.74.12-1.07-.11Z"/><path class="cls-4" d="M21.66,47.23a.5.5,0,0,1,.56-.38A1,1,0,0,1,21.66,47.23Z"/><path class="cls-22" d="M38.82,18.57a.25.25,0,0,0-.23-.13.73.73,0,0,1,.45-.3A.59.59,0,0,1,38.82,18.57Z"/><path class="cls-18" d="M37.92,18.94l.1.29a.13.13,0,0,1,0,.2c-.2,0-.23-.18-.3-.31S37.82,19,37.92,18.94Z"/><path class="cls-4" d="M22.45,46.26c-.09,0,0,.24-.2.2,0-.13,0-.27-.08-.38l.18-.2a.2.2,0,0,0,.1.2A.13.13,0,0,1,22.45,46.26Z"/><path class="cls-26" d="M27.36,43.14a1.61,1.61,0,0,1-.51.37l0,0a.32.32,0,0,1,0-.31.33.33,0,0,1,.15-.12.4.4,0,0,1,.25,0A.18.18,0,0,1,27.36,43.14Z"/><path class="cls-20" d="M40.67,33.54c0-.15.22-.23.09-.4a.06.06,0,0,1,.09,0l.33,0A1.34,1.34,0,0,1,40.67,33.54Z"/><path class="cls-10" d="M35.37,36.86c.13.07.42-.21.39.18l-.08,0a.25.25,0,0,1-.27,0,.15.15,0,0,1-.08-.18Z"/><path class="cls-12" d="M34.1,38v.2c-.1,0-.07.2-.2.19a.21.21,0,0,1-.09-.19.11.11,0,0,1,0-.08s0,0,0,0S34,37.94,34.1,38Z"/><path class="cls-30" d="M24.86,42.91c.13,0,.23.06.24.21l-.41.09A.34.34,0,0,1,24.86,42.91Z"/><path class="cls-21" d="M29,42h-.2c0-.29.22-.3.39-.39a.2.2,0,0,1,.1.2Z"/><path class="cls-24" d="M30.29,36.67l-.12,0a.72.72,0,0,1,.31-.38l.06,0c.16.16-.12.25-.07.39A.15.15,0,0,1,30.29,36.67Z"/><path class="cls-19" d="M32.24,39.59l-.27.22,0,0a.3.3,0,0,1-.12-.23.23.23,0,0,1,.32-.18C32.21,39.42,32.28,39.48,32.24,39.59Z"/><path class="cls-29" d="M25.38,44.49h.11l-.39.3,0,0a.22.22,0,0,1,0-.29A.23.23,0,0,1,25.38,44.49Z"/><path class="cls-24" d="M30.86,35.87l-.09.41,0,0a.22.22,0,0,1-.22,0l0,0A.94.94,0,0,1,30.86,35.87Z"/><path class="cls-34" d="M21.56,31.84c0,.09.11.18,0,.26a.18.18,0,0,1-.29,0Z"/><path class="cls-34" d="M30.17,36.65c0,.25-.08.43-.38.4Z"/><path class="cls-34" d="M34.7,37.84h-.21s0,0,0-.06l0,0,.49-.2A.37.37,0,0,1,34.7,37.84Z"/><path class="cls-35" d="M26.36,43.71h.2a.43.43,0,0,1-.28.19.09.09,0,0,1-.14,0,.2.2,0,0,1,0-.22A.16.16,0,0,1,26.36,43.71Z"/><path class="cls-28" d="M31.56,29.61h.28l-.12.21-.07.19c-.15,0-.16-.09-.18-.19A.28.28,0,0,1,31.56,29.61Z"/><path class="cls-12" d="M29.5,37.46l-.1.28a.21.21,0,0,1-.23.08A.6.6,0,0,1,29.5,37.46Z"/><path class="cls-24" d="M38,19.43v-.2c.12,0,.24,0,.31.11l-.12.18Z"/><path class="cls-12" d="M31.56,35.11h-.1l.18-.2h.11c.1,0,.15.06.11.14S31.68,35.15,31.56,35.11Z"/><path class="cls-12" d="M27.73,27a.2.2,0,0,0,.2.11c.07.11.07.2-.1.2a.2.2,0,0,1-.2-.21Z"/><path class="cls-14" d="M38,35.39h-.1c0-.12,0-.22.16-.25s.12.07.13.15Z"/><path class="cls-2" d="M26.16,43.91h.13a.45.45,0,0,1-.29.21l0,0c-.07,0-.14-.11-.06-.19A.18.18,0,0,1,26.16,43.91Z"/><path class="cls-6" d="M43.9,31a.24.24,0,0,1,.28,0,.32.32,0,0,1-.26.22l0,0A.13.13,0,0,1,43.9,31Z"/><path class="cls-9" d="M32.24,39.59l-.09-.19,0,0a.32.32,0,0,1,.32,0l0,0C32.46,39.51,32.39,39.61,32.24,39.59Z"/><path class="cls-2" d="M27.15,40.21c0,.17-.07.36-.32.36C26.92,40.43,27,40.28,27.15,40.21Z"/><path class="cls-19" d="M26.07,28.63c-.11,0-.24,0-.3-.12s.12-.08.19-.09A.2.2,0,0,1,26.07,28.63Z"/><path class="cls-20" d="M40.38,33.74c-.13-.38.19-.14.29-.2A.41.41,0,0,1,40.38,33.74Z"/><path class="cls-6" d="M35.37,37.05h.31c0,.11-.06.2-.19.2l-.21-.21A.06.06,0,0,1,35.37,37.05Z"/><path class="cls-6" d="M35.18,37.45c0-.2.15-.21.3-.19C35.41,37.37,35.34,37.48,35.18,37.45Z"/><path class="cls-12" d="M33,39c0-.24.15-.22.31-.21A.45.45,0,0,1,33,39Z"/><path class="cls-27" d="M27.65,42.94a.46.46,0,0,1-.29.2l0,0a.18.18,0,0,1,0-.14.2.2,0,0,1,.31-.05Z"/><path class="cls-10" d="M40.09,34c0-.22.13-.24.29-.22A.43.43,0,0,1,40.09,34Z"/><path class="cls-33" d="M28,34.51H23.52a22.41,22.41,0,0,0-2.25,0,4.11,4.11,0,0,1-1-.05.33.33,0,0,1-.15-.07c-.07-.09-.13-.19,0-.28a1.34,1.34,0,0,1,.59-.06,6,6,0,0,0,2.06.18h4.52a1.37,1.37,0,0,1,.67.08A.17.17,0,0,1,28,34.51Z"/><path class="cls-28" d="M28,34.51v-.19c.17-.18.39-.14.6-.14h2.63c.29,0,.61,0,.74.35a.19.19,0,0,1-.15.19l-.09-.1c-.14-.16-.33-.1-.5-.1Z"/><path class="cls-29" d="M19.41,34.5c-.17-.18-.4,0-.59-.11s.17-.15.2-.27c.2-.1.39,0,.59,0h0c.07.06,0,.23.22.17a.36.36,0,0,1,.37,0h0a.13.13,0,0,1,0,.19Z"/><path class="cls-12" d="M21.18,34.41h1.89c.16,0,.33-.05.46.09H21.18s0,0,0-.06S21.16,34.41,21.18,34.41Z"/><path class="cls-26" d="M21.18,34.41v.09h-1v-.19A2.72,2.72,0,0,0,21.18,34.41Z"/><path class="cls-14" d="M37.68,20l-.14.13s-.07-.06-.07-.09a.14.14,0,0,1,.08-.09S37.62,20,37.68,20Z"/><path class="cls-21" d="M24.31,43.91l.29-.1c.12,0,.23,0,.35,0a.4.4,0,0,1,.26.1c.09.29-.24.39-.27.63-.1.08-.2.17-.33.07C24.25,44.45,24.25,44.45,24.31,43.91Z"/><path class="cls-17" d="M23.72,45.28h-.29l.1-.29c0-.23.06-.33.29-.19a.06.06,0,0,1,0,.06s0,0,0,0Z"/><path class="cls-29" d="M23.82,44.89v-.1c.22-.23.29,0,.41.13a.13.13,0,0,1,0,.12C24,45.16,23.94,45,23.82,44.89Z"/><path class="cls-13" d="M24.6,44.6l.29-.1a.13.13,0,0,1,.15,0l0,0,0,.27-.47-.08Z"/><path class="cls-23" d="M31.84,34.71l.1-.1c.25.2.12.4,0,.61a.18.18,0,0,1-.21,0c-.09,0-.2.1-.19-.09s.35.07.2-.21Z"/><path class="cls-20" d="M36.35,21.19c0,.17-.14.26-.2.39a3.26,3.26,0,0,1-.39.51c-.17,0-.32-.16-.5,0a3,3,0,0,0-.53.19.35.35,0,0,1-.35-.08c.24-.3.64-.33.91-.57.07-.06.15-.1.16-.21h.1c.14-.14.36,0,.49-.2s.15-.2.29-.2l0,0A.13.13,0,0,1,36.35,21.19Z"/><path class="cls-5" d="M36.84,20.9s0,.06,0,.1h-.2a.21.21,0,0,1-.29,0h0C36.45,20.64,36.66,20.84,36.84,20.9Z"/><path class="cls-5" d="M36.06,21.19c-.06.31-.32.15-.49.2C35.67,21.16,35.87,21.19,36.06,21.19Z"/><path class="cls-36" d="M32.93,23.25c0-.31.39-.34.49-.59l.2-.09a.37.37,0,0,1,.14.22,1,1,0,0,1-.17.44.4.4,0,0,1-.36.2A.38.38,0,0,1,32.93,23.25Z"/><path class="cls-8" d="M34.4,22.17h.39a.4.4,0,0,1-.14.54.47.47,0,0,1-.29,0,1.81,1.81,0,0,1-.4-.13l0-.05C34,22.32,34.32,22.42,34.4,22.17Z"/><path class="cls-36" d="M33.71,22.76a.2.2,0,0,1-.1-.19h.29a.16.16,0,0,1,0,.21A.16.16,0,0,1,33.71,22.76Z"/><path class="cls-37" d="M37.63,30.2a.73.73,0,0,0,.78,0h.29a2.75,2.75,0,0,0,.79.05c.1,0,.24,0,.18.17a.84.84,0,0,1-.53.11H33.65a1.47,1.47,0,0,1-.67-.07.12.12,0,0,1-.06-.16C34.49,30.08,36.06,30.37,37.63,30.2Z"/><path class="cls-38" d="M31.65,30.3h.1a.19.19,0,0,1,.15.15.2.2,0,0,1-.08.2.49.49,0,0,1-.38,0,1.14,1.14,0,0,1-.68-1,.28.28,0,0,1,.15-.24c.26.09.27.41.47.55A3.2,3.2,0,0,1,31.65,30.3Z"/><path class="cls-39" d="M31.85,30.59v-.2c.07-.1.22,0,.29-.1h.1c.13-.05.21,0,.29.1a.65.65,0,0,0,.39-.1v.1a.1.1,0,0,1,0,.13,1.53,1.53,0,0,1-.41.15l-.15,0C32.18,30.71,32,30.74,31.85,30.59Z"/><path class="cls-40" d="M31.65,30.3c-.13-.07-.29-.1-.3-.29a.17.17,0,0,1,0-.21.16.16,0,0,1,.21,0,.21.21,0,0,0,.1.2C31.77,30.1,31.62,30.2,31.65,30.3Z"/><path class="cls-40" d="M32.14,30.3c-.07.11-.19.09-.29.1l-.1-.1C31.88,30.12,32,30.33,32.14,30.3Z"/><path class="cls-41" d="M32.54,30.4l-.29-.1a.22.22,0,0,1,.3-.07S32.54,30.34,32.54,30.4Z"/><path class="cls-42" d="M37.72,35.29h-.1c-.13.12-.31.13-.44.25l-.32.21c-.17.07-.28.29-.51.23a2,2,0,0,1-.78.49c-.05-.08-.18,0-.22-.12a.51.51,0,0,1,.23-.33,4.28,4.28,0,0,0,1.15-.78,1,1,0,0,1,.51-.26c.23,0,.43-.28.68-.08C37.87,35,37.71,35.12,37.72,35.29Z"/><path class="cls-43" d="M40,33.53c-.16.14-.38.19-.49.39l-.78.39a.15.15,0,0,1,0-.18,1.26,1.26,0,0,1,.29-.26c.17-.13.32-.28.5-.39a4.15,4.15,0,0,0,.5-.4c.14-.07.25-.21.43-.14a.22.22,0,0,1,0,.19C40.31,33.31,40.11,33.38,40,33.53Z"/><path class="cls-44" d="M37.92,34.9c-.26,0-.41.29-.68.2,0-.41.44-.43.67-.64a.46.46,0,0,1,.29,0,.23.23,0,0,1,.12.08Z"/><path class="cls-45" d="M38.31,34.51h-.1a.15.15,0,0,1,0-.16.22.22,0,0,1,.08-.09l.24-.16a.21.21,0,0,1,.17,0l0,0v.2C38.59,34.42,38.5,34.55,38.31,34.51Z"/><path class="cls-5" d="M39.49,33.92a.28.28,0,0,1,.28.19C39.63,34.12,39.5,34.12,39.49,33.92Z"/><path class="cls-22" d="M35.77,22.07a.48.48,0,0,1,.39-.49c.16.32.19.6-.2.78-.16,0-.18-.08-.23-.17A.13.13,0,0,1,35.77,22.07Z"/><path class="cls-20" d="M35.77,22.17l.2.2v.29l-.1.1a.16.16,0,0,1-.19,0,.22.22,0,0,1-.07-.11A.69.69,0,0,1,35.77,22.17Z"/><path class="cls-6" d="M36.55,21.44c.09,0,.09.08.09.14s0,.14-.09.14-.09-.08-.09-.14S36.46,21.45,36.55,21.44Z"/><path class="cls-11" d="M36.35,21h.29c0,.2-.15.2-.29.2Z"/><path class="cls-20" d="M28.42,39.41a13.07,13.07,0,0,1,1.08-1.27.17.17,0,0,1,.14.14c-.06.43-.46.64-.65,1s-.22.49-.52.56C28.28,39.69,28.37,39.55,28.42,39.41Z"/><path class="cls-8" d="M30.09,37.44h.1l0,0c0,.2-.15.34-.13.54a.45.45,0,0,1-.06.18.22.22,0,0,1-.11.07l-.13,0a.61.61,0,0,1-.2-.24v-.19Z"/><path class="cls-11" d="M28.42,39.41c.1.13,0,.26,0,.39l0,0a.24.24,0,0,1-.26,0,.08.08,0,0,1,0-.12c.11-.07.09-.19.1-.29Z"/><path class="cls-46" d="M29.6,38a.18.18,0,0,1,.2.2.13.13,0,0,1-.19,0l-.1-.1Z"/><path class="cls-32" d="M41.84,30.2h.78a.57.57,0,0,0,.49.2c.06.39-.21.28-.41.27a.88.88,0,0,0-.5-.14,2.11,2.11,0,0,1-.45,0c-.14-.08-.38,0-.4-.28Z"/><path class="cls-40" d="M42.62,30.59c.17,0,.43.12.49-.2.44-.06.33.16.19.39a.47.47,0,0,1-.22.25.42.42,0,0,1-.33,0,.4.4,0,0,1-.17-.27.33.33,0,0,1,0-.13Z"/><path class="cls-40" d="M42.72,31h.39a.14.14,0,0,1,0,.2.2.2,0,0,0-.1.2h-.1c-.11.09-.16.31-.38.22s0-.17,0-.27A.54.54,0,0,1,42.72,31Z"/><path class="cls-36" d="M43.11,31.18V31a.18.18,0,0,1,.2-.2c.1,0,.19,0,.15.17A.29.29,0,0,1,43.11,31.18Z"/><path class="cls-25" d="M43.9,31l0,.18c-.09,0-.21,0-.24-.09a.22.22,0,0,1,.12-.24C43.87,30.8,43.88,30.91,43.9,31Z"/><path class="cls-28" d="M43.89,30.2h.29c0,.2-.15.19-.29.19Z"/><path class="cls-47" d="M41.35,30.2c.08.16.31,0,.39.2a3.24,3.24,0,0,1-2.06,0c-.29-.25-.69.06-1-.2Z"/><path class="cls-15" d="M22.74,34.31a6,6,0,0,1-2.06-.2c-.16-.1-.38,0-.52-.18a.36.36,0,0,1-.06-.21.33.33,0,0,1,.09-.2c-.1-.21.11-.27.2-.39a.27.27,0,0,1,.1.16.61.61,0,0,0,.15.39c.1.12.26.13.39.18a2.39,2.39,0,0,0,.62.18,4.52,4.52,0,0,0,.68,0C22.49,34.11,22.71,34,22.74,34.31Z"/><path class="cls-11" d="M20.39,33.33v-.2a1,1,0,0,1,.49-.39l0,.05a.3.3,0,0,0,0,.22.27.27,0,0,1-.06.19C20.74,33.34,20.61,33.49,20.39,33.33Z"/><path class="cls-33" d="M20.2,33.92a1,1,0,0,1,.49.2H20.1a.27.27,0,0,1-.39,0,.2.2,0,0,1,.1-.2A.28.28,0,0,1,20.2,33.92Z"/><path class="cls-23" d="M19.71,34.12h.39l.1.2-.36.09c-.26.06-.28-.09-.23-.29Z"/><path class="cls-46" d="M21.17,32.55h.1a.07.07,0,0,1,.12,0c0,.16-.1.22-.23.26a.3.3,0,0,1-.28-.08h0v-.1C21,32.54,21,32.44,21.17,32.55Z"/><path class="cls-14" d="M20.2,33.53v.2a.28.28,0,0,1-.39,0C19.84,33.46,20,33.55,20.2,33.53Z"/><path class="cls-18" d="M19.8,33.73h.39v.2H19.8Z"/><path class="cls-34" d="M21.17,32.55l-.29.1,0-.27C21,32.34,21.16,32.36,21.17,32.55Z"/><path class="cls-13" d="M23.13,45.48c.13.08.08.22.18.37l-.37-.18A.18.18,0,0,1,23.13,45.48Z"/><path class="cls-48" d="M22.45,46.26v-.19c.14,0,.29,0,.29.2Z"/><path class="cls-28" d="M27,41.17c0-.38.52-.4.49-.78.25,0,.22-.3.39-.39A.09.09,0,0,1,28,40c.1.23-.06.39-.13.57l-.12.23a2.26,2.26,0,0,1-.3.39l-.08.1c-.1.09-.06.33-.3.27A.35.35,0,0,1,27,41.17Z"/><path class="cls-28" d="M27.93,40h-.1c0-.19.17-.22.29-.29v.1C28.2,40,28.14,40.07,27.93,40Z"/><path class="cls-7" d="M27.83,27.26a.2.2,0,0,0,.1-.2h.2c.18-.11.31-.28.49-.39l.59-.39.29-.1a.18.18,0,0,1,0,.13,3.39,3.39,0,0,1-1.6,1.2c-.07,0-.13-.07-.1-.16S27.83,27.3,27.83,27.26Z"/><path class="cls-25" d="M28.62,26.68c-.12.18-.24.37-.49.39l.29-.39Z"/><path class="cls-49" d="M26.46,28.63l.49-.39a.14.14,0,0,1,.19,0c.13.19,0,.31-.11.44a.83.83,0,0,1-.2.21.39.39,0,0,1-.35,0,.17.17,0,0,1-.08-.12v-.07Z"/><path class="cls-7" d="M27.15,28.24H27l.2-.39a2.59,2.59,0,0,0,.49-.39.2.2,0,0,1,.2-.1l.1.1c.13.25-.11.31-.22.43a5.09,5.09,0,0,1-.5.34Z"/><path class="cls-10" d="M27.64,27.46a.42.42,0,0,1-.49.39h-.1C27.21,27.67,27.35,27.45,27.64,27.46Z"/><path class="cls-22" d="M26.17,28.63c0-.1,0-.19.17-.18s.11.1.12.18h0A.21.21,0,0,1,26.17,28.63Z"/><path class="cls-32" d="M26.17,28.63h.29v.1c-.11.11-.22.21-.38.13a.09.09,0,0,1,0-.08s0,0,0,0,0-.06,0-.1Z"/><path class="cls-49" d="M42.62,31.38l-.1.2c.06.11,0,.14-.1.2-.11.28-.48.31-.59.59h-.29a.31.31,0,0,1-.36.05.18.18,0,0,1-.07-.19c.08-.2.36-.11.44-.31.33-.18.37-.65.76-.76A.83.83,0,0,1,42.62,31.38Z"/><path class="cls-16" d="M40,33.53c0-.23.25-.27.39-.39s.16-.43.46-.26l0,.06v.19h-.09Z"/><path class="cls-50" d="M41.44,32.55a1.48,1.48,0,0,1-.59.39h0c-.1-.3,0-.46.33-.48A.3.3,0,0,1,41.44,32.55Z"/><path class="cls-51" d="M41.44,32.55h-.29a.14.14,0,0,1,0-.2h.39A.2.2,0,0,1,41.44,32.55Z"/><path class="cls-42" d="M35.37,36.37a.2.2,0,0,1,.2.1.29.29,0,0,0-.29.2.88.88,0,0,1-.29.27c-.26.13-.46.39-.78.39a.29.29,0,0,1-.13-.06.25.25,0,0,1,0-.2,1.66,1.66,0,0,1,.43-.44c.12-.07.26-.08.37-.15S35.18,36.28,35.37,36.37Z"/><path class="cls-50" d="M36.35,36c.18-.07.26-.3.49-.29s.28,0,.2.19-.14.21-.29.2S36.46,36.12,36.35,36Z"/><path class="cls-52" d="M35,36.86a.29.29,0,0,1,.29-.2.2.2,0,0,1,.1.2h0a.29.29,0,0,1-.27.08A.23.23,0,0,1,35,36.86Z"/><path class="cls-16" d="M31.65,29.22h-.1a.16.16,0,0,1-.2,0c-.08-.39.26-.65.3-1a.58.58,0,0,1,.3-.32c.13-.06.24-.19.41-.08s-.05.27-.12.4h-.1c-.18.12-.09.34-.19.49S31.59,29,31.65,29.22Z"/><path class="cls-7" d="M31.95,28.73c.09-.15-.31-.5.19-.49A.56.56,0,0,1,31.95,28.73Z"/><path class="cls-7" d="M32.24,28.24l.1-.39a.25.25,0,0,1,.09-.21.11.11,0,0,1,.11,0V28Z"/><path class="cls-53" d="M34.69,23.93c.19.13.1.26,0,.39a.34.34,0,0,1-.14.1.91.91,0,0,0-.25.14l-.12,0a.24.24,0,0,1-.11-.06.67.67,0,0,1-.1-.31,1.22,1.22,0,0,1,.14-.38c.12-.18.21-.39.46-.42A.31.31,0,0,1,34.69,23.93Z"/><path class="cls-32" d="M35.47,23.15c0,.3-.34.47-.29.78h-.29a.33.33,0,0,1,0-.42c.17-.16.21-.48.55-.41Z"/><path class="cls-50" d="M35,23.54c-.14.1-.08.26-.1.39h-.2c0-.18,0-.38-.18-.49a.1.1,0,0,1,0-.11.53.53,0,0,1,.17-.19c.09-.07.16-.15.29-.12C35.24,23.17,35,23.36,35,23.54Z"/><path class="cls-16" d="M34.2,24.52h.1a.38.38,0,0,1,.18.14l0,.05-.1.29-.1.1a.17.17,0,0,1-.21,0A.28.28,0,0,1,34,25,.58.58,0,0,1,34.2,24.52Z"/><path class="cls-47" d="M34.49,24.33h.2c0,.15.07.36-.19.39h0A.28.28,0,0,1,34.49,24.33Z"/><path class="cls-37" d="M21.86,32.06a.21.21,0,0,1,.2-.1.42.42,0,0,1,.45-.05c.14.14,0,.23-.07.32s-.28.23-.48.16A.27.27,0,0,1,21.86,32.06Z"/><path class="cls-51" d="M22.55,32h-.49a.33.33,0,0,1,.19-.2c.08-.11.13-.25.3-.27a.29.29,0,0,1,.2,0,.23.23,0,0,1,0,.2A.32.32,0,0,1,22.55,32Z"/><path class="cls-47" d="M21.86,32.06l.1.29a.15.15,0,0,1,0,.18.19.19,0,0,1-.11.06.4.4,0,0,1-.27-.17c0-.05-.07-.11,0-.17Z"/><path class="cls-5" d="M22.55,31.57l-.29.2a.32.32,0,0,1,.1-.39h.2A.13.13,0,0,1,22.55,31.57Z"/><path class="cls-7" d="M21.57,32.26l.1.1c.1.18,0,.23-.16.26a.23.23,0,0,1-.14-.06h-.1A.58.58,0,0,1,21.57,32.26Z"/><path class="cls-9" d="M27.05,43.13l-.1.1c-.1.06-.2,0-.3,0h-.09c-.16.26-.45.22-.69.29a.52.52,0,0,1-.39-.39.61.61,0,0,1,.13-.19l.09-.08a.19.19,0,0,1,.27.05c.08.09.16.07.25,0l.18-.16.11-.07a.68.68,0,0,1,.19,0h.2a.35.35,0,0,1,.18.07.22.22,0,0,1,0,.18C27,42.95,27.1,43.06,27.05,43.13Z"/><path class="cls-19" d="M25.87,43.52c.11-.37.51-.08.69-.29.06.21-.19.3-.2.49h-.19a.22.22,0,0,1-.3,0Z"/><path class="cls-4" d="M25.88,43.71h.3l0,.19c-.12,0-.28,0-.2.18h-.38a.16.16,0,0,1-.19,0,.21.21,0,0,1-.06-.12.25.25,0,0,1,0-.13c.11-.11.31,0,.41-.17Z"/><path class="cls-27" d="M24.9,43.91c-.11,0-.22,0-.29-.1v-.1c.18.05.11-.25.29-.2l.05.05A.28.28,0,0,1,24.9,43.91Z"/><path class="cls-19" d="M25.78,43.71c0,.26-.24.18-.39.2a.14.14,0,0,1,0-.15l0,0Z"/><path class="cls-19" d="M24.9,43.52a.18.18,0,0,1,.22-.19c.12,0,.16.08.17.19a.25.25,0,0,1-.2.09.3.3,0,0,1-.2-.09Z"/><path class="cls-12" d="M25.68,42.93a.18.18,0,0,1-.2.2h-.2a.2.2,0,0,1,.1-.2A.21.21,0,0,1,25.68,42.93Z"/><path class="cls-19" d="M25.09,43.52h.2a.2.2,0,0,1,.1.2h0C25.19,43.79,25,43.83,25.09,43.52Z"/><path class="cls-54" d="M32.93,26.87a.34.34,0,0,1-.19.39.61.61,0,0,1-.32.17c-.13,0-.25,0-.31-.14a.88.88,0,0,1,.37-.68c.2-.06.22-.36.48-.34C33.08,26.48,33,26.67,32.93,26.87Z"/><path class="cls-42" d="M32.93,26.87c-.22-.2.07-.39,0-.59a.14.14,0,0,1,0-.2.19.19,0,0,1,.21,0c.13.14.1.32.11.48a.12.12,0,0,1,0,.13C33.12,26.73,33.08,26.89,32.93,26.87Z"/><path class="cls-53" d="M32.44,27.36c.07-.11.19-.09.29-.1v.2a.13.13,0,0,1,0,.19h-.29C32.22,27.56,32.36,27.46,32.44,27.36Z"/><path class="cls-50" d="M33.22,26.67v-.1a.36.36,0,0,1,.2-.51c.14,0,.18.1.1.22l-.2.39Z"/><path class="cls-20" d="M32.73,27.65v-.19c.25,0,.18.22.18.37S32.74,27.77,32.73,27.65Z"/><path class="cls-53" d="M33.51,26.28a.2.2,0,0,0-.1-.2.33.33,0,0,1-.16-.21,2.25,2.25,0,0,1,.5-1,.24.24,0,0,1,.13,0,.38.38,0,0,1,.22.14v.1a.3.3,0,0,1,0,.39h0a.18.18,0,0,0-.2.2Z"/><path class="cls-34" d="M26.07,42v-.19c.15-.18.25-.4.49-.49l.2.1c.13,0,.14,0,.15.14a.19.19,0,0,1-.06.11l-.16.08c-.12.06-.11.21-.22.28C26.34,41.85,26.2,42.08,26.07,42Z"/><path class="cls-33" d="M26.85,41.56a.2.2,0,0,0-.1-.2.18.18,0,0,1,.2-.2.65.65,0,0,1,.1.39A.14.14,0,0,1,26.85,41.56Z"/><path class="cls-8" d="M32.93,23.25l.29.1c.05.14,0,.2-.14.26a1,1,0,0,0-.32.17,3,3,0,0,0-.31.2l-.12,0a.27.27,0,0,1-.19-.06.1.1,0,0,1,0-.12C32.41,23.65,32.58,23.33,32.93,23.25Z"/><path class="cls-32" d="M32.14,23.83s0,.07,0,.1a.47.47,0,0,1-.17.16.33.33,0,0,1-.17.06l-.05,0c0-.17.14-.26.2-.39Z"/><path class="cls-33" d="M25.58,42.73c0-.13-.24-.34.1-.39h0c.15.15.28,0,.41,0a.22.22,0,0,1,.13,0c.12.12.27.23.15.43a.51.51,0,0,1-.28.08c-.13,0-.24-.07-.37,0A.22.22,0,0,1,25.58,42.73Z"/><path class="cls-19" d="M25.58,42.73h.1a.13.13,0,0,1,0,.2h-.29A.34.34,0,0,1,25.58,42.73Z"/><path class="cls-7" d="M42.43,31.77l.1-.2.39-.19v.19A.57.57,0,0,1,42.43,31.77Z"/><path class="cls-15" d="M29.89,41c-.23.12-.41.35-.69.39a.09.09,0,0,1-.12,0,.34.34,0,0,1-.07-.25.44.44,0,0,1,0-.13.28.28,0,0,1,.09-.09,2.5,2.5,0,0,0,.28-.15l.11-.06a1,1,0,0,0,.26-.17,4.55,4.55,0,0,0,.51-.36c.08-.1.15-.21.29-.24h.13a.2.2,0,0,1,.1.08.16.16,0,0,1,0,.18c-.18.21-.46.33-.59.59C30.11,40.87,30,40.87,29.89,41Z"/><path class="cls-12" d="M29.89,41c0-.2.15-.2.29-.19V41Z"/><path class="cls-6" d="M30.77,40.19V40a.2.2,0,0,1,.29,0l-.1.2Z"/><path class="cls-15" d="M32.14,39.4a.3.3,0,0,0-.29.2.22.22,0,0,1-.2.1c-.16.06-.29.22-.49.1l0-.06a.6.6,0,0,1,.28-.37l.12-.05A.71.71,0,0,0,32,39l.12-.06a1.08,1.08,0,0,0,.53-.33,1.19,1.19,0,0,0,.22-.21,1.42,1.42,0,0,1,.3-.22.26.26,0,0,1,.24,0,.08.08,0,0,1,0,.11c-.14.21-.43.3-.49.59-.08.1-.21.12-.29.2l-.19.2c-.07.11-.22.09-.29.2Z"/><path class="cls-5" d="M33.42,38.23s0-.06,0-.1.09-.16.19-.18.22,0,.2.18,0,.07,0,.1Z"/><path class="cls-23" d="M32.63,39a.3.3,0,0,1,.29-.2V39Z"/><path class="cls-50" d="M30.28,25.5l.1-.19c.16-.13.38-.19.49-.39s.14-.21.29-.2.25-.33.5-.21a.41.41,0,0,1,0,.42.31.31,0,0,1-.15.14.88.88,0,0,0-.55.33c-.15.14-.29.3-.53.26A.2.2,0,0,1,30.28,25.5Z"/><path class="cls-32" d="M31.65,24.52l-.49.19c0-.39.38-.41.59-.59h0a.45.45,0,0,1,0,.41A.08.08,0,0,1,31.65,24.52Z"/><path class="cls-22" d="M35.67,23.15h-.2a.29.29,0,0,1,0-.38.15.15,0,0,1,.22,0h0A.34.34,0,0,1,35.67,23.15Z"/><path class="cls-10" d="M35.67,23.15v-.39h.2l-.1.39Z"/><path class="cls-9" d="M29.11,41.36h.1v.19c0,.26-.35.17-.39.39l-.39.2a.17.17,0,0,1-.21,0,.29.29,0,0,1,0-.28.36.36,0,0,1,.19-.19c.07,0,.2,0,.13-.17a.17.17,0,0,1,0-.11.57.57,0,0,1,.18-.09A.37.37,0,0,1,29.11,41.36Z"/><path class="cls-47" d="M37.14,35.49c.1-.23.3-.2.49-.2,0,.21-.25.22-.29.39h-.1A.22.22,0,0,1,37.14,35.49Z"/><path class="cls-51" d="M37.14,35.49a.2.2,0,0,1,.1.2l-.2.19a.18.18,0,0,0-.2-.19A.3.3,0,0,1,37.14,35.49Z"/><path class="cls-8" d="M31,36.27l.2-.2.19-.19a.41.41,0,0,1,.2.16.19.19,0,0,1,0,.13,2.1,2.1,0,0,1-.26.53l-.1.08c-.3.21-.53.51-.84.72a.17.17,0,0,1-.18,0h0v-.19a7.22,7.22,0,0,1,.51-.71A3.22,3.22,0,0,1,31,36.27Z"/><path class="cls-47" d="M31.75,35.2h.2c.28.12.07.33.09.49s-.19.43-.48.39h0c-.18-.28.05-.42.2-.59Z"/><path class="cls-10" d="M31.75,35.49a1.14,1.14,0,0,0-.2.59.18.18,0,0,1-.2-.19A.51.51,0,0,1,31.75,35.49Z"/><path class="cls-26" d="M31.65,39.7a.21.21,0,0,1,.2-.1.16.16,0,0,1,.09.18C31.83,39.8,31.72,39.81,31.65,39.7Z"/><path class="cls-15" d="M31.07,40h-.29c0-.29.17-.31.39-.2h0Z"/><path class="cls-8" d="M23.62,30.59h.1c.14-.07.23-.23.41-.25a.16.16,0,0,1,.11.08c-.14.33-.28.64-.73.57a.17.17,0,0,1,0-.21Z"/><path class="cls-8" d="M22.55,31.57v-.19a.18.18,0,0,0,.2-.2h.19a.31.31,0,0,1,.08.22c0,.15-.09.27-.28.17Z"/><path class="cls-8" d="M23,31.18a.34.34,0,0,1,.2-.19c.13-.05.22,0,.32.1a.16.16,0,0,1,0,.13.41.41,0,0,1-.28.07A.28.28,0,0,1,23,31.18Z"/><path class="cls-46" d="M23.52,31.08l-.29-.1.29-.2V31s0,0,0,.07S23.53,31.08,23.52,31.08Z"/><path class="cls-51" d="M23,31.18h.2a.16.16,0,0,1,0,.18.2.2,0,0,1-.1.08.22.22,0,0,1-.24-.06v-.2Z"/><path class="cls-46" d="M24.51,29.81h.19c.1,0,.13,0,.14.11s-.2.27-.36.35a.25.25,0,0,1-.28-.07C24.18,30,24.53,30,24.51,29.81Z"/><path class="cls-41" d="M24.21,30.2h.29c0,.22-.09.29-.29.2h-.1a.13.13,0,0,1,0-.2Z"/><path class="cls-46" d="M24.11,30.2v.2c-.14.05-.22.21-.39.2L24,30.2Z"/><path class="cls-44" d="M29.79,26.09l.2-.2a.1.1,0,0,1,.12,0,3.71,3.71,0,0,1,.22.44.6.6,0,0,1-.37.59c-.17,0-.23-.08-.27-.22a1.2,1.2,0,0,1,0-.4A.47.47,0,0,1,29.79,26.09Z"/><path class="cls-46" d="M30.09,25.89H30l.1-.39h.2l.1.1a.1.1,0,0,1,0,.11.41.41,0,0,1-.11.15C30.24,25.89,30.17,26,30.09,25.89Z"/><path class="cls-51" d="M29.79,26.09v.19a.21.21,0,0,1-.18.07.21.21,0,0,1-.11-.07v-.1C29.57,26.07,29.68,26.09,29.79,26.09Z"/><path class="cls-7" d="M34.1,25.5v-.39h.19A.34.34,0,0,1,34.1,25.5Z"/><path class="cls-12" d="M28.23,42.15h.2v.18c-.36-.06-.56.18-.77.4-.17,0-.2-.1-.25-.22C27.51,42,27.64,42,28.23,42.15Z"/><path class="cls-9" d="M27.44,42.54l.19.2v.18c-.1,0-.22,0-.28.11a.25.25,0,0,1-.29-.1v-.19a.42.42,0,0,1,.28-.25A.15.15,0,0,1,27.44,42.54Z"/><path class="cls-15" d="M33.81,38.13a.21.21,0,0,0-.2-.1c.06-.43.5-.41.75-.61a.17.17,0,0,1,.13,0v.39c-.18,0-.28.09-.39.2Z"/><path class="cls-51" d="M34.49,37.45h-.1c-.16,0-.23,0-.19-.2.31,0,.47-.36.78-.39h.1c.09.41-.31.4-.49.59Z"/><path class="cls-22" d="M34.59,37.45c.06-.28.47-.27.49-.59h.29v.19h-.1C35,37.16,34.93,37.5,34.59,37.45Z"/><path class="cls-28" d="M30.77,36.57a2,2,0,0,1-.59.68l.1-.58h.19c.11-.07.12-.28.32-.2A.07.07,0,0,1,30.77,36.57Z"/><path class="cls-11" d="M25.58,28.83h.2c.13.21-.07.3-.15.44s-.34.39-.63.25v-.1C25.13,29.16,25.46,29.1,25.58,28.83Z"/><path class="cls-9" d="M26.17,42.34h-.1a.14.14,0,0,1-.2,0c-.15-.24.27-.19.2-.39.13,0,.26-.23.39,0S26.42,42.32,26.17,42.34Z"/><path class="cls-9" d="M25.87,42.34h.2c-.13.33-.26.19-.39,0Z"/><path class="cls-24" d="M30.77,36.57v-.1a.13.13,0,0,1,0-.2H31A.3.3,0,0,1,30.77,36.57Z"/><path class="cls-7" d="M25,29.51c.24,0,.37-.23.59-.29l0,.06c0,.34-.32.49-.56.68a.24.24,0,0,1-.27-.06l-.1-.1A.66.66,0,0,1,25,29.51Z"/><path class="cls-51" d="M31.36,29.22h.2c0,.13-.1.26,0,.39v.19h-.19a.43.43,0,0,1-.19-.4C31.2,29.31,31.21,29.2,31.36,29.22Z"/><path class="cls-19" d="M32.14,39.41c0-.2.15-.2.29-.2l.07.18Z"/><path class="cls-29" d="M26.66,43.23c.1-.38.2,0,.3,0l-.12.27C26.6,43.52,26.77,43.28,26.66,43.23Z"/><path class="cls-32" d="M25.58,29.22l.2-.39.29-.1v.1a.17.17,0,0,1,0,.21c-.14.14-.27.32-.51.19Z"/><path class="cls-21" d="M25.39,44.11h.2c.14.24-.17.17-.2.29s-.18,0-.23-.11S25.22,44.06,25.39,44.11Z"/><path class="cls-48" d="M25.19,44.3l.2.1a.53.53,0,0,1,0,.09h-.29C25,44.38,25,44.3,25.19,44.3Z"/><path class="cls-48" d="M27.05,42.93l.29.1a.21.21,0,0,1,0,.08l-.28,0C27,43.06,26.94,43,27.05,42.93Z"/><path class="cls-23" d="M30.77,36.27v.2c-.15,0-.11.26-.3.19s.12-.23,0-.37Z"/><path class="cls-22" d="M22.74,34.31c-.21-.19-.46-.06-.68-.1s-.35.06-.49-.1c.15-.16.35-.13.54-.14h8.56c.26,0,.62-.12.69.33H22.74Z"/><path class="cls-51" d="M31.36,34.31c-.13-.27-.39-.19-.6-.19h-8.7c-.1-.08-.19-.15,0-.27a.55.55,0,0,1,.17-.05c1.78-.07,3.55.17,5.33.08a2.23,2.23,0,0,0,.68-.06,2.41,2.41,0,0,1,.89,0,10.4,10.4,0,0,0,2.18,0c.23-.06.41.08.6.16a1,1,0,0,1,.55.5,1.17,1.17,0,0,1-.15.94,1,1,0,0,1-.18.23.12.12,0,0,1-.13,0V35.2c0-.2.11-.39,0-.59S31.6,34.32,31.36,34.31Z"/><path class="cls-23" d="M25.09,43.52c0,.2.15.2.29.2V44c-.11.06-.14,0-.2-.1H24.9v-.39Z"/><path class="cls-27" d="M25.19,43.91l.2.1s0,.07,0,.1a.34.34,0,0,0-.2.19.2.2,0,0,0-.1.2h-.2C24.76,44.18,25.16,44.14,25.19,43.91Z"/><path class="cls-41" d="M34.59,22.66a1,1,0,0,0,.2-.49c.1-.23.3-.19.49-.2a.55.55,0,0,1,.23.57.41.41,0,0,1-.24.14,2.53,2.53,0,0,0-.31.14.43.43,0,0,1-.28,0C34.61,22.79,34.56,22.75,34.59,22.66Z"/><path class="cls-7" d="M35.47,22.56l-.2-.59c.23-.32.36-.12.49.1v.1a1.76,1.76,0,0,1-.1.59h-.2l0,0A.13.13,0,0,1,35.47,22.56Z"/><path class="cls-43" d="M33,23.54l.2-.2a.3.3,0,0,0,.29-.2.63.63,0,0,1,.18-.09,1.36,1.36,0,0,0,.5-.13c.14,0,.2.09.24.2a.43.43,0,0,1-.05.26,1.15,1.15,0,0,1-.44.4l-.13,0-.12,0a.19.19,0,0,0-.3,0,.37.37,0,0,1-.26,0,.22.22,0,0,1-.14-.14A.16.16,0,0,1,33,23.54Z"/><path class="cls-16" d="M34.4,23.15,34.2,23c-.13.15-.36.05-.49.2h-.2l.2-.39h.2c.11-.12.26-.09.39-.1h.29l.1.1a.17.17,0,0,1,0,.17.71.71,0,0,1-.21.23A.11.11,0,0,1,34.4,23.15Z"/><path class="cls-41" d="M34.3,22.66c-.1.14-.26.08-.39.1v-.19C34,22.58,34.19,22.52,34.3,22.66Z"/><path class="cls-45" d="M32.93,30.49s0-.07,0-.1h6.27c.29.14.62,0,.9.11,0,.15-.15.18-.27.2-1.25,0-2.5,0-3.76,0-.9,0-1.8,0-2.7-.09A.59.59,0,0,1,32.93,30.49Z"/><path class="cls-49" d="M40.07,30.5c-.29,0-.61.1-.88-.1h3a.37.37,0,0,1,.19.23.66.66,0,0,1,0,.39.18.18,0,0,1-.11.1,4.14,4.14,0,0,0-1.91-.41A.31.31,0,0,1,40.07,30.5Z"/><path class="cls-55" d="M30.87,29.61c-.07.49.33.69.59,1a.16.16,0,0,1,0,.22.35.35,0,0,1-.38,0c-.15-.3-.58-.4-.6-.79a.42.42,0,0,1,.09-.27C30.66,29.69,30.72,29.57,30.87,29.61Z"/><path class="cls-54" d="M31.46,30.79v-.2h1c0,.19-.13.23-.25.29A.81.81,0,0,1,31.46,30.79Z"/><path class="cls-49" d="M31.26,29.42l.1.39V30c-.3-.08-.31-.36-.39-.59a.22.22,0,0,1,.11-.07A.21.21,0,0,1,31.26,29.42Z"/><path class="cls-54" d="M31.07,29.42H31a.2.2,0,0,0-.1.19l-.2.2a.29.29,0,0,1-.09-.19.66.66,0,0,1,.14-.41.25.25,0,0,1,.26-.1C31.1,29.19,31.17,29.28,31.07,29.42Z"/><path class="cls-38" d="M32.93,30.49c1,0,2.09.17,3.13.1a.11.11,0,0,1,0,.15c-.5.21-1,0-1.54.15a5.68,5.68,0,0,1-1.38,0,3,3,0,0,1-.57-.29C32.64,30.45,32.79,30.51,32.93,30.49Z"/><path class="cls-56" d="M32.53,30.59c.17,0,.43-.12.49.2a.28.28,0,0,1-.16.26.69.69,0,0,1-.63,0,.17.17,0,0,1,0-.22l.2-.19Z"/><path class="cls-56" d="M37.92,34.51c-.15.28-.53.31-.69.59-.37,0-.54.36-.8.55a2,2,0,0,1-.87.43.17.17,0,0,1,0-.2c.31-.29.72-.45,1-.81.13-.08.29-.1.4-.21a2.06,2.06,0,0,0,.68-.58A1.22,1.22,0,0,1,38,34a.3.3,0,0,1,.28.05.17.17,0,0,1,0,.21h0C38.14,34.41,38,34.41,37.92,34.51Z"/><path class="cls-57" d="M35.57,35.88v.2c0,.15-.14.19-.2.29l-.49.2a.23.23,0,0,1-.22-.12c.07-.33.41-.38.59-.59a.28.28,0,0,1,.26,0Z"/><path class="cls-58" d="M40.37,32.94c-.14.06-.22.21-.39.2a.25.25,0,0,1-.29,0c-.15-.37.23-.37.38-.54s.35-.45.68-.32a.22.22,0,0,1,.08.12C40.84,32.75,40.58,32.83,40.37,32.94Z"/><path class="cls-58" d="M39.49,33.53a1,1,0,0,1-.49.39.17.17,0,0,1-.2,0,.23.23,0,0,1,0-.21.71.71,0,0,1,.22-.28c.22-.1.3-.48.64-.32C39.7,33.31,39.59,33.42,39.49,33.53Z"/><path class="cls-45" d="M40.37,32.94c.06-.22.37-.24.39-.49s.12-.27.28-.32h.06l.05,0v.39c-.29,0-.21.25-.29.39-.25-.15-.32.16-.49.2Z"/><path class="cls-59" d="M39.49,33.53l.1-.39a.06.06,0,0,1,.1,0H40C39.85,33.32,39.74,33.51,39.49,33.53Z"/><path class="cls-45" d="M38.8,33.92H39a.3.3,0,0,1-.29.2h0C38.64,34,38.64,33.92,38.8,33.92Z"/><path class="cls-60" d="M37.92,34.51c0-.2.15-.2.29-.2v.2Z"/><path class="cls-61" d="M38.8,33.92a.2.2,0,0,0-.1.2h-.19a.21.21,0,0,1-.29,0h-.29c-.24-.38.14-.4.31-.54.19,0,.41,0,.57.15Z"/><path class="cls-60" d="M38.21,34.12h.29c0,.2-.15.2-.29.2Z"/><path class="cls-40" d="M30.38,40.19c-.1.27-.37.3-.59.39s-.21.12-.29.2h0c-.11.1-.28.09-.39.2h0A1.32,1.32,0,0,1,28,41a.22.22,0,0,1-.06-.21,1.48,1.48,0,0,0,.15-.61.81.81,0,0,1,.29-.4h0l.49-.59c.17.19.08.38,0,.57l-.08.18c-.09.2-.18.43,0,.59s.32-.08.47-.14a3.58,3.58,0,0,0,.67-.28.43.43,0,0,1,.36,0Z"/><path class="cls-16" d="M28.81,39.8a1.74,1.74,0,0,0,.1-.59c.14-.39.55-.58.69-1h.29c.12.16,0,.29-.08.38a4.32,4.32,0,0,0-.75,1.17.23.23,0,0,1-.12.06A.2.2,0,0,1,28.81,39.8Z"/><path class="cls-62" d="M29,39.8a2,2,0,0,1,.58-1.1c.13-.12.3-.25.3-.47H30a.16.16,0,0,1,.2,0c.08.14,0,.28,0,.41a4.43,4.43,0,0,1-.32.61c-.23.19-.34.5-.63.63A.22.22,0,0,1,29,39.8Z"/><path class="cls-42" d="M30.18,38.23H30V38c.09-.07.11-.19.2-.26a3.37,3.37,0,0,0,1-1.11h.1a.13.13,0,0,1,.19,0c.1.22,0,.4-.09.6a.53.53,0,0,1-.12.16,4.08,4.08,0,0,0-.31.32c-.2.17-.32.42-.56.55A.18.18,0,0,1,30.18,38.23Z"/><path class="cls-47" d="M30.19,37.84a.18.18,0,0,1-.2.2c-.08-.24.14-.39.2-.59h.19C30.52,37.68,30.3,37.73,30.19,37.84Z"/><path class="cls-22" d="M28.42,39.8c0,.17-.14.26-.2.39s-.1.36-.3.44a.19.19,0,0,1-.19,0l.2-.59a.18.18,0,0,0,.2-.2Z"/><path class="cls-41" d="M42.33,30.59l-.1-.2c.15,0,.36-.07.39.19h0A.21.21,0,0,1,42.33,30.59Z"/><path class="cls-37" d="M42.33,31.08V31c.11-.09.17-.22.29-.29s.09.19.1.29l-.1.39c-.14,0-.28,0-.29-.2t0-.07S42.32,31.08,42.33,31.08Z"/><path class="cls-53" d="M42.62,30.69c0,.22-.08.32-.29.29v-.39h.29Z"/><path class="cls-20" d="M20.39,33.33c.21.06.3-.19.49-.2.2.21.2.22-.08.61a.19.19,0,0,1-.22,0C20.33,33.69,20.41,33.49,20.39,33.33Z"/><path class="cls-7" d="M22,33.92l.1.19h-.49a.65.65,0,0,1-.59-.2c.16-.17.38-.12.58-.13A.51.51,0,0,1,22,33.92Z"/><path class="cls-41" d="M21.57,33.92H21c-.15,0-.36.07-.39-.2h.2a.4.4,0,0,1,.37-.08C21.3,33.72,21.55,33.66,21.57,33.92Z"/><path class="cls-47" d="M21.18,33.73h-.39c0-.21.29-.35.1-.59v-.2a.33.33,0,0,1,.28-.09.36.36,0,0,1,.21.05.21.21,0,0,1,.05.19c-.05.14-.19.23-.18.4a.42.42,0,0,1,0,.18Z"/><path class="cls-20" d="M21.17,32.94h-.29c-.11-.07,0-.13,0-.2h.29A.13.13,0,0,1,21.17,32.94Z"/><path class="cls-40" d="M21.17,32.94v-.2a.34.34,0,0,0,.2-.19h.1c.09.09.19.19.13.33s-.13.12-.23.06Z"/><path class="cls-46" d="M28,41h1.08s0,.07,0,.1c-.05.21-.32.2-.39.39h-.19c-.18.13-.35.26-.59.13a.27.27,0,0,1-.08-.16c0-.15-.12-.08-.2,0a.21.21,0,0,1-.12,0,.46.46,0,0,1-.19-.23c0-.19.19-.27.29-.39A.79.79,0,0,1,28,41Z"/><path class="cls-15" d="M27.93,41.56c.22.1.37-.19.59-.1t0,.1c.06.11,0,.14-.1.2l-.2.1a.27.27,0,0,1-.21.07c-.37-.12-.72.06-1.08.05-.12-.12-.2-.25-.09-.42h.2c.16-.08,0-.31.2-.39a2.29,2.29,0,0,1,.18.18C27.54,41.56,27.81,41.37,27.93,41.56Z"/><path class="cls-46" d="M28,41c-.15,0-.36.07-.39-.2a.2.2,0,0,1,.1-.2h.2c.16,0,.16.08.1.2Z"/><path class="cls-5" d="M27.34,41.36a.2.2,0,0,1-.1-.2h.1a.18.18,0,0,1,.2.2A.14.14,0,0,1,27.34,41.36Z"/><path class="cls-53" d="M29.5,26.28h.1a.37.37,0,0,1,.08.34.68.68,0,0,1,0,.14.65.65,0,0,1-.68.44c-.25.07-.38.29-.55.45s-.32.32-.58.29a.28.28,0,0,1-.19-.1c0-.17.3-.18.29-.39A7.82,7.82,0,0,0,29.5,26.28Z"/><path class="cls-60" d="M26.85,28.83a.2.2,0,0,1,.1-.2.18.18,0,0,1,.18,0c.11.16.35.12.46.3s-.08.2-.2.24c-.3,0-.46.25-.69.37a1.31,1.31,0,0,0-.42.17c-.15.08-.35.05-.44.24s-.34.51-.71.33A.2.2,0,0,1,25,30a5.18,5.18,0,0,1,.76-.69c.16-.14.36-.23.53-.36l.12,0C26.59,28.91,26.75,29,26.85,28.83Z"/><path class="cls-42" d="M27.15,28.63H27c.05-.14.21-.22.2-.39h0a.43.43,0,0,1,.41-.07.23.23,0,0,1,.1.09A.46.46,0,0,1,27.15,28.63Z"/><path class="cls-37" d="M26.46,29h-.1a.2.2,0,0,1-.25,0l0,0v-.19l.39-.1v.1A.13.13,0,0,1,26.46,29Z"/><path class="cls-42" d="M26.46,29v-.2h.39C26.82,29.09,26.62,29,26.46,29Z"/><path class="cls-62" d="M27.64,28.24h-.49a.87.87,0,0,1,.49-.39h.2C27.95,28.07,27.79,28.15,27.64,28.24Z"/><path class="cls-59" d="M42.33,31.08v.1c-.33.2-.32.72-.78.78a.09.09,0,0,1-.12,0,.24.24,0,0,1,0-.19c.23-.63.16-.75-.53-.88l-.19,0c-.26-.12-.64.14-.81-.26a.2.2,0,0,0,.2-.1,2.41,2.41,0,0,0,1,.1A2.59,2.59,0,0,1,42.33,31.08Z"/><path class="cls-45" d="M41.45,32h.1c0,.4-.28.1-.39.2h0C41.08,31.84,41.25,31.89,41.45,32Z"/><path class="cls-51" d="M34.2,37.25a.34.34,0,0,0,.19.2c-.17.32-.62.26-.78.59a.2.2,0,0,0-.2.1l-.2.1,0-.05a.48.48,0,0,1,.1-.38,1.58,1.58,0,0,1,.57-.4,1.89,1.89,0,0,1,.26-.15Z"/><path class="cls-56" d="M34.49,36.66c0,.23-.25.27-.39.39a.32.32,0,0,1-.28.08.29.29,0,0,1-.13-.07.24.24,0,0,1,0-.22.65.65,0,0,1,.47-.31.75.75,0,0,1,.35,0,.08.08,0,0,1,0,.08S34.5,36.66,34.49,36.66Z"/><path class="cls-45" d="M33.81,37.06h.29v.2a.18.18,0,0,1-.2.2c-.16.08-.3.1-.35-.13S33.7,37.12,33.81,37.06Z"/><path class="cls-56" d="M34.49,36.66v-.1c0-.16.08-.16.2-.1a.21.21,0,0,1,.2.1C34.78,36.71,34.63,36.65,34.49,36.66Z"/><path class="cls-44" d="M31.07,29.42l-.1-.28c-.09-.15,0-.24.1-.34a.39.39,0,0,0,.2-.27,1.08,1.08,0,0,1,.12-.28.34.34,0,0,1,.15-.12.18.18,0,0,1,.2.13c0,.39-.28.64-.39,1a.2.2,0,0,0-.1.2Z"/><path class="cls-44" d="M32.44,27.36c0,.1-.11.2,0,.29a.2.2,0,0,1-.1.2c-.15,0-.19.14-.29.19a1,1,0,0,1-.23-.45.28.28,0,0,1,0-.13.43.43,0,0,1,.08-.1c.08,0,.13-.2.25-.07S32.33,27.36,32.44,27.36Z"/><path class="cls-58" d="M31.86,27.56c.22.1.1.33.18.49a.3.3,0,0,0-.3.2l-.19-.1c-.07-.11,0-.22,0-.33a.5.5,0,0,1,.07-.19C31.69,27.56,31.76,27.49,31.86,27.56Z"/><path class="cls-63" d="M33.79,23.73h.11a1.06,1.06,0,0,1,.28.19l-.17.3a1.14,1.14,0,0,1-.17.33c-.09.12-.18.24-.29.35a.25.25,0,0,1-.12.05c-.43-.23-.12-.56-.11-.85S33.62,23.83,33.79,23.73Z"/><path class="cls-64" d="M34.18,23.93c-.14,0-.27,0-.28-.19l.4-.39a.12.12,0,0,1,.19,0,.27.27,0,0,0,0,.09Z"/><path class="cls-59" d="M33.8,24.52a.39.39,0,0,1,.22-.29c.11.07.08.19.09.29a.46.46,0,0,1-.2.39h-.1a.09.09,0,0,1-.12,0C33.6,24.74,33.75,24.65,33.8,24.52Z"/><path class="cls-45" d="M33.91,24.91a.53.53,0,0,1,.2-.39h.1l-.1.49A.2.2,0,0,1,33.91,24.91Z"/><path class="cls-37" d="M34.49,24.33v.39a.2.2,0,1,1,0-.39Z"/><path class="cls-47" d="M35,22.76a.33.33,0,0,1,.2-.2c.07.1.22.1.29.2h0v.39c-.32-.06-.32.27-.49.39,0-.17.1-.37-.1-.5a.12.12,0,0,1,0-.1A.42.42,0,0,1,35,22.76Z"/><path class="cls-65" d="M34.88,23V23l-.2.19c-.05-.05-.14,0-.19-.09a.19.19,0,0,1,.19-.2C34.75,22.94,34.82,22.69,34.88,23Z"/><path class="cls-66" d="M34.49,23.15c.08,0,.2-.1.19.09l-.18.11h-.19l.09-.2Z"/><path class="cls-38" d="M21.86,32.55H22a1.33,1.33,0,0,0,.39-.39.34.34,0,0,0,.2-.2.34.34,0,0,1,.2-.2,1.28,1.28,0,0,0,.49-.39h0a.09.09,0,0,1,.13,0,.53.53,0,0,1,.07.36c0,.31-.34.3-.5.45l-.26.22c-.17.11-.28.3-.47.4a.37.37,0,0,1-.36-.05A.17.17,0,0,1,21.86,32.55Z"/><path class="cls-39" d="M22.35,32.16a.41.41,0,0,1-.39.39v-.19C22.13,32.37,22.21,32.21,22.35,32.16Z"/><path class="cls-43" d="M23.23,31.38c0,.37-.21.41-.49.39v-.2a.18.18,0,0,0,.2-.2Z"/><path class="cls-52" d="M21.86,32.55v.2a.4.4,0,0,1-.29.46.22.22,0,0,1-.2-.07v-.2c.34-.05.05-.26.1-.39a.18.18,0,0,0,.2-.2Z"/><path class="cls-3" d="M26.17,42.34c.11-.13.27-.2.29-.39s-.07-.36.2-.39c.11.11.13.28.24.39a.51.51,0,0,1,.12.39.68.68,0,0,1-.17.39h-.2c-.07-.1-.13-.09-.2,0h0a.06.06,0,0,1-.1,0Z"/><path class="cls-18" d="M26.86,42.73c0-.14,0-.29.1-.39s.17-.37.42-.2a.41.41,0,0,1,0,.39c-.1.06-.14.21-.29.2Z"/><path class="cls-14" d="M26.27,42.93a.18.18,0,0,1-.22.19c-.12,0-.16-.08-.17-.19a.27.27,0,0,1,.2-.09A.24.24,0,0,1,26.27,42.93Z"/><path class="cls-18" d="M26.27,42.93h-.2a.13.13,0,0,1,0-.2h.39A.18.18,0,0,1,26.27,42.93Z"/><path class="cls-3" d="M26.46,42.73c0-.12,0-.25.08-.35.17.09.09.24.12.35Z"/><path class="cls-34" d="M26.07,42.73v.2h-.19c-.07-.11-.13,0-.2,0v-.2Z"/><path class="cls-67" d="M32.15,27.29l-.2.15c-.2-.36.14-.54.25-.79a.63.63,0,0,1,.11-.18.26.26,0,0,1,.13,0,.22.22,0,0,1,.12.06.16.16,0,0,1,0,.19A1.64,1.64,0,0,0,32.15,27.29Z"/><path class="cls-58" d="M32.53,26.67v-.19c0-.2.12-.37.34-.42l0,0v.18C32.76,26.38,32.79,26.67,32.53,26.67Z"/><path class="cls-38" d="M33.32,25.89a.2.2,0,0,1,.1.2c-.09.15-.24.28-.2.49-.16-.14-.07-.32-.1-.49s0-.18.06-.24A.14.14,0,0,1,33.32,25.89Z"/><path class="cls-61" d="M33.22,25.89a.2.2,0,0,0-.1.2l-.19,0,0,0a.25.25,0,0,1,0-.21c.08-.16.07-.43.38-.33A.36.36,0,0,1,33.22,25.89Z"/><path class="cls-58" d="M33.22,25.89v-.44a.87.87,0,0,1,.1-.29.54.54,0,0,1,.2-.23h0c0-.07.09-.07.15,0l.13,0c0,.39-.41.61-.49,1Z"/><path class="cls-25" d="M26.85,42c-.26,0-.18-.24-.2-.39h.2L27,42A.06.06,0,0,1,26.85,42Z"/><path class="cls-43" d="M33,23.64l.1.1a.23.23,0,0,1,0,.34.54.54,0,0,1-.26.13.37.37,0,0,1-.21,0,.49.49,0,0,1-.21-.25c0-.2.15-.2.29-.2S32.9,23.59,33,23.64Z"/><path class="cls-16" d="M31.94,24a.21.21,0,0,1,.2-.1h.19a.15.15,0,0,1,0,.18.25.25,0,0,1-.11.08.37.37,0,0,1-.33,0A.09.09,0,0,1,31.94,24Z"/><path class="cls-62" d="M32.34,24.13v-.19h.1a.18.18,0,0,1,.2.2A.2.2,0,0,1,32.34,24.13Z"/><path class="cls-16" d="M33,23.64l-.29.1c0-.2.15-.2.29-.2Z"/><path class="cls-50" d="M31.94,24v.1a.33.33,0,0,1,.09.2.3.3,0,0,1-.08.21.17.17,0,0,1-.21,0c0-.13-.09-.26,0-.39Z"/><path class="cls-50" d="M31.16,39.8c-.17,0-.32,0-.39.2h-.1a.31.31,0,0,1-.09-.2c.1-.37.42-.43.72-.53a.18.18,0,0,1,.15.14Z"/><path class="cls-10" d="M28.71,41.46c-.07-.34.3-.22.39-.39v.29A.67.67,0,0,0,28.71,41.46Z"/><path class="cls-16" d="M30.67,39.8V40c-.15,0-.19.14-.29.2h0a.34.34,0,0,1-.09-.21.3.3,0,0,1,.09-.21A.24.24,0,0,1,30.67,39.8Z"/><path class="cls-46" d="M29.11,41c.07-.18.22-.21.39-.2A.34.34,0,0,1,29.11,41Z"/><path class="cls-46" d="M29.5,40.78a.29.29,0,0,1,.29-.2C29.78,40.78,29.64,40.78,29.5,40.78Z"/><path class="cls-32" d="M32.73,38.62c-.14.21-.29.42-.59.39a.19.19,0,0,1,0-.21.55.55,0,0,1,.42-.28A.26.26,0,0,1,32.73,38.62Z"/><path class="cls-47" d="M32.14,38.82V39H32c-.12.08-.16.3-.37.23a.2.2,0,0,1-.08-.11c0-.27.14-.42.42-.39A.23.23,0,0,1,32.14,38.82Z"/><path class="cls-32" d="M31.65,39.21,32,39a.42.42,0,0,1-.49.39C31.5,39.3,31.57,39.25,31.65,39.21Z"/><path class="cls-8" d="M32.73,38.62h-.2a.17.17,0,0,1,0-.19.25.25,0,0,1,.21-.15.28.28,0,0,1,.22.14A.18.18,0,0,1,32.73,38.62Z"/><path class="cls-51" d="M32.93,38.43a.2.2,0,0,1-.2-.1.1.1,0,0,1,0-.13.39.39,0,0,1,.21-.07.36.36,0,0,1,.27.1h0Z"/><path class="cls-47" d="M31.65,39.21l-.1.2h-.1l-.1-.1a.09.09,0,0,1,0-.13.22.22,0,0,1,.28,0Z"/><path class="cls-59" d="M30.38,25.7v-.1c.31,0,.45-.27.64-.45s.23-.29.43-.14,0,.26,0,.39a.48.48,0,0,1-.05.12c-.11.13-.28.21-.29.4s-.1.2-.24.19A4.62,4.62,0,0,1,30.38,25.7Z"/><path class="cls-59" d="M31.75,24.52h.2c.18-.09.24,0,.24.17a.51.51,0,0,1-.42.32.29.29,0,0,1-.21-.09l.1-.39Z"/><path class="cls-57" d="M31.56,24.91h.19c.1.1.22.22.12.37a.4.4,0,0,1-.51.12.65.65,0,0,1,.1-.39Z"/><path class="cls-3" d="M27.34,42.54v-.39a.68.68,0,0,1,.69-.29h.2v.29c-.26.14-.73-.16-.78.39Z"/><path class="cls-3" d="M28.42,41.75l.1-.2c.09,0,.24,0,.21.14S28.53,41.73,28.42,41.75Z"/><path class="cls-49" d="M30.19,37.84c.05-.14.21-.22.19-.39a3.49,3.49,0,0,1,.78-.78A1.68,1.68,0,0,1,30.19,37.84Z"/><path class="cls-49" d="M31.46,36.66h-.2c.11-.19.08-.45.29-.59a1,1,0,0,0,.39-.39H32a.19.19,0,0,1,0,.19c-.22.24-.21.65-.57.78Z"/><path class="cls-43" d="M25.09,30v.26c-.46.42-1,.78-1.46,1.16a.2.2,0,0,1-.12-.06.16.16,0,0,1,0-.19s0-.07,0-.1,0-.07,0-.1c.33-.07.49-.35.69-.59a.29.29,0,0,0,.29-.2l.29-.29h.29s0,0,0,.07S25.1,30,25.09,30Z"/><path class="cls-43" d="M23.53,31.18v.2a.14.14,0,0,1-.2,0h-.1v-.2Z"/><path class="cls-61" d="M30,26.87c0-.22.32-.33.3-.59l0,0a.35.35,0,0,1,.26,0,.24.24,0,0,1,.11.08c0,.18-.1.29-.19.41a.77.77,0,0,1-.4.23A.19.19,0,0,1,30,26.87Z"/><path class="cls-38" d="M30.09,25.89l.2-.1a.25.25,0,0,1,.24.11c.07.22-.11.28-.24.37h0C30,26.25,30.1,26,30.09,25.89Z"/><path class="cls-54" d="M30,26.87h.1c0,.25-.11.33-.33.33s-.27-.3-.16-.52h0a.13.13,0,0,1,.2,0A.17.17,0,0,0,30,26.87Z"/><path class="cls-43" d="M29.79,26.67h-.2v-.39h.2Z"/><path class="cls-55" d="M30.48,25.89a.21.21,0,0,1-.2-.1l.1-.1a.48.48,0,0,1,.49.39.27.27,0,0,1-.05.18.11.11,0,0,1-.12,0l-.12,0C30.47,26.17,30.59,26,30.48,25.89Z"/><path class="cls-52" d="M25.09,30v-.1c.08-.29.44-.38.49-.68l.49-.2h0c.05.19-.15.25-.2.39C25.59,29.58,25.45,29.93,25.09,30Z"/><path class="cls-58" d="M31.85,34.12l-.49-.19a13,13,0,0,1-2.25,0h-.88c-1.54,0-3.09,0-4.63-.06-.21-.13-.49-.06-.67-.25a.11.11,0,0,1,0-.13,4.37,4.37,0,0,1,1.42-.06.75.75,0,0,0,.62-.17.43.43,0,0,1,.12-.09,2.88,2.88,0,0,1,1.51.08l.15,0c.48.24,1,0,1.51.18a14.74,14.74,0,0,0,2.67.14,1.88,1.88,0,0,1,.58,0A.44.44,0,0,1,31.85,34.12Z"/><path class="cls-62" d="M23.53,33.73c.14.16.33.09.5.09h3.69c.17,0,.36-.06.5.09-.05,0-.11.09-.16.09-1.27,0-2.54.08-3.81-.06a20.7,20.7,0,0,0-2.2,0c-.09-.07-.19-.14,0-.26a1.36,1.36,0,0,1,.59-.07C22.9,33.66,23.22,33.66,23.53,33.73Z"/><path class="cls-38" d="M31.85,34.12c-.06-.13-.21-.22-.2-.39.42-.14.61.22.84.43a2.38,2.38,0,0,1,.46.56c.05.21-.06.41-.07.62a.36.36,0,0,1-.45.38.31.31,0,0,1-.1-.18c-.1-.34.26-.68,0-1Z"/><path class="cls-62" d="M29.11,33.92h2.25A5.35,5.35,0,0,1,29.11,33.92Z"/><path class="cls-62" d="M32.34,34.51c.17.12.37.2.15.47-.09.11,0,.34-.05.51a.21.21,0,0,1-.29,0A1.8,1.8,0,0,0,32.34,34.51Z"/><path class="cls-42" d="M32.14,35.49h.29v.2c.12.19,0,.31-.12.42S32.1,36,32,35.88v-.2A.2.2,0,0,1,32.14,35.49Z"/><path class="cls-50" d="M22,33.73l.1.19h-.49c-.08-.16-.31,0-.39-.2h0a.62.62,0,0,1,.48-.13A.4.4,0,0,1,22,33.73Z"/><path class="cls-32" d="M35.47,22.76c-.14,0-.28,0-.29-.2h.29Z"/><path class="cls-68" d="M34.88,23c-.06-.1-.13,0-.2,0v-.19H35A.2.2,0,0,1,34.88,23Z"/><path class="cls-59" d="M33,24c.12-.07.09-.19.1-.29h.29a.21.21,0,0,1,.29,0h.09c0,.21-.32.19-.38.39a.28.28,0,0,1-.24.17C33,24.26,32.92,24.21,33,24Z"/><path class="cls-37" d="M33.71,23.15c.1-.23.3-.19.49-.2C34.14,23.27,33.88,23.11,33.71,23.15Z"/><path class="cls-39" d="M33.7,23.73h-.29c0-.07-.08-.16,0-.18S33.7,23.55,33.7,23.73Z"/><path class="cls-58" d="M39.88,30.59c.25.24.63,0,.88.2l-.07.06a4.9,4.9,0,0,1-1.26.08c-.94,0-1.88,0-2.82,0-.2,0-.48.09-.56-.23v-.1Z"/><path class="cls-57" d="M32.24,30.79V31c0,.18-.08.23-.24.22a1.47,1.47,0,0,0-.94,0c-.39.11-.5,0-.38-.46a.3.3,0,0,1,.39,0h1.17Z"/><path class="cls-61" d="M31.07,30.79h-.39l-.05,0c-.09-.16-.32-.08-.41-.24s0-.49.36-.52c0,.17.07.36.28.39S31.05,30.62,31.07,30.79Z"/><path class="cls-69" d="M30.58,30c-.18.16-.34.32-.29.59a.33.33,0,0,1-.08.1c-.11.06-.2.19-.35.07a.45.45,0,0,1,.06-.38c.1-.22.28-.39.39-.6a.61.61,0,0,1,.17-.21.18.18,0,0,1,.19,0v.21A.2.2,0,0,0,30.58,30Z"/><path class="cls-70" d="M31.45,28.24l-.09.29c-.07.09-.1.22-.19.3l-.19.3-.19.1,0,0c-.05-.21.12-.35.16-.53a1,1,0,0,1,.19-.24.87.87,0,0,1,.24-.18A.15.15,0,0,1,31.45,28.24Z"/><path class="cls-70" d="M30.67,29.6l-.18,0a.17.17,0,0,1-.06-.18.37.37,0,0,1,.1-.17c.07-.06.14-.11.24-.07l0,0Z"/><path class="cls-71" d="M36.06,30.69c.14.16.33.09.51.09h2.92c.13.09.17.18,0,.28a8.74,8.74,0,0,1-1.65.05c-.91,0-1.82,0-2.73,0a1.07,1.07,0,0,1-.57-.08.17.17,0,0,1,0-.25A5.33,5.33,0,0,1,36.06,30.69Z"/><path class="cls-72" d="M34.49,30.79V31l-.06.06A3.05,3.05,0,0,1,33,31L32.93,31a.2.2,0,0,1,.1-.2Z"/><path class="cls-73" d="M32,31.18a.34.34,0,0,0,.2-.2h.69a1,1,0,0,1,.12.14c0,.09.15.17.05.29a.45.45,0,0,1-.2.07h-.22a1.69,1.69,0,0,1-.52,0C32.12,31.37,31.8,31.4,32,31.18Z"/><path class="cls-72" d="M36.55,35.1a1.33,1.33,0,0,1-1,.78h0c-.13-.19,0-.27.13-.39s.2-.14.25-.27a.67.67,0,0,1,.1-.16,5.2,5.2,0,0,1,.51-.4.36.36,0,0,1,.2,0,.26.26,0,0,1,.12.07.21.21,0,0,1,0,.19C36.8,35,36.63,35,36.55,35.1Z"/><path class="cls-69" d="M36.84,34.9v-.19c.05-.22.25-.3.4-.43a.4.4,0,0,1,.2-.05.25.25,0,0,1,.18.09.81.81,0,0,1-.69.59A.06.06,0,0,1,36.84,34.9Z"/><path class="cls-74" d="M37.63,34.31h-.2c-.07-.17.08-.27.13-.4a1,1,0,0,1,.22-.22c.08-.06.15-.14.24-.2a.19.19,0,0,1,.18,0,.1.1,0,0,1,0,.07s0,0,0,0c0,.2-.37.22-.29.49A.3.3,0,0,1,37.63,34.31Z"/><path class="cls-71" d="M36.84,34.9h.1c0,.26-.24.18-.39.2C36.56,34.9,36.7,34.9,36.84,34.9Z"/><path class="cls-69" d="M34.69,36.47a.2.2,0,0,0-.2.1l-.3.1c-.08-.42.37-.41.53-.64s.29-.27.51-.18l.05,0C35.21,36.21,34.81,36.2,34.69,36.47Z"/><path class="cls-74" d="M35.77,35.49l-.2.39h-.3a.15.15,0,0,1,0-.19.64.64,0,0,1,.39-.25A.19.19,0,0,1,35.77,35.49Z"/><path class="cls-69" d="M39.68,33.14h-.1c-.27,0-.32.37-.59.39-.05,0-.12.08-.17,0s.06-.26.11-.39a.38.38,0,0,1,.1-.09.75.75,0,0,0,.32-.23c.25-.22.41-.62.86-.45a.43.43,0,0,1,0,.36C40,32.85,39.76,32.9,39.68,33.14Z"/><path class="cls-57" d="M40.17,32.75v-.39a.84.84,0,0,1,.6-.38.28.28,0,0,1,.08.19.25.25,0,0,1-.09.19C40.45,32.32,40.36,32.61,40.17,32.75Z"/><path class="cls-54" d="M40.76,32.35v-.2a.21.21,0,0,1,.18-.07.21.21,0,0,1,.11.07.6.6,0,0,1-.29.29Z"/><path class="cls-73" d="M39,33.14c.13.13-.25.26,0,.39a.34.34,0,0,1-.2.2c-.2,0-.42.08-.59-.1v-.1l0-.05C38.54,33.43,38.65,33,39,33.14Z"/><path class="cls-55" d="M41.05,32.16H41a.32.32,0,0,1,0-.26c0-.29.46-.63-.11-.83a.29.29,0,0,1-.11-.08.17.17,0,0,1,0-.19h0c.94,0,1.09.28.69,1.17-.14,0-.28,0-.29.2Z"/><path class="cls-52" d="M28.81,39.8h.1c.13.55.21.57.82.25l.14,0a.29.29,0,0,1,.13,0,.09.09,0,0,1,0,.12c-.29.31-.75.32-1.08.57-.1.08-.29,0-.29-.2S28.57,40,28.81,39.8Z"/><path class="cls-8" d="M28,40.78a.2.2,0,0,0-.1-.2c.11-.12,0-.38.29-.39C28.16,40.38,28.38,40.68,28,40.78Z"/><path class="cls-16" d="M30,40.19v-.1c.07-.26.23-.19.39-.1v.19Z"/><path class="cls-62" d="M29.79,40.09a2.4,2.4,0,0,1-.31.23.52.52,0,0,1-.55,0c-.21-.15-.11-.34,0-.52h.29C29.36,40,29.63,39.93,29.79,40.09Z"/><path class="cls-60" d="M29.79,40.09c-.21-.06-.58.18-.59-.29.21-.18.28-.5.59-.59a.3.3,0,0,1,0,.26c-.1.21.1.23.2.32s-.05.21-.11.31Z"/><path class="cls-56" d="M29.69,39.41l.1-.2a1.1,1.1,0,0,1,.3-.59c.06-.07.11-.18.23-.08.05.26-.12.46-.19.69S29.91,39.53,29.69,39.41Z"/><path class="cls-54" d="M30.28,38.52l-.2.1a.65.65,0,0,1,.1-.39h.19a.08.08,0,0,1,.12,0,.21.21,0,0,1,0,.2A.25.25,0,0,1,30.28,38.52Z"/><path class="cls-75" d="M31.17,37.35l.1-.1c.15-.13.14-.38.33-.49s.26-.22.44-.1c.06.27-.16.43-.24.66s-.3.52-.67.33A.25.25,0,0,1,31.17,37.35Z"/><path class="cls-59" d="M31.65,36.86c-.22,0-.13.39-.39.4l.19-.59h0C31.67,36.59,31.73,36.65,31.65,36.86Z"/><path class="cls-60" d="M30.48,38.23h-.1l.49-.59a.27.27,0,0,1,.09.19.35.35,0,0,1-.11.26C30.74,38.17,30.64,38.29,30.48,38.23Z"/><path class="cls-57" d="M30.87,37.84v-.2c.12-.07.14-.26.3-.29v.29a.26.26,0,0,1-.06.18C31,37.89,31,37.92,30.87,37.84Z"/><path class="cls-53" d="M21.37,33.14h.2a.31.31,0,0,1,.09.22.28.28,0,0,1-.1.22.32.32,0,0,1-.38,0C21,33.29,21.16,33.2,21.37,33.14Z"/><path class="cls-37" d="M21.18,33.53h.39c.17,0,.16.08.1.2h-.49Z"/><path class="cls-46" d="M27.34,41.36h.29a.21.21,0,0,1,.29,0v.2C27.74,41.49,27.44,41.72,27.34,41.36Z"/><path class="cls-32" d="M27.93,41.36h-.29c0-.19.14-.22.29-.17S28,41.31,27.93,41.36Z"/><path class="cls-11" d="M28,41.85l-.69.29c-.18,0-.28.09-.39.2l-.1-.39H27A1,1,0,0,1,28,41.85Z"/><path class="cls-38" d="M27.64,28.24l.2-.39c.34,0,.44-.27.64-.43s.22-.32.43-.35a.48.48,0,0,1,.16.23.3.3,0,0,1,0,.2c-.25.24-.45.55-.8.67-.2,0-.37.26-.59.08Z"/><path class="cls-54" d="M29,27.26a.2.2,0,0,1-.1-.2c.35.09.52-.14.69-.39a.49.49,0,0,0,.2.49.1.1,0,0,1,0,.07s0,0,0,0-.19.23-.36.23l-.12,0C29.23,27.39,29.1,27.36,29,27.26Z"/><path class="cls-55" d="M22.64,32.35a.34.34,0,0,1,.2-.2.55.55,0,0,1,.36-.1c.2,0,.23-.13.23-.29a.38.38,0,0,1,.05-.2c.48-.18.69-.71,1.16-.91a.7.7,0,0,0,.45-.46h0c.35.09.53-.14.69-.39.15-.09.34-.11.49-.2,0-.26.24-.18.39-.2a.37.37,0,0,1,.1.33.49.49,0,0,1,0,.14.4.4,0,0,1-.09.1c-.22.1-.34.33-.55.46a1.57,1.57,0,0,0-.45.35,5.56,5.56,0,0,0-.44.35l-.1.08-.12,0a.55.55,0,0,0-.33.14,2,2,0,0,0-.21.21c-.11.1-.12.25-.2.37l-.11.06c-.18,0-.26.19-.39.29a.43.43,0,0,0-.08.27.33.33,0,0,1-.22.21l-.13,0-.26,0a.66.66,0,0,0-.24.15.26.26,0,0,1-.41,0c-.14-.16-.09-.28,0-.41S22.56,32.43,22.64,32.35Z"/><path class="cls-54" d="M27.64,28.24c.24.06.35-.26.59-.2a.32.32,0,0,1,.06.35c-.09.16-.28.15-.4.26a1.56,1.56,0,0,1-.35.17c-.18,0-.39.12-.39-.2C27.31,28.5,27.53,28.44,27.64,28.24Z"/><path class="cls-61" d="M26.67,29.83v-.41c.22-.15.32-.5.69-.39.12.15,0,.27,0,.39a.39.39,0,0,1-.11.08c-.19,0-.29.19-.4.32A.13.13,0,0,1,26.67,29.83Z"/><path class="cls-71" d="M27.25,29.41l.1-.39a.18.18,0,0,0,.2-.2c0-.2.15-.2.29-.2a.09.09,0,0,1,.12,0,.27.27,0,0,1,.06.18.41.41,0,0,1,0,.13.44.44,0,0,1-.13.14,1.6,1.6,0,0,0-.29.22C27.47,29.36,27.39,29.48,27.25,29.41Z"/><path class="cls-49" d="M25.88,29.42c0-.17.14-.26.2-.39h.29C26.31,29.29,26,29.25,25.88,29.42Z"/><path class="cls-58" d="M26.27,29.61c-.15.11-.25.31-.49.2C25.84,29.49,26.09,29.65,26.27,29.61Z"/><path class="cls-62" d="M33.61,37.25c0,.2.15.19.29.19l-.59.39a.09.09,0,0,1-.12,0,.24.24,0,0,1,0-.2C33.31,37.5,33.36,37.26,33.61,37.25Z"/><path class="cls-52" d="M33.22,37.84h.1l-.1.39h-.29c-.07-.19.07-.29.17-.41A.1.1,0,0,1,33.22,37.84Z"/><path class="cls-76" d="M34.79,36.08c-.12.27-.52.26-.59.58-.21-.05-.3.19-.48.2s-.27.13-.39,0,0-.18,0-.25c.3-.32.27-.48-.1-.6-.17-.05-.34-.09-.41-.29a.3.3,0,0,1,0-.2c.33-.4.6-.84,1-1.21a.23.23,0,0,1,.13,0,.17.17,0,0,1,.1.16.45.45,0,0,1,0,.13,2.21,2.21,0,0,1-.22.41c-.16.2-.16.35.14.4.13,0,.32.06.3.19C34.19,36,34.56,36,34.79,36.08Z"/><path class="cls-65" d="M33.51,36.66c-.07,0-.19,0-.13.12s.22.05.33.08v.19c-.17.11-.29.3-.52.3-.41-.16-.42-.2-.19-.75a.76.76,0,0,1,0-.1c0-.18,0-.4.22-.49a.25.25,0,0,1,.31.07A.48.48,0,0,1,33.51,36.66Z"/><path class="cls-68" d="M33.22,37.25c.18,0,.27-.26.48-.2h.11l-.2.2c-.11.15-.18.34-.39.39a.22.22,0,0,1-.28,0,.19.19,0,0,1-.06-.2C32.95,37.33,33.14,37.37,33.22,37.25Z"/><path class="cls-77" d="M31.45,28.24h-.09l0-.06a.34.34,0,0,1,.2-.35.13.13,0,0,1,.13,0l-.1.29Z"/><path class="cls-59" d="M31.16,28.83a.34.34,0,0,1,.19-.3C31.36,28.68,31.37,28.82,31.16,28.83Z"/><path class="cls-78" d="M32.33,26.67c-.14.25-.42.43-.39.77a.12.12,0,0,1-.07,0c-.13.06-.22-.11-.35-.05a.25.25,0,0,1-.22-.1,3,3,0,0,1-.18-.27.24.24,0,0,1,0-.18.31.31,0,0,0,.08-.37c.1-.13,0-.17-.09-.21a.22.22,0,0,1,0-.18A.29.29,0,0,1,31.2,26a.64.64,0,0,0,.21-.22.23.23,0,0,1,.11-.06.21.21,0,0,1,.18.06,1,1,0,0,1,.13.31.35.35,0,0,1,0,.24c-.17.33,0,.23.21.19A.36.36,0,0,1,32.33,26.67Z"/><path class="cls-79" d="M31.55,27.36c.25-.37.17.18.32.11a.24.24,0,0,0,0,.09l-.19.11C31.42,27.65,31.48,27.51,31.55,27.36Z"/><path class="cls-80" d="M31.55,27.36c0,.12,0,.24.12.31l0,.18h-.1c-.15.12-.24,0-.35-.08l-.1-.08c-.19-.17-.37-.08-.55,0a.38.38,0,0,1-.21,0c-.25-.11-.28-.33-.3-.56a.52.52,0,0,1,.42-.36c.25.05.38.34.65.35a.41.41,0,0,1,.25.11A.2.2,0,0,0,31.55,27.36Z"/><path class="cls-1" d="M31.75,26.09c-.12-.08-.09-.2-.11-.32a.3.3,0,0,1,.17-.34c.1,0,.2-.08.23-.2a.89.89,0,0,1,.4-.4,2.05,2.05,0,0,0,.42-.36c.09-.12.24-.16.34-.26l.2-.1c.05.26-.32.59.11.8a.37.37,0,0,1-.14.28.28.28,0,0,1-.23,0c-.06.07,0,0,0,.08s.09.14,0,.21v0c-.21,0-.17.28-.3.38s-.16.3-.37.24-.1-.28-.29-.28a.29.29,0,0,0-.21.27.36.36,0,0,1-.09.18C31.78,26.35,31.83,26.15,31.75,26.09Z"/><path class="cls-78" d="M33.68,24.9l-.15,0c0-.21.12-.31.27-.4Z"/><path class="cls-55" d="M22.64,32.35a.13.13,0,0,0,0,0c.07.22-.44.35-.12.59s.28-.29.51-.24,0,.27.07.4a.47.47,0,0,1,0,.18.55.55,0,0,1-.15.2h0a.65.65,0,0,1-.57.06c-.39-.33-.4-.44-.12-.85A.51.51,0,0,1,22.64,32.35Z"/><path class="cls-60" d="M22.25,32.75a.66.66,0,0,0,.1.78l-.05.05a.36.36,0,0,1-.34,0c-.08-.06-.1-.19-.24-.18a.19.19,0,0,1-.16-.06v-.2l.29-.39Z"/><path class="cls-68" d="M23.53,31.77c0,.61-.42.32-.69.39,0-.28.47-.08.49-.39A.13.13,0,0,1,23.53,31.77Z"/><path class="cls-59" d="M23.53,31.77h-.2v-.39h.2a.13.13,0,0,1,0,.2Z"/><path class="cls-81" d="M31.95,26.09c0-.23.12-.32.29-.39.18.12.18.34.26.51a.27.27,0,0,1-.07.27h-.1C32.06,26.5,32.1,26.2,31.95,26.09Z"/><path class="cls-82" d="M31.95,26.09c.26,0,.22.3.39.39v.19L32,26.58c-.13-.06-.2-.15-.1-.29Z"/><path class="cls-83" d="M32.44,26.48v-.29a.12.12,0,0,1,.1-.1l.39-.2v.18l-.37.41Z"/><path class="cls-84" d="M33.12,25.11l.27.09a.36.36,0,0,1-.18.27.16.16,0,0,0-.09-.17A.14.14,0,0,1,33.12,25.11Z"/><path class="cls-56" d="M33.21,24.22a.59.59,0,0,1-.28.3.19.19,0,0,1-.2,0,.25.25,0,0,1-.07-.2c0-.11.09-.16.17-.22L33,24C33,24.15,33.08,24.22,33.21,24.22Z"/><path class="cls-59" d="M32.83,24.13l-.1.19a.3.3,0,0,1-.32.07.25.25,0,0,1-.11-.08.16.16,0,0,1,0-.19h.49Z"/><path class="cls-43" d="M32.34,24.13v.2a.27.27,0,0,1-.39,0v-.2Z"/><path class="cls-44" d="M31.95,24.33h.39c.09.21.19.42-.2.39a.18.18,0,0,0-.2-.2Z"/><path class="cls-62" d="M31.36,39.21v.1c-.23.16-.54.2-.69.49h-.29a.15.15,0,0,1-.19,0c-.06-.28.2-.33.35-.45a1.58,1.58,0,0,0,.46-.22.42.42,0,0,1,.24-.07A.17.17,0,0,1,31.36,39.21Z"/><path class="cls-49" d="M30.18,39.8h.2V40c-.14,0-.29,0-.39.1h-.1l.1-.29a.16.16,0,0,1,.1-.05A.13.13,0,0,1,30.18,39.8Z"/><path class="cls-37" d="M32.54,38.43v.19l-.39.2H32C32.06,38.5,32.19,38.33,32.54,38.43Z"/><path class="cls-42" d="M32.54,38.43c-.25,0-.37.21-.49.39-.29,0-.36.16-.39.39h-.29l-.1-.1c0-.15.18-.22.24-.35a1.58,1.58,0,0,1,.34-.39A.74.74,0,0,1,32,38.3c.2,0,.36-.21.59-.15a.25.25,0,0,1,.11.08v.1Z"/><path class="cls-45" d="M32.73,38.23h-.1c-.06-.21.13-.25.24-.35s.16-.09.25,0-.14.26-.2.39Z"/><path class="cls-61" d="M32.14,24.72c.26,0,.18-.24.2-.39h.39v.2c.06.19-.14.25-.2.38s-.34.18-.4.38-.2.14-.29.21l-.2.27h-.19a.66.66,0,0,1-.09-.28s0-.06,0-.1c.2-.11.6-.06.39-.49Z"/><path class="cls-57" d="M31.36,25.5c.26,0,.06.19.09.28v0c-.07.06-.12.14-.22.15a.21.21,0,0,1-.18-.07C31,25.62,31.18,25.57,31.36,25.5Z"/><path class="cls-75" d="M31.06,25.89h.21c0,.07,0,.14,0,.18h-.07c-.1.12-.16.33-.39.2a.21.21,0,0,1,.09-.21Z"/><path class="cls-60" d="M31.65,36.86a.18.18,0,0,0-.2-.2c.31-.18.24-.63.59-.78.18,0,.11.15.2.2s0,.15,0,.23a.75.75,0,0,1-.16.32l-.05,0C31.87,36.65,31.79,36.81,31.65,36.86Z"/><path class="cls-60" d="M23.53,31.57v-.2a12.7,12.7,0,0,1,1.57-1.18c0,.18.14.35-.16.45a2,2,0,0,0-1,.77C23.84,31.58,23.69,31.57,23.53,31.57Z"/><path class="cls-80" d="M30.78,26.29c.18,0,.24-.16.39-.2v.19a.29.29,0,0,1-.08.23,3.62,3.62,0,0,1-.37.22.28.28,0,0,1-.19,0l0,0a.87.87,0,0,1,.23-.38Z"/><path class="cls-85" d="M30.47,26.87c-.19,0-.26.19-.38.3,0,.09,0,.13-.1.16a.21.21,0,0,1-.2-.06.48.48,0,0,0,0-.09.71.71,0,0,0,.29-.3c.14,0,.22-.21.39-.2h0A.15.15,0,0,1,30.47,26.87Z"/><path class="cls-59" d="M30.48,25.89a.28.28,0,0,1,.1.39h-.3C30.34,26.15,30.49,26.06,30.48,25.89Z"/><path class="cls-61" d="M28.23,33.53c-.47-.18-1,.2-1.47-.2.17-.17.39-.13.59-.14h4.74a2.58,2.58,0,0,1,.89.08c.18.16.09.31,0,.46a3,3,0,0,1-.61.24,2.25,2.25,0,0,0-1.56-.36A25.62,25.62,0,0,1,28.23,33.53Z"/><path class="cls-55" d="M28.23,33.53c.93-.14,1.86,0,2.78,0a2.34,2.34,0,0,1,1.43.41c.35-.19.56-.1.61.3a.79.79,0,0,1-.06.42l-.06.06c-.41-.12-.48-.61-.86-.78-.14-.06-.25-.19-.41-.2a24.79,24.79,0,0,1-3.17-.1C28.39,33.62,28.29,33.62,28.23,33.53Z"/><path class="cls-71" d="M32.15,33.33H29.69a18.74,18.74,0,0,0-3,0,6.68,6.68,0,0,0-1.57-.1l0-.09a.36.36,0,0,1,.15-.11,12.69,12.69,0,0,1,2.09,0c1.07,0,2.15,0,3.22,0a4.77,4.77,0,0,0,1.15.08C31.86,33.12,32.09,33.06,32.15,33.33Z"/><path class="cls-57" d="M22.94,33.53a.2.2,0,0,1,.1-.2,3.26,3.26,0,0,1,2.06,0c-.07.26-.33.25-.48.23C24.05,33.49,23.49,33.56,22.94,33.53Z"/><path class="cls-61" d="M25.09,33.33H23v-.2a.46.46,0,0,1,.34-.13h1.22a.6.6,0,0,1,.5.14s0,.06,0,.09Z"/><path class="cls-61" d="M26.66,33.33c.16-.17.37-.09.55-.09h2c.15,0,.33-.05.45.1h-3Z"/><path class="cls-59" d="M22.35,33.53h.59c.15.21.44,0,.59.2h-1c0-.09-.26,0-.2-.2Z"/><path class="cls-39" d="M22.35,33.53l.2.2h-.88a.2.2,0,0,0-.1-.2v-.2h.2c.1,0,.12.14.2.2Z"/><path class="cls-57" d="M32.15,36.28l.09-.2a.54.54,0,0,0,.2-.39c.24-.11.47-.22.32-.56-.08-.19.19-.25.17-.42h0a.12.12,0,0,1,.13,0c.48.35,0,.55-.13.8v.18a1.35,1.35,0,0,1-.16.24,1.48,1.48,0,0,0-.26.33.3.3,0,0,1-.17.1A.23.23,0,0,1,32.15,36.28Z"/><path class="cls-57" d="M40.76,30.79V31a1.15,1.15,0,0,1-1.18,0l-.1-.2Z"/><path class="cls-61" d="M32,31.18c-.1.13.11.1.1.19a2.46,2.46,0,0,1-1.67,0c-.18-.45-.15-.54.2-.62h0c0,.33,0,.49.44.28S31.78,30.79,32,31.18Z"/><path class="cls-61" d="M30.67,30.79c-.35.1-.13.39-.2.58-.49.24-.65.18-.77-.27.08-.24.4-.25.47-.5h.1C30.61,30.25,30.61,30.58,30.67,30.79Z"/><path class="cls-86" d="M30.48,29.42v.21a.21.21,0,0,1-.1.19c-.15.15-.29.43-.51.07,0,0,0-.09-.09,0-.42.24-.78-.09-1.16-.16-.21-.17-.59-.16-.58-.56a1,1,0,0,1,.1-.32.13.13,0,0,0,0-.19c0-.09.09-.14.1-.23a.3.3,0,0,1,.24-.21.34.34,0,0,1,.2,0,.24.24,0,0,1,.11.23c-.13.26.05.24.21.24a.88.88,0,0,1,1,.23l.08.1C30.29,29.14,30.48,29.21,30.48,29.42Z"/><path class="cls-87" d="M28.62,29.61c.47.14,1,0,1.44.33.06,0,.22-.08.33-.13,0,.26-.26.39-.39.59s-.18.29-.38.28c-.32-.2-.52.07-.77.18l-.13,0c-.12-.09-.16-.27-.35-.29s-.52,0-.62-.28a.35.35,0,0,1,0-.21c.17-.07.38-.1.38-.35A.28.28,0,0,1,28.62,29.61Z"/><path class="cls-70" d="M29.6,30.59c.17,0,.22-.22.4-.19l-.12.38a.2.2,0,0,1-.31,0A.16.16,0,0,1,29.6,30.59Z"/><path class="cls-71" d="M29.79,30.79h.09l.31-.19c0,.22-.11.41-.39.39a.12.12,0,0,1,0-.2Z"/><path class="cls-86" d="M30.76,29.21l-.19.1c-.14-.16-.06-.31,0-.46l.09-.1c.09-.06.15-.17.29-.12C31,28.87,30.78,29,30.76,29.21Z"/><path class="cls-66" d="M31,28.63l-.2.2a.33.33,0,0,1-.09-.22.27.27,0,0,1,.26-.26.27.27,0,0,1,.22.09Z"/><path class="cls-77" d="M31.16,28.44H31c0-.39.18-.29.39-.2h0A.33.33,0,0,1,31.16,28.44Z"/><path class="cls-66" d="M30.67,28.83l-.1.49-.1.1c-.08-.19-.38-.15-.39-.39h0c-.3-.2-.57-.53-1-.2a1.2,1.2,0,0,1-.29-.39l-.1-.2c-.05-.1,0-.17.06-.25s.27-.37.54-.35c.11.1.12.27.27.34l.09.09c.17.28.28.07.4-.05L30.2,28c.27,0,.37.12.4.36A2,2,0,0,0,30.67,28.83Z"/><path class="cls-88" d="M39.58,31h1.17a.16.16,0,0,1,0,.18.75.75,0,0,0-.2.39.29.29,0,0,1-.11.09,1.38,1.38,0,0,1-.45.09c-1.29,0-2.58,0-3.86,0l-.17,0a4.63,4.63,0,0,0-1-.05c-.19,0-.4,0-.52-.17a.15.15,0,0,1,.1-.13c.71,0,1.42,0,2.13,0a25.81,25.81,0,0,0,2.86,0c-1.52,0-3-.05-4.53,0a1,1,0,0,1-.53-.06.16.16,0,0,1,0-.24h5.09Z"/><path class="cls-74" d="M34.49,31v.2a.54.54,0,0,1-.42.13,2.51,2.51,0,0,1-1.15-.13V31Z"/><path class="cls-85" d="M34.49,31.38c.31.19.65.05,1,.09s.42-.07.6.09c-.16.18-.39.14-.59.15-1.09,0-2.18,0-3.27,0H30.65c-.3,0-.62-.1-.9.11a.38.38,0,0,1-.23,0c-.27-.1-.24-.34-.25-.55s0-.47.32-.51h.19v.1c-.18.49-.15.55.34.54a25.8,25.8,0,0,0,2.6,0h.19c.22.14.38-.12.59-.1S34.18,31.18,34.49,31.38Z"/><path class="cls-73" d="M32.73,31.38a3.21,3.21,0,0,1-1.3.09c-.47,0-.95,0-1.42,0-.17,0-.4.07-.47-.15s.07-.34.24-.43V31c0,.62.42.31.68.38h2.26Z"/><path class="cls-88" d="M34.49,31.38H33.42a.25.25,0,0,1-.3,0l-.19-.19H34.1c.09.14.36-.07.39.19Z"/><path class="cls-73" d="M33.12,31.37h.3a.36.36,0,0,1-.5,0Z"/><path class="cls-89" d="M36.55,34.71c-.13.17-.25.36-.49.39a.42.42,0,0,1-.43.08,3.06,3.06,0,0,0-1.17-.34h-.23c-.15,0-.35-.06-.23-.31h0a2.27,2.27,0,0,0,.34-.7.35.35,0,0,1,.11-.17.67.67,0,0,1,.37-.19.26.26,0,0,1,.19.07.61.61,0,0,1,.06.33c0,.57.08.62.65.44a1.25,1.25,0,0,1,.28-.08c.32,0,.35.28.52.43Z"/><path class="cls-90" d="M35.57,35.1h.49v.19c-.11.11-.28.09-.38.2s-.22.21-.39.2l0-.06A3,3,0,0,1,35.57,35.1Z"/><path class="cls-91" d="M37.24,34.32c0,.22-.26.27-.4.39h-.1c-.05-.23.13-.3.26-.42a.23.23,0,0,1,.19,0Z"/><path class="cls-89" d="M37,34.31l-.3.39h-.2C36.57,34.39,36.66,34.17,37,34.31Z"/><path class="cls-88" d="M35.67,35.49c.07-.18.22-.2.38-.2a.28.28,0,0,1-.29.2h-.1Z"/><path class="cls-91" d="M37.63,33.93c0,.17-.14.25-.2.38h-.2a.17.17,0,0,1,0-.18.69.69,0,0,1,.31-.23A.13.13,0,0,1,37.63,33.93Z"/><path class="cls-92" d="M32.15,31.58h3.91a.17.17,0,0,1,0,.2c-.36.23-.75.08-1.12.12.06.08.18.1.26.16l.12.07c.73.19,1.46.39,2.2.54.16,0,.16.33.39.25a.46.46,0,0,1,.31.24c.07.22-.14.27-.23.39a.19.19,0,0,1-.2.19l0,0c-.17-.26-.22.07-.34.07a.24.24,0,0,1-.13,0c-.14-.1-.33-.1-.48-.18s-.41-.52-.8-.35c-.55.49-.55.49-1,.18a.67.67,0,0,1-.13-.16c-.07-.17-.22-.16-.37-.18s-.38,0-.4-.26-.16-.12-.26-.14a1.45,1.45,0,0,1-.49-.21c-.09-.05-.18-.2-.11-.23.42-.21-.05-.18-.07-.27-.05-.28-.23.06-.32-.06a1.71,1.71,0,0,1-.53,0C32.26,31.79,32.12,31.75,32.15,31.58Z"/><path class="cls-93" d="M38,33.54c0-.18.21-.23.19-.4.26-.19.41-.58.84-.43.12.15,0,.24-.1.31-.26.15-.44.42-.74.52H38Z"/><path class="cls-94" d="M37.63,33.93h-.1a.18.18,0,0,1,0-.22.24.24,0,0,1,.3,0h0Z"/><path class="cls-90" d="M34.3,34.71h.2c0,.53.47.69.78,1h0v.19c-.2,0-.33.12-.48.2a1.24,1.24,0,0,1-.52,0c-.18,0-.27,0-.13-.25s0-.34-.25-.34-.32.05-.35-.15a.34.34,0,0,1,.27-.43C33.93,34.73,34.17,34.87,34.3,34.71Z"/><path class="cls-74" d="M40.76,32c-.18.16-.33.36-.59.39a2.17,2.17,0,0,0-.78.59.08.08,0,0,1-.12,0,.26.26,0,0,1,0-.2,1.16,1.16,0,0,1,.31-.43,4.12,4.12,0,0,0,.49-.39l.11-.07a3.3,3.3,0,0,0,.41-.29h0a.15.15,0,0,1,.18,0c.12.11.08.24,0,.37Z"/><path class="cls-75" d="M39.29,32.75v.19c0,.08-.14.13-.2.2H39c-.3.06-.41.5-.79.39l.88-.79,0,0A.14.14,0,0,1,39.29,32.75Z"/><path class="cls-73" d="M39.09,33.14a.18.18,0,0,1,.2-.2h.1A.3.3,0,0,1,39.09,33.14Z"/><path class="cls-57" d="M41.05,32l-.1.2h-.2V32h0A.21.21,0,0,1,41.05,32Z"/><path class="cls-69" d="M41.05,32h-.29c-.1-.13,0-.26,0-.39a.28.28,0,0,1,0-.39V31c.51,0,.6.14.42.61Z"/><path class="cls-54" d="M30.09,39.79H30c-.3,0-.58,0-.29-.39l.39-.2a.26.26,0,0,1,.4.05C30.51,39.56,30.12,39.55,30.09,39.79Z"/><path class="cls-72" d="M30.48,39.31a.66.66,0,0,0-.39-.1c-.08-.27.16-.45.2-.69a.2.2,0,0,1,.2-.1c.15.51.15.51.6.15a.25.25,0,0,1,.32.08.26.26,0,0,1,0,.14c-.06.13-.2.19-.29.28a1,1,0,0,1-.52.27A.1.1,0,0,1,30.48,39.31Z"/><path class="cls-88" d="M31.07,38.62c-.09.25-.25.47-.52.37s-.07-.37-.07-.57v-.19l.29-.2a.53.53,0,0,1,.16.18A.86.86,0,0,1,31.07,38.62Z"/><path class="cls-95" d="M33.22,37.25c0,.19-.15.2-.29.2a.52.52,0,0,1-.55.31.55.55,0,0,1-.21,0,.89.89,0,0,0-.39-.23.15.15,0,0,1,0-.23c0-.24.19-.4.29-.59h0c.11-.08.15-.26.34-.22s.53,0,.74.22C33.15,36.86,32.56,37.16,33.22,37.25Z"/><path class="cls-96" d="M32.14,37.64h.2c0,.27-.19.29-.37.32a2.47,2.47,0,0,1-.51,0,.75.75,0,0,1-.23-.05.33.33,0,0,1-.15-.18l.1-.1c.31,0,.4-.25.59-.39a.2.2,0,0,0,.1.2C31.94,37.52,32.07,37.54,32.14,37.64Z"/><path class="cls-75" d="M31.07,37.74l.1.1c.12.39.08.44-.29.39a.2.2,0,0,1-.1-.2.21.21,0,0,0,.1-.19A.21.21,0,0,0,31.07,37.74Z"/><path class="cls-57" d="M29.3,27.66l-.49.38c-.09.08-.22.1-.29.2l-.2.19s-.06,0-.09,0V28c.35-.08.44-.51.78-.59a.28.28,0,0,1,.38,0l0,0a.19.19,0,0,1,0,.13l0,.06A.1.1,0,0,1,29.3,27.66Z"/><path class="cls-56" d="M29.39,27.45H29v-.2C29.16,27.29,29.36,27.18,29.39,27.45Z"/><path class="cls-97" d="M29.39,27.64l0-.17.37-.21H30a.42.42,0,0,1-.19.58C29.6,28,29.48,27.81,29.39,27.64Z"/><path class="cls-89" d="M27.83,30.2c.14.37.46.12.69.2a1.06,1.06,0,0,1,.1.36,1.27,1.27,0,0,1,0,.23.69.69,0,0,1-.06.22c-.13.26-.31.22-.53.11a6.65,6.65,0,0,0-1.38-.49c-.16-.17-.52-.06-.55-.4.13-.19.32-.34.45-.53h.1a.35.35,0,0,1,.37.14.34.34,0,0,0,.53.07A.26.26,0,0,1,27.83,30.2Z"/><path class="cls-76" d="M23.43,32.75l.19-.2a.32.32,0,0,1,.1-.09c.17,0,.3-.24.51-.1a.42.42,0,0,0,.42.26c.17,0,.37,0,.48.17A.18.18,0,0,1,25,33a8.56,8.56,0,0,1-1.49,0C23.42,33,23.34,32.89,23.43,32.75Z"/><path class="cls-94" d="M27.54,30.2c-.13.31-.35.26-.49.05a1.45,1.45,0,0,0-.38-.33v-.1l.09,0c.12-.09.17-.31.39-.22A5.34,5.34,0,0,1,27.54,30.2Z"/><path class="cls-98" d="M23.43,32.75a.2.2,0,0,0,.1.2A10.63,10.63,0,0,0,25,33a.09.09,0,0,1,.06.13v0H23.33c-.21-.13-.2-.26,0-.39Z"/><path class="cls-69" d="M25,31.18h.1a.18.18,0,0,1,.05.18.4.4,0,0,1-.06.12,5.41,5.41,0,0,0-.53.48.31.31,0,0,1-.12.06h-.07a.15.15,0,0,1-.09-.09.44.44,0,0,1,.14-.36.18.18,0,0,1,.2-.2C24.7,31.25,24.89,31.29,25,31.18Z"/><path class="cls-99" d="M24.21,32.35c-.19,0-.27.26-.49.2-.06-.09,0-.16,0-.23a2,2,0,0,0,.35-.35h.09s.07,0,.1,0h0c.12.13,0,.24,0,.35Z"/><path class="cls-71" d="M24.12,32a.49.49,0,0,1-.3.39.13.13,0,0,1-.2,0C23.74,32.17,23.84,32,24.12,32Z"/><path class="cls-88" d="M26.57,29.91a.55.55,0,0,1-.4.49l-.06,0-.05,0C26.21,30.21,26.31,30,26.57,29.91Z"/><path class="cls-88" d="M23.33,32.75a.32.32,0,0,0,0,.39H23c-.18-.13,0-.26,0-.39Z"/><path class="cls-72" d="M25.57,30.78a.52.52,0,0,1,.49-.39h0a.4.4,0,0,1-.45.43Z"/><path class="cls-100" d="M25.09,31.38v-.2a.83.83,0,0,0,0-.09c.15,0,.29-.3.44,0C25.49,31.33,25.41,31.54,25.09,31.38Z"/><path class="cls-72" d="M25.48,31c-.13,0-.22.22-.39.1a.9.9,0,0,1,.48-.31l0,0C25.64,30.91,25.64,31,25.48,31Z"/><path class="cls-71" d="M25,31.18a.34.34,0,0,1-.39.2C24.64,31.11,24.84,31.2,25,31.18Z"/><path class="cls-71" d="M24.31,32h-.1c0-.15-.06-.36.2-.39Z"/><path class="cls-73" d="M23.62,32.35h.2l-.1.19h-.1C23.52,32.48,23.53,32.42,23.62,32.35Z"/><path class="cls-61" d="M28.22,28.43h.09l-.09.2a.2.2,0,0,1-.29,0h-.1C27.87,28.37,28.07,28.46,28.22,28.43Z"/><path class="cls-87" d="M27.54,30.2c-.23-.14-.45-.27-.4-.6-.05-.07-.05-.13,0-.18l.08,0,.3-.19a.1.1,0,0,1,.1,0s.09,0,.12,0a.34.34,0,0,1,.07-.14l.09-.08c.12-.06.17,0,.21.1-.13.44.46.28.49.59-.15,0-.36-.07-.39.2s-.41-.16-.39.2v.2Z"/><path class="cls-73" d="M27.17,29.43l0,.18c-.17,0-.21.22-.39.2C26.8,29.57,26.87,29.38,27.17,29.43Z"/><path class="cls-92" d="M28.13,29l-.21-.1,0-.09c.08-.08.16-.16.29-.09S28.24,29,28.13,29Z"/><path class="cls-95" d="M28.22,28.74l-.29.09v-.2h.29C28.31,28.67,28.27,28.7,28.22,28.74Z"/><path class="cls-87" d="M27.82,29v.21a.14.14,0,0,1-.19,0h-.1A.34.34,0,0,1,27.82,29Z"/><path class="cls-38" d="M33.12,37.84l-.2.1a.2.2,0,0,1,0-.24l0,0h.29v.2Z"/><path class="cls-73" d="M32.93,35.49c0-.27.38-.49.1-.79a.28.28,0,0,1,.1-.08c.08-.06.33,0,.13-.24a1,1,0,0,1-.2-.38c0-.1-.1-.17-.14-.27l.1-.39a1,1,0,0,1,.91-.08c.2.18,0,.26-.1.35a.42.42,0,0,0-.29.27c.1-.06.12-.18.22-.22s.31,0,.37.12-.07.39-.22.53A4.27,4.27,0,0,1,32.93,35.49Z"/><path class="cls-65" d="M33.12,36.66c-.26-.08-.6.2-.78-.2a.13.13,0,0,1,0-.19l.1-.1c.18,0,.18-.21.29-.3a.19.19,0,0,1,.19-.2.36.36,0,0,0,.41.2.3.3,0,0,1,.35.26c0,.19.16.43-.16.52a1.79,1.79,0,0,0,0-.19c0-.16.06-.41-.21-.38s-.16.24-.11.41A.14.14,0,0,1,33.12,36.66Z"/><path class="cls-88" d="M33.71,33.53a.3.3,0,0,0,.29-.19.4.4,0,0,1,.56,0c.17.15,0,.28-.07.41l-.1.1c-.11.18-.12.44-.39.49h-.1c-.08-.19.53-.61-.2-.59A.14.14,0,0,1,33.71,33.53Z"/><path class="cls-90" d="M34,34.32c.18-.13.17-.4.39-.49.07.34-.13.53-.39.69Z"/><path class="cls-90" d="M34.3,34.71c-.06.31-.32.15-.49.2a.53.53,0,0,1,.2-.39C34,34.71,34.16,34.71,34.3,34.71Z"/><path class="cls-75" d="M31.36,37.84c.32-.07.71.18,1-.2a.76.76,0,0,0,.59-.19v.19h0a1.64,1.64,0,0,1-.9.68l-.19,0c-.16.06-.34.2-.49,0A.43.43,0,0,1,31.36,37.84Z"/><path class="cls-67" d="M31.36,28.24c-.15,0-.36-.06-.39.2a.18.18,0,0,0-.2.2c-.23.1-.24-.05-.24-.21,0-.49.35-.64.73-.77.1.06.14.21.29.2C31.5,28,31.35,28.07,31.36,28.24Z"/><path class="cls-84" d="M30.47,26.87l0-.19h.16c.13.1.31.06.44.14l0,0v.2a.23.23,0,0,1-.1.2C30.76,27.3,30.67,27,30.47,26.87Z"/><path class="cls-78" d="M31.95,26.28l.1.29-.24.15c-.06,0-.12.14-.2.07a.18.18,0,0,1,0-.26.52.52,0,0,0,.14-.44Z"/><path class="cls-84" d="M31.26,26.48c.14.17.37.37-.1.39h0a.29.29,0,0,1,0-.37A.09.09,0,0,1,31.26,26.48Z"/><path class="cls-84" d="M31.07,27.26a.2.2,0,0,1,.1-.2.18.18,0,0,1,.2.2Z"/><path class="cls-84" d="M31.26,26.48h-.1a.06.06,0,0,1-.1,0,.2.2,0,0,1,.1-.2C31.34,26.28,31.31,26.37,31.26,26.48Z"/><path class="cls-84" d="M31.23,26.08l0-.18.19-.09C31.46,26,31.43,26.1,31.23,26.08Z"/><path class="cls-67" d="M31.26,27.65c0,.29-.39.16-.49.39s-.41.39,0,.59v.2h-.1c-.27,0-.2-.26-.19-.42,0-.31-.12-.4-.4-.37-.12-.29.16-.29.29-.39h.2a.49.49,0,0,1,.59,0Z"/><path class="cls-67" d="M30.38,27.65c0,.23-.32.17-.29.39h0a.36.36,0,0,1-.49,0h0a.36.36,0,0,1-.21-.4h0c.48.32.5-.09.6-.38l.1-.1C30.25,27.29,30.13,27.59,30.38,27.65Z"/><path class="cls-67" d="M31.16,27.65h-.59Q30.87,27.2,31.16,27.65Z"/><path class="cls-81" d="M32.53,26.09l-.1.1a1,1,0,0,1-.2-.49C32.55,25.67,32.54,25.88,32.53,26.09Z"/><path class="cls-1" d="M33.12,25.11v.19a.18.18,0,0,1-.19-.21c0-.06,0-.14.1-.12S33.09,25.06,33.12,25.11Z"/><path class="cls-96" d="M32.53,24.9c0-.16.15-.25.2-.38h.2A.93.93,0,0,1,32.53,24.9Z"/><path class="cls-83" d="M31.84,25.5a.36.36,0,0,1,.29-.21C32.14,25.5,32,25.51,31.84,25.5Z"/><path class="cls-38" d="M22,33.53a.18.18,0,0,1-.2-.2c0-.07,0-.19.12-.13S21.94,33.42,22,33.53Z"/><path class="cls-60" d="M31.07,39a.3.3,0,0,1,.29-.2.14.14,0,0,1,.2,0c0,.19-.17.22-.29.29l-.2.1A.13.13,0,0,1,31.07,39Z"/><path class="cls-56" d="M30.48,39.31h.1s0,0,0,.07l0,0-.4.39h-.1C30.08,39.52,30.3,39.43,30.48,39.31Z"/><path class="cls-58" d="M30.58,39.41v-.1l.49-.29v.2A.49.49,0,0,1,30.58,39.41Z"/><path class="cls-91" d="M31.36,37.84c0,.55,0,.55.69.39a.13.13,0,0,1,0,.19h-.19c-.19,0-.2.41-.49.29-.07-.12-.19-.09-.29-.1a.54.54,0,0,1-.2-.39c.31,0,.3-.18.29-.39Z"/><path class="cls-60" d="M32,38.42v-.19c.36-.1.55-.45.88-.59v.29l-.29.29C32.39,38.17,32.26,38.43,32,38.42Z"/><path class="cls-61" d="M31.36,38.72c.22,0,.25-.33.49-.29,0,.19-.19.27-.3.39h-.2S31.36,38.75,31.36,38.72Z"/><path class="cls-98" d="M32.34,36.27v.19c-.1.06-.14.21-.29.19l.1-.39Z"/><path class="cls-83" d="M31.06,26.48h.1v.39c-.17,0-.43.12-.49-.19C30.78,26.57,30.88,26.44,31.06,26.48Z"/><path class="cls-95" d="M34.49,33.72c.2-.59-.26-.33-.49-.39H32.15c-.31-.19-.65-.05-1-.1s-.42.07-.6-.09c.23-.22.51-.11.78-.14s.64,0,1,0h.51c.25,0,.51,0,.76,0a2.1,2.1,0,0,1,.5,0c.18.07.39,0,.56.1s.41.14.14.39Z"/><path class="cls-71" d="M32.93,33.73a.18.18,0,0,1,.2.2.5.5,0,0,1,0,.39.16.16,0,0,1-.22,0c.06-.41-.21-.41-.49-.39C32.5,33.61,32.75,33.77,32.93,33.73Z"/><path class="cls-61" d="M32.93,34.31h.2a.28.28,0,0,1,0,.39h-.2Z"/><path class="cls-101" d="M31.36,33.13h-.79l-5.48,0s0-.06,0-.09,0,0,0-.06,0,0,0,0v-.2l.06-.06a2.07,2.07,0,0,1,.82-.07.92.92,0,0,0,.56-.11l.15-.05a.68.68,0,0,1,.4,0,9.5,9.5,0,0,0,2.79.33,5,5,0,0,1,1.15,0C31.19,32.83,31.45,32.82,31.36,33.13Z"/><path class="cls-102" d="M32.73,35.87c-.05.14,0,.4-.29.3C32.51,36,32.54,35.89,32.73,35.87Z"/><path class="cls-77" d="M28.81,28.44c.23,0,.26.21.29.39a.67.67,0,0,1-.42-.11c-.07,0-.15-.09-.13-.19S28.72,28.45,28.81,28.44Z"/><path class="cls-73" d="M28.52,28.24c0-.2.15-.2.29-.2l-.1.19Z"/><path class="cls-94" d="M29.6,30.79a.57.57,0,0,0-.2.49c-.19.28-.37.18-.54,0a.6.6,0,0,1-.12-.27.26.26,0,0,1,.07-.2s.08,0,.09,0c.14-.44.39-.4.69-.17Z"/><path class="cls-87" d="M27.83,30c-.1-.1-.25-.23-.11-.35s.31.16.5.15c0,.12.05.27-.08.35S27.94,30.05,27.83,30Z"/><path class="cls-70" d="M28.81,30.79V31a.21.21,0,0,1-.29,0v-.2a.13.13,0,0,1,.2,0Z"/><path class="cls-94" d="M28.72,30.79h-.2V30.4A.54.54,0,0,1,28.72,30.79Z"/><path class="cls-97" d="M29.6,28h.49c0,.15,0,.36-.25.35S29.57,28.24,29.6,28Z"/><path class="cls-97" d="M29.39,27.64l.21.4c-.3,0-.3-.17-.29-.38A.11.11,0,0,1,29.39,27.64Z"/><path class="cls-77" d="M30.09,29c0-.1,0-.19.17-.17s.08.07.07.09-.15.07-.24.09Z"/><path class="cls-77" d="M40.17,32h-.09c-.17.15-.39.25-.56.41a3,3,0,0,1-.43.37h0c-.4-.11-.51.43-.88.39-.15,0-.19-.14-.29-.2s-.17-.07-.2-.17c-.61-.3-1.14-.86-1.94-.54a.47.47,0,0,1-.51-.07h-.1c-.11-.28.07-.32.28-.34s.41.05.6-.05v-.2c1.07,0,2.14-.06,3.21.05.29,0,.6-.11.9,0A.21.21,0,0,1,40.17,32Z"/><path class="cls-75" d="M34.49,31.37c-.09-.15-.31,0-.39-.19h5.56c.11,0,.37-.14.31.19a22.33,22.33,0,0,1-3.23,0Z"/><path class="cls-73" d="M36.75,31.38H40c-.11.14-.26.1-.41.1H37.15C37,31.47,36.86,31.51,36.75,31.38Z"/><path class="cls-70" d="M40.17,32v-.3c.11-.14.26-.07.39-.08A.48.48,0,0,1,40.17,32Z"/><path class="cls-88" d="M40.76,31.18v.39h-.19C40.55,31.4,40.37,31.15,40.76,31.18Z"/><path class="cls-70" d="M28.91,31.18c.13.18.29.25.49.1,0,.17-.12.43.2.49.11.19,0,.25-.17.3a1.46,1.46,0,0,0-.39.14.35.35,0,0,1-.22,0c-.45-.24-.77-.66-1.31-.77a4.39,4.39,0,0,0-.8-.14.54.54,0,0,1-.21-.06c-.16-.18,0-.29.09-.42l.06,0a2.88,2.88,0,0,1,1.51.46c.2.1.24,0,.35-.07Q28.72,31.47,28.91,31.18Z"/><path class="cls-89" d="M30.57,31.57h.49c.14.19.34.1.52.1a1.12,1.12,0,0,1,.55.05c.11.1.25.19.25.37s.4.16.36.44a.26.26,0,0,1-.11.09,1.73,1.73,0,0,1-.53.05c-.54.15-.87-.29-1.3-.45a.21.21,0,0,1-.11-.17c0-.16-.09-.21-.17-.3A.16.16,0,0,1,30.57,31.57Z"/><path class="cls-85" d="M30.77,32v.2c-.3.23-.64.12-1,.14s-.56.07-.79-.14c0-.17.13-.2.27-.2s.3,0,.32-.2h.27C30.15,31.9,30.5,31.74,30.77,32Z"/><path class="cls-94" d="M32.14,31.77c-.27,0-.55-.06-.83.11s-.2-.16-.24-.3h1.08l.19.19A.14.14,0,0,1,32.14,31.77Z"/><path class="cls-70" d="M30.57,31.57v.19a.76.76,0,0,1-.78,0h0c0-.1-.07-.2.1-.19Z"/><path class="cls-87" d="M35.08,33.33c.27.15.54.35.71-.12,0-.1.17-.07.26-.08.28.47.82.61,1.18,1v.19H37c-.3,0-.36.22-.49.39-.1,0-.23.05-.24-.14a.24.24,0,0,0-.24-.25c-.13-.19-.32-.09-.48-.08-.34,0-.62,0-.51-.49a.34.34,0,0,0-.1-.31C35,33.35,35,33.3,35.08,33.33Z"/><path class="cls-85" d="M35.27,35.68c-.11,0-.29,0-.32-.05-.14-.32-.43-.34-.82-.4.28-.15.41-.3.36-.53.33-.05.6.27,1,.16.07,0,.12.13.12.23C35.67,35.39,35.36,35.48,35.27,35.68Z"/><path class="cls-89" d="M35,33.43c.11.05.21.14.18.26-.15.65.36.49.58.39.39-.19.31,0,.32.24h0c-1.31.38-1.13.32-1-.79t0-.07S35,33.43,35,33.43Z"/><path class="cls-103" d="M35,33.43v.1h-.2c.1-.22,0-.28-.2-.3s-.35.06-.49-.09c.31-.14.62-.21.88.09l.1.1Z"/><path class="cls-93" d="M37.24,34.12a1.41,1.41,0,0,1-1.18-1c.29-.17.6,0,.78.39.12.18.37,0,.49.2h.1a.06.06,0,0,1,.1,0v.2A.31.31,0,0,1,37.24,34.12Z"/><path class="cls-87" d="M35,33.24a1.81,1.81,0,0,0-.88-.09h-.49c-.1-.13-.41-.09-.31-.4,0-.12-.11-.05-.17-.06s-.29,0-.4-.13-.29-.15-.44-.22-.08-.15.05-.18.46-.16.59-.39c.4,0,.71.31,1.23.19-.29.31-.57.11-.79.27.28.37.7.3,1.05.35.1.2-.24.15-.14.3s.21,0,.32.06S35.1,32.8,35,33.24Z"/><path class="cls-86" d="M35.28,32.16c.22,0,.46.07.64-.14A.19.19,0,0,1,36,32a2.62,2.62,0,0,1,1.82.77.13.13,0,0,1-.2,0A3.7,3.7,0,0,1,36,32.39C35.75,32.28,35.41,32.54,35.28,32.16Z"/><path class="cls-86" d="M36.06,31.77c-.14.16-.32.09-.49.1s-.38,0-.39.3l-.63-.28v-.11Z"/><path class="cls-87" d="M32.93,31.77c.06.52-.32.37-.59.39l-.2-.39h.78Z"/><path class="cls-87" d="M37.53,33.73h-.1a.68.68,0,0,1,.11-.2c.08-.08.15-.25.3-.15s0,.22,0,.34Z"/><path class="cls-87" d="M37.33,33.73c-.14-.12-.48.26-.49-.2C37,33.57,37.27,33.41,37.33,33.73Z"/><path class="cls-86" d="M37.63,32.75h.2a.2.2,0,0,0,.1.2c0,.1,0,.21-.17.17S37.65,32.88,37.63,32.75Z"/><path class="cls-85" d="M39.09,32.74c0-.23.25-.27.39-.39a.06.06,0,0,1,.11,0c0,.18-.2.26-.31.39Z"/><path class="cls-87" d="M39.6,32.36h-.11a.93.93,0,0,1,.6-.39A.66.66,0,0,1,39.6,32.36Z"/><path class="cls-98" d="M32.14,37.64c-.14,0-.28,0-.29-.2C32.06,37.34,32.13,37.45,32.14,37.64Z"/><path class="cls-103" d="M25.48,31l.1-.19c.24,0,.36-.22.49-.4h.09c0,.14.1.19.22.18s.25,0,.26.2h0a1.54,1.54,0,0,1-.54.43c-.15.11-.28.26-.42.39a2.57,2.57,0,0,0-.28.17c-.19.17-.37.42-.64.11,0-.25.24-.32.31-.51h0C25.38,31.4,25.45,31.21,25.48,31Z"/><path class="cls-70" d="M28.91,31.18c0,.16.07.4-.22.37s-.15-.23-.17-.37V31h.29Z"/><path class="cls-100" d="M24.41,32h.09l.06,0c.12.14.19.34.44.32s.17.12.18.25a.29.29,0,0,1-.09.18h0c-.19,0-.38,0-.57,0s-.44-.08-.31-.4h0C24.35,32.26,24.33,32.09,24.41,32Z"/><path class="cls-99" d="M25.09,32.94s0,.07,0,.1a5.33,5.33,0,0,1-1.57-.1Z"/><path class="cls-100" d="M25.09,31.38c0,.22-.16.35-.29.49s-.16.17-.29.1h0C24.55,31.62,24.88,31.55,25.09,31.38Z"/><path class="cls-76" d="M24.41,32c0,.15.07.36-.2.39l.1-.39Z"/><path class="cls-93" d="M27.64,29.23h.19c.07.06.11.13,0,.17S27.65,29.35,27.64,29.23Z"/><path class="cls-73" d="M33.12,34.7v-.78c.13.08.07.24.16.34s.39,0,.26.28S33.28,34.7,33.12,34.7Z"/><path class="cls-72" d="M33.71,33.53v.2c0,.14.07.34-.17.38a.16.16,0,0,1-.19-.1c-.07-.19.06-.25.19-.31A.78.78,0,0,0,33.71,33.53Z"/><path class="cls-103" d="M29.79,32.16h1c.25,0,.5-.08.65.3.09.21.47.06.72.09s.31.33.2.58h-1c0-.23-.22-.19-.37-.19h-1.2a.46.46,0,0,1-.12-.35,1.08,1.08,0,0,1,0-.23A.44.44,0,0,1,29.79,32.16Z"/><path class="cls-89" d="M32.73,32.55c.18,0,.35,0,.53,0s.42-.06.14.25c-.14.15.28.13.22.33h-.78c-.44-.26-.44-.26-.1-.58Z"/><path class="cls-70" d="M32.73,32.55c-.25.24,0,.4.1.58h-.49c-.06-.2-.27-.34-.2-.58Z"/><path class="cls-104" d="M24.51,32c.11,0,.22,0,.29-.1.3.25.4-.1.59-.2a.26.26,0,0,0,.39,0,.25.25,0,0,1,.18.07.28.28,0,0,0,.31,0c.38-.15.49,0,.5.38a1,1,0,0,1,0,.22.43.43,0,0,1-.11.19h-.1a2.36,2.36,0,0,1-1.47,0L25,32.42C24.59,32.6,24.6,32.22,24.51,32Z"/><path class="cls-90" d="M29.79,32.55v.39a3.88,3.88,0,0,1-1.51-.06,5,5,0,0,0-.9-.14c-.15,0-.3,0-.33-.19.5-.28,1-.07,1.56-.14S29.42,32.3,29.79,32.55Z"/><path class="cls-104" d="M28.62,32.55h-2v-.2a4.3,4.3,0,0,1,1.77-.12.44.44,0,0,1,.17.07A.17.17,0,0,1,28.62,32.55Z"/><path class="cls-104" d="M25.09,32.55h1.47c0,.24-.22.19-.37.19h-1.1Z"/><path class="cls-103" d="M26.66,32.16c0-.27,0-.55-.38-.24a.24.24,0,0,1-.41-.15c0-.21.28-.34.2-.59.11-.27.4-.25.59-.39,0,.17-.14.26-.2.39s.13,0,.2,0a2.57,2.57,0,0,1,2.15,1c-.09.11-.22.09-.34.1A7,7,0,0,1,26.66,32.16Z"/><path class="cls-103" d="M28.52,32.16h1.27v.2a1.6,1.6,0,0,1-1.17,0h-.1A.13.13,0,0,1,28.52,32.16Z"/><path class="cls-103" d="M26.66,31.18c0,.13.06.29-.12.36a.13.13,0,0,1-.12,0,.22.22,0,0,1,0-.33Z"/><path class="cls-70" d="M29.79,31.77h.78c.11,0,.26-.06.33.07s-.07.1-.13.12C30.45,31.86,30,32.18,29.79,31.77Z"/><path class="cls-85" d="M26.07,31.18c.24.07.26.2.1.37a2.32,2.32,0,0,1-.29.22l-.1-.1a.12.12,0,0,1-.1-.1A.51.51,0,0,1,26.07,31.18Z"/><path class="cls-90" d="M25.68,31.57l.1.1c0,.13,0,.27-.17.28s-.22-.13-.22-.28S25.57,31.57,25.68,31.57Z"/><path class="cls-90" d="M28.62,32.36h1.17v.2H28.62Z"/><path class="cls-90" d="M28.52,32.16v.19H26.66v-.2Z"/></svg>