<svg id="Слой_1" data-name="Слой 1" xmlns="http://www.w3.org/2000/svg" viewBox="0 0 155 83"><defs><style>.cls-1{fill:#2196f3;}</style></defs><title>авиасейлс</title><path class="cls-1" d="M29.47,47.84a8.83,8.83,0,0,1-8.82,8.85H18a8.84,8.84,0,0,1-8.82-8.85V38.91A8.83,8.83,0,0,1,18,30.06h2.65a8.84,8.84,0,0,1,8.82,8.85v8.93ZM36.85,33.9h1.49V28.75c0-3.83-2.47-6.25-6.3-6.25H6.62c-3.83,0-6.3,2.42-6.3,6.25V33.9H1.81A5,5,0,0,1,6.65,39V44A5,5,0,0,1,1.81,49.1H.32v5.15c0,3.83,2.47,6.25,6.3,6.25H32c3.83,0,6.3-2.42,6.3-6.25V49.1H36.85A5,5,0,0,1,32,44V39A4.93,4.93,0,0,1,36.85,33.9Z"/><path class="cls-1" d="M25.66,44c0,2.65-2.78,5.07-5.56,5.07H18.56C15.78,49.08,13,46.66,13,44V38.94c0-2.65,2.78-5.07,5.56-5.07H20.1c2.8,0,5.56,2.42,5.56,5.07Zm-5-12.66h-2.8c-4.06,0-7.38,3.7-7.38,7.77v8.54c0,4.06,3.32,7.77,7.38,7.77h2.8a7.87,7.87,0,0,0,7.54-7.77V39.12A7.86,7.86,0,0,0,20.64,31.35Z"/><path class="cls-1" d="M19.92,46.45h-.15c-2.11,0-4.12-1.23-4.12-3.4V41s0-.75-.69-.75-.69.75-.69.75v2.06c0,2.93,2.62,4.79,5.51,4.79h.15a.66.66,0,0,0,.67-.67.69.69,0,0,0-.67-.72"/><path class="cls-1" d="M63.07,50.11H61V48.77l-.75.54a4.32,4.32,0,0,1-.93.54,6.61,6.61,0,0,1-1.21.44,7.17,7.17,0,0,1-1.6.18,3.94,3.94,0,0,1-2.86-1.11,3.78,3.78,0,0,1-1.16-2.83,3.89,3.89,0,0,1,.62-2.29,4,4,0,0,1,1.72-1.36,8.83,8.83,0,0,1,2.73-.67C58.62,42.08,59.77,42,61,42v-.33a2.37,2.37,0,0,0-.26-1.18,2,2,0,0,0-.72-.75,2.67,2.67,0,0,0-1.08-.33,10.59,10.59,0,0,0-1.31-.08,9.92,9.92,0,0,0-1.83.21,18.74,18.74,0,0,0-2.08.62h-.1V38c.41-.1,1-.23,1.78-.36a14,14,0,0,1,2.29-.21A11.8,11.8,0,0,1,60,37.6a4.62,4.62,0,0,1,1.7.75,3.28,3.28,0,0,1,1.08,1.34,4.67,4.67,0,0,1,.36,2v8.41ZM61,47V43.57c-.64,0-1.39.1-2.26.15a10.68,10.68,0,0,0-2.06.33,3.66,3.66,0,0,0-1.47.8,2,2,0,0,0-.57,1.49A2,2,0,0,0,55.27,48a3,3,0,0,0,2,.54,4.6,4.6,0,0,0,2-.44A8.73,8.73,0,0,0,61,47Z"/><path class="cls-1" d="M77.68,37.65l-5,12.45H70.53l-5-12.45H67.8l3.86,9.91,3.81-9.91Z"/><path class="cls-1" d="M82.67,35.57H80.3V33.41h2.37Zm-.13,14.54H80.46V37.65h2.08Z"/><path class="cls-1" d="M96.33,50.11H94.25V48.77l-.75.54a4.32,4.32,0,0,1-.93.54,6.61,6.61,0,0,1-1.21.44,7.17,7.17,0,0,1-1.6.18,3.94,3.94,0,0,1-2.86-1.11,3.78,3.78,0,0,1-1.16-2.83,3.89,3.89,0,0,1,.62-2.29,4,4,0,0,1,1.72-1.36,8.83,8.83,0,0,1,2.73-.67C91.88,42.1,93,42,94.25,42v-.33A2.37,2.37,0,0,0,94,40.43a2,2,0,0,0-.72-.75,2.67,2.67,0,0,0-1.08-.33,10.59,10.59,0,0,0-1.31-.08,9.92,9.92,0,0,0-1.83.21A18.74,18.74,0,0,0,87,40.1h-.1V38c.41-.1,1-.23,1.78-.36a14,14,0,0,1,2.29-.21,11.8,11.8,0,0,1,2.29.21,4.62,4.62,0,0,1,1.7.75A3.28,3.28,0,0,1,96,39.69a4.67,4.67,0,0,1,.36,2v8.41ZM94.27,47V43.57c-.64,0-1.39.1-2.26.15a10.68,10.68,0,0,0-2.06.33,3.66,3.66,0,0,0-1.47.8,1.92,1.92,0,0,0-.57,1.49A2,2,0,0,0,88.56,48a3,3,0,0,0,2,.54,4.6,4.6,0,0,0,2-.44A11.73,11.73,0,0,0,94.27,47Z"/><path class="cls-1" d="M109.27,46.53a3.4,3.4,0,0,1-1.42,2.8A6,6,0,0,1,104,50.41a8.55,8.55,0,0,1-2.52-.33,12.33,12.33,0,0,1-1.93-.72V47h.1a8.3,8.3,0,0,0,2.21,1.18,7.06,7.06,0,0,0,2.32.44,4.52,4.52,0,0,0,2.16-.44,1.53,1.53,0,0,0,.77-1.42,1.4,1.4,0,0,0-.41-1.11,3.78,3.78,0,0,0-1.62-.64q-.46-.12-1.16-.23a12.79,12.79,0,0,1-1.31-.28,4.32,4.32,0,0,1-2.32-1.29,3.16,3.16,0,0,1-.69-2.06,3.37,3.37,0,0,1,.31-1.44,3.54,3.54,0,0,1,1-1.21,4.45,4.45,0,0,1,1.6-.82,7.07,7.07,0,0,1,2.16-.31,9.92,9.92,0,0,1,2.26.28,8.56,8.56,0,0,1,1.9.67v2.24h-.13a8.17,8.17,0,0,0-2-1,6.46,6.46,0,0,0-2.24-.41,4,4,0,0,0-1.93.44,1.42,1.42,0,0,0-.8,1.31,1.36,1.36,0,0,0,.49,1.16,4,4,0,0,0,1.52.64c.39.08.82.18,1.29.26s.87.18,1.21.26a4.41,4.41,0,0,1,2.24,1.16A2.83,2.83,0,0,1,109.27,46.53Z"/><path class="cls-1" d="M121.93,50.11h-2.08V48.77l-.75.54a4.32,4.32,0,0,1-.93.54,6.61,6.61,0,0,1-1.21.44,7.17,7.17,0,0,1-1.6.18,3.94,3.94,0,0,1-2.86-1.11,3.78,3.78,0,0,1-1.16-2.83,3.89,3.89,0,0,1,.62-2.29,4,4,0,0,1,1.72-1.36,8.83,8.83,0,0,1,2.73-.67c1.05-.13,2.21-.21,3.42-.26v-.33a2.37,2.37,0,0,0-.26-1.18,2,2,0,0,0-.72-.75,2.67,2.67,0,0,0-1.08-.33,10.59,10.59,0,0,0-1.31-.08,9.92,9.92,0,0,0-1.83.21,18.74,18.74,0,0,0-2.08.62h-.1V38c.41-.1,1-.23,1.78-.36a14,14,0,0,1,2.29-.21,11.8,11.8,0,0,1,2.29.21,4.62,4.62,0,0,1,1.7.75,3.28,3.28,0,0,1,1.08,1.34,4.75,4.75,0,0,1,.36,2v8.41ZM119.85,47V43.57c-.64,0-1.39.1-2.26.15a10.68,10.68,0,0,0-2.06.33,3.66,3.66,0,0,0-1.47.8,2,2,0,0,0-.57,1.49,2,2,0,0,0,.64,1.62,3,3,0,0,0,2,.54,4.6,4.6,0,0,0,2-.44A10.53,10.53,0,0,0,119.85,47Z"/><path class="cls-1" d="M128.08,50.11H126V32.77h2.08Z"/><path class="cls-1" d="M142.62,44.11h-9.16a5.29,5.29,0,0,0,.33,2,3.62,3.62,0,0,0,1,1.39,3.82,3.82,0,0,0,1.36.8,5.43,5.43,0,0,0,1.75.26A6.92,6.92,0,0,0,140.4,48a6.05,6.05,0,0,0,1.83-1h.1v2.29a15.3,15.3,0,0,1-2.16.75,8.67,8.67,0,0,1-2.32.31A6.74,6.74,0,0,1,133,48.72,6.29,6.29,0,0,1,131.27,44a6.82,6.82,0,0,1,1.67-4.84,5.74,5.74,0,0,1,4.37-1.8,5.08,5.08,0,0,1,3.88,1.47A5.93,5.93,0,0,1,142.57,43v1.16Zm-2-1.62a3.65,3.65,0,0,0-.82-2.55,3.21,3.21,0,0,0-2.5-.9,3.59,3.59,0,0,0-2.68,1,4,4,0,0,0-1.13,2.47h7.13Z"/><path class="cls-1" d="M154.68,46.53a3.4,3.4,0,0,1-1.42,2.8,6,6,0,0,1-3.86,1.08,8.55,8.55,0,0,1-2.52-.33,12.33,12.33,0,0,1-1.93-.72V47h.1a8.3,8.3,0,0,0,2.21,1.18,7.06,7.06,0,0,0,2.32.44,4.52,4.52,0,0,0,2.16-.44,1.53,1.53,0,0,0,.77-1.42,1.4,1.4,0,0,0-.41-1.11,3.78,3.78,0,0,0-1.62-.64q-.46-.12-1.16-.23a12.79,12.79,0,0,1-1.31-.28,4.32,4.32,0,0,1-2.32-1.29,3.16,3.16,0,0,1-.69-2.06,3.37,3.37,0,0,1,.31-1.44,3.54,3.54,0,0,1,1-1.21,4.45,4.45,0,0,1,1.6-.82A7.07,7.07,0,0,1,150,37.4a9.92,9.92,0,0,1,2.26.28,8.56,8.56,0,0,1,1.9.67v2.24h-.1a8.17,8.17,0,0,0-2-1,6.46,6.46,0,0,0-2.24-.41,4,4,0,0,0-1.93.44,1.42,1.42,0,0,0-.8,1.31,1.36,1.36,0,0,0,.49,1.16,4,4,0,0,0,1.52.64c.39.08.82.18,1.29.26s.87.18,1.21.26a4.41,4.41,0,0,1,2.24,1.16A2.82,2.82,0,0,1,154.68,46.53Z"/></svg>