<svg id="Слой_1" data-name="Слой 1" xmlns="http://www.w3.org/2000/svg" viewBox="0 0 155 83"><defs><style>.cls-1{fill:#b92a38;}</style></defs><title>Дибрэйн</title><path class="cls-1" d="M13.41,23.87H.41v35h13a17.57,17.57,0,0,0,12.81-5.08,16.75,16.75,0,0,0,5.17-12.42,16.72,16.72,0,0,0-5.17-12.42A17.48,17.48,0,0,0,13.41,23.87ZM20.84,49a10,10,0,0,1-7.43,3.12H7.92V30.63h5.49a9.94,9.94,0,0,1,7.49,3.12,10.59,10.59,0,0,1,3,7.62A10.41,10.41,0,0,1,20.84,49Z"/><path class="cls-1" d="M51.21,33.88a8.77,8.77,0,0,0-2.6.39,9.27,9.27,0,0,0-2,.86,9,9,0,0,0-1.44,1.08c-.45.41-.73.67-.86.82a3.29,3.29,0,0,0-.3.37V23.87H37.2v35H44v-3l.73.9a8.17,8.17,0,0,0,2.58,1.72,9.08,9.08,0,0,0,3.94.86,11,11,0,0,0,8.25-3.7,12.74,12.74,0,0,0,3.51-9,12.65,12.65,0,0,0-3.49-9A11,11,0,0,0,51.21,33.88Zm3,17.59a5.69,5.69,0,0,1-8.48,0A6.91,6.91,0,0,1,44,46.6a6.9,6.9,0,0,1,1.74-4.84,5.69,5.69,0,0,1,8.48,0,6.9,6.9,0,0,1,1.74,4.84A6.91,6.91,0,0,1,54.21,51.47Z"/><path class="cls-1" d="M77.91,35a9.65,9.65,0,0,0-2.35,1.44c-.37.37-.62.67-.84.88v-3H68v24.5h6.74V47.12a6.93,6.93,0,0,1,1.55-4.84,5.45,5.45,0,0,1,4.22-1.68,9,9,0,0,1,2.24.26V34.12h-1A8.43,8.43,0,0,0,77.91,35Z"/><path class="cls-1" d="M104,37.37l-.75-.9a8.18,8.18,0,0,0-2.58-1.7,8.93,8.93,0,0,0-3.92-.88,11,11,0,0,0-8.27,3.7,12.58,12.58,0,0,0-3.51,9,12.58,12.58,0,0,0,3.51,9,11,11,0,0,0,8.27,3.7A9.25,9.25,0,0,0,99.35,59a7.84,7.84,0,0,0,2-.84,9,9,0,0,0,1.44-1.08c.45-.41.73-.67.88-.84a3.24,3.24,0,0,0,.3-.39v3h6.74V34.44H104v2.93Zm-1.77,14.1a5.69,5.69,0,0,1-8.48,0A6.93,6.93,0,0,1,92,46.6a6.82,6.82,0,0,1,1.77-4.84,5.69,5.69,0,0,1,8.48,0A6.91,6.91,0,0,1,104,46.6,6.93,6.93,0,0,1,102.26,51.47Z"/><rect class="cls-1" x="117.78" y="34.35" width="6.76" height="24.5"/><path class="cls-1" d="M121,23.63a3.75,3.75,0,1,0,0,7.49,4.05,4.05,0,0,0,2.93-1A3.62,3.62,0,0,0,125,27.38a3.55,3.55,0,0,0-1.08-2.71A4.09,4.09,0,0,0,121,23.63Z"/><path class="cls-1" d="M145.08,33.88a8,8,0,0,0-3.81,1,9.69,9.69,0,0,0-2.35,1.55c-.37.39-.62.71-.84,1v-3h-6.74v24.5h6.74V46.13a6.18,6.18,0,0,1,1.36-4.26,4.71,4.71,0,0,1,3.66-1.51,4.51,4.51,0,0,1,3.42,1.38,5,5,0,0,1,1.33,3.62v13.5h6.74V44.62a11.18,11.18,0,0,0-2.65-7.84A8.91,8.91,0,0,0,145.08,33.88Z"/></svg>