<svg id="Слой_1" data-name="Слой 1" xmlns="http://www.w3.org/2000/svg" viewBox="0 0 163 72"><title>Лого для фронта страниц-01</title><path d="M82.27,21.32c0-10.76,7.11-18.92,19.06-18.92,12.94,0,19.14,8.86,19.14,18.5,0,10.69-7.11,18.92-19.14,18.92C88.53,39.68,82.27,31,82.27,21.32Zm10-.56c0,5.7,2.6,11,9.08,11,7,0,9.22-5.49,9.22-10.41,0-5.63-2.67-11-9.22-11C94.44,10.41,92.26,15.9,92.26,20.75Z"/><polygon points="69.01 22.11 58.74 44.95 51.6 22.11 42.24 22.11 53.22 57.23 47.21 70.61 56.73 70.61 78.53 22.11 69.01 22.11"/><polygon points="151.68 22.11 141.41 44.95 134.27 22.11 124.91 22.11 135.89 57.23 129.88 70.61 139.4 70.61 161.2 22.11 151.68 22.11"/><polygon points="39.05 3.39 2.04 3.39 1.8 3.39 1.8 19.62 11.77 19.62 11.77 12.29 39.05 12.29 39.05 3.39"/><polygon points="80.93 40.82 80.93 57.04 90.9 57.04 90.9 49.72 111.83 49.72 111.83 57.04 121.8 57.04 121.8 40.82 80.93 40.82"/><path d="M39.8,38.7c0,10.76-7.11,18.92-19.06,18.92C7.79,57.62,1.6,48.76,1.6,39.12c0-10.69,7.11-18.92,19.14-18.92C33.54,20.33,39.8,29,39.8,38.7Zm-10,.56c0-5.7-2.6-11-9.08-11-7,0-9.22,5.49-9.22,10.41,0,5.63,2.67,11,9.22,11C27.63,49.6,29.81,44.11,29.81,39.26Z"/></svg>
