<svg width="300px" height="133px" id="Слой_1" data-name="Слой 1" xmlns="http://www.w3.org/2000/svg" viewBox="0 0 163 72"><defs><style>.cls-1{fill:#3cd52e;}.cls-2{fill:#ffcc5b;}</style></defs><title>Лого для главной</title><path class="cls-1" d="M82.27,21.32c0-10.76,7.11-18.92,19.06-18.92,12.94,0,19.14,8.86,19.14,18.5,0,10.69-7.11,18.92-19.14,18.92C88.53,39.68,82.27,31,82.27,21.32Zm10-.56c0,5.7,2.6,11,9.08,11,7,0,9.22-5.49,9.22-10.41,0-5.63-2.67-11-9.22-11C94.44,10.41,92.26,15.9,92.26,20.75Z"/><polygon class="cls-1" points="69.01 22.11 58.74 44.95 51.6 22.11 42.24 22.11 53.22 57.23 47.21 70.61 56.73 70.61 78.53 22.11 69.01 22.11"/><polygon class="cls-1" points="151.68 22.11 141.41 44.95 134.27 22.11 124.91 22.11 135.89 57.23 129.88 70.61 139.4 70.61 161.2 22.11 151.68 22.11"/><polygon class="cls-1" points="39.05 3.39 2.04 3.39 1.8 3.39 1.8 19.62 11.77 19.62 11.77 12.29 39.05 12.29 39.05 3.39"/><polygon class="cls-1" points="80.93 40.82 80.93 57.04 90.9 57.04 90.9 49.72 111.83 49.72 111.83 57.04 121.8 57.04 121.8 40.82 80.93 40.82"/><circle class="cls-2" cx="21.04" cy="38.46" r="18.96"/><path d="M13.26,42.45a.63.63,0,0,0-1,.68,9.51,9.51,0,0,0,17.58.17.63.63,0,0,0-1-.69C26,45.3,20.15,49.13,13.26,42.45Z"/><path d="M36,30.52l-8.66.72-.31,0c-.08,0-2.87.34-6,.52h-.22c-3.11-.18-5.9-.52-6-.52l-.3,0-8.66-.72c-1.7,0-2.64.81-2.56,2.29,0,.06.61,3.43.61,3.43A7.31,7.31,0,0,0,5.09,39.4a4,4,0,0,0,1.5,1.25,4.2,4.2,0,0,0,.94.35,5,5,0,0,0,.87.08l.94,0h2.8a6,6,0,0,0,2.67-.62,5.4,5.4,0,0,0,2.57-3A6.57,6.57,0,0,1,20,34.65a1.84,1.84,0,0,1,2,0A8.23,8.23,0,0,1,23.56,36a9.69,9.69,0,0,1,.9,1.29c.32.49.52,1.08.85,1.58a4.35,4.35,0,0,0,1.21,1.27,5.88,5.88,0,0,0,2.91,1H32.6l.94,0a5,5,0,0,0,.87-.08,4.2,4.2,0,0,0,.94-.35,4,4,0,0,0,1.5-1.25A7.31,7.31,0,0,0,38,36.24s.61-3.37.61-3.43C38.67,31.33,37.73,30.49,36,30.52Z"/></svg>
