<svg id="Слой_1" data-name="Слой 1" xmlns="http://www.w3.org/2000/svg" viewBox="0 0 155 83"><defs><style>.cls-1{fill:#00975f;}.cls-2{fill:#fdfefe;}.cls-3{fill:#fefefe;}</style></defs><title>мегафон</title><path class="cls-1" d="M15.79,27.92A13.47,13.47,0,0,1,26.63,36a13.62,13.62,0,0,1-11,19,12,12,0,0,1-2.4,0c-.32,0-.44-.13-.44-.47q0-5.53,0-11.06c0-.33.1-.48.45-.46s.8,0,1.21,0c.94,0,1.33-.39,1.33-1.34q0-5.32,0-10.64C15.79,30.08,15.79,29,15.79,27.92Z"/><path class="cls-1" d="M14.1,34.66c0,2.05,0,4.11,0,6.16,0,.47-.14.62-.6.59-2.49-.14-2.31.62-2.3,2.32,0,3.42,0,6.85,0,10.27,0,.62-.08.81-.77.63A13.6,13.6,0,0,1,12.07,28c.49-.07,1-.08,1.48-.15s.56.09.56.53C14.08,30.5,14.1,32.58,14.1,34.66Z"/><path class="cls-1" d="M38.09,36.91c0,3.76,0,7.51,0,11.27,0,.55-.13.75-.7.71-.73-.05-1.46,0-2.2,0-.36,0-.5-.1-.5-.48,0-4.11,0-8.22,0-12.33a3,3,0,0,1,2.31-3.16,3.28,3.28,0,0,1,3.83,2C42,37.23,43,39.63,44,42l1.57,3.63c.22-.48.38-.83.53-1.18l3.75-8.7A6.36,6.36,0,0,1,51,33.87,3.1,3.1,0,0,1,54.22,33a2.85,2.85,0,0,1,2.16,2.46,6.41,6.41,0,0,1,.1,1.13c0,3.9,0,7.8,0,11.7,0,.55-.13.75-.7.71a14.12,14.12,0,0,0-2.05,0c-.53,0-.67-.13-.66-.66,0-3.62,0-7.23,0-10.85v-.61a1.34,1.34,0,0,0-.4.67c-1.42,3.19-2.82,6.38-4.25,9.56a2.92,2.92,0,0,1-3.37,2,3.12,3.12,0,0,1-2.35-2q-2.12-4.75-4.22-9.5c-.09-.21-.19-.42-.29-.62Z"/><path class="cls-1" d="M110,48.88h-.28c-1.32,0-1.34,0-1.37-1.28,0-.41-.16-.52-.55-.51a18.8,18.8,0,0,1-3.32-.16,5.38,5.38,0,0,1-4.74-4.42,10.68,10.68,0,0,1-.07-4.5,5.49,5.49,0,0,1,5.11-4.72,48.89,48.89,0,0,1,5.87-.12,30.44,30.44,0,0,1,4.18.09c3.47.45,5.35,2.41,5.63,5.92a10.48,10.48,0,0,1-.22,3.38,5.4,5.4,0,0,1-4.78,4.37,19.38,19.38,0,0,1-3.18.16c-.35,0-.56,0-.57.48,0,1.31-.06,1.31-1.41,1.31Z"/><path class="cls-1" d="M130.69,49.11a13.82,13.82,0,0,1-3.56-.34A5.26,5.26,0,0,1,123,44.16a11.82,11.82,0,0,1,.15-4.78,5,5,0,0,1,4.12-3.92,16.35,16.35,0,0,1,6.83,0,5.09,5.09,0,0,1,4.19,4.19,11.46,11.46,0,0,1,.08,4.44,5.39,5.39,0,0,1-4.84,4.81A17.64,17.64,0,0,1,130.69,49.11Z"/><path class="cls-1" d="M65.65,48.78H61a2,2,0,0,1-2.17-2.1q0-4.68,0-9.36a2,2,0,0,1,2.12-2.06c3.17,0,6.33,0,9.5,0,.43,0,.59.1.56.55a12.35,12.35,0,0,0,0,1.77c0,.49-.15.58-.6.57-2.46,0-4.91,0-7.37,0-.66,0-.86.21-.84.85,0,1.57,0,1.57,1.58,1.57,2.13,0,4.25,0,6.38,0,.45,0,.63.09.6.58a12.46,12.46,0,0,0,0,1.7c0,.44-.13.56-.56.55-2.43,0-4.87,0-7.3,0-.57,0-.73.17-.69.71s0,1,0,1.56c0,.27.07.36.42.36,2.65,0,5.29,0,7.94,0,.35,0,.47.12.43.45,0,0,0,0,0,.07-.05.77.33,1.77-.15,2.24s-1.39.11-2.12.11Z"/><path class="cls-1" d="M154.58,42.14c0,2.06,0,4.11,0,6.17,0,.47-.08.68-.61.65a18.8,18.8,0,0,0-2.2,0c-.49,0-.59-.16-.58-.61,0-1.42,0-2.84,0-4.25,0-.5-.08-.71-.65-.7-1.91,0-3.83,0-5.74,0-.44,0-.56.13-.56.56,0,1.46,0,2.93,0,4.39,0,.46-.12.62-.59.6-.78,0-1.56,0-2.34,0-.41,0-.58-.08-.58-.54q0-6.27,0-12.54c0-.44.13-.58.57-.56.78,0,1.56,0,2.34,0,.45,0,.62.11.61.59,0,1.32,0,2.65,0,4,0,.45.11.61.58.6q2.87,0,5.74,0c.51,0,.63-.17.62-.65,0-1.32,0-2.65,0-4,0-.39.09-.55.51-.53.75,0,1.51,0,2.27,0,.46,0,.61.12.6.6C154.57,38,154.58,40.06,154.58,42.14Z"/><path class="cls-1" d="M83,48.94l3.76-8.2L88.45,37a3.1,3.1,0,0,1,5.8,0q2.59,5.65,5.21,11.3c.24.52.13.64-.41.61-.83,0-1.65,0-2.48,0a.59.59,0,0,1-.67-.46c-.24-.66-.57-1.3-.8-2a.63.63,0,0,0-.73-.47q-3,0-6,0a.68.68,0,0,0-.78.52c-.22.62-.51,1.22-.74,1.84a.68.68,0,0,1-.76.54C85.09,48.91,84.1,48.94,83,48.94Z"/><path class="cls-1" d="M73.3,42.89c0-1.72,0-3.45,0-5.17s.76-2.41,2.44-2.41c3,0,6,0,9.07,0,.55,0,.7.15.65.67a10.42,10.42,0,0,0,0,1.63c0,.49-.12.64-.62.64-2.43,0-4.87,0-7.3,0-.69,0-.89.21-.88.89,0,3,0,6,0,8.93,0,.75-.22.93-.91.86a11.91,11.91,0,0,0-1.91,0c-.49,0-.59-.17-.59-.61C73.31,46.49,73.3,44.69,73.3,42.89Z"/><path class="cls-2" d="M19.53,48.94a1.69,1.69,0,0,1-1.73-1.62,1.69,1.69,0,1,1,1.73,1.62Z"/><path class="cls-2" d="M15.49,45.61a1.7,1.7,0,0,1,1.68,1.72,1.69,1.69,0,1,1-1.68-1.72Z"/><path class="cls-3" d="M25.2,47.3a1.67,1.67,0,1,1-3.34-.09,1.67,1.67,0,0,1,3.34.09Z"/><path class="cls-2" d="M13.12,37.43a1.7,1.7,0,0,1-1.68,1.66,1.72,1.72,0,0,1-1.68-1.68,1.7,1.7,0,0,1,1.73-1.69A1.68,1.68,0,0,1,13.12,37.43Z"/><path class="cls-3" d="M111.72,40.19c0-1.18,0-2.36,0-3.55,0-.52.17-.66.65-.62s.9,0,1.35,0a3.13,3.13,0,0,1,3.35,3,8.69,8.69,0,0,1-.13,2.89,3.05,3.05,0,0,1-3,2.39c-.59,0-1.18,0-1.77,0-.4,0-.47-.15-.46-.5C111.73,42.65,111.72,41.42,111.72,40.19Z"/><path class="cls-3" d="M108.27,40.18c0,1.2,0,2.41,0,3.61,0,.4-.11.55-.51.53-.68,0-1.37,0-2-.08a2.9,2.9,0,0,1-2.78-2.64,8.4,8.4,0,0,1,.11-3.09,2.94,2.94,0,0,1,2.83-2.44c.66-.06,1.32,0,2,0,.37,0,.42.17.42.47C108.27,37.73,108.27,39,108.27,40.18Z"/><path class="cls-3" d="M130.63,38a12.19,12.19,0,0,1,2.1.19A2.83,2.83,0,0,1,135,40.48a7.4,7.4,0,0,1,0,3.29,2.79,2.79,0,0,1-2.43,2.33,11.38,11.38,0,0,1-3.52,0c-1.8-.25-2.65-1.21-2.86-3.14a7.35,7.35,0,0,1,.05-2.11,3,3,0,0,1,3-2.78C129.74,38.07,130.21,38.05,130.63,38Z"/><path class="cls-2" d="M88.93,43.35l2-4.79c.07-.16.13-.31.33-.31s.25.18.31.33c.61,1.45,1.22,2.91,1.85,4.36.14.32.06.41-.28.41Z"/></svg>