<svg id="Слой_1" data-name="Слой 1" xmlns="http://www.w3.org/2000/svg" viewBox="0 0 155 83"><defs><style>.cls-1{fill:#fefefe;}.cls-2{fill:#505050;}.cls-3{fill:#636363;}.cls-4{fill:#101010;}.cls-5{fill:#646464;}.cls-6{fill:#141414;}.cls-7{fill:#131313;}.cls-8{fill:#474747;}.cls-9{fill:#6c6c6c;}.cls-10{fill:#878787;}.cls-11{fill:#555;}.cls-12{fill:gray;}.cls-13{fill:#a1a1a1;}.cls-14{fill:#6e6e6e;}.cls-15{fill:#6a6a6a;}.cls-16{fill:#898989;}</style></defs><title>Тильда</title><path d="M74.77,0h.48c.1.11.23.08.35.08s.32,0,.45-.08h.64A5.06,5.06,0,0,0,78.1.1c.33,0,.68.09,1-.08h1c1.48.2,3,.15,4.45.41A42.54,42.54,0,0,1,95,3.7,41.62,41.62,0,0,1,117.58,30a29.56,29.56,0,0,1,1.32,8.06.33.33,0,0,0,.08.22v.48c-.14.14-.06.32-.08.48s-.06.34.08.48v.64a1.23,1.23,0,0,0,0,1v.32a1.23,1.23,0,0,0,0,1v.48c-.14.14-.06.32-.08.48s-.06.34.08.48v.8c-.21,1.56-.25,3.12-.56,4.67A41.88,41.88,0,0,1,84.29,82.66c-1.18.21-2.39.14-3.57.32h-.32c-.09-.1-.21-.08-.32-.08s-.23,0-.32.08h-.8a.87.87,0,0,0-.8,0H76.86a1.23,1.23,0,0,0-1,0h-.64a.21.21,0,0,0-.32,0h-.8a48,48,0,0,1-5-.63A41.93,41.93,0,0,1,40.27,60.24,39.65,39.65,0,0,1,36.2,46.85c-.09-.81,0-1.65-.19-2.46V43.11c.17-.32,0-.67.08-1A5.07,5.07,0,0,0,36,40.7v-.64c.13-.13.07-.3.08-.45s0-.25-.08-.35v-.64c.22-1.61.24-3.23.55-4.84a41.79,41.79,0,0,1,7.1-16.55A41.13,41.13,0,0,1,57,5.25,40.63,40.63,0,0,1,72.15.2C73,.1,73.9.17,74.77,0Z"/><path class="cls-1" d="M74.77,0a13,13,0,0,1-2.95.44,41.49,41.49,0,0,0-34,29,43.19,43.19,0,0,0-1.67,8.64c0,.19.11.44-.17.55q0-19,0-37.91c0-.58.12-.7.7-.7Q55.73,0,74.77,0Z"/><path class="cls-1" d="M119,38.28a11.38,11.38,0,0,1-.44-2.79A41.46,41.46,0,0,0,85.24.79,37.7,37.7,0,0,0,80.39.17c-.13,0-.27,0-.32-.16q19.13,0,38.27,0c.55,0,.66.11.66.66Q119,19.47,119,38.28Z"/><path class="cls-1" d="M36,44.39a9.77,9.77,0,0,1,.43,2.79A41.5,41.5,0,0,0,66.94,81.62a43.74,43.74,0,0,0,6.71,1.19c.17,0,.39-.08.48.17Q55.41,83,36.7,83c-.58,0-.7-.12-.7-.7Q36,63.35,36,44.39Z"/><path class="cls-1" d="M80.72,83a12.69,12.69,0,0,1,2.79-.43,41.5,41.5,0,0,0,34.11-30.42,45.78,45.78,0,0,0,1.2-6.7c0-.19-.1-.44.17-.56q0,18.73,0,37.46c0,.55-.11.66-.66.66Q99.53,83,80.72,83Z"/><path class="cls-2" d="M78.15.15c-.49,0-1,.18-1.45-.13h1.45q.08,0,.05.09S78.17.15,78.15.15Z"/><path class="cls-2" d="M36,40.7c.31.46.12,1,.13,1.45,0,.06-.09.06-.13,0Z"/><path class="cls-3" d="M36,42.14h.13c0,.32.19.68-.13,1Z"/><path class="cls-4" d="M119,42.63a.73.73,0,0,1,0-1Z"/><path class="cls-4" d="M119,41.34a.73.73,0,0,1,0-1Z"/><path class="cls-5" d="M78.15.15s0-.09,0-.13h1C78.83.34,78.47.12,78.15.15Z"/><path class="cls-6" d="M75.89,83a.73.73,0,0,1,1,0Z"/><path class="cls-7" d="M78.14,83a.54.54,0,0,1,.8,0Z"/><path class="cls-8" d="M118.85,43.6c0-.18-.07-.37.13-.49v.48Q118.93,43.69,118.85,43.6Z"/><path class="cls-9" d="M118.85,43.6H119v.48C118.72,44,118.86,43.77,118.85,43.6Z"/><path class="cls-10" d="M36.15,39.57c0,.18.1.38-.14.49v-.48Q36.08,39.47,36.15,39.57Z"/><path class="cls-11" d="M119,39.73c-.21-.12-.16-.31-.13-.49s.1-.06.13,0Z"/><path class="cls-12" d="M119,39.25h-.13c0-.17-.14-.38.13-.47Z"/><path class="cls-10" d="M76.05,0c-.11.24-.31.15-.49.14s-.06-.06,0-.09,0,0,.05,0Z"/><path class="cls-13" d="M36.15,39.57H36v-.32C36.22,39.29,36.17,39.43,36.15,39.57Z"/><path class="cls-14" d="M74.93,83c.11-.22.21-.19.32,0Z"/><path class="cls-13" d="M75.57,0a1.24,1.24,0,0,1,0,.14c-.13,0-.28.07-.32-.14Z"/><path class="cls-15" d="M79.75,83c.06-.17.19-.16.33-.14s.06.06,0,.09,0,0-.05,0Z"/><path class="cls-16" d="M80.07,83a1.11,1.11,0,0,1,0-.14c.13,0,.28-.07.31.14Z"/><path class="cls-1" d="M77.52,80.29a38.77,38.77,0,1,1,38.75-38.76A38.76,38.76,0,0,1,77.52,80.29Z"/><path d="M67.47,23a17.85,17.85,0,0,1,7.13,1.92c2.7,1.16,5.28,2.58,8,3.64a12.32,12.32,0,0,0,4.36,1,3.37,3.37,0,0,0,3.38-2.23A8.18,8.18,0,0,0,91,23.89c0-.62.21-.76.79-.73,1.07,0,2.14,0,3.21,0,.3,0,.49,0,.5.41a14.38,14.38,0,0,1-1,6.28c-1.49,3.34-4.73,5-8.61,4.66a26.51,26.51,0,0,1-8.22-2.58C75.57,31,73.55,30,71.49,29a10.28,10.28,0,0,0-4.4-1.09,3.73,3.73,0,0,0-3.73,2.52,8.94,8.94,0,0,0-.63,3.29c0,.46-.15.59-.6.57-1.12,0-2.25,0-3.38,0-.38,0-.57,0-.57-.5a14.38,14.38,0,0,1,.92-5.42A8.29,8.29,0,0,1,67.47,23Z"/><path d="M74.33,34.88l5.25,1.85a.46.46,0,0,1,.34.54c0,.62,0,1.23,0,1.85q0,12.9,0,25.8c0,.6-.11.83-.77.81-1.44-.06-2.89,0-4.34,0-.4,0-.56-.08-.56-.52q0-15.07,0-30.14A1,1,0,0,1,74.33,34.88Z"/></svg>