<svg id="Слой_1" data-name="Слой 1" xmlns="http://www.w3.org/2000/svg" viewBox="0 0 155 83"><defs><style>.cls-1,.cls-5{fill:#231300;}.cls-2{fill:#cdd2d5;}.cls-2,.cls-4,.cls-5{fill-rule:evenodd;}.cls-3{fill:#fff;}.cls-4{fill:#ffe735;}</style></defs><title>Тинькофф</title><path class="cls-1" d="M69,44.44c.19-.3.38-.59.59-.88h.12v6.6h3V39h-3l-3.36,5.11-.57.85c-.19.28-.38.57-.56.87h-.12V39h-3V50.16h3Q66,49,66.79,47.77t1.63-2.42c.22-.3.42-.61.61-.9"/><polygon class="cls-1" points="78.56 45.51 83.03 45.51 83.03 50.16 86.03 50.16 86.03 38.95 83.03 38.95 83.03 43.22 78.56 43.22 78.56 38.95 75.57 38.95 75.57 50.16 78.56 50.16 78.56 45.51"/><path class="cls-1" d="M98.41,46.57a3.23,3.23,0,0,0-1.19-2.67,5,5,0,0,0-3.2-1H91.86V39h-3V50.16h5.29a5.1,5.1,0,0,0,3.1-.86,3.18,3.18,0,0,0,1.16-2.74M95,47.6a2,2,0,0,1-1.17.32H91.86V45.16h1.91a1.92,1.92,0,0,1,1.2.34,1.23,1.23,0,0,1,.44,1A1.21,1.21,0,0,1,95,47.6"/><path class="cls-1" d="M137,48.69a5.5,5.5,0,0,0,1.25-1.81,6,6,0,0,0,.46-2.41,5.7,5.7,0,0,0-.45-2.29A5.33,5.33,0,0,0,137,40.41a5.72,5.72,0,0,0-1.88-1.17,7.7,7.7,0,0,0-2.36-.49V34.53L130,35.61v3.14a7.3,7.3,0,0,0-2.35.52,6.26,6.26,0,0,0-1.9,1.19,5.37,5.37,0,0,0-1.72,4,6.5,6.5,0,0,0,.43,2.42,5.2,5.2,0,0,0,1.22,1.83,5.52,5.52,0,0,0,1.89,1.19,7.92,7.92,0,0,0,2.44.49v4.75l2.84-1.08V50.39a7.28,7.28,0,0,0,2.33-.5A5.76,5.76,0,0,0,137,48.69m-7-.5a3.61,3.61,0,0,1-1.2-.3,3,3,0,0,1-1-.71,3.38,3.38,0,0,1-.67-1.11,4.26,4.26,0,0,1-.25-1.52,3.77,3.77,0,0,1,.82-2.46A3.14,3.14,0,0,1,130,41Zm4-.28a3.37,3.37,0,0,1-1.16.3V41a3.07,3.07,0,0,1,2.27,1.11,3.83,3.83,0,0,1,.8,2.46,4.19,4.19,0,0,1-.26,1.54,3.47,3.47,0,0,1-.68,1.12,3,3,0,0,1-1,.71"/><path class="cls-1" d="M154.54,46.88a6,6,0,0,0,.46-2.41,5.7,5.7,0,0,0-.45-2.29,5.32,5.32,0,0,0-1.24-1.78,5.72,5.72,0,0,0-1.88-1.17,7.67,7.67,0,0,0-2.36-.49V34.53l-2.81,1.08v3.14a7.26,7.26,0,0,0-2.35.52,6.22,6.22,0,0,0-1.9,1.19,5.36,5.36,0,0,0-1.72,4,6.44,6.44,0,0,0,.43,2.42,5.19,5.19,0,0,0,1.22,1.83,5.51,5.51,0,0,0,1.89,1.19,7.93,7.93,0,0,0,2.44.49v4.75l2.84-1.08V50.39a7.32,7.32,0,0,0,2.33-.5,5.8,5.8,0,0,0,1.87-1.19,5.48,5.48,0,0,0,1.25-1.81m-8.28,1.31a3.62,3.62,0,0,1-1.2-.3,3,3,0,0,1-1-.71,3.35,3.35,0,0,1-.67-1.11,4.27,4.27,0,0,1-.25-1.52,3.78,3.78,0,0,1,.81-2.47,3.15,3.15,0,0,1,2.3-1.11Zm5.62-2.11a3.54,3.54,0,0,1-.68,1.12,3,3,0,0,1-1,.71,3.38,3.38,0,0,1-1.16.3V41a3.07,3.07,0,0,1,2.27,1.11,3.83,3.83,0,0,1,.8,2.47,4.19,4.19,0,0,1-.26,1.54"/><polygon class="cls-1" points="49.98 36.8 54.35 36.8 54.35 50.17 57.47 50.17 57.47 36.8 61.69 36.8 61.69 34.19 49.98 34.19 49.98 36.8"/><polygon class="cls-1" points="110.89 39.01 107.47 39.01 103.45 43.77 103.45 38.95 100.48 38.95 100.48 50.17 103.45 50.17 103.45 44.72 107.38 50.17 110.92 50.17 106.5 44.17 110.89 39.01"/><path class="cls-1" d="M120.89,40.32a4.77,4.77,0,0,0-1.73-1.16,6.31,6.31,0,0,0-4.43,0A5,5,0,0,0,113,40.3a5.14,5.14,0,0,0-1.13,1.83,7.72,7.72,0,0,0,0,4.87,5.24,5.24,0,0,0,1.1,1.83A4.85,4.85,0,0,0,114.65,50a5.87,5.87,0,0,0,2.25.41,6,6,0,0,0,2.22-.4,4.92,4.92,0,0,0,1.74-1.16A5.33,5.33,0,0,0,122,47a7.47,7.47,0,0,0,0-4.87,5.3,5.3,0,0,0-1.12-1.83m-1.64,5.62a3.73,3.73,0,0,1-.47,1.09,2.26,2.26,0,0,1-.77.73,2.09,2.09,0,0,1-1.06.26,2.14,2.14,0,0,1-1.85-.9,4.38,4.38,0,0,1-.64-2.56,4.44,4.44,0,0,1,.62-2.43,2,2,0,0,1,1.8-1,2.15,2.15,0,0,1,1.9,1,4.37,4.37,0,0,1,.64,2.49,5.1,5.1,0,0,1-.17,1.33"/><path class="cls-2" d="M13.06,50.72c.57-.46,1-.68,1-1.79-.86.44-3.31.42-4.33-1-.29-.4,0-.6.3-.29.7.79,2,.43,2.47.2a1.86,1.86,0,0,0-.46-.78c.18-.17.68-.43.78-.88A6.24,6.24,0,0,0,11.53,46a.89.89,0,0,0,.25-1,3,3,0,0,1-2.67-.51c-.29-.39,0-.75.25-.49.53.56,3.13,1.19,4.1.23a1.44,1.44,0,0,1-.83-.62,1.7,1.7,0,0,0,1.67-1.28A4,4,0,0,1,12.56,42a1.1,1.1,0,0,0,.84-.8c-1.64-.1-1.77-1.32-1.78-1.52,1.07.62,2.95.34,2.46-1.17-.89,0-1.78-1.48.66-2.81,2.22-1.2,4.75-2.5,4.52-4.63-.15-1.36-2.39-2.3-2.68-3-.94.45-1.13,1-.7,1.83,0,0-2.09.21-2.25-1.08a2,2,0,0,1,.73-1.53c-.23,0-1.81-.42-2.28.86a1.56,1.56,0,0,0-2.23.05c.95.56,1.54,2.5,3.11,3.07a3,3,0,0,1-4-1.51c-1,1.5-1.57,3,.57,4.57-3.89,1.77-3.86,5.15-7.24,6.76.34.92,1.07.92,2,.78-1.46,1.9-.22,3.89-2.53,4.7C2,47.41,2.4,48,3.25,47.8c-.24.38-.4.37-.78.79,1.27.8,2.77.22,3.11-2.34.06-.46.69-.17.47.28-1.44,3,2.21,5.23.91,7.42a4.55,4.55,0,0,0,2.48-.52,2.46,2.46,0,0,1,.32,1.36,1,1,0,0,0,.9-.92,4.28,4.28,0,0,0,4.24,2.48c-1.25-1.78-.09-3.59-1.85-5.62m-2.33,2.2-.5.86a11,11,0,0,0-.72-1.56,1.54,1.54,0,0,1-1.66.85c.14-2-2.37-4-1.27-6.28a.93.93,0,0,0-.4-1.25c-1.68-.85-.9,2.69-2.59,2.8A4.49,4.49,0,0,0,4.09,47c-.36.09-1.21.64-1.6-.06A2.77,2.77,0,0,0,3.91,44.8a8.25,8.25,0,0,1,.48-1.92,10.73,10.73,0,0,1,1.25-1.76,8.43,8.43,0,0,1-2.49.23c3.27-2,2.53-4.56,7.52-6.84C9.38,33.53,8,32.76,9,30.9c1.37,1.64,4,1.07,5.37.31a5.14,5.14,0,0,1-3.6-2.86c.52-.08,1.2.49,1.59.75.19-.5.26-1.09.87-1.21-.81,1.74.79,2.64,2.32,2.65.24,0,1.23-.1,1.23-.1-.16-.33-.8-1.21-.33-1.57.37.35.82.63,1.23.94,3,2.3-1.41,4.43-3.21,5.4-2.82,1.52-2.06,3.33-.89,3.79,0,.21-.13.3-.33.36-.82.27-1.59-.31-2.25-.69,0,1.14,0,2.23,1.22,2.85l-.86.32a3.26,3.26,0,0,0,1.87,1,4.05,4.05,0,0,1-1.38.24,3.31,3.31,0,0,0,.44,1c-1.83.22-2.57-.83-3.13-.79C7.93,43.39,8,45.67,11,45.67l-.31.51a3.39,3.39,0,0,0,1.08.39c-.2.16-.39.38-.55.54l.47.41c-1.21.22-1.56-1.07-2.35-.45-1.2,1,1.45,3,4,2.66a8.27,8.27,0,0,1-1.07.88c2.07,2,1,3.8,1.9,5.14a3.75,3.75,0,0,1-3.42-2.84"/><path class="cls-2" d="M7.47,45.78c.43.45,1,.49,1.94.43-1.09-.13-1.69-.39-2.07-1.12a10.52,10.52,0,0,1-.11-1.19,8.28,8.28,0,0,1,1.13-4,2.79,2.79,0,0,0,2.39,2.65A2.94,2.94,0,0,1,8.86,39c.31-.49.66-1,1-1.52l.57-.72c-.2.72.67,1.47,1.26,1.59-.32-.31-1-1.31.57-3a7.15,7.15,0,0,0-1.29.79c2.85-3.08,5.2-3.17,6.27-4.72-1.56,1.07-5.69,1.64-7.55,1.14,1,.68,3.49.62,4.1.49-2,2-6.41,4-7.17,5.78a5.13,5.13,0,0,1,2.69-1.69,17.87,17.87,0,0,0-1.84,3.16C6.36,42.87,4.8,42.91,4.69,45c.53-1.62,1.62-2,2.37-3.1a10.47,10.47,0,0,0-.17,2.31,7.19,7.19,0,0,0,.52,2.52,5.08,5.08,0,0,0,1.2,4,5.35,5.35,0,0,1-.91-3.33c.93,1.79,3.58,4.27,4.86,5.93-1.28-2.14-4.42-4.64-5.09-7.53"/><path class="cls-2" d="M36.79,37.18a5.14,5.14,0,0,1,2.69,1.69c-.76-1.8-5.16-3.82-7.17-5.78.61.13,3.07.19,4.1-.49-1.85.5-6-.07-7.55-1.14,1.08,1.55,3.42,1.64,6.27,4.72a7.12,7.12,0,0,0-1.29-.79c1.57,1.68.89,2.68.57,3,.58-.12,1.46-.87,1.26-1.59l.57.72c.39.52.74,1,1,1.52a2.94,2.94,0,0,1-1.88,3.53,2.78,2.78,0,0,0,2.39-2.65,8.26,8.26,0,0,1,1.13,4,10.52,10.52,0,0,1-.11,1.19c-.38.72-1,1-2.07,1.12,1,.06,1.5,0,1.94-.43-.67,2.89-3.81,5.39-5.1,7.53,1.28-1.66,3.93-4.14,4.86-5.93a5.36,5.36,0,0,1-.91,3.33,5.09,5.09,0,0,0,1.2-4,7.26,7.26,0,0,0,.52-2.52,10.22,10.22,0,0,0-.17-2.31c.75,1.07,1.83,1.48,2.37,3.1-.1-2.1-1.67-2.13-2.84-4.67a17.7,17.7,0,0,0-1.84-3.16"/><path class="cls-2" d="M41.88,41.93c.92.14,1.64.14,2-.78-3.38-1.61-3.35-5-7.24-6.76,2.14-1.59,1.56-3.07.57-4.58a3,3,0,0,1-4,1.51c1.57-.57,2.16-2.5,3.1-3.07a1.56,1.56,0,0,0-2.23-.05c-.48-1.28-2-.86-2.29-.86a2,2,0,0,1,.73,1.53c-.16,1.29-2.25,1.08-2.25,1.08.42-.87.23-1.39-.7-1.83-.29.69-2.53,1.62-2.68,3-.22,2.13,2.3,3.43,4.52,4.63,2.44,1.32,1.55,2.76.66,2.81-.49,1.52,1.39,1.79,2.46,1.17,0,.2-.14,1.42-1.78,1.52a1.11,1.11,0,0,0,.84.8,4,4,0,0,1-1.75.28,1.7,1.7,0,0,0,1.67,1.28,1.44,1.44,0,0,1-.83.62c1,1,3.57.33,4.1-.23.24-.25.54.11.25.49a3,3,0,0,1-2.67.51.9.9,0,0,0,.25,1,6.24,6.24,0,0,0-1.31.25c.1.45.6.7.78.88a1.87,1.87,0,0,0-.46.78c.47.23,1.77.59,2.47-.2.28-.31.59-.11.3.29-1,1.41-3.47,1.43-4.33,1,0,1.1.45,1.33,1,1.79-1.77,2-.6,3.84-1.85,5.62a4.28,4.28,0,0,0,4.24-2.48,1,1,0,0,0,.9.92,2.5,2.5,0,0,1,.32-1.36,4.57,4.57,0,0,0,2.48.52c-1.29-2.19,2.36-4.43.91-7.42-.21-.45.41-.73.47-.28.34,2.56,1.84,3.13,3.11,2.34-.38-.42-.54-.41-.78-.79.85.23,1.29-.39,1.51-1.17-2.32-.81-1.07-2.8-2.53-4.7M42.07,47a4.32,4.32,0,0,0,.49,1.32c-1.68-.11-.9-3.65-2.59-2.8a.93.93,0,0,0-.4,1.25c1.1,2.28-1.41,4.29-1.27,6.28a1.55,1.55,0,0,1-1.67-.85,11.07,11.07,0,0,0-.71,1.56l-.5-.86A3.75,3.75,0,0,1,32,55.76c.85-1.35-.17-3.19,1.9-5.14a8.14,8.14,0,0,1-1.07-.88c2.54.3,5.19-1.71,4-2.66-.79-.62-1.13.67-2.34.45l.47-.41c-.17-.17-.36-.38-.56-.54a3.37,3.37,0,0,0,1.08-.39l-.31-.51c3,0,3-2.28,1.84-2.37-.57,0-1.3,1-3.13.79a3.44,3.44,0,0,0,.44-1,4.06,4.06,0,0,1-1.38-.24,3.26,3.26,0,0,0,1.86-1l-.86-.32c1.25-.62,1.18-1.72,1.21-2.85-.65.38-1.43,1-2.25.69-.19-.06-.32-.15-.33-.36,1.18-.46,1.93-2.27-.89-3.79-1.79-1-6.18-3.1-3.21-5.4.41-.31.85-.59,1.22-.94.47.36-.17,1.25-.33,1.57,0,0,1,.1,1.22.1,1.53,0,3.14-.91,2.33-2.65.61.13.68.71.87,1.21.39-.26,1.07-.83,1.59-.75a5.14,5.14,0,0,1-3.6,2.86c1.4.76,4,1.33,5.37-.31,1,1.86-.38,2.63-1.69,3.6,5,2.28,4.25,4.83,7.53,6.84a8.49,8.49,0,0,1-2.49-.23,10.58,10.58,0,0,1,1.25,1.76,8.32,8.32,0,0,1,.48,1.92,2.78,2.78,0,0,0,1.42,2.15c-.38.7-1.24.15-1.59.06"/><path class="cls-2" d="M18.31,52.6,19,52l-.11-.22c-.08-.15,0-.16,0-.22l.37-.28a.3.3,0,0,1,.29,0l1.13.26H19.56a.46.46,0,0,0-.45.33L19,52l-.31.63a.71.71,0,0,0,.11.83l.22.26-.44.89H19l.3-.62a2,2,0,0,0,.57-.85c-.13-.1-.22-.18-.15-.33l.14-.29c0-.1.06-.14.19-.11l1.18.26a.41.41,0,0,0,.52-.13c.16-.25.18-.22.56-.18l.6.06a3.18,3.18,0,0,0,2-.38,7.74,7.74,0,0,0,.44.65c0,.07,0,.18-.08.31l-.68,1.62h1l.59-1.48a.85.85,0,0,1,.2-.31L26,54.6h1l.27-1.77c.06-.39,0-.52-.16-.68-.42-.36-.41-1.11-.55-1.56a.41.41,0,0,1,.25-.05c.22,0,.39.59.65.95.52.73,1.23,1.54,2,.4a2.64,2.64,0,0,0-.26-.36l-.23-.26c-.13-.15-.76-.87-1-1.13a1.53,1.53,0,0,0-1.87-.22,2.81,2.81,0,0,0-1.9,0l-1.42-.09a.28.28,0,0,1-.23-.14l.26-.09a2.41,2.41,0,0,0-2-2s-.06-.33-.23-.39l-.32.38a1.07,1.07,0,0,0-.27.08l-1.39-.51,1,1.05s-.54.76-.69.92a.28.28,0,0,0,0,.39l.2.26c.11.14.22.13.38,0l.23-.12c.1-.08.43.08.57,0a4.2,4.2,0,0,0-.16.82l-.93-.11a.47.47,0,0,0-.42.1l-.8.61a.69.69,0,0,0-.18.88Zm7.71.18-.63,1.56H25l.63-1.51c.07-.19-.06-.29-.22-.5a4.58,4.58,0,0,0,.69.33.76.76,0,0,0-.08.12m-6.1-3.38-.18.1c-.12.07-.19.11-.3,0l-.08-.1a.21.21,0,0,1,0-.25l.78-.91-.72-.59.91.34.33-.42c.1.08.06.32.06.32a1.85,1.85,0,0,1,1.48,1.87.89.89,0,0,0,.55.38l1.58.1a2.12,2.12,0,0,1,1.76,0,1.68,1.68,0,0,1,.67-.26,2,2,0,0,1,1.69,1c.3.38.7,1,.7,1-.17.21-.35.28-.49.22a.73.73,0,0,1-.36-.53,1.72,1.72,0,0,0-.54-.72,3.33,3.33,0,0,1,.24.83c-.62-.61-.73-1.36-1.16-1.46a.63.63,0,0,0-.62.27c.22.5.21,1.09.43,1.48s.2.32.28.38.08.36.05.54l-.23,1.47H26.4l.26-1.44c.08-.44-1.15-.44-1.78-1.27-.54.62-2,.47-2.69.37a.58.58,0,0,0-.66.24c-.08.15-.23.1-.31.08L20,52.06a.28.28,0,0,0-.39.18l-.24.49a.22.22,0,0,0,0,.29l.11.12a1,1,0,0,1-.28.41L19,53.27a.52.52,0,0,1,0-.57l.38-.8a.31.31,0,0,1,.29-.18l1.47,0L20.69,51c-.33-.55.22-1.53.14-2,0,.62-.79.34-.91.42m-1.59,1.84.7-.53a.43.43,0,0,1,.34-.13l1,.13a1.6,1.6,0,0,0,.21.47l-1-.22a.36.36,0,0,0-.33.09l-.49.37a.25.25,0,0,0,0,.32l.08.17-.35.26-.13-.25c-.13-.27-.14-.51.08-.67"/><path class="cls-2" d="M21.35,32.43A7.28,7.28,0,0,0,22.4,33v-.45L20.92,32s0,.18.43.47"/><path class="cls-2" d="M22.4,31.89v-.44l-1.68-.6a4.12,4.12,0,0,0,.63.51,7.13,7.13,0,0,0,1.05.54"/><path class="cls-2" d="M22.4,30.88v-.45l-1.84-.68s.36.29.79.58a7.28,7.28,0,0,0,1.05.54"/><path class="cls-2" d="M27.56,37h1.88a.87.87,0,0,0-.92-.55,1.06,1.06,0,0,0-1,.55"/><path class="cls-2" d="M25.6,29.75l-1.84.68v.45a7.07,7.07,0,0,0,1.05-.54c.43-.29.78-.58.78-.58"/><path class="cls-2" d="M25.24,32l-1.48.57V33a7.28,7.28,0,0,0,1.05-.54c.43-.29.43-.47.43-.47"/><path class="cls-2" d="M25.44,30.85l-1.68.6v.44a7.05,7.05,0,0,0,1.05-.54,4.08,4.08,0,0,0,.63-.51"/><path class="cls-2" d="M17.63,36.42a.87.87,0,0,0-.92.55h1.88a1.06,1.06,0,0,0-1-.55"/><path class="cls-2" d="M26.81,28.55c0-1.06-1.78-2-3.74-2s-3.74.95-3.74,2l0,.26.78,4.49-3.7,2.16a2.21,2.21,0,0,0-1,1.51h.68a1.5,1.5,0,0,1,1.57-1.31A2.38,2.38,0,0,1,19.61,37l.13.2.19.29H14.48A5.89,5.89,0,0,1,15.26,40V51.37c0,2.91,2.24,4.3,4.66,4.3,1.87,0,2.12-.08,3.16.95,1-1,1.28-.95,3.16-.95,2.42,0,4.66-1.39,4.66-4.3V40a5.87,5.87,0,0,1,.78-2.58H26.23l.19-.29.13-.2a2.38,2.38,0,0,1,1.86-1.31A1.5,1.5,0,0,1,30,37h.68a2.21,2.21,0,0,0-.95-1.51L26,33.3l.78-4.49Zm-6.71.51,2.76.94v4.32l-2-1.07Zm.68,9.18a2.71,2.71,0,0,0,1.65,1,1.42,1.42,0,0,0,.48.78,1.39,1.39,0,0,0,1,1.69,1.09,1.09,0,0,0,.74.83l-.58.67a.84.84,0,0,1-.75.31l-2.58-.29c.11-.29-.19-.62-1-.48l1-2.84-.62-1.32-1.17,1-.09,3-.5-.25c-.66-.28-.85.9-.22.91h.25a.28.28,0,0,0,.12.3.2.2,0,0,0,0,.35.24.24,0,0,0,0,.39.54.54,0,0,0,.3.81c.37.1.6-.3.68-.53l4,1.24A1.37,1.37,0,0,0,25,45.47l1-.92a1.09,1.09,0,0,0,.54,1.32,5.45,5.45,0,0,0,0,.78H16V40a5.22,5.22,0,0,0-.39-1.8Zm4.32,2.51a1.36,1.36,0,0,0,.06,1.35l-.17.17c-.75-.09-1.05-1.22-1.05-1.22a1.9,1.9,0,0,0,0,.3,1.05,1.05,0,0,1-.7-1.09,1.78,1.78,0,0,0,.55.19l.05-.33a1.15,1.15,0,0,1-1-.81H22.8l.28,0a3.14,3.14,0,0,0,.89-.13,1.45,1.45,0,0,0,1,.58,1.6,1.6,0,0,0,.13,1m1.12,3a1.13,1.13,0,0,0-.18.35l-.42.39a2,2,0,0,0-.71-1.64l.45-.44.09.09a1,1,0,0,0,.77,1.25m-2-.19.34-.34a1.89,1.89,0,0,1,.67,1.65l-.38.34a1.31,1.31,0,0,1-.24.18,2.06,2.06,0,0,0-.4-1.84m-.74.29h0a.72.72,0,0,0,.38-.05A1.89,1.89,0,0,1,24,45.54a1.88,1.88,0,0,1-.52-.07l-.13,0a2.28,2.28,0,0,0,.1-1.6m-.87-.11.49.06a2.39,2.39,0,0,1-.23,1.5l-.57-.17a2.33,2.33,0,0,0,.31-1.4m-1-.12.59.07A2.34,2.34,0,0,1,21.87,45l-.6-.17a1.94,1.94,0,0,0,.29-1.24m-2.39-.16a.27.27,0,0,1-.38-.28.93.93,0,0,1,.94,0c.15.09.26.35.46.51a4.4,4.4,0,0,1-.18.76.58.58,0,0,1-.37-.93.37.37,0,0,0-.46-.1m-.39,1.08a1.3,1.3,0,0,0,.37.09.22.22,0,0,1-.25.19.2.2,0,0,1-.12-.28m-.54-1.58a.16.16,0,0,1,.08-.29c.17,0,.39.19.61.29a2.12,2.12,0,0,1-.68,0m.56,1.15c.12.11.48.07.48.07v.07c-.16.21-.59.11-.49-.14m.48-.24c-.26.1-.52,0-.44-.2.12.11.45.06.45.06Zm.38-3-.49,1.79.17-2.88.76-.65.39.85-1,2.79.26-1.88c0-.13-.08-.15-.1,0m0,2.16a3.1,3.1,0,0,1,.7,0c.11,0,0,.24-.11.22a3.1,3.1,0,0,1-.59-.25m.85.43.59.07a2,2,0,0,1-.25,1.18l-.57-.17a3.68,3.68,0,0,0,.23-1.09m9.58,7.91a3.26,3.26,0,0,1-1.69,3l.38-.77h-.37l-.49,1a4.8,4.8,0,0,1-1.71.3c-1.93,0-2.44.08-3.16.79-.72-.71-1.23-.79-3.16-.79a4.87,4.87,0,0,1-1.7-.29h0l.49-1h-.37l-.43.87-.3-.16L18,53.6h-.36l-.26.53A3.3,3.3,0,0,1,16,51.37V47H30.12Zm.39-13.13a5.11,5.11,0,0,0-.39,1.8v6.61h-.77a4.49,4.49,0,0,1-.64-1.47,1.83,1.83,0,0,0,.23,1.47h-1a5.79,5.79,0,0,1-.46-1.5c-.3.34-.11,1.25.07,1.5h-.66a3.31,3.31,0,0,1,.09-1c-.34-.06-.71-.24-.71-.63a.51.51,0,0,0,.48.16l.28-.22c-.93,0-1-1-.24-1.46-.73,0-1.28-.41-1-1.19a1.07,1.07,0,0,1-.32-1.54,1.32,1.32,0,0,1-.15-1.31,1.45,1.45,0,0,1-1-.4l-.06,0a2.58,2.58,0,0,0,1.12-.85Zm-2.8-3.18c-.76.13-1.42,1.07-2,1.91l-.06.1h-.57v.1a1.86,1.86,0,0,1-2,1.53,2.23,2.23,0,0,1-1.43-.45,1.67,1.67,0,0,1-.55-.78,1.37,1.37,0,0,1-.06-.29v-.1h-.57l-.06-.1c-.54-.84-1.2-1.77-2-1.91l2.08-1.2,2.55,1.39,2.55-1.39Zm-2.38-1.8-2,1.07V30l2.77-.94Zm-2.25-3.73-3-1.19c.26-.61,1.44-1.12,3-1.12s2.76.52,3,1.12Z"/><path class="cls-2" d="M29.8,42.52v-.33c-1,0-1.25-1.22-1.25-1.22a1.22,1.22,0,0,0,1.25,1.56"/><path class="cls-2" d="M28.51,44.55l-.1-.31c-.87.22-1.31-1.15-1.31-1.15a1.17,1.17,0,0,0,1.42,1.47"/><path class="cls-2" d="M29.12,43.27c-1,.16-1.46-1-1.46-1a1.17,1.17,0,0,0,1,1.39.91.91,0,0,0,1.33,1l-.1-.3a.67.67,0,0,1-.76-1"/><path class="cls-2" d="M28.5,39.83V39.5c-1.37-.28-1.25-1.22-1.25-1.22a1.22,1.22,0,0,0,1.24,1.55"/><polygon class="cls-2" points="19.84 53.6 19.34 54.6 19.71 54.6 20.2 53.6 19.84 53.6"/><polygon class="cls-2" points="20.57 53.6 20.09 54.6 20.45 54.6 20.94 53.6 20.57 53.6"/><polygon class="cls-2" points="23.53 53.6 23.05 54.6 23.41 54.6 23.9 53.6 23.53 53.6"/><polygon class="cls-2" points="24.27 53.6 23.78 54.6 24.15 54.6 24.64 53.6 24.27 53.6"/><polygon class="cls-2" points="22.79 53.6 22.3 54.6 22.67 54.6 23.16 53.6 22.79 53.6"/><polygon class="cls-2" points="27.12 54.6 27.48 54.6 27.97 53.6 27.6 53.6 27.12 54.6"/><polygon class="cls-2" points="21.31 53.6 20.83 54.6 21.19 54.6 21.68 53.6 21.31 53.6"/><polygon class="cls-2" points="22.05 53.6 21.56 54.6 21.93 54.6 22.42 53.6 22.05 53.6"/><path class="cls-2" d="M20.38,48.27a.15.15,0,1,0,.13.15.14.14,0,0,0-.13-.15"/><path class="cls-2" d="M23.08,25.88a5.56,5.56,0,0,1,3.4,1,6.79,6.79,0,0,1,.88-2.26l-1.22.14-.64-1.36-1.23.64-1.19-1.18-1.19,1.18-1.23-.64L20,24.8l-1.22-.14a6.74,6.74,0,0,1,.88,2.26,5.57,5.57,0,0,1,3.41-1m-2.85-.54.58-1.23,1.08.57,1.19-1.18,1.19,1.18,1.08-.57.58,1.23.72-.11a5.61,5.61,0,0,0-.45,1.07,6.39,6.39,0,0,0-6.23,0,5.56,5.56,0,0,0-.45-1.07Z"/><path class="cls-2" d="M24.33,23.44a.32.32,0,0,0,.35-.3,2,2,0,0,0-.24-.65s-.39.42-.4.6a.32.32,0,0,0,.29.35"/><path class="cls-2" d="M26.33,24.17a.32.32,0,0,0,.44-.14,2,2,0,0,0,0-.69s-.52.23-.6.39a.33.33,0,0,0,.13.44"/><path class="cls-2" d="M21.83,23.44a.32.32,0,0,0,.29-.35c0-.18-.4-.6-.4-.6a2,2,0,0,0-.24.65.32.32,0,0,0,.35.3"/><path class="cls-2" d="M19.83,24.17a.32.32,0,0,0,.13-.44c-.08-.16-.6-.39-.6-.39a2,2,0,0,0,0,.69.32.32,0,0,0,.43.14"/><path class="cls-2" d="M43.84,35.17a1.73,1.73,0,0,0,.92-.93c-1.09-.16-4-1.37-6.34-.38.89-.84,1.68-1,1.76-2.16a.86.86,0,0,0,1.34-.22c-.24-.72-.86-.14-.95-.34s.78.09,1-.85c-.7-.24-.91.33-1,.2s.44-.37,0-1.12c-.73.43-.35.91-.5,1s0-.51-.84-.48c-.08.86.76.89.62,1s-.38-.5-1-.16a.9.9,0,0,0,1.16.92c-.09,1.33-1.31,1.08-2.22,2.57,1.92,1,2.79,2.7,4,3.89a6.79,6.79,0,0,0,1.06-1.51,1.55,1.55,0,0,0,2.18,0c-.44-.45-.46-.79-1.13-1.41M42,35.42a2.16,2.16,0,0,1-.23,2.09,8.75,8.75,0,0,0-2.48-3.17c-.17-.11.09-.31.58-.38a9.47,9.47,0,0,1,4,.56,2.13,2.13,0,0,1-1.09.46,6.67,6.67,0,0,1,1.34,1.4c-.58.14-.91-.22-2.16-1"/><path class="cls-2" d="M29.66,57.54V55.92a14.84,14.84,0,0,1-4.89,1.22l-.09.58.69.06a19.33,19.33,0,0,1-2.28.16,19.31,19.31,0,0,1-2.28-.16l.69-.06-.09-.58a14.82,14.82,0,0,1-4.89-1.22v1.62l-1.7.7a20.57,20.57,0,0,0,4.38,1.62l-.2.68a15.1,15.1,0,0,0,8.19,0l-.2-.68a20.58,20.58,0,0,0,4.38-1.62Zm-13.95.74,1.15-.46V56.5a19.24,19.24,0,0,0,3.09.87l-.65,2.12a19,19,0,0,1-3.59-1.2m7.37,2.44a15.49,15.49,0,0,1-3.64-.46L20.13,58a15.51,15.51,0,0,0,2.95.24A15.53,15.53,0,0,0,26,58l.69,2.22a15.55,15.55,0,0,1-3.64.46m3.78-1.24-.65-2.12a19.27,19.27,0,0,0,3.09-.87v1.32l1.14.46a18.71,18.71,0,0,1-3.58,1.2"/><path class="cls-2" d="M3.36,36.58a6.82,6.82,0,0,0,1.06,1.51c1.18-1.18,2.05-2.9,4-3.89C7.48,32.7,6.26,33,6.17,31.63a.9.9,0,0,0,1.16-.92c-.61-.33-.83.33-1,.16s.7-.17.62-1c-.81,0-.66.56-.85.48s.23-.53-.5-1c-.41.76.15,1,0,1.12s-.33-.44-1-.2c.19.94,1.09.58,1,.85s-.7-.39-.94.34A.85.85,0,0,0,6,31.7C6,32.91,6.85,33,7.73,33.86c-2.37-1-5.25.22-6.34.38a1.73,1.73,0,0,0,.92.93c-.67.62-.69,1-1.13,1.41a1.55,1.55,0,0,0,2.18,0M2,36.39A6.51,6.51,0,0,1,3.37,35a2.15,2.15,0,0,1-1.09-.47,9.49,9.49,0,0,1,4-.56c.48.06.76.26.58.38a8.75,8.75,0,0,0-2.49,3.17,2.17,2.17,0,0,1-.23-2.09c-1.25.75-1.57,1.12-2.16,1"/><path class="cls-2" d="M22,35.67v.71a.89.89,0,0,1,.72-.24v1a1.54,1.54,0,0,1-.19.73h1a1.54,1.54,0,0,1-.2-.73v-1a.89.89,0,0,1,.72.24v-.71H22Z"/><path class="cls-3" d="M45.59,36a2.33,2.33,0,0,1-.3-.41l-.18-.27a2.82,2.82,0,0,0,.45-.71l.46-1-1.13-.16c-.19,0-.5-.11-.86-.2a16.89,16.89,0,0,0-2.55-.52,1.73,1.73,0,0,0,.81-.76l.19-.33s0-.47-.23-.62a2.09,2.09,0,0,0,.16-.48l.15-.75-.72-.25a2,2,0,0,0-.34-.08,2.28,2.28,0,0,0-.18-.43l-.43-.79-.77.45a2.06,2.06,0,0,0-.49.39,2,2,0,0,0-.37,0,2.29,2.29,0,0,0-.93.13l-.62-.65L37,27.67a2.27,2.27,0,0,0-2.58-.59,2.45,2.45,0,0,0-1.81-.66,5.26,5.26,0,0,0-.72.06,4.33,4.33,0,0,0-1.9.87l-.83-.39a3,3,0,0,1-1.5,1.15,2.07,2.07,0,0,0-.33-.71l.05-.31a5.91,5.91,0,0,1,.75-1.93l1-1.54-1.4.16a4,4,0,0,0,0-.5l-.12-1.2-1.1.49-.32.16-.22-.46-.5.26a4,4,0,0,0-.2-.43L24.62,21l-.82.89-.22.26-.5-.5-.5.5-.22-.25L21.54,21,21,22.09a4.24,4.24,0,0,0-.2.42l-.5-.26-.22.46-.32-.16-1.1-.49-.12,1.2a3.88,3.88,0,0,0,0,.49l-1.4-.16,1,1.54a5.86,5.86,0,0,1,.75,1.93l.05.31a2.07,2.07,0,0,0-.33.71A4.26,4.26,0,0,1,17,26.94l-.84.4a4.28,4.28,0,0,0-2.6-.93,2.36,2.36,0,0,0-1.81.66,2.27,2.27,0,0,0-2.58.59l-.74.79a3.82,3.82,0,0,1-.71.54,3.08,3.08,0,0,0-1.22,0,2.08,2.08,0,0,0-.49-.39l-.78-.45L4.85,29a2.21,2.21,0,0,0-.18.43,2,2,0,0,0-.34.08l-.72.25.15.74a2,2,0,0,0,.16.49,1.79,1.79,0,0,0-.11.25l-.12.36.18.33a1.72,1.72,0,0,0,.81.76,16.86,16.86,0,0,0-2.56.52c-.36.09-.67.17-.86.2l-1.14.16.26.58.21.46a2.9,2.9,0,0,0,.45.71A7.87,7.87,0,0,1,.57,36L0,36.57l.55.61a2.39,2.39,0,0,0,1.68.72A2.42,2.42,0,0,0,3,37.75a4.07,4.07,0,0,0,.87,1,5.85,5.85,0,0,1-2,1.57l-.72.34.31.82a2,2,0,0,0,1.35,1.25,8.57,8.57,0,0,0-.31,1.35c-.16,1-.23,1.38-1.09,1.68l-.77.27.22.78a2.88,2.88,0,0,0,.73,1.34l-.51.56a5.67,5.67,0,0,0,2.4,1A1.94,1.94,0,0,0,5,49.28a11.35,11.35,0,0,0,.73,1.81c.54,1.13.82,1.8.46,2.41l-.81,1.38L7,54.81a9.85,9.85,0,0,0,1.91-.21.73.73,0,0,1,0,.09l-.13,1.18,1.4-.29a2.17,2.17,0,0,0,.41-.17,5.56,5.56,0,0,0,4.32,1.8H15l-2.28.94,1.66.86a20.21,20.21,0,0,0,3.7,1.45l-.19.66.83.24a15.92,15.92,0,0,0,8.68,0l.83-.24-.19-.66A20.22,20.22,0,0,0,31.76,59l1.66-.86-2.28-.94h.11a5.56,5.56,0,0,0,4.32-1.8,2.3,2.3,0,0,0,.41.17l1.4.29-.13-1.18s0-.06,0-.09a9.91,9.91,0,0,0,1.9.21l1.6.07-.81-1.38c-.36-.61-.07-1.28.46-2.41a11.22,11.22,0,0,0,.73-1.82,2.46,2.46,0,0,0,1,.45,2.24,2.24,0,0,0,.5.08,2.37,2.37,0,0,0,1.54-.48l.88-.55-.52-.56a2.88,2.88,0,0,0,.73-1.34l.22-.79-.77-.27c-.86-.3-.92-.7-1.09-1.68a8.51,8.51,0,0,0-.31-1.35,2,2,0,0,0,1.35-1.25l.31-.82-.72-.34a5.85,5.85,0,0,1-2-1.57,4.1,4.1,0,0,0,.87-1,2.42,2.42,0,0,0,.81.14h0a2.38,2.38,0,0,0,1.68-.72l.55-.61Z"/><path class="cls-4" d="M16,46.65V40a5.19,5.19,0,0,0-.39-1.8h5.13a3,3,0,0,0,4.6,0h5.13a5.1,5.1,0,0,0-.39,1.8v6.61Zm7,9c-.72-.71-1.23-.79-3.16-.79-2.31,0-3.88-1.35-3.88-3.52V47H30.12v4.33c0,2.16-1.57,3.52-3.88,3.52-1.93,0-2.44.08-3.16.79"/><path class="cls-3" d="M16.86,56.5v1.32l-1.14.46a18.85,18.85,0,0,0,3.58,1.2l.65-2.12a19.49,19.49,0,0,1-3.09-.87"/><path class="cls-3" d="M23.08,58.29A15.4,15.4,0,0,1,20.13,58l-.69,2.22a14.64,14.64,0,0,0,7.27,0L26,58a15.4,15.4,0,0,1-2.95.25"/><path class="cls-3" d="M29.3,56.5a19.47,19.47,0,0,1-3.09.87l.65,2.12a18.71,18.71,0,0,0,3.58-1.2l-1.14-.46Z"/><path class="cls-3" d="M14.46,35.22c1.79-1,6.18-3.1,3.21-5.4-.41-.31-.85-.59-1.23-.94-.46.36.17,1.25.33,1.57,0,0-1,.1-1.23.1-1.53,0-3.13-.91-2.32-2.65-.61.13-.68.71-.87,1.21-.39-.26-1.07-.83-1.59-.75a5.14,5.14,0,0,0,3.6,2.86c-1.4.76-4,1.33-5.37-.31-1,1.86.38,2.63,1.69,3.6-5,2.28-4.25,4.83-7.52,6.84a8.46,8.46,0,0,0,2.49-.22A10.84,10.84,0,0,0,4.4,42.89a8.35,8.35,0,0,0-.48,1.92A2.77,2.77,0,0,1,2.5,47c.38.7,1.24.15,1.6.06a4.49,4.49,0,0,1-.49,1.32c1.68-.11.9-3.65,2.58-2.8a.93.93,0,0,1,.4,1.25C5.48,49.06,8,51.07,7.86,53.06a1.54,1.54,0,0,0,1.66-.85,11.25,11.25,0,0,1,.72,1.56l.5-.86a3.74,3.74,0,0,0,3.42,2.84c-.85-1.35.17-3.19-1.9-5.14a8.11,8.11,0,0,0,1.07-.88c-2.54.3-5.19-1.71-4-2.66.79-.62,1.13.67,2.34.45l-.47-.41c.17-.16.36-.38.55-.54a3.37,3.37,0,0,1-1.08-.39l.31-.51c-3,0-3-2.28-1.84-2.37.57,0,1.3,1,3.13.79a3.29,3.29,0,0,1-.44-1,4,4,0,0,0,1.38-.24,3.25,3.25,0,0,1-1.86-1l.86-.32C11,40.91,11,39.82,11,38.68c.66.38,1.43,1,2.25.69.2-.07.32-.16.33-.36-1.18-.46-1.93-2.27.89-3.79m-2.14.18c-1.57,1.68-.89,2.68-.57,3-.58-.13-1.46-.87-1.26-1.59l-.57.71c-.39.52-.74,1-1,1.52a2.93,2.93,0,0,0,1.88,3.53,2.79,2.79,0,0,1-2.39-2.65,8.28,8.28,0,0,0-1.13,4,10.61,10.61,0,0,0,.11,1.19c.38.72,1,1,2.07,1.11-1,.06-1.51,0-1.94-.43.67,2.89,3.81,5.39,5.09,7.53-1.28-1.66-3.93-4.14-4.86-5.93a5.35,5.35,0,0,0,.91,3.33,5.08,5.08,0,0,1-1.2-4,7.19,7.19,0,0,1-.52-2.52,10.46,10.46,0,0,1,.17-2.31C6.31,43,5.23,43.38,4.7,45c.1-2.09,1.67-2.13,2.83-4.66a17.88,17.88,0,0,1,1.84-3.16,5.13,5.13,0,0,0-2.69,1.69c.76-1.8,5.15-3.82,7.17-5.77-.6.13-3.07.19-4.09-.49,1.86.5,6-.07,7.54-1.14C16.22,33,13.88,33.1,11,36.18a7.33,7.33,0,0,1,1.29-.79"/><path class="cls-3" d="M42.24,44.8a8.33,8.33,0,0,0-.48-1.92,10.5,10.5,0,0,0-1.25-1.76,8.49,8.49,0,0,0,2.49.22c-3.27-2-2.54-4.56-7.53-6.84,1.31-1,2.65-1.75,1.69-3.61-1.37,1.64-4,1.08-5.37.31a5.14,5.14,0,0,0,3.6-2.86c-.52-.08-1.2.49-1.59.75-.19-.5-.26-1.09-.87-1.21.81,1.74-.79,2.64-2.32,2.65-.23,0-1.22-.1-1.22-.1.16-.32.8-1.21.33-1.57-.37.35-.82.63-1.22.94-3,2.3,1.41,4.43,3.21,5.4,2.81,1.52,2.06,3.33.89,3.79,0,.2.13.29.33.36.82.27,1.59-.31,2.25-.69,0,1.13,0,2.23-1.21,2.85l.86.32a3.25,3.25,0,0,1-1.86,1,4,4,0,0,0,1.38.24,3.45,3.45,0,0,1-.44,1c1.83.22,2.57-.83,3.13-.79,1.2.09,1.13,2.37-1.84,2.37l.31.51a3.35,3.35,0,0,1-1.08.39c.2.16.39.38.56.54l-.47.41c1.21.22,1.56-1.07,2.34-.45,1.2,1-1.45,3-4,2.66a8.21,8.21,0,0,0,1.07.88c-2.07,2-1.05,3.8-1.9,5.14a3.76,3.76,0,0,0,3.42-2.84l.5.86a11.55,11.55,0,0,1,.72-1.56,1.54,1.54,0,0,0,1.66.85c-.14-2,2.37-4,1.27-6.28a.93.93,0,0,1,.4-1.25c1.68-.85.9,2.69,2.59,2.8A4.35,4.35,0,0,1,42.07,47c.36.09,1.21.64,1.59-.06a2.78,2.78,0,0,1-1.42-2.15m-3.15-2.9a10.26,10.26,0,0,1,.17,2.31,7.26,7.26,0,0,1-.52,2.52,5.09,5.09,0,0,1-1.2,4,5.37,5.37,0,0,0,.91-3.33c-.93,1.79-3.58,4.27-4.86,5.93,1.28-2.14,4.42-4.64,5.09-7.53-.43.45-1,.49-1.94.43,1.08-.13,1.69-.4,2.07-1.12a10.4,10.4,0,0,0,.11-1.2,8.26,8.26,0,0,0-1.13-4,2.78,2.78,0,0,1-2.39,2.65A2.94,2.94,0,0,0,37.29,39c-.31-.49-.65-1-1-1.52l-.57-.71c.2.72-.67,1.47-1.26,1.59.32-.31,1-1.31-.57-3a7.24,7.24,0,0,1,1.29.79c-2.85-3.08-5.19-3.17-6.27-4.72,1.56,1.07,5.69,1.64,7.55,1.14-1,.68-3.49.62-4.1.49,2,2,6.41,4,7.17,5.77a5.13,5.13,0,0,0-2.69-1.69,17.77,17.77,0,0,1,1.84,3.16c1.17,2.54,2.73,2.57,2.84,4.67-.53-1.62-1.62-2-2.37-3.1"/><path class="cls-3" d="M25.38,38.25a2.83,2.83,0,0,1-2.3,1.08,3.38,3.38,0,0,1-.65-.07,1.37,1.37,0,0,0,.48.78,1.39,1.39,0,0,0,1,1.69,1.09,1.09,0,0,0,.74.83l-.58.67a.86.86,0,0,1-.75.31l-2.58-.29c.11-.29-.19-.62-1-.48l1-2.84-.62-1.32-1.17,1-.09,3-.5-.25c-.65-.28-.84.9-.22.91h.25a.28.28,0,0,0,.12.3.2.2,0,0,0,0,.34.25.25,0,0,0,0,.39.54.54,0,0,0,.3.81c.37.1.61-.3.68-.53l4,1.24A1.37,1.37,0,0,0,25,45.47l1-.92a1.09,1.09,0,0,0,.54,1.32,4.68,4.68,0,0,0,0,.78h3.62V40a5.1,5.1,0,0,1,.39-1.8H25.38Z"/><path class="cls-3" d="M19.36,49.37l.08.1c.11.13.17.1.3,0l.18-.1c.11-.09.86.2.9-.42.08.46-.47,1.44-.14,2l.45.73-1.46,0a.31.31,0,0,0-.29.18L19,52.7a.52.52,0,0,0,0,.57l.26.29a1,1,0,0,0,.28-.42L19.46,53a.22.22,0,0,1,0-.29l.24-.49a.28.28,0,0,1,.39-.18l1.18.26c.09,0,.23.06.31-.08A.58.58,0,0,1,22.2,52c.65.1,2.15.25,2.69-.37.63.83,1.86.83,1.78,1.27l-.26,1.43h.39L27,52.87c0-.17.13-.41-.05-.54s-.11-.09-.28-.38-.21-1-.43-1.48a.64.64,0,0,1,.62-.28c.43.11.55.85,1.16,1.46a3.25,3.25,0,0,0-.24-.83,1.71,1.71,0,0,1,.54.72.74.74,0,0,0,.36.53c.14.05.32,0,.49-.22,0,0-.41-.58-.7-1a2,2,0,0,0-1.69-1,1.62,1.62,0,0,0-.67.25,2.11,2.11,0,0,0-1.76,0l-1.58-.09a.9.9,0,0,1-.55-.38,1.85,1.85,0,0,0-1.48-1.87s0-.24-.06-.32l-.33.41-.91-.33.72.59-.78.9a.21.21,0,0,0,0,.25"/><path class="cls-3" d="M18.33,51.24c-.22.17-.21.41-.08.67l.13.25.34-.26-.08-.17a.24.24,0,0,1,0-.32l.49-.37a.34.34,0,0,1,.33-.09l1,.22a1.59,1.59,0,0,1-.21-.46l-1-.13a.44.44,0,0,0-.34.13Z"/><path class="cls-3" d="M25,54.33h.39L26,52.77a1.12,1.12,0,0,1,.08-.12,4.56,4.56,0,0,1-.69-.33c.16.21.28.3.22.5Z"/><path class="cls-3" d="M25.33,33.27l.73-4.19L23.29,30v4.33Zm-1.57-2.83,1.84-.68s-.36.29-.78.58a7.16,7.16,0,0,1-1.05.54Zm0,1,1.68-.6a4.22,4.22,0,0,1-.63.5,7.36,7.36,0,0,1-1.05.54Zm0,1.08L25.24,32s0,.18-.43.47a7.19,7.19,0,0,1-1.05.54Z"/><path class="cls-3" d="M20.41,37l.06.1H21v.1a1.31,1.31,0,0,0,.06.29,1.69,1.69,0,0,0,.55.78,2.23,2.23,0,0,0,1.43.45,1.86,1.86,0,0,0,2-1.53v-.1h.57l.06-.1c.54-.84,1.19-1.77,2-1.91l-2.08-1.21-2.55,1.39-2.55-1.39-2.08,1.21c.76.13,1.42,1.07,2,1.91"/><path class="cls-3" d="M22.86,34.34V30l-2.76-.94.73,4.19ZM22.4,33a7.27,7.27,0,0,1-1-.54c-.43-.29-.43-.47-.43-.47l1.48.57Zm0-2.54v.45a7.13,7.13,0,0,1-1-.54c-.43-.29-.79-.58-.79-.58Zm0,1v.45a7.23,7.23,0,0,1-1-.54,4.15,4.15,0,0,1-.63-.5Z"/><path class="cls-3" d="M23.08,27.22c-1.58,0-2.76.52-3,1.12l3,1.19,3-1.19c-.26-.61-1.44-1.12-3-1.12"/><path class="cls-3" d="M23.08,25.49a6.48,6.48,0,0,1,3.11.81,5.42,5.42,0,0,1,.45-1.07l-.72.11-.58-1.23-1.08.57-1.19-1.18-1.19,1.18-1.08-.57-.58,1.23-.71-.11A5.52,5.52,0,0,1,20,26.3a6.48,6.48,0,0,1,3.11-.81"/><path class="cls-3" d="M42.79,35a2.15,2.15,0,0,0,1.09-.47,9.44,9.44,0,0,0-4-.56c-.49.06-.76.26-.58.37a8.74,8.74,0,0,1,2.48,3.17A2.17,2.17,0,0,0,42,35.42c1.25.75,1.57,1.12,2.15,1A6.53,6.53,0,0,0,42.79,35"/><path class="cls-3" d="M4.41,37.51A8.73,8.73,0,0,1,6.9,34.34c.18-.11-.1-.31-.58-.37a9.47,9.47,0,0,0-4,.56A2.16,2.16,0,0,0,3.37,35,6.51,6.51,0,0,0,2,36.4c.58.14.91-.22,2.15-1a2.18,2.18,0,0,0,.23,2.09"/><path class="cls-5" d="M13.06,50.72c.57-.46,1.05-.68,1-1.79-.86.44-3.31.42-4.33-1-.29-.4,0-.6.3-.29.7.79,2,.43,2.47.2a1.86,1.86,0,0,0-.46-.78c.18-.17.68-.43.78-.88a6.23,6.23,0,0,0-1.3-.25.9.9,0,0,0,.25-1,3,3,0,0,1-2.67-.51c-.29-.39,0-.75.25-.49.53.55,3.13,1.19,4.1.22a1.44,1.44,0,0,1-.83-.62,1.7,1.7,0,0,0,1.67-1.28A4,4,0,0,1,12.56,42a1.1,1.1,0,0,0,.84-.8c-1.64-.1-1.77-1.32-1.78-1.52,1.07.62,2.95.34,2.46-1.17-.89,0-1.78-1.48.66-2.8,2.22-1.2,4.74-2.5,4.52-4.63-.14-1.37-2.39-2.3-2.68-3-.94.45-1.13,1-.7,1.83,0,0-2.09.21-2.25-1.08a2,2,0,0,1,.73-1.53c-.23,0-1.81-.42-2.28.86a1.56,1.56,0,0,0-2.23.06c.95.56,1.54,2.49,3.1,3.06a3,3,0,0,1-4-1.51c-1,1.5-1.57,3,.57,4.57-3.89,1.77-3.86,5.15-7.24,6.76.34.92,1.07.92,2,.78-1.46,1.9-.22,3.89-2.53,4.7.22.77.65,1.39,1.51,1.17-.24.38-.4.37-.78.79,1.27.8,2.77.22,3.11-2.34.06-.46.69-.17.47.28-1.44,3,2.21,5.23.91,7.41a4.55,4.55,0,0,0,2.48-.52,2.44,2.44,0,0,1,.32,1.36,1,1,0,0,0,.9-.93,4.28,4.28,0,0,0,4.24,2.49c-1.25-1.78-.09-3.59-1.85-5.62m-2.33,2.2-.5.86a11.25,11.25,0,0,0-.72-1.56,1.54,1.54,0,0,1-1.66.85c.14-2-2.37-4-1.27-6.28a.93.93,0,0,0-.4-1.25c-1.68-.85-.9,2.69-2.58,2.8A4.49,4.49,0,0,0,4.09,47c-.36.09-1.21.64-1.6-.06A2.77,2.77,0,0,0,3.92,44.8a8.29,8.29,0,0,1,.48-1.92,10.8,10.8,0,0,1,1.25-1.76,8.46,8.46,0,0,1-2.49.22c3.27-2,2.54-4.56,7.52-6.84C9.38,33.54,8,32.77,9,30.91c1.37,1.64,4,1.07,5.37.31a5.14,5.14,0,0,1-3.6-2.86c.52-.08,1.2.49,1.59.75.19-.5.26-1.09.87-1.21-.81,1.74.79,2.64,2.32,2.65.24,0,1.23-.1,1.23-.1-.16-.32-.8-1.21-.33-1.57.37.35.82.63,1.23.94,3,2.3-1.41,4.43-3.21,5.4-2.81,1.52-2.06,3.33-.88,3.79,0,.2-.13.29-.33.36-.82.27-1.59-.31-2.25-.69,0,1.14,0,2.23,1.22,2.85l-.86.31a3.24,3.24,0,0,0,1.86,1,4,4,0,0,1-1.38.24,3.31,3.31,0,0,0,.44,1c-1.83.22-2.56-.83-3.13-.79C7.93,43.4,8,45.67,11,45.67l-.31.51a3.36,3.36,0,0,0,1.08.39c-.2.16-.39.38-.55.54l.47.41c-1.21.22-1.56-1.07-2.34-.45-1.2,1,1.45,3,4,2.66a8.18,8.18,0,0,1-1.07.88c2.07,2,1,3.8,1.9,5.14a3.75,3.75,0,0,1-3.41-2.84"/><path class="cls-5" d="M7.47,45.78c.43.45,1,.49,1.94.43-1.08-.13-1.69-.4-2.07-1.12a10.81,10.81,0,0,1-.11-1.19,8.28,8.28,0,0,1,1.13-4,2.79,2.79,0,0,0,2.39,2.65A2.94,2.94,0,0,1,8.87,39c.31-.49.66-1,1-1.52l.57-.71c-.2.72.67,1.47,1.26,1.59-.32-.31-1-1.31.57-3a7.35,7.35,0,0,0-1.29.79c2.85-3.08,5.2-3.17,6.27-4.72-1.56,1.07-5.69,1.64-7.54,1.14,1,.68,3.49.62,4.09.49-2,2-6.41,4-7.17,5.77a5.12,5.12,0,0,1,2.69-1.69,17.87,17.87,0,0,0-1.84,3.16C6.37,42.88,4.8,42.91,4.7,45c.53-1.62,1.61-2,2.37-3.1a10.51,10.51,0,0,0-.17,2.31,7.2,7.2,0,0,0,.52,2.52,5.08,5.08,0,0,0,1.2,4,5.35,5.35,0,0,1-.91-3.33c.93,1.79,3.58,4.27,4.86,5.93-1.28-2.14-4.42-4.64-5.09-7.53"/><path class="cls-5" d="M36.79,37.18a5.13,5.13,0,0,1,2.69,1.69c-.76-1.8-5.16-3.82-7.17-5.77.6.13,3.07.19,4.1-.49-1.85.5-6-.07-7.54-1.14,1.08,1.55,3.42,1.64,6.27,4.72a7.24,7.24,0,0,0-1.29-.79c1.57,1.68.89,2.68.57,3,.58-.13,1.46-.87,1.26-1.59l.57.71c.39.52.74,1,1,1.52a2.94,2.94,0,0,1-1.88,3.53,2.78,2.78,0,0,0,2.38-2.65,8.25,8.25,0,0,1,1.13,4,10.61,10.61,0,0,1-.11,1.19c-.38.72-1,1-2.07,1.12,1,.06,1.51,0,1.94-.43-.67,2.89-3.81,5.39-5.09,7.53,1.28-1.66,3.93-4.14,4.86-5.93a5.36,5.36,0,0,1-.91,3.33,5.08,5.08,0,0,0,1.2-4,7.25,7.25,0,0,0,.52-2.52,10.26,10.26,0,0,0-.17-2.31c.75,1.07,1.83,1.48,2.37,3.1-.1-2.09-1.67-2.13-2.84-4.66a17.74,17.74,0,0,0-1.84-3.16"/><path class="cls-5" d="M41.87,41.93c.92.14,1.64.14,2-.78-3.38-1.61-3.35-5-7.24-6.76,2.14-1.59,1.56-3.07.57-4.57a3,3,0,0,1-4,1.51c1.56-.57,2.16-2.5,3.1-3.07a1.56,1.56,0,0,0-2.23-.06c-.48-1.28-2-.86-2.28-.86a2,2,0,0,1,.73,1.53C32.37,30.16,30.28,30,30.28,30c.42-.87.23-1.39-.7-1.83-.29.69-2.53,1.62-2.68,3-.22,2.13,2.3,3.43,4.52,4.63,2.44,1.32,1.55,2.76.66,2.8-.49,1.52,1.39,1.79,2.46,1.17,0,.2-.14,1.42-1.78,1.52a1.11,1.11,0,0,0,.84.79,4,4,0,0,1-1.75.28,1.7,1.7,0,0,0,1.67,1.28,1.45,1.45,0,0,1-.83.62c1,1,3.57.33,4.1-.22.24-.26.54.11.25.49a3,3,0,0,1-2.67.51.9.9,0,0,0,.25,1,6.18,6.18,0,0,0-1.31.25c.1.45.6.7.78.88a1.87,1.87,0,0,0-.46.78c.48.23,1.77.59,2.47-.2.28-.31.59-.11.3.29-1,1.41-3.47,1.43-4.33,1,0,1.1.45,1.33,1,1.79-1.77,2-.6,3.84-1.85,5.62a4.28,4.28,0,0,0,4.24-2.49,1,1,0,0,0,.9.93,2.49,2.49,0,0,1,.32-1.36,4.58,4.58,0,0,0,2.48.52c-1.29-2.19,2.36-4.43.91-7.41-.21-.45.41-.73.47-.28.34,2.56,1.84,3.13,3.11,2.34-.38-.42-.54-.41-.78-.79.85.23,1.29-.39,1.51-1.17-2.31-.81-1.07-2.8-2.53-4.7M42.07,47a4.36,4.36,0,0,0,.49,1.32c-1.68-.11-.9-3.65-2.59-2.8a.93.93,0,0,0-.4,1.25c1.1,2.28-1.41,4.29-1.27,6.28a1.54,1.54,0,0,1-1.66-.85,11.48,11.48,0,0,0-.72,1.56l-.5-.85A3.75,3.75,0,0,1,32,55.76c.85-1.35-.17-3.19,1.9-5.14a8.11,8.11,0,0,1-1.07-.88c2.54.3,5.19-1.71,4-2.66-.79-.62-1.13.67-2.34.45l.47-.41c-.17-.16-.36-.38-.56-.54a3.35,3.35,0,0,0,1.08-.39l-.31-.51c3,0,3-2.28,1.84-2.37-.56,0-1.3,1-3.13.79a3.44,3.44,0,0,0,.44-1,4,4,0,0,1-1.38-.24,3.25,3.25,0,0,0,1.86-1l-.86-.32c1.25-.62,1.17-1.72,1.21-2.85-.65.38-1.43,1-2.25.69-.2-.07-.32-.16-.33-.36,1.18-.46,1.93-2.27-.88-3.79-1.79-1-6.18-3.1-3.21-5.4.41-.31.85-.59,1.22-.94.47.36-.17,1.25-.33,1.57,0,0,1,.1,1.22.1,1.53,0,3.14-.91,2.32-2.65.61.13.68.71.87,1.21.39-.26,1.07-.83,1.59-.75a5.14,5.14,0,0,1-3.6,2.86c1.4.76,4,1.33,5.37-.31,1,1.86-.38,2.63-1.69,3.6,5,2.27,4.25,4.83,7.53,6.84a8.49,8.49,0,0,1-2.49-.22,10.5,10.5,0,0,1,1.25,1.76,8.33,8.33,0,0,1,.48,1.92A2.78,2.78,0,0,0,43.66,47c-.39.7-1.24.15-1.59.06"/><path class="cls-5" d="M18.31,52.6,19,52l-.11-.22c-.08-.15,0-.16,0-.23l.38-.28a.3.3,0,0,1,.28,0l1.13.26H19.56a.46.46,0,0,0-.45.33L19,52l-.31.63a.71.71,0,0,0,.11.83l.22.26-.44.89H19l.3-.61a2,2,0,0,0,.57-.85c-.13-.11-.22-.18-.15-.33l.14-.29c0-.1.06-.14.19-.11l1.18.26a.41.41,0,0,0,.52-.13c.16-.25.18-.22.56-.18l.6.06a3.18,3.18,0,0,0,2-.38c.11.26.33.45.44.65s0,.18-.08.31l-.68,1.62h1l.59-1.48a.89.89,0,0,1,.2-.31L26,54.6h1l.27-1.77c.06-.39,0-.52-.16-.68-.42-.36-.41-1.11-.55-1.56a.4.4,0,0,1,.25-.05c.22,0,.39.58.65.95.52.73,1.23,1.54,2,.4a2.55,2.55,0,0,0-.26-.36l-.23-.27c-.13-.15-.76-.87-1-1.12a1.52,1.52,0,0,0-1.87-.22,2.8,2.8,0,0,0-1.9,0l-1.42-.09a.28.28,0,0,1-.23-.14l.26-.09a2.41,2.41,0,0,0-2-2s-.06-.32-.23-.39l-.32.38a1.07,1.07,0,0,0-.27.08l-1.39-.52,1,1.05s-.54.76-.69.92a.28.28,0,0,0,0,.39l.2.26c.11.14.22.13.38,0l.23-.12c.1-.08.43.08.58,0a4.09,4.09,0,0,0-.16.81l-.93-.11a.47.47,0,0,0-.42.1l-.8.61a.69.69,0,0,0-.18.88Zm7.71.18-.63,1.56H25l.63-1.51c.07-.19-.06-.29-.22-.5a4.48,4.48,0,0,0,.69.33,1.12,1.12,0,0,0-.08.12m-6.1-3.38-.18.1c-.12.07-.19.1-.3,0l-.08-.1a.21.21,0,0,1,0-.25l.78-.9-.71-.59.91.34.33-.42c.1.08.06.32.06.32a1.85,1.85,0,0,1,1.48,1.87.89.89,0,0,0,.55.38l1.58.1a2.12,2.12,0,0,1,1.76,0,1.72,1.72,0,0,1,.67-.26,2,2,0,0,1,1.69,1c.3.38.7,1,.7,1-.17.21-.35.28-.49.22a.74.74,0,0,1-.36-.53,1.72,1.72,0,0,0-.54-.72,3.31,3.31,0,0,1,.24.83c-.62-.61-.73-1.36-1.16-1.46a.63.63,0,0,0-.62.27c.22.5.21,1.09.43,1.48s.2.32.28.38.08.37.05.54l-.23,1.47H26.4l.26-1.43c.08-.44-1.15-.44-1.78-1.27-.54.63-2,.47-2.69.37a.57.57,0,0,0-.66.24c-.08.14-.23.1-.31.08L20,52.06a.28.28,0,0,0-.39.18l-.24.49a.22.22,0,0,0,0,.29l.11.12a1,1,0,0,1-.28.41L19,53.27a.51.51,0,0,1,0-.57l.38-.8a.31.31,0,0,1,.29-.18l1.46,0L20.69,51c-.33-.55.22-1.52.14-2,0,.62-.79.34-.91.42m-1.59,1.84.69-.53a.43.43,0,0,1,.35-.14l1,.13a1.59,1.59,0,0,0,.21.46l-1-.22a.36.36,0,0,0-.33.09l-.49.37a.24.24,0,0,0,0,.32l.08.17-.34.26-.13-.25c-.13-.27-.14-.51.08-.67"/><path class="cls-5" d="M21.35,32.44a7.27,7.27,0,0,0,1,.54v-.45L20.92,32s0,.18.43.47"/><path class="cls-5" d="M22.4,31.9v-.45l-1.68-.6a4.08,4.08,0,0,0,.63.5,7.33,7.33,0,0,0,1,.54"/><path class="cls-5" d="M22.4,30.89v-.45l-1.84-.68s.36.29.79.58a7.13,7.13,0,0,0,1,.54"/><path class="cls-5" d="M27.56,37h1.88a.87.87,0,0,0-.92-.55,1.06,1.06,0,0,0-1,.55"/><path class="cls-5" d="M25.6,29.76l-1.84.68v.45a7.16,7.16,0,0,0,1.05-.54c.43-.29.78-.58.78-.58"/><path class="cls-5" d="M25.24,32l-1.48.57V33a7.29,7.29,0,0,0,1.05-.54c.43-.29.43-.47.43-.47"/><path class="cls-5" d="M25.44,30.86l-1.68.6v.45a7.21,7.21,0,0,0,1.05-.54,4.17,4.17,0,0,0,.63-.5"/><path class="cls-5" d="M17.63,36.43a.87.87,0,0,0-.92.55h1.88a1.06,1.06,0,0,0-1-.55"/><path class="cls-5" d="M26.81,28.56c0-1.06-1.78-2-3.73-2s-3.74.95-3.74,2l0,.26.78,4.49-3.7,2.16A2.21,2.21,0,0,0,15.51,37h.68a1.5,1.5,0,0,1,1.56-1.31A2.38,2.38,0,0,1,19.61,37l.13.2.19.29H14.48A5.88,5.88,0,0,1,15.26,40V51.37c0,2.91,2.24,4.3,4.66,4.3,1.87,0,2.12-.08,3.16.95,1-1,1.28-.95,3.16-.95,2.42,0,4.66-1.39,4.66-4.3V40a5.88,5.88,0,0,1,.78-2.58H26.23l.19-.29.13-.2a2.37,2.37,0,0,1,1.86-1.31A1.5,1.5,0,0,1,30,37h.67a2.2,2.2,0,0,0-.95-1.51L26,33.31l.78-4.49Zm-6.71.51,2.76.94v4.33l-2-1.07Zm.68,9.18a2.71,2.71,0,0,0,1.65,1,1.42,1.42,0,0,0,.48.78,1.39,1.39,0,0,0,1,1.69,1.09,1.09,0,0,0,.74.83l-.58.67a.85.85,0,0,1-.75.31l-2.58-.29c.11-.29-.19-.62-1-.48l1-2.84-.62-1.32-1.17,1-.09,3-.5-.25c-.66-.28-.85.9-.22.91h.25a.28.28,0,0,0,.12.3.2.2,0,0,0,0,.35.24.24,0,0,0,0,.39.54.54,0,0,0,.3.81c.37.1.6-.3.68-.53l4,1.24A1.37,1.37,0,0,0,25,45.47l1-.92a1.09,1.09,0,0,0,.54,1.32,5.56,5.56,0,0,0,0,.78H16V40a5.23,5.23,0,0,0-.39-1.8Zm4.32,2.51a1.36,1.36,0,0,0,.06,1.35l-.17.17c-.75-.09-1.05-1.22-1.05-1.22a1.83,1.83,0,0,0,0,.3,1.05,1.05,0,0,1-.69-1.09,1.74,1.74,0,0,0,.55.19l.05-.33a1.14,1.14,0,0,1-1-.81h.21A3.14,3.14,0,0,0,24,39.2a1.45,1.45,0,0,0,1,.58,1.61,1.61,0,0,0,.14,1m1.11,3a1.15,1.15,0,0,0-.18.35l-.42.39a2,2,0,0,0-.71-1.64l.45-.44.09.09a1,1,0,0,0,.77,1.25m-2-.19.35-.34a1.89,1.89,0,0,1,.67,1.65l-.38.35a1.35,1.35,0,0,1-.24.18,2.05,2.05,0,0,0-.4-1.83m-.74.29h0a.73.73,0,0,0,.38-.05A1.88,1.88,0,0,1,24,45.54a1.79,1.79,0,0,1-.52-.07l-.13,0a2.26,2.26,0,0,0,.1-1.6m-.87-.11.49.06a2.38,2.38,0,0,1-.23,1.5l-.57-.16a2.34,2.34,0,0,0,.31-1.4m-1-.12.59.07A2.34,2.34,0,0,1,21.87,45l-.6-.17a1.94,1.94,0,0,0,.29-1.24m-2.39-.16a.27.27,0,0,1-.38-.28.93.93,0,0,1,.94,0c.14.09.27.35.46.51a4.2,4.2,0,0,1-.18.76.58.58,0,0,1-.37-.92.37.37,0,0,0-.46-.1m-.39,1.08a1.36,1.36,0,0,0,.37.08.22.22,0,0,1-.25.19.2.2,0,0,1-.12-.28m-.54-1.58a.16.16,0,0,1,.08-.29c.17,0,.39.19.61.29a2.07,2.07,0,0,1-.68,0m.56,1.15c.12.11.48.07.48.07v.07c-.16.21-.59.11-.49-.14m.48-.24c-.26.1-.52,0-.44-.2.12.11.45.05.45.05Zm.38-3-.49,1.78.17-2.88.76-.65.39.85-1,2.79.26-1.88c0-.13-.08-.15-.1,0m0,2.16a3.16,3.16,0,0,1,.7,0c.11,0,0,.24-.11.22a3.09,3.09,0,0,1-.59-.25m.85.43.59.07a2,2,0,0,1-.25,1.18l-.57-.17a3.69,3.69,0,0,0,.23-1.09m9.58,7.91a3.26,3.26,0,0,1-1.7,3l.38-.77h-.37l-.49,1a4.79,4.79,0,0,1-1.71.3c-1.93,0-2.44.08-3.16.79-.72-.71-1.23-.79-3.16-.79a4.81,4.81,0,0,1-1.7-.29h0l.49-1h-.37l-.43.87-.3-.16.35-.71h-.36l-.26.53A3.29,3.29,0,0,1,16,51.37V47H30.12Zm.39-13.12a5.08,5.08,0,0,0-.39,1.8v6.61h-.77a4.48,4.48,0,0,1-.64-1.46,1.83,1.83,0,0,0,.23,1.46h-1a5.77,5.77,0,0,1-.46-1.5c-.3.34-.11,1.25.07,1.5h-.66a3.35,3.35,0,0,1,.09-1c-.34-.06-.71-.24-.71-.63a.52.52,0,0,0,.49.15l.28-.22c-.93,0-1-1-.23-1.46-.73,0-1.28-.41-1-1.19a1.08,1.08,0,0,1-.32-1.54,1.32,1.32,0,0,1-.15-1.3,1.45,1.45,0,0,1-1-.4l-.06,0a2.58,2.58,0,0,0,1.12-.85Zm-2.8-3.18c-.76.13-1.42,1.07-2,1.91l-.06.1h-.57v.1a1.86,1.86,0,0,1-2,1.53,2.23,2.23,0,0,1-1.43-.45,1.68,1.68,0,0,1-.55-.78,1.35,1.35,0,0,1-.06-.29v-.1h-.57l-.06-.1c-.54-.84-1.2-1.77-2-1.91l2.08-1.21,2.55,1.39,2.55-1.39Zm-2.38-1.8-2,1.07V30l2.76-.94Zm-2.25-3.73-3-1.19c.26-.61,1.44-1.12,3-1.12s2.76.52,3,1.12Z"/><path class="cls-5" d="M29.79,42.52v-.33c-1,0-1.25-1.22-1.25-1.22a1.22,1.22,0,0,0,1.24,1.55"/><path class="cls-5" d="M28.51,44.55l-.1-.31c-.87.22-1.31-1.15-1.31-1.15a1.17,1.17,0,0,0,1.42,1.46"/><path class="cls-5" d="M29.11,43.28c-1,.16-1.46-1-1.46-1a1.17,1.17,0,0,0,1,1.39.91.91,0,0,0,1.33,1l-.1-.3a.67.67,0,0,1-.76-1"/><path class="cls-5" d="M28.49,39.84v-.33c-1.37-.28-1.25-1.22-1.25-1.22a1.22,1.22,0,0,0,1.24,1.55"/><polygon class="cls-5" points="19.84 53.61 19.35 54.6 19.71 54.6 20.2 53.61 19.84 53.61"/><polygon class="cls-5" points="20.57 53.61 20.09 54.6 20.46 54.6 20.94 53.61 20.57 53.61"/><polygon class="cls-5" points="23.53 53.61 23.05 54.6 23.41 54.6 23.9 53.61 23.53 53.61"/><polygon class="cls-5" points="24.27 53.61 23.78 54.6 24.15 54.6 24.64 53.61 24.27 53.61"/><polygon class="cls-5" points="22.79 53.61 22.3 54.6 22.67 54.6 23.16 53.61 22.79 53.61"/><polygon class="cls-5" points="27.11 54.6 27.48 54.6 27.97 53.61 27.6 53.61 27.11 54.6"/><polygon class="cls-5" points="21.31 53.61 20.83 54.6 21.2 54.6 21.68 53.61 21.31 53.61"/><polygon class="cls-5" points="22.05 53.61 21.56 54.6 21.93 54.6 22.42 53.61 22.05 53.61"/><path class="cls-5" d="M20.38,48.27a.15.15,0,1,0,.13.15.14.14,0,0,0-.13-.15"/><path class="cls-5" d="M23.08,25.89a5.57,5.57,0,0,1,3.4,1,6.78,6.78,0,0,1,.88-2.26l-1.22.14-.64-1.36-1.23.64L23.08,22.9l-1.19,1.18-1.23-.64L20,24.81l-1.22-.14a6.73,6.73,0,0,1,.88,2.26,5.57,5.57,0,0,1,3.4-1m-2.85-.54.58-1.23,1.08.57,1.19-1.18,1.19,1.18,1.08-.57.58,1.23.72-.11a5.45,5.45,0,0,0-.45,1.07,6.39,6.39,0,0,0-6.23,0,5.55,5.55,0,0,0-.45-1.07Z"/><path class="cls-5" d="M24.33,23.45a.33.33,0,0,0,.35-.29,2,2,0,0,0-.24-.65s-.39.42-.4.6a.32.32,0,0,0,.29.35"/><path class="cls-5" d="M26.33,24.18a.32.32,0,0,0,.43-.14,2,2,0,0,0,0-.69s-.52.23-.6.39a.33.33,0,0,0,.14.44"/><path class="cls-5" d="M21.83,23.45a.32.32,0,0,0,.3-.35c0-.18-.4-.6-.4-.6a2,2,0,0,0-.24.65.32.32,0,0,0,.35.29"/><path class="cls-5" d="M19.83,24.18a.32.32,0,0,0,.13-.44c-.08-.16-.6-.39-.6-.39a2,2,0,0,0,0,.69.32.32,0,0,0,.43.14"/><path class="cls-5" d="M43.84,35.18a1.73,1.73,0,0,0,.92-.93c-1.09-.16-4-1.37-6.34-.38.89-.84,1.68-1,1.76-2.16a.86.86,0,0,0,1.34-.22c-.24-.72-.86-.14-.95-.34s.78.08,1-.85c-.7-.24-.91.33-1,.2s.44-.37,0-1.12c-.73.43-.35.91-.5,1s0-.51-.84-.49c-.08.86.76.89.62,1s-.38-.5-1-.16a.9.9,0,0,0,1.16.92c-.1,1.33-1.31,1.08-2.22,2.57,1.92,1,2.79,2.7,4,3.89a6.83,6.83,0,0,0,1.06-1.51,1.55,1.55,0,0,0,2.18,0c-.44-.45-.46-.79-1.13-1.41M42,35.42a2.16,2.16,0,0,1-.23,2.09,8.74,8.74,0,0,0-2.48-3.17c-.17-.11.1-.31.58-.37a9.44,9.44,0,0,1,4,.56,2.13,2.13,0,0,1-1.09.46,6.59,6.59,0,0,1,1.34,1.4c-.58.14-.91-.22-2.15-1"/><path class="cls-5" d="M29.65,57.54V55.92a14.79,14.79,0,0,1-4.89,1.22l-.09.58.69.07a19.61,19.61,0,0,1-2.28.15,19.62,19.62,0,0,1-2.28-.15l.69-.07-.09-.58a14.76,14.76,0,0,1-4.89-1.22v1.62l-1.7.7a20.55,20.55,0,0,0,4.38,1.62l-.2.68a15,15,0,0,0,8.19,0l-.2-.68a20.61,20.61,0,0,0,4.38-1.62Zm-13.94.73,1.14-.46V56.5a19.42,19.42,0,0,0,3.09.87l-.65,2.12a18.83,18.83,0,0,1-3.58-1.2m7.37,2.44a15.48,15.48,0,0,1-3.63-.46L20.13,58a15.4,15.4,0,0,0,2.95.25A15.4,15.4,0,0,0,26,58l.69,2.22a15.55,15.55,0,0,1-3.63.46m3.78-1.24-.65-2.12a19.42,19.42,0,0,0,3.09-.87v1.32l1.14.46a18.66,18.66,0,0,1-3.58,1.2"/><path class="cls-5" d="M3.37,36.58a6.88,6.88,0,0,0,1.05,1.51c1.18-1.19,2.05-2.9,4-3.88C7.49,32.71,6.27,33,6.18,31.63a.9.9,0,0,0,1.16-.92c-.61-.33-.83.33-1,.16s.7-.16.62-1c-.8,0-.66.56-.85.48s.23-.53-.5-1c-.41.76.15,1,0,1.12s-.33-.44-1-.2c.19.94,1.09.58,1,.85s-.7-.39-.94.34A.85.85,0,0,0,6,31.7c.08,1.22.87,1.32,1.76,2.16-2.37-1-5.25.22-6.34.38a1.73,1.73,0,0,0,.92.93c-.67.62-.69,1-1.13,1.41a1.55,1.55,0,0,0,2.18,0M2,36.4A6.52,6.52,0,0,1,3.37,35a2.16,2.16,0,0,1-1.09-.47,9.47,9.47,0,0,1,4-.56c.48.06.76.26.58.37a8.76,8.76,0,0,0-2.49,3.17,2.17,2.17,0,0,1-.23-2.09c-1.25.75-1.57,1.12-2.16,1"/><path class="cls-5" d="M22,35.68v.71a.89.89,0,0,1,.72-.24v1a1.53,1.53,0,0,1-.2.72h1a1.53,1.53,0,0,1-.2-.72v-1a.89.89,0,0,1,.72.24v-.71H22Z"/></svg>