<svg id="Слой_1" data-name="Слой 1" xmlns="http://www.w3.org/2000/svg" viewBox="0 0 155 83"><defs><style>.cls-1{fill:#fefefe;}.cls-2{fill:#505050;}</style></defs><title>Яндекс лавка</title><path class="cls-1" d="M154.6,52c0,1.21,0,2.41,0,3.62,0,.28,0,.39-.34.33a1.79,1.79,0,0,0-.33,0H43.43a1.31,1.31,0,0,1-.2-.94c0-1.49,0-3,0-4.47,0-.57-.16-.84-.77-.85s-.8-.2-.81-1c0-2.5,0-5,0-7.5s0-5.22,0-7.83c0-.84-.06-.89-.9-.89H34c-.79,0-.85.06-.85.87,0,2.24,0,4.47-.14,6.7a33.49,33.49,0,0,1-1.49,8.66c-.19.55-.4,1-1.1,1-.48,0-.43.42-.43.74,0,1.51,0,3,0,4.54a1.31,1.31,0,0,1-.2.94Q15.33,56,.92,56c-.47,0-.54-.11-.53-.55,0-1.14,0-2.28,0-3.41A12,12,0,0,1,2.82,52,1.1,1.1,0,0,0,4,51.21c1.29-3,2.6-5.95,3.86-8.94a1.55,1.55,0,0,1,1.68-1.12c1.61.05,1.62,0,1.62,1.6q0,4.14,0,8.29c0,.88,0,.92.93.92,1.71,0,1.55.16,1.55-1.56q0-12.63,0-25.26a1.63,1.63,0,0,1,.2-1.14H92a1.46,1.46,0,0,1,.21,1c.09,3.09,0,6.18-.16,9.27-.16,4-.31,8-.77,11.93a11.32,11.32,0,0,1-.54,2.5,2.43,2.43,0,0,1-1.81,1.81c-.66.14-.38.69-.38,1.08s.33.46.66.42a2.78,2.78,0,0,0,2.15-1.34,8.85,8.85,0,0,0,1.07-3.23,56.8,56.8,0,0,0,.54-5.69c.18-2.36.21-4.72.38-7.08a3.91,3.91,0,0,0,0-.39c-.08-2.56.2-5.12.14-7.69,0-1.1.11-1.22,1.19-1.22h3.81c1.08,0,1.19.11,1.19,1.22q0,11.87,0,23.74c0,.24,0,.48,0,.72,0,.81.31,1,1.12.87a.44.44,0,0,0,.42-.43,7.55,7.55,0,0,0,0-.79q0-12.76,0-25.52a1.73,1.73,0,0,1,.2-1.2q26.28,0,52.56,0c.49,0,.61.11.6.6q0,13.58,0,27.17c-.35,0-.31-.33-.35-.54a11.1,11.1,0,0,1-.23-2.09q0-5.72,0-11.44a9.63,9.63,0,0,0-.33-2.47,3.9,3.9,0,0,0-3.46-3.07,5.9,5.9,0,0,0-4.82,1.22,1,1,0,0,0-.36,1.33c.12.33.2.45.51.15a5.38,5.38,0,0,1,3.2-1.52,3.12,3.12,0,0,1,3.54,2.26,15,15,0,0,1,.21,4.38c0,.43-.35.51-.7.52-.7,0-1.4,0-2.1,0A6.27,6.27,0,0,0,146,41.8a5.06,5.06,0,0,0-1.8,3.61,9.63,9.63,0,0,0,.2,3.65,3.91,3.91,0,0,0,3,3.12,4,4,0,0,0,4.32-1.82c.2-.3.34-.85.71-.77s.32.66.38,1c0,.13,0,.26.06.39.15.79.17.82,1,.84A1,1,0,0,1,154.6,52Z"/><path d="M13.82,24c0,.22,0,.43,0,.65q0,13.34,0,26.69c0,.57-.1.83-.74.76a9.11,9.11,0,0,0-1.64,0c-.45,0-.59-.1-.58-.57,0-3.13,0-6.27,0-9.4,0-.67-.18-.75-.81-.83-1.31-.17-1.89.35-2.36,1.54-1.15,2.93-2.47,5.78-3.7,8.67a.79.79,0,0,1-.92.58C2.24,52,1.32,52.19.4,52V51.9c.71-2.19,1.82-4.21,2.72-6.33.61-1.43,1.25-2.85,1.9-4.26a.69.69,0,0,0-.28-1A7.66,7.66,0,0,1,1.4,34.18a11.37,11.37,0,0,1,.81-5.78,7.38,7.38,0,0,1,4.57-4.16,4,4,0,0,1,1.36-.16c.23,0,.46.07.68-.07Z"/><path d="M29.74,56c0-2,0-3.9,0-5.85,0-.47.14-.65.59-.56s.71-.15.87-.62a33.46,33.46,0,0,0,1.56-9.09c.14-2.34.15-4.69.13-7,0-.44.13-.54.55-.53,2.61,0,5.22,0,7.83,0,.5,0,.61.12.6.61,0,5.33,0,10.65,0,16,0,.59.16.79.72.69s.88.12.86.83c0,1.86,0,3.73,0,5.59H40.66a1.23,1.23,0,0,1-.21-.87c0-.72,0-1.44,0-2.17,0-.38-.17-.56-.55-.56H33.27c-.39,0-.55.19-.55.56,0,.72,0,1.44,0,2.17a1.23,1.23,0,0,1-.21.87Z"/><path d="M101.45,24q0,13.68,0,27.36c0,.61-.16.76-.75.74-1.2,0-1.2,0-1.2-1.21,0-8.18,0-16.36,0-24.54,0-.66-.19-.79-.8-.77-1.51,0-3,0-4.54,0-.4,0-.52.09-.52.5q0,6.68-.39,13.34a54.34,54.34,0,0,1-.91,9.21,6.39,6.39,0,0,1-1.05,2.45,2.84,2.84,0,0,1-2.52,1.14c-.33,0-.55-.11-.5-.5a1.24,1.24,0,0,0,0-.33c-.09-.63-.22-1.19.81-1.16.61,0,1-.59,1.24-1.15a11.63,11.63,0,0,0,.83-4c.58-6.86.81-13.74.85-20.63,0-.17,0-.35,0-.52Z"/><path d="M154.6,52c-2,.08-1.61.37-2-1.52-.05-.28-.09-.56-.15-1l-.43.69a4.23,4.23,0,0,1-4.49,2.18,4.1,4.1,0,0,1-3.37-3.35,8.93,8.93,0,0,1,0-4.87,5.38,5.38,0,0,1,5.35-3.87c.81,0,1.62,0,2.43,0,.26,0,.41,0,.4-.35,0-1.12,0-2.24-.07-3.35-.25-2.48-1.92-3.58-4.35-2.95a5,5,0,0,0-2.82,2c-.16-.57-.29-1.06-.44-1.54-.07-.24.06-.37.19-.52a6.15,6.15,0,0,1,7.38-.85A4.61,4.61,0,0,1,154.06,36a13.16,13.16,0,0,1,.13,1.9c0,3.64,0,7.28,0,10.91a7.94,7.94,0,0,0,.4,2.95Z"/><path class="cls-1" d="M8.14,24.13a7.1,7.1,0,0,0-6,4.92A11.63,11.63,0,0,0,2,36.46a6.58,6.58,0,0,0,3.06,3.87c.25.15.46.24.28.63C3.74,44.56,2.14,48.18.53,51.78c0,0-.08.08-.13.12q0-13.66,0-27.32c0-.52.15-.59.62-.59,2.39,0,4.77,0,7.16,0q.07.05,0,.09A.08.08,0,0,1,8.14,24.13Z"/><path class="cls-1" d="M32.5,56c0-1.18,0-2.36,0-3.54,0-.25.09-.34.34-.34h7.55c.32,0,.34.16.34.41,0,1.16,0,2.32,0,3.48Z"/><path class="cls-2" d="M8.14,24.13a.2.2,0,0,0,0-.11h.66A.73.73,0,0,1,8.14,24.13Z"/><path d="M17.68,42.18c0-3.09,0-6.18,0-9.27,0-.47.08-.67.6-.62a13.75,13.75,0,0,0,1.91,0c.41,0,.51.1.51.5,0,2.43,0,4.87,0,7.3,0,.54.16.65.66.63,1,0,2.06,0,3.09,0,.55,0,.74-.09.73-.7,0-2.39,0-4.78,0-7.17,0-.47.12-.6.58-.57a11.52,11.52,0,0,0,1.77,0c.5,0,.61.12.61.61,0,4.58,0,9.16,0,13.75,0,1.64,0,3.29,0,4.93,0,.45-.13.56-.55.54a12,12,0,0,0-1.71,0c-.54,0-.7-.1-.7-.67,0-2.54,0-5.09,0-7.63,0-.5-.13-.62-.62-.61-1.12,0-2.24,0-3.35,0-.42,0-.5.11-.5.51,0,2.56,0,5.13,0,7.69,0,.61-.18.74-.73.7a11.28,11.28,0,0,0-1.71,0c-.47,0-.58-.14-.58-.59C17.69,48.41,17.68,45.3,17.68,42.18Z"/><path d="M52.28,42.92c-1.18,0-2.37,0-3.55,0-.33,0-.46.07-.44.43a12.71,12.71,0,0,0,.66,4.06,3.17,3.17,0,0,0,4.1,2.2,6.57,6.57,0,0,0,2.27-1c.28-.19.41-.18.48.17s.18.67.28,1c.3,1,.3,1-.66,1.59a7.4,7.4,0,0,1-4.95.87,5.41,5.41,0,0,1-4-3,11.71,11.71,0,0,1-1.25-5.19,21.62,21.62,0,0,1,1-8,7.66,7.66,0,0,1,1.12-2.14,4.57,4.57,0,0,1,7.86.71,12.86,12.86,0,0,1,1.13,5.15c.05.9,0,1.8,0,2.69,0,.4-.15.46-.5.46C54.65,42.91,53.46,42.92,52.28,42.92Z"/><path d="M62.49,41.19c1.4-2.77,2.81-5.53,4.19-8.31a.85.85,0,0,1,.93-.6c.76,0,1.53,0,2.32,0,0,.27-.15.46-.25.66-1.36,2.67-2.72,5.33-4.11,8a1.23,1.23,0,0,0,0,1.31c1.62,3,3.21,6.12,4.81,9.18.1.19.19.38.33.67h-3c-.36,0-.4-.3-.51-.52L62.7,42.91a.87.87,0,0,0-.33-.39v5.63c0,1.16,0,2.32,0,3.49,0,.37-.1.49-.48.48-.7,0-1.4,0-2.1,0-.35,0-.44-.11-.44-.45q0-9.47,0-18.94c0-.37.14-.43.46-.42.68,0,1.36,0,2,0,.45,0,.53.14.53.55,0,2.65,0,5.31,0,8v.37Z"/><path d="M125.75,41.59l.63.26a4.54,4.54,0,0,1,2.91,4.74c-.1,3.33-2,5.28-5.3,5.46-1.46.08-2.93,0-4.4.06-.35,0-.5-.06-.5-.46q0-9.46,0-18.93c0-.18-.08-.43.25-.42,1.9.07,3.82-.21,5.7.21,2.76.62,3.59,2.89,3.31,5.38A4.48,4.48,0,0,1,125.75,41.59Z"/><path d="M81,48.63c.21.68.39,1.35.62,2,.12.35-.15.42-.32.55a6,6,0,0,1-8.42-1.27,10.5,10.5,0,0,1-1.64-4.79,18.69,18.69,0,0,1,.59-8.31c.72-2.18,2-3.92,4.32-4.55a6.4,6.4,0,0,1,4.9.53c.24.13.44.25.38.59-.14.82-.25,1.64-.39,2.55a7.44,7.44,0,0,0-1.83-1.1,2.91,2.91,0,0,0-3.82,1.34,8,8,0,0,0-1,3.1,18.85,18.85,0,0,0,.43,7.81c.85,2.91,3,3.32,5.38,2.07C80.5,49,80.74,48.82,81,48.63Z"/><path d="M106,35.66l-.18-.61c-.37-1.32-.32-1.48.86-2.21a6.22,6.22,0,0,1,5.43-.61c1.78.6,2.52,2.05,2.8,3.8a12.7,12.7,0,0,1,.13,2c0,3.35,0,6.71,0,10.06a16.27,16.27,0,0,0,.31,3.53c.09.39,0,.45-.35.43-1.44-.06-1.15.3-1.47-1.19-.09-.4-.12-.82-.2-1.34-.21.32-.35.57-.51.81a4.2,4.2,0,0,1-4.42,2.05A4.08,4.08,0,0,1,105,49.17a8.8,8.8,0,0,1,0-5.06,5.36,5.36,0,0,1,5.28-3.78c.81,0,1.62,0,2.43,0,.21,0,.45.05.44-.3a24,24,0,0,0-.11-3.68c-.42-2.33-2-3.28-4.34-2.66A5,5,0,0,0,106,35.66Z"/><path d="M142.85,52l-.16,0c-1.75.08-1.75.08-2.69-1.37L134.32,42c-.17.19-.09.39-.1.57,0,3,0,5.92,0,8.88,0,.49-.08.68-.63.66-1.19,0-1.19,0-1.19-1.22,0-6,0-11.92,0-17.88,0-.53.06-.77.69-.74,1.13.06,1.13,0,1.13,1.12v8.15c.23-.31.37-.49.51-.68,1.82-2.62,3.66-5.24,5.45-7.88a1.29,1.29,0,0,1,1.38-.7,5.46,5.46,0,0,0,.77,0c0,.27-.15.39-.25.54-1.88,2.74-3.77,5.48-5.68,8.21a.69.69,0,0,0,0,.92q3.05,4.71,6.07,9.44C142.59,51.6,142.7,51.8,142.85,52Z"/><path class="cls-1" d="M10.92,32.69c0,1.86,0,3.72,0,5.58,0,.42-.09.57-.54.55a14.81,14.81,0,0,1-2.16-.11A4,4,0,0,1,5,35.6a10.33,10.33,0,0,1,0-5.64,4.31,4.31,0,0,1,4.54-3.4c1.31,0,1.31,0,1.31,1.27Z"/><path class="cls-1" d="M33.82,49.57c1.56-4.63,1.73-9.35,1.74-14.08,0-.57.12-.76.71-.72a21.85,21.85,0,0,0,2.23,0c.31,0,.41.09.41.41q0,7,0,14c0,.27-.07.39-.37.39Z"/><path class="cls-1" d="M152.4,44.61c0,1.3.22,2.7-.58,4a6.74,6.74,0,0,1-1.36,1.75,2.62,2.62,0,0,1-4.16-.82,6.57,6.57,0,0,1,0-5.95c.67-1.4,2-1.77,3.46-1.88.74-.06,1.49,0,2.23,0,.32,0,.41.09.41.41C152.39,42.88,152.4,43.71,152.4,44.61Z"/><path class="cls-1" d="M50.75,40.38h-2c-.2,0-.4,0-.37-.3A13.1,13.1,0,0,1,49.13,36a3.18,3.18,0,0,1,.48-.78,1.66,1.66,0,0,1,2.81.23,6.2,6.2,0,0,1,.71,2.51c.08.65.07,1.31.13,2,0,.39-.11.49-.48.48C52.11,40.36,51.43,40.38,50.75,40.38Z"/><path class="cls-1" d="M120.88,46.57c0-1.18,0-2.36,0-3.54,0-.41.08-.59.54-.56.89.05,1.79,0,2.69.07a3.36,3.36,0,0,1,3.37,3.41,6.06,6.06,0,0,1-.14,2,3.33,3.33,0,0,1-2.93,2.62,25.31,25.31,0,0,1-3.14.11c-.36,0-.37-.19-.37-.45C120.88,49,120.88,47.79,120.88,46.57Z"/><path class="cls-1" d="M120.88,37.44c0-1.07,0-2.15,0-3.22,0-.37.09-.49.47-.47a20.23,20.23,0,0,1,2.95.13,2.71,2.71,0,0,1,2.31,2.35,5.78,5.78,0,0,1,0,2.22,3.17,3.17,0,0,1-3.21,2.65c-.68,0-1.36,0-2,0-.36,0-.44-.12-.43-.45C120.89,39.58,120.88,38.51,120.88,37.44Z"/><path class="cls-1" d="M113.21,44.5c0,1.52.17,3.07-.79,4.43a7.19,7.19,0,0,1-1,1.27,2.66,2.66,0,0,1-4.37-.84,6.75,6.75,0,0,1,0-5.67c.65-1.48,2-1.91,3.5-2,.76-.06,1.53,0,2.3,0,.35,0,.39.15.38.43C113.2,42.88,113.21,43.69,113.21,44.5Z"/></svg>