<svg width="83px" id="Слой_1" data-name="Слой 1" xmlns="http://www.w3.org/2000/svg"
 viewBox="0 0 76 29"><defs><style>.cls-1{opacity:0.5;}.cls-2{fill:#505050;}.cls-3{fill:#b2b2b2;}</style></defs><title>Банковские карты</title><g class="cls-1"><polygon class="cls-2" points="32.98 26.33 26.83 26.33 30.68 2.69 36.83 2.69 32.98 26.33"/><path class="cls-2" d="M21.65,2.69,15.78,18.95l-.69-3.5h0L13,4.81a2.64,2.64,0,0,0-2.92-2.13H.39l-.11.4a23,23,0,0,1,6.44,2.7l5.35,20.54h6.41L28.27,2.69Z"/><path class="cls-2" d="M70.07,26.33h5.65L70.79,2.69H65.84A2.83,2.83,0,0,0,63,4.45L53.82,26.33h6.42l1.28-3.51h7.83ZM63.3,18l3.23-8.85L68.35,18Z"/><path class="cls-2" d="M54.3,8.37l.88-5.08a17.77,17.77,0,0,0-5.54-1c-3.06,0-10.31,1.34-10.31,7.83,0,6.11,8.51,6.19,8.51,9.39s-7.64,2.63-10.16.61l-.92,5.31a17.24,17.24,0,0,0,6.95,1.34c4.2,0,10.54-2.18,10.54-8.1,0-6.15-8.59-6.72-8.59-9.39S51.67,6.92,54.3,8.37Z"/><path class="cls-3" d="M15.09,15.45,13,4.81a2.64,2.64,0,0,0-2.92-2.13H.39l-.11.4A23.86,23.86,0,0,1,9.41,7.67,18.44,18.44,0,0,1,15.09,15.45Z"/></g></svg>