<svg width="83px" id="Слой_1" data-name="Слой 1" xmlns="http://www.w3.org/2000/svg" xmlns:xlink="http://www.w3.org/1999/xlink" viewBox="0 0 83 31"><defs><style>.cls-1{opacity:0.5;}.cls-2{fill:url(#Безымянный_градиент_3);}.cls-3{fill:#8c8c8c;}</style><linearGradient id="Безымянный_градиент_3" x1="58.48" y1="-110.65" x2="83" y2="-110.65" gradientTransform="matrix(1, 0, 0, -1, 0, -102)" gradientUnits="userSpaceOnUse"><stop offset="0" stop-color="#838383"/><stop offset="1" stop-color="#6b6b6b"/></linearGradient></defs><title>Банковские карты</title><g class="cls-1"><path id="path10" class="cls-2" d="M74.44,3.52H58.53c.86,5.31,6,10.27,11.64,10.27H82.83A5.82,5.82,0,0,0,83,12.08,8.47,8.47,0,0,0,74.44,3.52Z"/><path id="path12" class="cls-3" d="M59.9,14.64V27.48h7.7V20.63h6.85a8.47,8.47,0,0,0,8-6Z"/><path id="path14" class="cls-3" d="M32.52,3.52v24h6.85a3,3,0,0,0,2.57-1.71l6-12h.86V27.48h7.7v-24H49.63a3.56,3.56,0,0,0-2.57,1.71l-6,12h-.86V3.52Z"/><path id="path16" class="cls-3" d="M0,27.48v-24H7.7s2.22,0,3.42,3.42C14.2,16,14.55,17.21,14.55,17.21S15.23,15,18,6.94c1.2-3.42,3.42-3.42,3.42-3.42h7.7v24h-7.7V14.64h-.86L16.26,27.48H12.84L8.56,14.64H7.7V27.48Z"/></g></svg>