<?xml version="1.0" encoding="utf-8"?>
<!-- Generator: Adobe Illustrator 21.0.0, SVG Export Plug-In . SVG Version: 6.00 Build 0)  -->
<svg version="1.1" id="Слой_1" xmlns="http://www.w3.org/2000/svg" xmlns:xlink="http://www.w3.org/1999/xlink" x="0px" y="0px"
	 viewBox="0 0 22.3 22.9" style="enable-background:new 0 0 22.3 22.9;" xml:space="preserve">
<style type="text/css">
	.st0{fill:#9E9E9E;}
</style>
<g>
	<path class="st0" d="M21.9,21.3L16.6,16c1.4-1.6,2.3-3.8,2.3-6.2c0-5.2-4.2-9.4-9.4-9.4c-5.2,0-9.4,4.2-9.4,9.4s4.2,9.4,9.4,9.4
		c2.4,0,4.5-0.9,6.2-2.3l5.3,5.3c0.1,0.1,0.3,0.2,0.5,0.2s0.3-0.1,0.5-0.2C22.2,22,22.2,21.6,21.9,21.3z M1.4,9.8
		c0-4.4,3.6-8.1,8.1-8.1c4.4,0,8.1,3.6,8.1,8.1s-3.6,8.1-8.1,8.1C5.1,17.9,1.4,14.3,1.4,9.8z"/>
</g>
</svg>
