<?xml version="1.0" encoding="utf-8"?>
<!-- Generator: Adobe Illustrator 21.0.0, SVG Export Plug-In . SVG Version: 6.00 Build 0)  -->
<svg version="1.1" id="Слой_1" xmlns="http://www.w3.org/2000/svg" xmlns:xlink="http://www.w3.org/1999/xlink" x="0px" y="0px"
	 viewBox="0 0 27.1 27.8" style="enable-background:new 0 0 27.1 27.8;" xml:space="preserve">
<style type="text/css">
	.st0{display:none;}
	.st1{display:inline;fill:none;stroke:#000000;stroke-width:0.9663;stroke-miterlimit:10;}
	.st2{fill:none;stroke:#000000;stroke-miterlimit:10;}
</style>
<g id="favorite" class="st0">
	<path class="st1" d="M13.6,28.7l-2.2-2.2C3.1,19.1-2.4,14.2-2.4,8.1c0-4.8,3.8-8.7,8.6-8.8c0.1,0,0.2,0,0.3,0
		c2.8,0,5.4,1.3,7.2,3.4c1.8-2.1,4.4-3.3,7.2-3.4c4.8-0.1,8.7,3.8,8.8,8.5c0,0.1,0,0.2,0,0.2c0,6.1-5.4,11-13.7,18.4L13.6,28.7z"/>
</g>
<g>
	<path class="st2" d="M13.6,1.4C6.7,1.4,1.1,7,1.1,13.9s5.6,12.5,12.5,12.5s12.5-5.6,12.5-12.5S20.5,1.4,13.6,1.4z M15.1,15.4h-3.2
		v1.7h3.2c0.4,0,0.7,0.3,0.7,0.7s-0.3,0.7-0.7,0.7h-3.2v1.6c0,0.4-0.3,0.7-0.7,0.7c-0.4,0-0.7-0.3-0.7-0.7v-1.6H9.6
		c-0.4,0-0.7-0.3-0.7-0.7s0.3-0.7,0.7-0.7h0.8v-1.7v-1.5V8.4c0-0.4,0.3-0.7,0.7-0.7h3.9c2.1,0,3.9,1.7,3.9,3.9
		C19,13.7,17.3,15.4,15.1,15.4z"/>
</g>
</svg>
