<?xml version="1.0" encoding="utf-8"?>
<!-- Generator: Adobe Illustrator 21.0.0, SVG Export Plug-In . SVG Version: 6.00 Build 0)  -->
<svg version="1.1" id="Слой_1" xmlns="http://www.w3.org/2000/svg" xmlns:xlink="http://www.w3.org/1999/xlink" x="0px" y="0px"
	 viewBox="0 0 18.6 18.5" style="enable-background:new 0 0 18.6 18.5;" xml:space="preserve">
<style type="text/css">
	.st0{fill:#3CD52E;}
</style>
<g>
	<path class="st0" d="M17.5,1.2c-1.1-1.1-3-1.1-4.1,0L1.8,12.8c0,0,0,0,0,0c0,0,0,0,0,0c0,0,0,0,0,0.1c0,0,0,0,0,0c0,0,0,0,0,0
		l-1.1,4.8c0,0,0,0,0,0.1c0,0,0,0,0,0c0,0,0,0.1,0,0.1c0,0,0,0,0,0c0,0,0,0.1,0.1,0.1c0,0,0.1,0.1,0.1,0.1c0,0,0.1,0,0.1,0
		c0,0,0,0,0.1,0L5.7,17c0,0,0,0,0,0c0,0,0,0,0,0c0,0,0,0,0.1,0c0,0,0,0,0,0c0,0,0,0,0,0L17.5,5.3C18.6,4.2,18.6,2.4,17.5,1.2z
		 M17,1.7c0.8,0.8,0.9,2.1,0.2,2.9l-3.1-3.1C14.9,0.8,16.2,0.9,17,1.7z M15.4,6.5l-3.2-3.2l0.5-0.5L15.9,6L15.4,6.5z M2.1,16.6
		c-0.1-0.1-0.3-0.1-0.5,0l-0.2,0.2l0.8-3.4l1.4-0.2l-0.2,1.6c0,0,0,0,0,0c0,0,0,0,0,0c0,0,0,0,0,0c0,0,0,0,0,0.1c0,0,0,0,0,0.1
		c0,0,0,0,0,0c0,0,0,0,0.1,0c0,0,0,0,0,0c0,0,0,0,0.1,0c0,0,0,0,0,0c0,0,0,0,0,0h0h0h0h0c0,0,0,0,0,0L5.5,15l-0.2,1.4l-3.5,0.8
		L2.1,17C2.3,16.9,2.3,16.7,2.1,16.6z M6.2,14.8l-0.5-0.5l-1.5,0.2L4.3,13l-0.5-0.5l-1,0.1l8.9-8.9L15,6.9l-8.9,8.9L6.2,14.8z
		 M16.3,5.6l-3.2-3.2l0.5-0.5l3.2,3.2L16.3,5.6z"/>
</g>
</svg>
