<?xml version="1.0" encoding="utf-8"?>
<!-- Generator: Adobe Illustrator 21.0.0, SVG Export Plug-In . SVG Version: 6.00 Build 0)  -->
<svg version="1.1" id="Слой_1" xmlns="http://www.w3.org/2000/svg" xmlns:xlink="http://www.w3.org/1999/xlink" x="0px" y="0px"
	 viewBox="0 0 20 20" style="enable-background:new 0 0 20 20;" xml:space="preserve">
<g>
	<g>
		<path d="M17.7,0H2.3C1.1,0,0,1.1,0,2.3v15.3C0,18.9,1.1,20,2.3,20h15.3c1.3,0,2.3-1.1,2.3-2.3V2.3C20,1.1,18.9,0,17.7,0z
			 M18.4,17.7c0,0.4-0.4,0.8-0.8,0.8h-4.5v-6.4h2.4L16,9.6h-2.8V8c0-0.7,0.5-1.2,1.2-1.2H16V4.4h-1.6c-2,0-3.6,1.6-3.6,3.6v1.7H8.4
			v2.4h2.3v6.4H2.3c-0.4,0-0.8-0.4-0.8-0.8V2.3c0-0.4,0.4-0.8,0.8-0.8h15.3c0.4,0,0.8,0.4,0.8,0.8V17.7z"/>
	</g>
</g>
</svg>
