<?xml version="1.0" encoding="utf-8"?>
<!-- Generator: Adobe Illustrator 21.0.0, SVG Export Plug-In . SVG Version: 6.00 Build 0)  -->
<svg version="1.1" id="Слой_1" xmlns="http://www.w3.org/2000/svg" xmlns:xlink="http://www.w3.org/1999/xlink" x="0px" y="0px"
	 viewBox="0 0 20 20" style="enable-background:new 0 0 20 20;" xml:space="preserve">
<g>
	<g>
		<path d="M14.5,0h-9C2.5,0,0,2.5,0,5.5v9c0,3,2.5,5.5,5.5,5.5h9c3,0,5.5-2.5,5.5-5.5v-9C20,2.5,17.5,0,14.5,0z M18.2,14.5
			c0,2.1-1.7,3.7-3.7,3.7h-9c-2.1,0-3.7-1.7-3.7-3.7v-9c0-2.1,1.7-3.7,3.7-3.7h9c2.1,0,3.7,1.7,3.7,3.7L18.2,14.5L18.2,14.5z"/>
	</g>
	<g>
		<g id="XMLID_3_">
			<path id="XMLID_4_" d="M5.1,9.8l2.3,0.9l0.9,2.9c0.1,0.2,0.3,0.3,0.4,0.1l1.3-1.1c0.1-0.1,0.3-0.1,0.5,0l2.3,1.7
				c0.2,0.1,0.4,0,0.4-0.2L15,5.9c0-0.2-0.2-0.4-0.4-0.3L5.1,9.3C4.9,9.4,4.9,9.7,5.1,9.8z M8.2,10.2l4.5-2.8
				c0.1-0.1,0.2,0.1,0.1,0.1L9.1,11c-0.1,0.1-0.2,0.3-0.2,0.5l-0.1,0.9c0,0.1-0.2,0.1-0.2,0L8,10.7C8,10.5,8,10.3,8.2,10.2z"/>
		</g>
	</g>
</g>
</svg>
