<?xml version="1.0" encoding="utf-8"?>
<!-- Generator: Adobe Illustrator 21.0.0, SVG Export Plug-In . SVG Version: 6.00 Build 0)  -->
<svg version="1.1" id="Слой_1" xmlns="http://www.w3.org/2000/svg" xmlns:xlink="http://www.w3.org/1999/xlink" x="0px" y="0px"
	 viewBox="0 0 20 20" style="enable-background:new 0 0 20 20;" xml:space="preserve">
<style type="text/css">
	.st0{fill:none;stroke:#000000;stroke-width:1.4345;stroke-miterlimit:10;}
</style>
<g>
	<g>
		<path class="st0" d="M17.2,9.4c0.3-0.3,0.5-0.6,0.6-0.8c1.1-1.5,1.6-2.4,1.5-2.8l-0.1-0.1c0-0.1-0.1-0.1-0.3-0.2
			c-0.2,0-0.4-0.1-0.6,0l-2.8,0c-0.1,0-0.1,0-0.2,0c-0.1,0-0.1,0-0.1,0c0,0,0,0,0,0l0,0c0,0-0.1,0.1-0.1,0.1c0,0-0.1,0.1-0.1,0.2
			c-0.3,0.8-0.6,1.5-1,2.2c-0.2,0.4-0.5,0.7-0.7,1c-0.2,0.3-0.4,0.5-0.5,0.6c-0.1,0.1-0.3,0.3-0.4,0.3c-0.1,0.1-0.2,0.1-0.3,0.1
			c-0.1,0-0.1,0-0.2,0c-0.1-0.1-0.2-0.1-0.2-0.2c-0.1-0.1-0.1-0.2-0.1-0.4c0-0.2,0-0.3,0-0.4c0-0.1,0-0.3,0-0.5c0-0.2,0-0.3,0-0.4
			c0-0.2,0-0.5,0-0.8c0-0.3,0-0.5,0-0.7c0-0.2,0-0.3,0-0.5c0-0.2,0-0.3,0-0.4c0-0.1-0.1-0.2-0.1-0.3c0-0.1-0.1-0.2-0.2-0.2
			c-0.1-0.1-0.2-0.1-0.3-0.1C10.6,5,10.2,5,9.6,4.9c-1.2,0-2,0.1-2.3,0.2C7.2,5.3,7.1,5.3,7,5.5c-0.1,0.1-0.1,0.2,0,0.2
			c0.4,0.1,0.7,0.2,0.8,0.4l0.1,0.1c0,0.1,0.1,0.2,0.1,0.4C8,6.9,8,7.1,8,7.4c0,0.5,0,0.9,0,1.2C8,8.9,8,9.2,7.9,9.4
			c0,0.2-0.1,0.3-0.1,0.5C7.7,10,7.7,10,7.7,10.1c0,0,0,0,0,0c-0.1,0-0.2,0-0.3,0c-0.1,0-0.2,0-0.3-0.1C6.9,9.9,6.8,9.8,6.6,9.6
			C6.5,9.5,6.3,9.3,6.2,9C6,8.7,5.8,8.4,5.6,8L5.5,7.7C5.4,7.5,5.2,7.2,5.1,6.9c-0.2-0.3-0.3-0.7-0.4-1C4.6,5.8,4.5,5.7,4.4,5.6l0,0
			c0,0-0.1-0.1-0.2-0.1C4.1,5.4,4,5.4,4,5.4l-2.7,0C1,5.4,0.9,5.5,0.8,5.6l0,0.1c0,0,0,0.1,0,0.2c0,0.1,0,0.2,0.1,0.3
			C1.1,7,1.6,7.9,2,8.7c0.5,0.8,0.9,1.5,1.2,2c0.3,0.5,0.7,1,1,1.5c0.3,0.5,0.6,0.8,0.7,0.9c0.1,0.1,0.2,0.2,0.3,0.3l0.2,0.2
			c0.2,0.2,0.4,0.3,0.7,0.6c0.3,0.2,0.6,0.4,1,0.6c0.4,0.2,0.8,0.4,1.3,0.5c0.5,0.1,1,0.2,1.4,0.2h1.1c0.2,0,0.4-0.1,0.5-0.2l0,0
			c0,0,0.1-0.1,0.1-0.2c0-0.1,0-0.2,0-0.3c0-0.3,0-0.5,0.1-0.8c0-0.2,0.1-0.4,0.2-0.5c0.1-0.1,0.1-0.2,0.2-0.3
			c0.1-0.1,0.1-0.1,0.2-0.1c0,0,0.1,0,0.1,0c0.2-0.1,0.3,0,0.5,0.2c0.2,0.2,0.4,0.3,0.6,0.6c0.2,0.2,0.4,0.5,0.7,0.8
			c0.3,0.3,0.5,0.5,0.7,0.6l0.2,0.1c0.1,0.1,0.3,0.1,0.5,0.2c0.2,0.1,0.4,0.1,0.5,0l2.5,0c0.2,0,0.4,0,0.6-0.1
			c0.1-0.1,0.2-0.2,0.2-0.3c0-0.1,0-0.2,0-0.3c0-0.1,0-0.2-0.1-0.3c0,0,0-0.1-0.1-0.1c-0.3-0.6-0.9-1.3-1.9-2.1l0,0l0,0l0,0h0
			c-0.4-0.4-0.7-0.7-0.8-0.8c-0.2-0.3-0.2-0.5-0.1-0.8C16.4,10.5,16.7,10,17.2,9.4z"/>
	</g>
</g>
</svg>
