<?xml version="1.0" encoding="utf-8"?>
<!-- Generator: Adobe Illustrator 21.0.0, SVG Export Plug-In . SVG Version: 6.00 Build 0)  -->
<svg version="1.1" id="Слой_1" xmlns="http://www.w3.org/2000/svg" xmlns:xlink="http://www.w3.org/1999/xlink" x="0px" y="0px"
	 viewBox="0 0 20 20" style="enable-background:new 0 0 20 20;" xml:space="preserve">
<g>
	<g>
		<path d="M14.5,0h-9C2.5,0,0,2.5,0,5.5v9c0,3,2.5,5.5,5.5,5.5h9c3,0,5.5-2.5,5.5-5.5v-9C20,2.5,17.5,0,14.5,0z M18.2,14.5
			c0,2.1-1.7,3.7-3.7,3.7h-9c-2.1,0-3.7-1.7-3.7-3.7v-9c0-2.1,1.7-3.7,3.7-3.7h9c2.1,0,3.7,1.7,3.7,3.7L18.2,14.5L18.2,14.5z"/>
	</g>
	<g>
		<path d="M7.7,14.6L7.7,14.6c0.3,0,0.6-0.2,0.7-0.5L10,9l1.5,5.1c0.1,0.3,0.4,0.5,0.7,0.5h0c0.3,0,0.6-0.2,0.7-0.6l2.3-8.3
			l-1.4-0.4l-1.6,5.7l-1.5-5c-0.1-0.3-0.4-0.5-0.7-0.5c-0.3,0-0.6,0.2-0.7,0.5l-1.5,5L6.2,5.4L4.8,5.8L7,14
			C7.1,14.4,7.4,14.6,7.7,14.6z"/>
	</g>
</g>
</svg>
