<?xml version="1.0" encoding="utf-8"?>
<!-- Generator: Adobe Illustrator 22.1.0, SVG Export Plug-In . SVG Version: 6.00 Build 0)  -->
<svg version="1.1" id="Layer_1" xmlns="http://www.w3.org/2000/svg" xmlns:xlink="http://www.w3.org/1999/xlink" x="0px" y="0px"
	 viewBox="0 0 186 40" style="enable-background:new 0 0 186 40;" xml:space="preserve">
<style type="text/css">
	.st0{fill:#FFED00;}
</style>
<rect x="0.4" y="0.9" width="39" height="39"/>
<rect x="1.5" y="2" class="st0" width="36.7" height="36.7"/>
<path d="M3.4,31.3l4.8,4.9l11.2-11.4L31,36.4l4.9-4.8L24.4,20.1l2.2-2.1v-4.6l1.4-1.2v3.6l1.8,1.5l5.3-5.3l1.7,1.3
	c1-3.7-4.8-12.2-9.7-7.5l-5.6,5.6l1.2,1.4l-2.9,2.8l-2.8-2.7l1.5-1.3l-6.2-6c-4.6-3.8-9.4,2-9.6,7.7l1.7-1.4l5.2,5.6l1.9-1.5v-3.4
	l1.2,0.9v4.5l2.3,2.3L3.4,31.3z"/>
<path d="M173.5,16.9h3.8v-4.4h3.5v4.4h3.8V6h-3.8v3.8h-3.5V6h-3.8V16.9z M150.3,9.1c0.8-0.5,1.9-0.9,2.8-0.9c0.5,0,1.5,0.1,1.5,1
	c0,0.9-0.9,0.9-1.3,0.9h-1.9v2.4h1.7c0.5,0,1.6,0.1,1.6,0.9c0,0.4-0.2,1.1-1.6,1.1c-1.3,0-2.2-0.4-3.3-1l-1,2.6
	c2.1,1.2,4,1.3,4.9,1.3c4.4,0,4.9-2.5,4.9-3.4c0-1.2-0.7-2.3-2.2-2.7v0c1-0.4,1.6-1.4,1.6-2.5c0-2.6-2.7-3.1-4.3-3.1
	c-1.5,0-3.3,0.4-4.5,1.1L150.3,9.1z M142,4.6c1.7,0,3.5-0.7,4.3-2.5l-2.5-0.9c-0.3,1.3-1.4,1.3-1.8,1.3c-0.4,0-1.5-0.1-1.8-1.3
	L137.7,2C138.4,3.9,140.2,4.6,142,4.6 M136,6v10.9h3.7l3.8-6v6h3.8V6h-3.7l-3.8,5.9V6H136z M110.6,14.5v-6c-1.3,0-2.6,0.9-2.6,3
	C108,13.6,109.3,14.6,110.6,14.5 M113.9,8.5v6c1.3,0,2.6-0.9,2.6-3C116.5,9.4,115.2,8.5,113.9,8.5 M110.4,21.6v-4.6
	c-2.3,0-6-0.9-6-5.6c0-4.7,3.7-5.6,6-5.6V1.1h3.8v4.8c2.3,0,6,0.9,6,5.6c0,4.7-3.8,5.6-6,5.6v4.6H110.4z M93.4,14.5v-6
	c-1.3,0-2.6,0.9-2.6,3C90.8,13.6,92.1,14.6,93.4,14.5 M96.7,8.5v6c1.3,0,2.6-0.9,2.6-3C99.3,9.4,98,8.5,96.7,8.5 M93.1,21.6v-4.6
	c-2.3,0-6-0.9-6-5.6c0-4.7,3.7-5.6,6-5.6V1.1H97v4.8c2.3,0,6,0.9,6,5.6c0,4.7-3.8,5.6-6,5.6v4.6H93.1z M79.9,4.6
	c1.7,0,3.5-0.7,4.3-2.5l-2.5-0.9c-0.3,1.3-1.4,1.3-1.8,1.3c-0.4,0-1.5-0.1-1.8-1.3L75.6,2C76.4,3.9,78.2,4.6,79.9,4.6 M73.9,6v10.9
	h3.7l3.8-6v6h3.8V6h-3.7l-3.8,5.9V6H73.9z M50.5,4.3V8h1.4C53.9,8,54,6.8,54,6.1c0-0.8-0.3-1.8-2.1-1.8h-1.2H50.5z M46.4,16.9V0.8
	h6.5c4.4,0,5.6,3.1,5.6,5.3c0,2.2-1.3,5.3-5.6,5.3h-2.3v5.5H46.4z M133.6,6v10.9h-3.8v-1.2h0c-0.7,1.1-2,1.6-3.3,1.6
	c-3.2,0-5.4-2.7-5.4-5.8c0-3.1,2.2-5.8,5.4-5.8c1.2,0,2.6,0.5,3.3,1.4V6H133.6z M127.5,9c-1.6,0-2.5,1.1-2.5,2.5
	c0,1.4,0.9,2.5,2.5,2.5c1.5,0,2.5-1.1,2.5-2.5C129.9,10.1,129,9,127.5,9 M71.5,6v10.9h-3.8v-1.2h0c-0.7,1.1-2,1.6-3.3,1.6
	c-3.2,0-5.4-2.7-5.4-5.8c0-3.1,2.2-5.8,5.4-5.8c1.2,0,2.6,0.5,3.4,1.4V6H71.5z M65.4,9c-1.6,0-2.5,1.1-2.5,2.5
	c0,1.4,0.9,2.5,2.5,2.5c1.5,0,2.5-1.1,2.5-2.5C67.9,10.1,66.9,9,65.4,9 M171.6,11.9v0.4h-8c0,1.6,0.8,2.4,2.4,2.4
	c0.8,0,1.4-0.3,1.8-1h3.7c-0.6,2.6-3,3.8-5.5,3.8c-3.6,0-6.2-2-6.2-5.8c0-3.7,2.5-5.8,6-5.8C169.4,5.8,171.6,8.2,171.6,11.9
	 M163.6,10.1h4.4c-0.2-1-1.1-1.7-2.2-1.7C164.8,8.3,163.8,8.9,163.6,10.1"/>
<path d="M51.4,36.4h0.7c0.7,0,1.3,0,1.7-0.1c0.4-0.1,0.8-0.2,1.1-0.5c0.3-0.3,0.6-0.7,0.7-1.3c0.1-0.5,0.1-1-0.1-1.2
	c-0.2-0.3-0.5-0.4-0.9-0.5c-0.4-0.1-1-0.1-1.7-0.1h-0.7L51.4,36.4z M60.5,23.6l-0.8,3.6h-6.5l-0.5,2.2h2.4c1.2,0,2.2,0.2,3,0.6
	c0.8,0.4,1.3,1,1.6,1.8c0.3,0.8,0.3,1.8,0,2.9c-0.2,1.1-0.7,2-1.3,2.8c-0.7,0.8-1.5,1.4-2.4,1.7c-1,0.4-2,0.6-3.2,0.6h-6.4l3.4-16.2
	H60.5z"/>
<path d="M70.6,28.6L70.6,28.6l-2.9,5.2h3.5L70.6,28.6z M65.9,37l-1.7,2.8h-4.5l9.7-16.2h4.6l2.7,16.2h-4.5L71.7,37H65.9z"/>
<polygon points="90.8,29.9 92.2,23.6 96.4,23.6 92.9,39.8 88.7,39.8 90.1,33.2 84.1,33.2 82.7,39.8 78.4,39.8 81.9,23.6 86.1,23.6
	84.8,29.9 "/>
<polygon points="109,23.6 114.2,23.6 106.2,31.3 111.4,39.8 105.9,39.8 102,32.8 101.9,32.8 100.4,39.8 96.2,39.8 99.7,23.6
	103.9,23.6 102.5,30.3 102.5,30.3 "/>
</svg>
