<?xml version="1.0" encoding="utf-8"?>
<!-- Generator: Adobe Illustrator 21.0.0, SVG Export Plug-In . SVG Version: 6.00 Build 0)  -->
<svg version="1.1" id="Слой_1" xmlns="http://www.w3.org/2000/svg" xmlns:xlink="http://www.w3.org/1999/xlink" x="0px" y="0px"
	 viewBox="0 0 146.1 91.8" style="enable-background:new 0 0 146.1 91.8;" xml:space="preserve">
<style type="text/css">
	.st0{display:none;}
	.st1{display:inline;}
	.st2{fill:#151515;}
	.st3{fill:#050505;}
	.st4{fill:#0D0D0D;}
	.st5{fill:#131313;}
	.st6{fill:#111111;}
	.st7{fill:#0C0C0C;}
	.st8{fill:#121212;}
	.st9{fill:#0E0E0E;}
	.st10{fill:#040404;}
	.st11{fill:#0B0B0B;}
	.st12{fill:#0F0F0F;}
	.st13{fill:#070707;}
	.st14{fill:#090909;}
	.st15{fill:#080808;}
	.st16{fill:#0A0A0A;}
	.st17{fill:#060606;}
	.st18{fill:#FEFEFE;}
	.st19{fill:#141414;}
	.st20{display:inline;fill:#FFFFFF;}
	.st21{display:inline;fill:#646464;}
	.st22{display:inline;fill:#727272;}
	.st23{display:inline;fill:#FEFEFE;}
	.st24{}
	.st25{fill:#C4C4C4;}
	.st26{fill:#484848;}
	.st27{fill:#5D5D5D;}
	.st28{fill:#5B5B5B;}
	.st29{fill:#585858;}
	.st30{fill:#545454;}
	.st31{fill:#515151;}
	.st32{fill:#565656;}
	.st33{fill:#6F6F6F;}
	.st34{fill:#4B4B4B;}
	.st35{fill:#DCDCDC;}
	.st36{fill:#4A4A4A;}
	.st37{fill:#D7D7D7;}
	.st38{fill:#464646;}
	.st39{fill:#D9D9D9;}
	.st40{fill:#D4D4D4;}
	.st41{fill:#C6C6C6;}
	.st42{fill:#B9B9B9;}
	.st43{fill:#454545;}
	.st44{fill:#C3C3C3;}
	.st45{fill:#424242;}
	.st46{fill:#959595;}
	.st47{fill:#9B9B9B;}
	.st48{fill:#AAAAAA;}
	.st49{fill:#474747;}
	.st50{fill:#444444;}
	.st51{fill:#353535;}
	.st52{fill:#4F4F4F;}
	.st53{fill:#A3A3A3;}
	.st54{fill:#3F3F3F;}
	.st55{fill:#3C3C3C;}
	.st56{fill:#404040;}
	.st57{fill:#414141;}
	.st58{fill:#868686;}
	.st59{fill:#B0B0B0;}
	.st60{fill:#303030;}
	.st61{fill:#9E9E9E;}
	.st62{fill:#3A3A3A;}
	.st63{fill:#363636;}
	.st64{fill:#2E2E2E;}
	.st65{fill:#2A2A2A;}
	.st66{fill:#8D8D8D;}
	.st67{fill:#8A8A8A;}
	.st68{fill:#ADADAD;}
	.st69{fill:#333333;}
	.st70{fill:#383838;}
	.st71{fill:#282828;}
	.st72{fill:#3E3E3E;}
	.st73{fill:#A6A6A6;}
	.st74{fill:#7C7C7C;}
	.st75{fill:#C8C8C8;}
	.st76{fill:#A7A7A7;}
	.st77{fill:#747474;}
	.st78{fill:#BFBFBF;}
	.st79{fill:#525252;}
	.st80{fill:#B3B3B3;}
	.st81{fill:#ACACAC;}
	.st82{fill:#CCCCCC;}
	.st83{fill:#BEBEBE;}
	.st84{fill:#BCBCBC;}
	.st85{fill:#BABABA;}
	.st86{fill:#686868;}
	.st87{fill:#4D4D4D;}
	.st88{fill:#323232;}
	.st89{fill:#828282;}
	.st90{fill:#262626;}
	.st91{fill:#232323;}
	.st92{fill:#D1D1D1;}
	.st93{fill:#CACACA;}
	.st94{fill:#B5B5B5;}
	.st95{fill:#919191;}
	.st96{fill:#4C4C4C;}
	.st97{fill:#CECECE;}
</style>
<g class="st0">
	<g class="st1">
		<path class="st2" d="M45.4,24.2c-0.1,0.2-0.3,0.1-0.4,0.1c-0.4,0-0.7,0.1-1,0.3c-1.2,0.8-2.2,1.9-3.2,2.9
			c-0.8,0.8-1.6,1.7-2.4,2.5c-0.1,0.2-0.2,0.2,0,0.4c1.9,2.5,3.8,5.1,5.8,7.6c0.5,0.6,1.1,1,1.8,1.4c0.8,0.4,1.9,0,2.5-0.7
			c0.1-0.2,0.2-0.3,0.2-0.5c0-2.2,0-4.5,0-6.7c0-0.6-0.8-1.3-1.4-1.3c-0.2,0-0.4,0.1-0.5-0.1c-0.1-0.2,0-0.5,0-0.7
			c0-0.1,0.2-0.1,0.3-0.1c1.1,0,2.3,0,3.4,0c0.3,0,0.3,0.1,0.3,0.3c0,1.5,0,3,0,4.6c0,1.3,0,2.6,0,3.9c0,0.7,0.7,1.4,1.4,1.4
			c0.2,0,0.5,0,0.7,0c0.6,0.1,1.1-0.3,1.4-0.7c0.2-0.2,0.2-0.4,0.2-0.7c0-2.2,0-4.3,0-6.5c0-0.6-0.7-1.4-1.4-1.4
			c-0.6,0-0.7-0.3-0.4-0.8c0.2,0.1,0.5,0,0.8,0c0.9,0,1.8,0,2.6,0c0.1,0.7,0.3,1.4,0.4,2.1c0.5-0.5,1-1,1.5-1.4c0.7-0.6,1.5-1,2.5-1
			c0.3,0.1,0.5,0.1,0.8,0c1.5,0.1,2.7,1.3,2.7,2.8c0,2,0,4,0,6c0,0.8,0.7,1.5,1.4,1.5c0.3,0,0.4,0.1,0.3,0.3c0,0.2,0.1,0.4-0.1,0.5
			c-0.1-0.1-0.2,0-0.3,0c-1.6,0-3.2,0-4.8,0c-0.1,0-0.2,0-0.3,0c-0.2-0.2-0.1-0.5-0.1-0.8c0-0.1,0.2-0.1,0.3-0.1
			c0.9,0,1.5-0.7,1.5-1.6c0-1.9,0-3.8,0-5.7c0-1.3-1-2-2.3-1.7c-1,0.2-1.9,0.7-2.7,1.5c-0.2,0.3-0.4,0.6-0.4,0.9c0,1.7,0,3.4,0,5.1
			c0,0.8,0.7,1.4,1.5,1.5c0.1,0,0.3-0.1,0.3,0.1c0,0.7,0,0.7-0.8,0.7c-4.8,0-9.7,0-14.5,0c-0.2,0-0.3,0-0.5,0
			c-0.7-0.9-1.3-1.9-2-2.8c-1.2-1.7-2.4-3.5-3.6-5.3c-0.2-0.3-0.3-0.4-0.5-0.1c-0.3,0.4-0.6,0.7-0.9,1c-0.4,0.4-0.5,0.8-0.5,1.3
			c0,1.2,0,2.3,0,3.5c0,0.6,0.9,1.5,1.5,1.5c0.7,0,0.8,0.1,0.7,0.8c0,0,0,0-0.1,0c-0.2-0.1-0.4,0-0.6,0c-1.8,0-3.6,0-5.4,0
			c-0.4,0-0.4,0-0.4-0.4c0-0.1,0-0.2,0-0.3c0.2-0.2,0.4-0.1,0.6-0.1c0.7,0,1.5-0.8,1.5-1.5c0-4,0-8.1,0-12.1c0-0.8-0.8-1.6-1.6-1.6
			c-0.1,0-0.3,0-0.4,0c0,0,0,0,0-0.1c-0.1-0.7-0.1-0.7,0.6-0.7c1.8,0,3.7,0,5.5,0c0.3,0,0.4,0.1,0.4,0.2c0.1-0.2-0.1-0.2-0.4-0.2
			c-1.9,0-3.8,0-5.7,0c-0.1,0-0.3,0-0.4,0c0.1-0.2,0.2-0.1,0.3-0.1c2,0,4,0,5.9,0c0.4,0,0.3,0.2,0.4,0.5c0,0.3,0,0.4-0.4,0.4
			c-0.9-0.1-1.3,0.5-1.7,1.1c-0.1,0.1-0.1,0.2-0.1,0.3c0,2.2,0,4.4,0,6.6c0,0,0,0,0,0.1c0.2-0.2,0.4-0.5,0.6-0.7
			c1.7-1.9,3.4-3.8,5.2-5.7c0.3-0.3,0.3-0.5,0.1-0.8c-0.3-0.5-0.7-1-1.4-0.8c-0.2,0-0.3-0.1-0.3-0.3c0-0.1,0-0.3,0-0.4
			c0.1-0.1,0.3-0.1,0.5-0.1c1.7,0,3.4,0,5.1,0c0.5,0,0.5,0,0.5,0.5C45.4,24.1,45.4,24.2,45.4,24.2z"/>
		<path class="st2" d="M13.7,39.6c0.1-0.1,0.2-0.1,0.3-0.1c0.9,0.1,1.3-0.5,1.7-1.1c0.1-0.1,0.1-0.2,0.1-0.4c0-3.9,0-7.8,0-11.8
			c0,0,0-0.1,0-0.3c-2.1,4.9-4.1,9.8-6.1,14.7c-2.1-5-4.1-9.9-6.1-14.8c0,0-0.1,0-0.1,0c0,0.2,0,0.3,0,0.5c0,3.8,0,7.7,0,11.5
			c0,0.8,0.8,1.6,1.6,1.6c0.2,0,0.4-0.1,0.5,0.1c-0.2,0.1-0.4,0-0.5,0c-0.1,0,0,0.1,0,0c0,0,0,0,0,0c0.1,0,0.1,0,0.2,0
			c0.3,0,0.4,0,0.4,0.3c0,0.3-0.1,0.4-0.4,0.4c-1.5,0-2.9,0-4.4,0c-0.2,0-0.4,0-0.4-0.3c0-0.3,0.1-0.4,0.4-0.3
			c-0.3-0.1-0.4,0-0.4,0.3c0,0.1,0,0.3,0,0.4c-0.2-0.2-0.1-0.5-0.1-0.7c0-0.2,0.2-0.1,0.3-0.1C1.2,39.7,1.6,39.4,2,39
			c0.3-0.3,0.5-0.7,0.5-1.2c0-4,0-8,0-12.1c0-0.2-0.1-0.4-0.2-0.6c-0.5-0.6-1-1-1.8-0.9c-0.1-0.1-0.1-0.3-0.1-0.5
			c0-0.2,0.1-0.3,0.3-0.3c1.5,0,2.9,0,4.4,0c0.1,0,0.1,0,0.2,0c0.7,1.5,1.2,3,1.8,4.5c1.1,2.6,2.1,5.3,3.1,7.9
			c0,0.1,0.1,0.1,0.1,0.2c0.2-0.1,0.2-0.2,0.2-0.3c1.7-4,3.4-8.1,5.1-12.1c0.1-0.1,0.1-0.3,0.2-0.4c1.2,0,2.4,0,3.7,0
			c0.8,0,0.8,0,0.6,0.8c-0.8-0.1-1.4,0.3-1.8,0.9c-0.1,0.2-0.2,0.3-0.2,0.5c0,4.1,0,8.3,0,12.4c0,0.6,0.9,1.4,1.4,1.4
			c0.2,0,0.4-0.1,0.7,0.1c-0.2,0.1-0.3,0-0.5,0c0.4,0,0.4,0,0.4,0.4c0,0.3-0.1,0.3-0.3,0.3c-1.9,0-3.8,0-5.7,0c-0.4,0-0.4,0-0.4-0.4
			c0-0.4,0.2-0.3,0.5-0.3C14,39.6,13.9,39.7,13.7,39.6z"/>
		<path class="st2" d="M130.6,51.9c1.3,0.1,2.4,1.1,2.6,2.5c0,0.3,0.1,0.6,0.1,0.9c0,1.8,0,3.6,0,5.4c0,0.6,0.2,1,0.6,1.3
			c0.1,0.1,0.2,0.1,0.2,0.2c0.1,0.2,0.3,0.2,0.5,0.2c0.3,0,0.3,0.2,0.3,0.4c0,0.2,0,0.4-0.3,0.4c-1.7,0-3.4,0-5.1,0
			c-0.1,0-0.1,0-0.2-0.1c0-0.2-0.1-0.5,0.1-0.7c0.2,0.1,0.4,0.1,0.6,0c0.2-0.1,0.4-0.2,0.6-0.4c0.4-0.3,0.6-0.7,0.6-1.2
			c0-1.8,0-3.6,0-5.4c0-0.2,0-0.3,0-0.5c-0.1-1.2-1-1.8-2.1-1.6c-1.1,0.2-2,0.7-2.8,1.6c-0.2,0.3-0.4,0.6-0.4,0.9c0,1.7,0,3.3,0,5
			c0,0.8,0.7,1.4,1.5,1.5c0.1,0,0.2,0,0.3,0c-0.1,0.1-0.1,0-0.2,0c0,0,0,0,0,0c0.3,0.1,0.1,0.4,0.1,0.6c0,0.2-0.2,0.1-0.4,0.1
			c-2.8,0-5.6,0-8.4,0c2.8,0,5.6,0,8.5,0c0.2,0,0.3-0.1,0.3-0.3c0-0.1-0.1-0.3,0-0.4c0.1,0.2,0,0.5,0.1,0.7c0,0.1-0.1,0.2-0.2,0.2
			c-0.1,0-0.1,0-0.2,0c-2.9,0-5.7,0-8.6,0c-0.3,0-0.4-0.1-0.4-0.4c0-0.6-0.1-1.2-0.2-1.8c-0.2,0.2-0.4,0.4-0.5,0.6
			c-0.7,0.8-1.4,1.4-2.4,1.7c-1.7,0.4-3.4-0.8-3.5-2.6c0-0.2,0-0.5,0-0.7c0.1-1,0.7-1.7,1.5-2.2c0.9-0.5,1.9-0.7,2.8-0.9
			c0.6-0.1,1.1-0.2,1.7-0.3c0.2,0,0.3-0.1,0.3-0.3c0-0.5,0-0.9,0-1.4c0-1.2-0.6-1.9-1.8-2.1c-0.4-0.1-0.9-0.1-1.3,0
			c-1.2,0.2-1.7,0.9-1.4,2.1c0.1,0.3,0.2,0.6,0.3,0.9c-0.5,0.1-0.9,0-1.1-0.5c-0.3-0.5-0.6-1-0.9-1.4c-0.1-0.2-0.1-0.3,0.1-0.5
			c1.2-1.1,2.6-1.5,4.2-1.5c1.2,0,2.3,0.2,3.2,1c0.6,0.5,0.9,1.2,0.9,2c-0.1,0.1,0,0.2,0,0.3c0,2,0,3.9,0,5.9c0,0.1,0,0.2,0,0.2
			c0.1,0.1,0.2,0.3,0.3,0.4c0.4,0.5,0.9,0.7,1.6,0.7c0.7,0,1.2-0.2,1.6-0.8c0.1-0.2,0.2-0.3,0.2-0.6c0-2.2,0-4.5,0-6.7
			c0-0.5-0.8-1.3-1.3-1.3c-0.6,0-0.7-0.1-0.5-0.8c1.1,0,2.2,0.1,3.4,0c0.2,0.5,0.2,1.1,0.4,1.6c0,0.2,0.1,0.3,0.1,0.6
			c0.4-0.3,0.7-0.7,1-1c0.7-0.7,1.5-1.2,2.5-1.4c0.1,0,0.2,0,0.3,0C130,52,130.3,52,130.6,51.9z"/>
		<path class="st2" d="M36.3,46c0.7,0,1.4,0.2,2.1,0.3c0.3,0.1,0.7,0.1,1,0.1c0.2,0,0.3,0,0.4-0.1c0.2-0.2,0.5-0.1,0.8-0.1
			c0.1,0,0.1,0.1,0.1,0.2c0,1.2,0,2.4,0,3.5c0,0.2,0,0.3-0.2,0.3c-0.2-0.1-0.5,0.2-0.5-0.2c-0.4-2.1-2.8-3.6-4.9-3.1
			c-1.7,0.4-2.4,2-1.6,3.6c0.4,0.8,1,1.3,1.8,1.6c0.2,0.1,0.4,0.2,0.6,0.4c2.1,2.2,4.3,4.3,6.6,6.4c0.2,0.2,0.3,0.2,0.4-0.1
			c0.6-1.2,0.8-2.4,0.7-3.7c-0.1-1.2-1-2-2.3-2.1c-0.5,0-0.3-0.4-0.3-0.6c-0.1-0.3,0.1-0.3,0.3-0.3c1.8,0,3.6,0,5.3,0
			c0.4,0,0.3,0.2,0.3,0.4c0,0.2,0.1,0.5-0.3,0.4c-0.3-0.1-0.6,0.1-0.8,0.3c-0.2,0.2-0.4,0.5-0.6,0.7c-0.3,0.3-0.4,0.7-0.4,1.2
			c-0.1,1.5-0.5,2.9-1.3,4.2c-0.1,0.2-0.1,0.3,0.1,0.4c1.1,0.9,2.1,1.8,3.2,2.6c0.3,0.1,0.7,0,1,0.1c0.1,0.7,0.1,0.8-0.7,0.7
			c-0.5,0-1.1,0.1-1.6,0c0.7-0.1,1.3,0,2-0.1c-0.8,0-1.6,0-2.4,0c-1.2-0.1-2.2-0.6-3.1-1.4c-0.2-0.2-0.3-0.2-0.6,0
			c-1.4,1.3-3.1,1.7-5,1.8c-1.7,0-3.2-0.5-4.4-1.7c-0.7-0.7-1.2-1.6-1.3-2.7c0-0.4,0.1-0.8,0-1.2c0.1-1.7,0.9-3.1,2.3-4.2
			c0.3-0.3,0.3-0.4,0.1-0.7c-0.8-1.1-1.2-2.3-1-3.6c0.2-2.3,2-3.3,3.9-3.3C36,46.1,36.1,46.1,36.3,46z"/>
		<path class="st2" d="M87.2,51.9c1.3,0,2.2,0.7,2.7,2.2c0.5-0.5,1-1,1.5-1.4c0.9-0.7,2-1,3.2-0.8c1.3,0.2,2.3,1.3,2.3,2.6
			c-0.1,0.1,0,0.3,0,0.4c0,1.8,0,3.7,0,5.5c0,0.1,0,0.3,0,0.4c0.1,0,0-0.1,0-0.1c0-1.9,0-3.8,0-5.7c0-0.1,0-0.2,0.1-0.3
			c0.1,0.1,0,0.3,0,0.4c0,1.8,0,3.7,0,5.5c0,0.8,0.7,1.5,1.5,1.5c0.2,0,0.3,0.1,0.3,0.3c0,0.2,0.1,0.4-0.1,0.6c-0.1-0.1-0.3,0-0.4,0
			c-1.5,0-3,0-4.5,0c-0.1,0-0.3,0-0.4,0c-0.1-0.2,0-0.5-0.1-0.7c0-0.1,0.1-0.1,0.2-0.1c0.9,0.1,1.3-0.5,1.6-1.1
			c0.1-0.1,0.1-0.1,0.1-0.2c0-2,0-3.9,0-5.9c0,0,0-0.1,0-0.1c0-0.1,0-0.1-0.1-0.2c-0.1-1.1-0.9-1.6-2-1.5c-1,0.2-1.9,0.7-2.6,1.4
			c-0.2,0.3-0.4,0.6-0.4,0.9c0,1.8,0,3.6,0,5.4c0,0.6,0.7,1.3,1.2,1.3c0.6,0,0.7,0.3,0.4,0.8c-0.1-0.1-0.1,0-0.2,0c-1.7,0-3.3,0-5,0
			c-0.1,0-0.2,0-0.2,0c-0.2-0.2-0.1-0.5-0.1-0.7c0-0.1,0.2-0.1,0.3-0.1c0.9,0,1.5-0.7,1.5-1.6c0-1.8,0-3.7,0-5.5c0-0.2,0-0.3,0-0.5
			c-0.1-1.1-0.9-1.7-2-1.5c-1.1,0.2-1.9,0.7-2.6,1.5C83.1,55,83,55.3,83,55.7c0,1.7,0,3.4,0,5.2c0,0.8,0.7,1.4,1.4,1.4
			c0.1,0,0.2-0.1,0.3,0.1c-0.1,0.1-0.2,0-0.3,0c0.4,0,0.2,0.3,0.2,0.5c0,0.2-0.1,0.2-0.3,0.2c-1.6,0-3.2,0-4.8,0c-0.1,0-0.3,0-0.4,0
			c-0.2-0.2-0.1-0.5-0.1-0.7c0-0.2,0.2-0.1,0.2-0.1c1,0,1.5-0.6,1.5-1.6c0-2.1,0-4.1,0-6.2c0-0.8-0.7-1.5-1.5-1.5
			c-0.4,0-0.3-0.3-0.3-0.5c0-0.2,0-0.4,0.3-0.4c0.9,0,1.9,0,2.8,0c0.2,0,0.3,0.1,0.3,0.3c0.1,0.6,0.2,1.2,0.4,1.8
			c0.5-0.5,0.9-1,1.4-1.4c0.7-0.5,1.4-0.9,2.3-0.9C86.9,52,87,52,87.2,51.9z"/>
		<path class="st2" d="M110.6,57.9c-0.1,1.8-0.6,3.5-2.1,4.6c-0.6,0.5-1.3,0.8-2.1,0.8c-0.2,0-0.5,0-0.7,0c-1.5,0-2.6-0.7-3.3-2
			c-0.1,0.1-0.1,0.2-0.1,0.3c0,1.5,0,3,0,4.5c0,0.8,0.7,1.5,1.5,1.5c0.1,0,0.4-0.1,0.4,0.1c0.1,0.2,0,0.5,0,0.7
			c0,0.1-0.1,0.1-0.2,0.1c-1.8,0-3.6,0-5.4,0c-0.2,0-0.2-0.1-0.2-0.2c0-0.6,0-0.6,0.6-0.6c0.6,0,1.3-0.7,1.3-1.3c0-3.9,0-7.9,0-11.8
			c0-0.8-0.7-1.5-1.5-1.5c-0.1,0-0.2,0-0.2,0c-0.1-0.1-0.1-0.2-0.1-0.4c0-0.3,0.1-0.4,0.4-0.4c0.9,0,1.8,0,2.7,0c0.1,0,0.3,0,0.4,0
			c0.2,0.6,0.3,1.3,0.4,2c0,0,0,0.1,0,0.2c0.8-1.4,1.8-2.3,3.4-2.4c0.4,0.1,0.7,0.1,1.1,0c1.2,0.1,2.1,0.7,2.8,1.7
			c0.7,1,1,2.2,1,3.5C110.5,57.3,110.5,57.6,110.6,57.9z"/>
		<path class="st2" d="M52.2,54.1c0.2-3.2,1.3-6,4.3-7.5c1.7-0.9,3.5-0.9,5.3-0.5c0.6,0.2,1.3,0.4,1.9,0.4c0.5,0,0.9,0,1.3-0.3
			c0.2-0.2,0.4-0.1,0.6-0.1c0.2,0,0.1,0.3,0.1,0.4c0,1.7,0,3.5,0,5.2c0,0.2,0.1,0.4-0.2,0.4c-0.2,0-0.5,0.1-0.5-0.3
			c-0.4-2.3-1.6-4-3.9-4.8c-2.7-0.9-5.2,0.6-5.9,3.4c-0.4,1.6-0.4,3.3-0.3,5c0,0.9,0.1,1.7,0.4,2.6c0.8,2.5,2.9,4,5.6,4
			c1.5,0,2.8-0.3,3.9-1.4c0.5-0.5,0.9-1.1,1.3-1.8c0.1-0.2,0.7-0.4,1-0.3c0.1,0.1,0,0.2,0,0.2c-1,2.5-2.8,4.1-5.5,4.5
			c-2.4,0.4-4.7-0.2-6.5-1.9c-1.6-1.5-2.4-3.3-2.7-5.5c0-0.3-0.1-0.6-0.1-1C52.3,54.7,52.3,54.4,52.2,54.1z"/>
		<path class="st2" d="M73.9,51.8c2-0.1,4.1,1.4,4.8,3.5c0.2,0.6,0.3,1.1,0.4,1.7c0,0.4,0,0.8,0,1.1c-0.1,2.8-2.5,5.2-5.2,5.2
			c-3.3,0.1-6-2.6-5.7-6.4c0.2-1.8,0.9-3.3,2.4-4.3c0.8-0.6,1.7-0.9,2.8-0.9C73.5,51.9,73.7,51.9,73.9,51.8z"/>
		<path class="st2" d="M75.3,34.7c0-2.3,1.5-5.1,4.4-5.5c0.2,0,0.3,0,0.5,0c0.1,0.1,0.3,0,0.4,0c1.8-0.1,3.4,1.3,3.8,3.1
			c0.1,0.4,0.1,0.8,0.1,1.3c0,0.2,0,0.3-0.3,0.3c-1.9,0.1-3.9,0.3-5.8,0.5c-0.3,0-0.7,0.1-1,0.1c-0.2,0-0.2,0.1-0.2,0.3
			c0.1,2.2,1.7,4.3,4.3,4.1c1.3-0.1,2.4-0.6,3-1.8c0.2-0.3,0.5-0.1,0.7-0.2c0.1,0,0,0.1,0,0.2c-0.8,2.5-2.4,3.9-5.2,3.7
			c-2.4-0.2-4.2-2-4.6-4.6c0-0.3-0.1-0.6-0.1-1C75.3,35,75.3,34.8,75.3,34.7z"/>
		<path class="st2" d="M96.3,29.4c0.2,0.2,0.1,0.5,0.1,0.7c0,0.2-0.1,0.1-0.2,0.1c-0.3,0-0.6,0.1-0.8,0.3c-0.4,0.4-0.8,0.9-1,1.4
			c-2,4.6-4.1,9.1-6.1,13.7c-0.1,0.3-0.2,0.3-0.5,0.2c-0.7-0.3-0.7-0.3-0.4-1c0.8-1.7,1.6-3.4,2.5-5c0.1-0.2,0.1-0.4,0-0.6
			c-1.2-2.5-2.3-5-3.5-7.5c-0.3-0.6-0.7-1-1.3-1.4c-0.1,0-0.2-0.1-0.2-0.1c-0.2,0-0.4,0.1-0.5-0.1c-0.1-0.2-0.1-0.5,0-0.8
			c0.1,0.1,0.3,0,0.4,0c1.6,0,3.3,0,4.9,0c0.1,0,0.3,0,0.4,0c0,0.1,0,0.1,0,0.2c0,0.6,0,0.6-0.6,0.6c-0.6,0-1.2,0.9-1,1.5
			c0.8,1.8,1.6,3.6,2.4,5.5c0.1-0.1,0.1-0.2,0.2-0.3c0.7-1.7,1.5-3.5,2.2-5.2c0.2-0.5-0.3-1.4-0.9-1.5c-0.2,0-0.4,0.1-0.5-0.1
			c0,0,0-0.1,0-0.1c0-0.6,0-0.6,0.6-0.6c1.1,0,2.2,0,3.3,0C96,29.5,96.2,29.5,96.3,29.4z"/>
		<path class="st2" d="M145.8,52.9c-0.9,0.1-1.4,0.8-1.8,1.5c-1.4,3-2.7,6.1-4.1,9.1c-0.7,1.6-1.5,3.3-2.2,4.9
			c-0.1,0.2-0.2,0.3-0.5,0.2c-0.7-0.4-0.7-0.3-0.4-1.1c0.8-1.7,1.6-3.4,2.5-5c0.1-0.2,0.1-0.3,0-0.5c-1.2-2.5-2.3-5-3.5-7.6
			c-0.3-0.6-0.8-1-1.3-1.4c-0.1,0-0.1-0.1-0.2-0.1c-0.2,0-0.4,0.1-0.4-0.1c-0.1-0.2-0.1-0.5,0-0.7c0.1,0.1,0.3,0,0.4,0
			c1.6,0,3.2,0,4.8,0c0.6,0,0.7,0.1,0.5,0.7c-0.7-0.1-1.2,0.3-1.5,0.9c-0.1,0.1-0.1,0.3,0,0.4c0.8,1.9,1.6,3.7,2.4,5.6
			c0,0,0,0,0.1,0.1c0.2-0.4,0.4-0.9,0.6-1.3c0.6-1.4,1.2-2.7,1.8-4.1c0.3-0.6-0.3-1.5-1-1.5c-0.1,0-0.3,0-0.4,0
			c-0.1-0.1-0.1-0.2-0.1-0.4c0-0.3,0.1-0.4,0.4-0.4c1.1,0,2.2,0,3.4,0C145.9,52.2,146,52.3,145.8,52.9z"/>
		<path class="st2" d="M67.1,36.6c0.3,1.1,0.9,2,1.9,2.6c0.9,0.6,1.9,0.7,2.9,0.5c0.6-0.1,1-0.4,1.2-1.1c0.1-0.7-0.1-1.2-0.6-1.6
			c-0.5-0.4-1-0.6-1.5-0.8c-0.9-0.4-1.7-0.7-2.6-1.1c-0.9-0.5-1.6-1.1-1.8-2.1c-0.4-2,0.6-3.6,2.7-3.8c0.3,0,0.6,0.1,0.9,0
			c0.5,0,0.9,0.2,1.4,0.3c0.3,0.1,0.6,0.2,1,0.2c0.2,0,0.4,0,0.5-0.2c0.2-0.2,0.4-0.1,0.6-0.1c0.2,0,0.1,0.3,0.1,0.4
			c0,0.9,0,1.7,0,2.6c0,0.2,0.1,0.4-0.2,0.4c-0.2,0-0.4,0.1-0.5-0.3c-0.4-1.7-2.3-2.9-4-2.5c-0.6,0.1-1.1,0.5-1.2,1.1
			c-0.1,0.6,0.1,1.1,0.7,1.5c0.7,0.4,1.4,0.7,2.1,1c0.6,0.3,1.2,0.5,1.7,0.7c1.1,0.5,1.9,1.2,2.1,2.5c0.3,2.1-1,3.7-3.1,3.9
			c-0.7,0-1.4-0.1-2.1-0.3c-0.3-0.1-0.5-0.2-0.8-0.2c-0.5-0.1-1-0.1-1.4,0.3c-0.2,0-0.3-0.1-0.5,0c-0.1,0-0.1-0.1-0.1-0.2
			c0-1.1,0-2.3,0-3.4c0-0.1-0.1-0.2,0.1-0.2C66.8,36.6,67,36.6,67.1,36.6z"/>
		<path class="st2" d="M26,29.1c1.3,0,2.5,0.4,3.5,1.3c0.2,0.1,0.2,0.2,0,0.4c-0.4,0.6-0.8,1.2-1.2,1.8c-0.2,0.4-0.5,0.5-1,0.5
			c0-0.4,0.1-0.9,0.1-1.3c-0.1-1.6-1.1-2.1-2.5-1.9c-1,0.1-1.7,0.7-2.1,1.6c-0.8,1.8-0.9,3.5,0.1,5.3c1,1.8,3.6,2.5,5.5,1.5
			c0.5-0.3,0.9-0.7,1.2-1.2c0.2-0.4,0.5-0.3,0.8-0.2c0.2,0,0.1,0.2,0,0.2c-0.6,2.2-2.2,3.5-4.3,3.6c-2.4,0.1-4.2-0.9-5.1-3.1
			c-0.9-2.5-0.7-4.8,1.1-6.9c0.9-1,2.1-1.5,3.5-1.6C25.7,29.2,25.9,29.2,26,29.1z"/>
		<path class="st2" d="M49.6,26.8c-0.9,0-1.5-0.6-1.5-1.4c0-0.8,0.6-1.4,1.5-1.4c0.8,0,1.4,0.6,1.4,1.4C51,26.3,50.4,26.8,49.6,26.8
			z"/>
		<path class="st3" d="M42.7,40.4c0.1-0.1,0.3-0.1,0.4-0.1c4.9,0,9.7,0,14.6,0c0.6,0,0.5,0,0.6-0.5c0-0.1,0.1-0.1,0.1-0.2
			c0,0,0,0,0,0c0.1,0.7,0.1,0.7-0.7,0.7c-4.9,0-9.8,0-14.7,0C43,40.4,42.8,40.4,42.7,40.4z"/>
		<path class="st2" d="M129.4,63c1.7,0,3.4,0,5.1,0c0.2,0,0.4,0.1,0.4-0.3c0-0.3-0.1-0.4-0.4-0.4c-0.2,0-0.3-0.1-0.4-0.2
			c0,0,0,0,0,0c0,0,0,0,0,0c0.2,0.1,0.4,0.1,0.6,0.1c0.2,0,0.3,0.1,0.3,0.3c0,0.1,0,0.2,0,0.3c0,0.2-0.1,0.2-0.2,0.2
			c-1.7,0-3.5,0-5.2,0C129.5,63.1,129.4,63.2,129.4,63z"/>
		<path class="st4" d="M45.4,24.2c-0.2-0.2,0-0.5-0.1-0.6c-0.2-0.1-0.5,0-0.7,0c-1.7,0-3.5,0-5.2,0c0-0.1,0.1-0.1,0.2-0.1
			c1.9,0,3.8,0,5.7,0c0.2,0,0.2,0,0.2,0.2C45.4,23.9,45.4,24,45.4,24.2z"/>
		<path class="st5" d="M5.3,23.6c-0.4,0-0.8,0-1.3,0c-1,0-2.1,0-3.1,0c-0.4,0-0.6,0.1-0.5,0.5c0,0.1,0,0.2,0,0.2
			c-0.3-0.2-0.1-0.5-0.1-0.7c0-0.2,0.2-0.1,0.3-0.1c1.4,0,2.9,0,4.3,0C5.1,23.5,5.3,23.4,5.3,23.6z"/>
		<path class="st6" d="M13.7,39.6c0.3,0,0.5,0,0.8,0c0,0,0,0.1,0,0.1c-0.1,0-0.2,0-0.3,0c-0.2,0-0.3,0.1-0.3,0.3
			c0,0.3,0.1,0.3,0.4,0.3c1.9,0,3.8,0,5.7,0c0.2,0,0.4,0,0.4-0.3c0-0.3-0.2-0.3-0.4-0.3c-0.1,0-0.3,0-0.5-0.1c0.4,0,0.6,0,0.9,0
			c0,0,0,0,0,0.1c0.1,0.7,0.1,0.7-0.7,0.7c-1.8,0-3.6,0-5.4,0c-0.5,0-0.5,0-0.5-0.5C13.7,39.8,13.6,39.7,13.7,39.6z"/>
		<path class="st7" d="M20.2,24.3c0-0.7,0-0.7-0.7-0.7c-1.1,0-2.1,0-3.2,0c-0.1,0-0.3,0.1-0.4-0.1c0.5-0.1,1,0,1.6,0
			c0.8,0,1.7,0,2.5,0c0.3,0,0.4,0.1,0.4,0.4C20.2,24,20.4,24.2,20.2,24.3z"/>
		<path class="st8" d="M0.4,40.4c0,0,0-0.1,0-0.1c0-0.7,0-0.7,0.8-0.6c-0.1,0.1-0.2,0-0.4,0c-0.2,0-0.3,0.1-0.3,0.3
			c0,0.2,0.1,0.3,0.3,0.3c1.5,0,3,0,4.4,0c0.2,0,0.3-0.1,0.3-0.3c0-0.2-0.1-0.3-0.3-0.3c-0.1,0-0.3,0-0.5-0.1c0.3,0,0.5,0,0.8,0
			c0.1,0.8,0.1,0.8-0.7,0.8c-1.4,0-2.7,0-4.1,0C0.6,40.4,0.5,40.4,0.4,40.4z"/>
		<path class="st8" d="M30.7,23.5c2,0,4,0,6,0c0.6,0,0.6,0,0.5,0.6c0,0,0,0,0,0c0.1-0.4-0.2-0.5-0.5-0.5c-1.7,0-3.4,0-5.1,0
			c-0.7,0-0.7,0-0.7,0.7C30.5,24.1,30.7,23.8,30.7,23.5z"/>
		<path class="st9" d="M139.7,52.9c0-0.7,0-0.7-0.7-0.7c-1.5,0-3,0-4.6,0c-0.1,0-0.3,0.1-0.4-0.1c0.6-0.1,1.1,0,1.7,0
			c1.2,0,2.4,0,3.6,0c0.4,0,0.5,0.1,0.4,0.5C139.8,52.7,139.9,52.9,139.7,52.9z"/>
		<path class="st10" d="M30.7,39.6c0,0,0.1,0.1,0.1,0.1c0.1,0.6,0.1,0.6,0.7,0.6c1.8,0,3.6,0,5.4,0c0.1,0,0.3,0,0.4,0.1
			c-1.7,0-3.4,0-5.1,0c-0.4,0-0.8,0-1.1,0c-0.2,0-0.3,0-0.3-0.3C30.7,40,30.6,39.8,30.7,39.6z"/>
		<path class="st4" d="M79.2,63.1c0.1-0.1,0.3-0.1,0.4-0.1c1.5,0,3,0,4.5,0c0.2,0,0.5,0.1,0.5-0.3c0-0.4-0.2-0.3-0.4-0.3
			c0,0-0.1,0-0.1-0.1c0.2,0,0.4,0,0.6,0c0.1,0.8,0.1,0.8-0.7,0.8C82.4,63.1,80.8,63.1,79.2,63.1z"/>
		<path class="st11" d="M95,54.9c0-0.1,0-0.1,0-0.2C95.1,54.7,95.1,54.8,95,54.9c0.1,2,0.1,4,0.1,6c0,0.1,0,0.1,0,0.2c0,0,0,0,0,0
			c0,0,0,0,0,0C95,59.1,95,57,95,54.9z"/>
		<path class="st7" d="M96.9,54.8c0,1.9,0,3.9,0,5.8c0,0.1,0,0.3,0,0.4c0,0,0-0.1,0-0.1C96.8,58.9,96.8,56.9,96.9,54.8
			c-0.1,0-0.1-0.1,0-0.2C96.9,54.6,96.9,54.7,96.9,54.8z"/>
		<path class="st10" d="M120.1,61.2c-0.2,0-0.1-0.1-0.1-0.1c0-2,0-4,0-6c0-0.1,0-0.2,0.1-0.2C120.1,56.9,120.1,59,120.1,61.2z"/>
		<path class="st12" d="M145.8,52.9c0-0.7,0-0.7-0.7-0.7c-1,0-1.9,0-2.9,0c-0.5,0-0.5,0-0.5,0.5c0,0.1,0,0.1,0,0.2
			c-0.3-0.2-0.1-0.5-0.1-0.7c0-0.2,0.2-0.1,0.4-0.1c1.3,0,2.6,0,4,0C145.9,52.4,145.9,52.6,145.8,52.9
			C145.9,52.9,145.8,52.9,145.8,52.9z"/>
		<path class="st13" d="M90.2,29.5c-1.8,0-3.5,0-5.3,0c-0.1,0-0.3,0.1-0.4-0.1c1.4,0,2.8,0,4.2,0c0.4,0,0.8,0,1.3,0
			C90,29.4,90.1,29.3,90.2,29.5z"/>
		<path class="st14" d="M86.2,63.1c0.1-0.1,0.2-0.1,0.3-0.1c1.6,0,3.2,0,4.8,0c0.1,0,0.2,0,0.3,0.1C89.9,63.1,88.1,63.1,86.2,63.1z"
			/>
		<path class="st10" d="M60.2,40.4c0.1-0.1,0.2-0.1,0.3-0.1c1.6,0,3.2,0,4.8,0c0.1,0,0.2,0,0.3,0.1C63.8,40.4,62,40.4,60.2,40.4z"/>
		<path class="st10" d="M93.2,63.1c0.1-0.1,0.2-0.1,0.3-0.1c1.6,0,3.1,0,4.7,0c0.1,0,0.2,0,0.3,0.1C96.8,63.1,95,63.1,93.2,63.1z"/>
		<path class="st13" d="M96.3,29.4c-0.1,0.1-0.3,0.1-0.4,0.1c-1.1,0-2.2,0-3.4,0c-0.4,0-0.5,0.1-0.5,0.5c0,0.1,0,0.2-0.1,0.2
			c-0.1-0.8-0.1-0.8,0.7-0.8C93.9,29.4,95.1,29.4,96.3,29.4z"/>
		<path class="st12" d="M101.9,52.1c-0.1,0.1-0.3,0.1-0.4,0.1c-0.8,0-1.7,0-2.5,0c-0.4,0-0.5,0.1-0.5,0.5c0,0.1,0,0.2,0,0.2
			c-0.3-0.2-0.1-0.5-0.1-0.7c0-0.2,0.2-0.1,0.3-0.1C99.7,52.1,100.8,52.1,101.9,52.1z"/>
		<path class="st13" d="M56.1,29.5c-1,0-2.1,0-3.1,0c-0.1,0-0.2,0-0.3-0.1c1.1,0,2.2,0,3.3,0C56.1,29.4,56.1,29.4,56.1,29.5z"/>
		<path class="st15" d="M125.4,52.1c-0.1,0.1-0.1,0.1-0.2,0.1c-1,0-2,0-2.9,0c-0.1,0-0.2,0-0.2-0.1
			C123.2,52.1,124.3,52.1,125.4,52.1z"/>
		<path class="st7" d="M44.9,63.1c0.2-0.1,0.5-0.1,0.7-0.1c0.6,0,1.2,0,1.8,0.1c-0.7,0-1.4,0-2.1,0C45.2,63.1,45.1,63.1,44.9,63.1z"
			/>
		<path class="st7" d="M110.6,57.9c-0.1-0.3-0.1-0.6,0-0.9C110.6,57.3,110.6,57.6,110.6,57.9z"/>
		<path class="st15" d="M30.7,57.8c0.1,0.4,0.1,0.8,0,1.2C30.6,58.6,30.6,58.2,30.7,57.8z"/>
		<path class="st7" d="M79.1,58.2c-0.1-0.4-0.1-0.8,0-1.1C79.1,57.4,79.1,57.8,79.1,58.2z"/>
		<path class="st16" d="M47.6,62.4c-0.3,0-0.6,0-1,0c0,0,0,0,0,0c0,0,0,0,0-0.1C47,62.3,47.3,62.2,47.6,62.4z"/>
		<path class="st13" d="M106.8,51.8c-0.4,0.1-0.7,0.1-1.1,0C106.1,51.8,106.4,51.8,106.8,51.8z"/>
		<path class="st10" d="M52.2,54.1c0.1,0.3,0.1,0.6,0,0.9C52.2,54.7,52.2,54.4,52.2,54.1z"/>
		<path class="st15" d="M130.6,51.9c-0.3,0.1-0.6,0.1-0.9,0C130,51.9,130.3,51.8,130.6,51.9z"/>
		<path class="st13" d="M70.2,29.1c-0.3,0.1-0.6,0.1-0.9,0C69.6,29.1,69.9,29.1,70.2,29.1z"/>
		<path class="st17" d="M61.2,29.2c-0.3,0.1-0.5,0.1-0.8,0C60.7,29.2,61,29.2,61.2,29.2z"/>
		<path class="st2" d="M145.9,52.9c0-0.3,0-0.5,0-0.8C146,52.4,146,52.6,145.9,52.9z"/>
		<path class="st16" d="M111.7,60c0.1,0.2,0.1,0.5,0,0.7C111.7,60.5,111.7,60.3,111.7,60z"/>
		<path class="st11" d="M105.6,63.3c0.2-0.1,0.5-0.1,0.7,0C106.1,63.3,105.9,63.3,105.6,63.3z"/>
		<path class="st14" d="M130.1,62.3c-0.2,0.2-0.4,0.1-0.6,0C129.7,62.3,129.9,62.3,130.1,62.3z"/>
		<path class="st3" d="M67.1,36.6c-0.2,0.1-0.4,0.1-0.5,0C66.8,36.6,67,36.5,67.1,36.6z"/>
		<path class="st10" d="M73.9,51.8c-0.2,0.1-0.4,0.1-0.5,0C73.5,51.8,73.7,51.8,73.9,51.8z"/>
		<path class="st3" d="M87.2,51.9c-0.2,0.1-0.3,0.1-0.5,0C86.9,51.9,87,51.9,87.2,51.9z"/>
		<path class="st10" d="M75.3,34.7c0.1,0.2,0.1,0.3,0,0.5C75.3,35,75.2,34.8,75.3,34.7z"/>
		<path class="st15" d="M66.6,40.4c0.1-0.1,0.3-0.1,0.5,0C66.9,40.5,66.8,40.4,66.6,40.4z"/>
		<path class="st17" d="M26,29.1c-0.1,0.1-0.3,0.1-0.4,0C25.7,29.1,25.9,29.1,26,29.1z"/>
		<path class="st17" d="M80.5,29.1c-0.1,0.1-0.3,0.1-0.4,0C80.2,29.1,80.4,29.1,80.5,29.1z"/>
		<path class="st17" d="M36.3,46c-0.1,0.1-0.3,0.1-0.4,0C36,46,36.1,46,36.3,46z"/>
		<path class="st12" d="M32.8,38.3c0-4.2,0-8.5,0-12.7c0,0,0,0,0,0C32.9,29.8,32.9,34.1,32.8,38.3C32.8,38.3,32.8,38.3,32.8,38.3z"
			/>
		<path class="st12" d="M48.8,31.4c0,2.3,0,4.7,0,7c0,0,0,0,0,0C48.8,36,48.8,33.7,48.8,31.4C48.8,31.4,48.8,31.4,48.8,31.4z"/>
		<path class="st7" d="M47,29.5c1.2,0,2.4,0,3.5,0c0,0,0,0,0,0C49.4,29.5,48.2,29.5,47,29.5C47,29.5,47,29.5,47,29.5z"/>
		<path class="st12" d="M15.9,38.3c0-4,0-8.1,0-12.1c0,0,0,0,0,0C15.9,30.2,15.9,34.3,15.9,38.3C15.9,38.3,15.9,38.3,15.9,38.3z"/>
		<path class="st18" d="M118.1,59.9c-0.4,0.7-1,1.2-1.7,1.6c-1,0.6-2.1,0.3-2.6-0.6c-0.5-1-0.1-2.3,0.9-2.8c0.6-0.3,1.3-0.4,2-0.6
			c0.5-0.1,0.9-0.2,1.4-0.3c0,0,0.1,0,0.1,0.1C118.2,58.1,118.2,59,118.1,59.9z"/>
		<path class="st19" d="M127.7,62.3c0,0.8,0,0.8-0.8,0.8c-2.7,0-5.3,0-8,0c-0.1,0-0.3,0-0.4-0.1c1,0,2,0,3,0c1.9,0,3.8,0,5.7,0
			c0.2,0,0.5,0.1,0.5-0.3c0-0.4-0.3-0.3-0.5-0.3c0,0,0,0-0.1-0.1C127.3,62.3,127.5,62.3,127.7,62.3
			C127.7,62.3,127.7,62.3,127.7,62.3z"/>
		<path class="st9" d="M125.8,61.1c0-1.9,0-3.8,0-5.7c0,0,0,0,0,0C125.8,57.4,125.8,59.3,125.8,61.1
			C125.8,61.2,125.8,61.2,125.8,61.1z"/>
		<path class="st10" d="M118.1,59.9c0-0.9,0-1.8,0-2.7c0.1,0,0.1,0.1,0.1,0.1C118.2,58.2,118.2,59,118.1,59.9
			C118.2,59.8,118.2,59.9,118.1,59.9C118.2,59.9,118.2,59.9,118.1,59.9z"/>
		<path class="st18" d="M37.7,62.1c-0.8,0.1-1.5-0.1-2.2-0.4c-1.5-0.7-2.6-1.8-3-3.5c-0.3-1.5-0.1-2.9,1-4.2c0.2-0.2,0.2-0.2,0.4,0
			c2.1,2.4,4.4,4.6,6.9,6.7c0.3,0.2,0.2,0.3-0.1,0.5C39.8,61.7,38.8,62,37.7,62.1z"/>
		<path class="st12" d="M81,54.1c0,2.3,0,4.6,0,7c0,0,0,0,0,0C81,58.8,81,56.4,81,54.1C81,54.1,81,54.1,81,54.1z"/>
		<path class="st6" d="M88.1,54.7c0,2.1,0,4.2,0,6.3c0,0,0,0,0,0C88,59,88,56.9,88.1,54.7C88,54.7,88.1,54.7,88.1,54.7z"/>
		<path class="st18" d="M102.3,57.8c0-0.5,0-0.9,0-1.2c0-1.2,1-2.7,2.1-3.2c1.8-0.8,3.4,0,3.9,1.9c0.4,1.5,0.3,3.1,0,4.7
			c-0.4,1.5-1.4,2.2-2.8,2.2c-1.4,0-2.6-0.9-3.1-2.2C102.2,59.2,102.3,58.5,102.3,57.8z"/>
		<path class="st12" d="M100.3,66.5c0-4.1,0-8.3,0-12.4c0,0,0,0,0,0C100.3,58.2,100.3,62.4,100.3,66.5
			C100.3,66.5,100.3,66.5,100.3,66.5z"/>
		<path class="st18" d="M77,57.6c0,0.7,0,1.4-0.1,2.1c-0.2,1.2-0.7,2.1-1.9,2.5c-1.2,0.4-2.4,0.4-3.5-0.5c-0.6-0.5-0.9-1.3-1.1-2.1
			c-0.2-1.4-0.2-2.9,0.1-4.3c0.3-1.2,0.9-2.1,2.1-2.4c1.2-0.3,2.4-0.2,3.4,0.7c0.5,0.5,0.7,1.2,0.9,1.9C77,56.2,77,56.9,77,57.6z"/>
		<path class="st18" d="M80.7,30c0.8,0.2,1.5,0.5,1.7,1.4c0.1,0.5,0.1,1,0.1,1.6c0,0.2-0.1,0.2-0.2,0.2c-1.5,0.1-2.9,0.2-4.4,0.4
			c-0.1,0-0.1,0-0.2,0c-0.7,0.1-0.7,0.1-0.6-0.7c0.3-1.3,0.9-2.3,2.3-2.7c0.1,0,0.3-0.1,0.4-0.1C80.1,29.9,80.4,29.9,80.7,30z"/>
		<path class="st5" d="M80.7,30c-0.3,0-0.6,0-0.9,0c0,0-0.1-0.1-0.1-0.1C80.1,29.9,80.4,29.9,80.7,30C80.7,29.9,80.7,29.9,80.7,30
			C80.7,30,80.7,30,80.7,30z"/>
	</g>
</g>
<g class="st0">
	<path class="st1" d="M28.1,45.9c0-5.6,0-11.2,0-16.8c0-2.6,0.2-5.3,0.5-7.9c0.3-2.6,0.8-5.1,1.6-7.6c0.6-1.8,1.5-3.6,2.6-5.1
		c1.8-2.4,4.1-4,6.8-5.1c2-0.8,4.1-1.3,6.2-1.7c2.9-0.5,5.8-0.7,8.8-0.8c1.5-0.1,2.9-0.1,4.4-0.1c10,0,20,0,30,0
		c2.4,0,4.8,0.1,7.2,0.3c2.9,0.3,5.7,0.7,8.4,1.5c1.5,0.4,2.9,1,4.2,1.8c3.1,1.7,5.2,4.2,6.6,7.4c0.9,2.1,1.5,4.2,1.9,6.4
		c0.6,3.4,0.8,6.7,0.9,10.2c0.1,1.9,0.1,3.8,0.1,5.7c0,8.8,0,17.6,0,26.5c0,2.2-0.1,4.5-0.2,6.7c-0.2,2.9-0.6,5.8-1.3,8.7
		c-0.5,1.8-1.1,3.6-2,5.3c-1.7,3.1-4.2,5.3-7.4,6.8c-2,0.9-4,1.5-6.1,1.9c-2.3,0.4-4.7,0.7-7,0.8c-2.6,0.2-5.1,0.2-7.7,0.2
		c-9.3,0-18.6,0-27.8,0c-2.3,0-4.6-0.1-6.9-0.2c-2.9-0.2-5.9-0.6-8.7-1.3c-1.9-0.5-3.8-1.2-5.5-2.2c-3-1.7-5.1-4.2-6.5-7.3
		c-0.9-2-1.5-4.1-1.9-6.3c-0.5-2.5-0.7-5-0.8-7.5c-0.1-2.2-0.2-4.4-0.2-6.6C28.1,55,28.1,50.4,28.1,45.9
		C28.1,45.9,28.1,45.9,28.1,45.9z"/>
	<path class="st20" d="M78.4,38.4c0,2.2,0,4.3,0,6.5c0,0.4,0,0.7,0.2,1c0.3,0.7,0.7,0.9,1.4,0.7c0.4-0.1,0.7-0.3,1-0.6
		c0.8-0.7,1.6-1.4,2.3-2.3c1.8-2.2,3.3-4.6,4.7-7.1c1-1.8,1.8-3.6,2.6-5.4c0.4-0.9,1-1.6,2-1.8c0.3-0.1,0.6-0.1,1-0.1
		c2.1,0,4.3,0,6.4,0c0.4,0,0.8,0,1.2,0.2c0.7,0.2,1.1,0.7,1,1.4c0,0.6-0.2,1.2-0.4,1.7c-0.5,1.4-1.2,2.7-1.9,4
		c-2,3.5-4.2,6.8-6.5,10.1c-0.2,0.3-0.4,0.6-0.6,0.9c-0.3,0.6-0.3,1.2,0.1,1.7c0.2,0.4,0.5,0.7,0.8,1.1c0.8,0.9,1.7,1.7,2.5,2.5
		c2.1,2.1,4,4.4,5.7,6.8c0.5,0.7,0.9,1.4,1.2,2.1c0.2,0.5,0.3,0.9,0.3,1.4c0,0.8-0.4,1.3-1.1,1.6c-0.5,0.2-0.9,0.2-1.4,0.2
		c-2.1,0-4.3,0-6.4,0c-1,0-1.9-0.4-2.7-1.1c-0.6-0.6-1.2-1.2-1.7-1.8c-1.3-1.5-2.7-3-4.1-4.3c-1.1-1-2.2-2-3.5-2.8
		c-0.6-0.3-1.2-0.6-1.8-0.7c-0.4-0.1-0.8-0.1-1.3,0c-0.4,0.1-0.6,0.3-0.8,0.7c-0.1,0.4-0.2,0.8-0.2,1.2c0,1.9,0,3.9,0,5.8
		c0,0.3,0,0.7-0.1,1c-0.1,0.6-0.4,1.1-1,1.4c-0.5,0.2-0.9,0.3-1.5,0.4c-2.6,0.3-5.2,0.1-7.7-0.7c-3.5-1-6.5-2.8-9.2-5.2
		c-1.9-1.7-3.6-3.6-5.1-5.7c-2.9-4-5.4-8.2-7.5-12.6c-1.1-2.3-2-4.7-2.7-7.2c-0.2-0.7-0.3-1.4-0.4-2.1c0-0.3,0-0.7,0.1-1
		c0.2-0.6,0.7-0.9,1.3-1c0.3-0.1,0.6-0.1,1-0.1c2.1,0,4.2,0,6.2,0c0.3,0,0.6,0,0.9,0.1c0.7,0.1,1.2,0.5,1.5,1.1
		c0.3,0.5,0.5,1,0.7,1.5c1.1,3,2.3,6,3.8,8.9c1.2,2.2,2.4,4.3,4,6.3c0.5,0.6,1,1.2,1.7,1.7c0.3,0.2,0.5,0.4,0.8,0.5
		c0.2,0.1,0.5,0.1,0.7,0.1c0.4-0.1,0.7-0.3,0.8-0.7c0.2-0.5,0.2-0.9,0.2-1.4c0-2.5,0-4.9,0-7.4c0-0.9,0-1.7,0-2.6
		c0-1.8-0.5-3.4-1.7-4.8c-0.2-0.2-0.4-0.5-0.6-0.7c-0.4-0.5-0.5-1.1-0.2-1.7c0.3-0.6,0.8-0.8,1.5-0.9c0.1,0,0.2,0,0.3,0
		c3.3,0,6.6,0,9.9,0c0.3,0,0.5,0,0.8,0.1c0.5,0.1,0.9,0.4,1.1,0.9c0.2,0.5,0.2,1,0.2,1.5C78.4,34.1,78.4,36.3,78.4,38.4z"/>
</g>
<g class="st0">
	<path class="st21" d="M17.2,18.2c0.5,0.2,1,0.3,1.4,0.5c1,0.5,1.7,1.4,2.2,2.4c0.8,1.5,1.3,3.1,1.8,4.7c2.9,7.9,5.8,15.8,8.7,23.8
		c0.3,0.9,0.3,1-0.6,1.3c-1.5,0.6-3.1,1.2-4.6,1.8c-0.6,0.2-0.8,0.2-1-0.5c-0.7-1.9-1.4-3.7-2-5.6c-0.1-0.4-0.3-0.5-0.7-0.5
		c-4.2,0-8.4,0-12.5,0c-0.4,0-0.5,0.1-0.6,0.5c-0.7,1.8-1.3,3.7-2,5.5c-0.3,0.7-0.4,0.8-1.1,0.5C4.6,52,3,51.4,1.5,50.8
		c-0.7-0.3-0.7-0.4-0.5-1.1c2.6-7.1,5.2-14.2,7.7-21.2c0.7-2,1.5-4,2.2-6.1c0.3-0.8,0.7-1.6,1.2-2.3c0.7-0.9,1.6-1.5,2.8-1.8
		c0.1,0,0.2,0,0.2-0.1c0.2,0,0.3,0,0.5,0c0.3,0.1,0.7,0.1,1,0C16.8,18.2,17,18.2,17.2,18.2z"/>
	<path class="st21" d="M-0.4,63.2c0.2-0.3,0.5-0.3,0.8-0.3c10.5,0,21,0,31.5,0c0.6,0,0.8,0.2,0.8,0.8c0,1.8,0,3.5,0,5.3
		c0,0.7-0.1,0.8-0.8,0.8c-10.5,0-21,0-31.5,0c-0.3,0-0.6-0.1-0.8-0.2C-0.4,67.4-0.4,65.3-0.4,63.2z"/>
	<path class="st22" d="M16.7,18.2c-0.3,0.2-0.7,0.2-1,0C16,18.2,16.3,18.2,16.7,18.2z"/>
	<path class="st21" d="M107.6,42.4c0.1,0,0.1,0.1,0.1,0.1c1.8,0.5,3,2.1,2.9,4.2c-0.1,2.2-1.1,3.7-3.1,4.4c-0.6,0.2-1.1,0.3-1.7,0.3
		c-1.8,0-3.7,0-5.5-0.1c-0.4,0-0.4-0.1-0.4-0.5c0-5.3,0-10.6,0-15.9c0-0.3,0-0.5,0.4-0.5c1.9,0,3.9-0.2,5.8-0.1
		c3.3,0.3,4.4,3.5,3.7,5.8c-0.2,0.7-0.6,1.2-1.2,1.6C108.3,42.1,108,42.2,107.6,42.4z"/>
	<path class="st21" d="M49.2,51.3c0.6-1.8,1.2-3.5,1.8-5.2c1.2-3.5,2.4-7,3.7-10.6c0.1-0.4,0.3-0.6,0.7-0.6c1-0.2,1.9-0.1,2.9,0.1
		c0.3,0.1,0.4,0.3,0.5,0.6c1.6,4.9,3.2,9.8,4.8,14.6c0.1,0.3,0.2,0.7,0.4,1.1c-1.1,0-2.2,0-3.3,0c-0.3,0-0.3-0.2-0.3-0.4
		c-0.2-0.8-0.5-1.6-0.7-2.4c-0.1-0.3-0.2-0.4-0.5-0.4c-1.7,0-3.4,0-5,0c-0.3,0-0.4,0.1-0.5,0.4c-0.2,0.8-0.5,1.6-0.7,2.4
		c-0.1,0.3-0.2,0.4-0.5,0.4C51.2,51.2,50.3,51.3,49.2,51.3z"/>
	<path class="st21" d="M146.1,51.3c-1.1,0-2,0-3,0c-0.3,0-0.4-0.2-0.5-0.4c-0.5-1-0.9-2.1-1.4-3.1c-0.1-0.3-0.3-0.5-0.4-0.8
		c-0.2-0.4-1-0.6-1.3-0.4c-0.4,0.2-0.2,0.5-0.2,0.8c0,1.2,0,2.3,0,3.5c0,0.3-0.1,0.4-0.4,0.4c-0.7,0-1.5,0-2.2,0
		c-0.3,0-0.4-0.1-0.4-0.4c0-5.2,0-10.4,0-15.6c0-0.4,0.1-0.5,0.5-0.5c0.7,0,1.4,0,2.1,0c0.4,0,0.5,0.1,0.5,0.5c0,2.7,0,5.3,0,8
		c0,0.3-0.2,0.6,0.2,0.8c0.4,0.2,1.1-0.1,1.3-0.4c0.1-0.2,0.2-0.4,0.3-0.6c0.3-0.6,0.6-1.2,0.8-1.7c0.6-1.3,1.5-1.9,3-1.8
		c1,0.1,0.8-0.1,0.8,0.8c0,0.2-0.1,0.5-0.1,0.7c0,0.4,0,0.6-0.5,0.7c-0.3,0-0.5,0.3-0.6,0.6c-0.2,0.4-0.4,0.8-0.6,1.3
		c-0.3,0.7-0.7,1.3-1.6,1.6c0.7,0.2,1.2,0.6,1.5,1.2C144.6,47.9,145.3,49.5,146.1,51.3z"/>
	<path class="st21" d="M121.4,45.2c0,0.6,0,1.4,0,2.1c0,0.9,0.3,1.7,0.8,2.4c0.2,0.3,0.2,0.5-0.1,0.6c-0.3,0.2-0.6,0.4-0.9,0.6
		c-0.8,0.5-0.8,0.5-1.5-0.1c-0.3-0.3-0.5-0.3-0.9-0.1c-1.3,0.7-2.7,0.9-4.1,0.5c-1.5-0.4-2.4-1.6-2.5-3.3c-0.1-1.7,0.8-3.1,2.3-3.7
		c1.1-0.4,2.3-0.5,3.4-0.3c0.4,0.1,0.5,0,0.5-0.4c0-1.6-0.3-1.9-1.8-1.9c-0.8,0-1.6,0-2.4,0.2c-0.4,0.1-0.5-0.1-0.5-0.4
		c-0.1-0.5-0.2-1-0.3-1.5c-0.1-0.2,0-0.3,0.2-0.4c1.8-0.4,3.7-0.6,5.6-0.2c1.3,0.3,2,1.2,2.2,2.5C121.5,43.1,121.4,44.1,121.4,45.2z
		"/>
	<path class="st21" d="M87.5,44.8c0,0.8,0,1.5,0,2.3c0,1,0.3,1.9,0.8,2.7c0.2,0.3,0.2,0.4-0.1,0.6c-0.4,0.2-0.8,0.5-1.1,0.8
		c-0.4,0.4-0.8,0.4-1.1,0c-0.4-0.6-0.8-0.5-1.4-0.2c-1.2,0.6-2.5,0.7-3.8,0.4c-1.5-0.4-2.4-1.6-2.5-3.2c-0.1-1.9,0.7-3.2,2.3-3.8
		c1.1-0.4,2.2-0.5,3.4-0.3c0.4,0.1,0.5,0,0.5-0.4c0,0,0,0,0-0.1c0-1.5-0.3-1.8-1.8-1.8c-0.8,0-1.7,0-2.5,0.2c-0.3,0-0.4,0-0.5-0.3
		c-0.1-0.5-0.2-1-0.3-1.5c0-0.2,0-0.3,0.2-0.4c1.8-0.4,3.6-0.6,5.4-0.2c1.5,0.3,2.3,1.3,2.4,2.9C87.5,43.2,87.4,44,87.5,44.8
		C87.4,44.8,87.5,44.8,87.5,44.8z"/>
	<path class="st21" d="M124,45.7c0-1.7,0-3.4,0-5.1c0-0.2,0-0.4,0.3-0.5c2.2-0.6,4.5-0.9,6.8-0.4c1.5,0.3,2.4,1.2,2.4,2.8
		c0.1,2.9,0,5.8,0.1,8.6c0,0.3-0.1,0.3-0.3,0.3c-0.7,0-1.5,0-2.2,0c-0.4,0-0.4-0.1-0.4-0.4c0-2.2,0-4.5,0-6.7c0-1.8-0.3-2.1-2.1-2.1
		c-1.4,0-1.4,0-1.4,1.3c0,2.5,0,4.9,0,7.4c0,0.5-0.1,0.6-0.6,0.6c-0.6,0-1.3,0-1.9,0c-0.4,0-0.6-0.1-0.5-0.5
		C124.1,49,124,47.4,124,45.7z"/>
	<path class="st21" d="M71.4,46.9c0-1.3,0-2.6,0-3.9c0-0.4-0.1-0.5-0.5-0.5c-1,0-1,0-1-1.1c0-0.1,0-0.1,0-0.2c0-1.1,0-1.2,1.2-1.2
		c0.3,0,0.4-0.2,0.4-0.4c0-0.8-0.1-1.7,0.1-2.5c0.3-1.5,1.1-2.3,2.5-2.6c1.2-0.2,2.4-0.1,3.5,0c0.3,0,0.3,0.2,0.3,0.4
		c-0.1,0.6-0.2,1.2-0.3,1.7C77.4,37,77.2,37,77,37c-0.6,0-1.1,0-1.7,0.1c-0.5,0.1-0.8,0.4-0.9,0.9c-0.1,0.7-0.3,1.5,0,2
		c0.2,0.4,1.1,0.1,1.7,0.1c1.2,0,1.2,0,1.2,1.3c0,1.2,0,1.2-1.3,1.2c-0.4,0-0.9,0-1.3,0c-0.4,0-0.5,0.1-0.5,0.5c0,2.5,0,5,0,7.4
		c0,0.8,0,0.8-0.8,0.8c-0.6,0-1.1,0-1.7,0c-0.4,0-0.5-0.1-0.5-0.5C71.4,49.5,71.4,48.2,71.4,46.9z"/>
	<path class="st21" d="M65,43c0-2.6,0-5.1,0-7.7c0-0.4,0.1-0.5,0.5-0.5c0.7,0,1.3,0,2,0c0.4,0,0.6,0.1,0.6,0.6c0,2.9,0,5.7,0,8.6
		c0,2.3,0,4.5,0,6.8c0,0.5-0.1,0.6-0.6,0.6c-0.6,0-1.3,0-1.9,0c-0.4,0-0.5-0.1-0.5-0.5C65,48.2,65,45.6,65,43z"/>
	<path class="st21" d="M93.6,47.4c-1.1,0-1.9-0.9-1.9-1.9c0-1.1,0.9-2,2-2c1.1,0,1.9,0.9,1.9,2C95.6,46.6,94.7,47.4,93.6,47.4z"/>
	<path class="st23" d="M16.2,26.4c1.2,3.5,2.3,6.9,3.5,10.4c0.3,1,0.6,2,1,2.9c0.1,0.3,0.1,0.4-0.3,0.4c-2.8,0-5.6,0-8.4,0
		c-0.3,0-0.4-0.1-0.3-0.4C13.2,35.3,14.6,30.9,16.2,26.4C16.1,26.4,16.1,26.4,16.2,26.4z"/>
	<path class="st23" d="M102.9,46.2c0-0.7,0-1.3,0-2c0-0.2,0-0.4,0.3-0.4c0.8,0,1.6-0.1,2.4,0.1c1.2,0.3,1.9,1.2,1.9,2.5
		c-0.1,1.3-0.9,2.2-2.1,2.3c-0.7,0-1.4,0-2.1,0c-0.3,0-0.3-0.1-0.3-0.4C102.9,47.6,102.9,46.9,102.9,46.2z"/>
	<path class="st23" d="M102.9,39.3c0-0.5,0-1.1,0-1.6c0-0.2,0-0.4,0.3-0.4c0.6,0,1.3-0.1,1.9,0c1.1,0.1,1.7,0.8,1.7,2
		c0,1.1-0.7,1.9-1.8,2c-0.6,0.1-1.2,0-1.8,0c-0.3,0-0.3-0.1-0.3-0.3C102.9,40.4,102.9,39.9,102.9,39.3z"/>
	<path class="st23" d="M58.6,45.3c-1.4,0-2.7,0-4.1,0c0.7-2.4,1.4-4.7,2.1-7.2C57.3,40.6,57.9,42.9,58.6,45.3z"/>
	<path class="st23" d="M117.4,46c0.2,0,0.3,0,0.5,0c0.4,0,0.6,0.1,0.6,0.6c0,0.7,0,1.3,0.1,2c0,0.2,0,0.3-0.2,0.3
		c-0.7,0.2-1.4,0.3-2.1,0.1c-0.6-0.2-0.9-0.5-1-1.3c-0.1-0.8,0.2-1.3,0.8-1.5C116.5,46,116.9,46,117.4,46z"/>
	<path class="st23" d="M83.5,46c0.1,0,0.2,0,0.3,0c0.5,0,0.8,0.1,0.7,0.7c0,0.6-0.1,1.2,0.1,1.8c0.1,0.2,0,0.3-0.3,0.4
		c-0.6,0.2-1.2,0.2-1.7,0.2c-0.8-0.1-1.2-0.6-1.3-1.4c0-0.8,0.3-1.3,1.1-1.5C82.7,46,83.1,46,83.5,46z"/>
</g>
<g class="st24">
	<g>
		<path class="st25" d="M39,38.7c2.6-2.7,5.3-5.5,7.9-8.2c0.4-0.4,0.7-0.7,1.3-0.6c5.5,0,11.1,0,16.6,0c0.1,0,0.1,0.1,0.3,0.1
			c-4,3.8-7.9,7.6-11.8,11.3c4.2,4.2,8.3,8.4,12.5,12.5c-0.2,0.5-0.5,0.3-0.7,0.3c-5.5,0-11,0-16.5,0c-0.7,0-1.1-0.2-1.5-0.7
			c-2.5-2.5-4.9-4.9-7.4-7.4c-0.3-0.3-0.6-0.5-1-1c0,2.6,0,5,0,7.4c0,1.8,0.3,1.6-1.5,1.6c-4.5,0-8.9,0-13.4,0
			c-0.8,0-1.2-0.1-1.2-1.1c0-7.4,0-14.8,0-22.2c0-0.9,0.3-1,1.1-1c4.7,0,9.3,0,14,0c0.8,0,1.1,0.3,1.1,1.1c0,2.5,0,5,0,7.6
			C38.7,38.6,38.8,38.7,39,38.7z"/>
		<path class="st25" d="M103.6,54.2c1.3-3.2,2.6-6.2,3.9-9.3c2-4.7,3.9-9.4,5.9-14.1c0.3-0.7,0.6-0.9,1.4-0.9c6.8,0,13.5,0,20.3,0
			c0.7,0,1,0.2,1.3,0.9c3.2,7.5,6.4,15,9.6,22.5c0.3,0.8,0.2,0.9-0.6,0.9c-4.8,0-9.7,0-14.5,0c-0.7,0-1-0.2-1.3-0.9
			c-0.8-2.3-0.8-2.3-3.3-2.3c-1.7,0-3.5,0-5.2,0c-0.7,0-1.1,0.2-1.4,0.9c-0.7,2.3-0.8,2.3-3.2,2.3c-3.8,0-7.7,0-11.5,0
			C104.6,54.2,104.2,54.2,103.6,54.2z"/>
		<path class="st25" d="M84.9,29.9c4.7,0,9.5,0,14.2,0c0.9,0,1.3,0.2,1.2,1.2c-0.1,1.6-0.1,3.2,0,4.7c0,0.9-0.3,1-1.1,1
			c-4.2,0-8.4,0-12.6,0c-0.8,0-1.2,0-1.2,1c0,1,0.4,1.1,1.2,1.1c4.2,0,8.3,0,12.5,0c0.9,0,1.2,0.2,1.2,1.1c-0.1,1.4-0.1,2.8,0,4.2
			c0,0.8-0.2,1-1,1c-4.2,0-8.5,0-12.7,0c-0.8,0-1.3,0-1.2,1c0,0.9,0.2,1.2,1.1,1.1c4.2,0,8.4,0,12.6,0c1,0,1.3,0.3,1.2,1.2
			c-0.1,1.5-0.1,3,0,4.5c0.1,0.9-0.2,1.2-1.2,1.2c-8.1,0-16.2,0-24.3,0c-1.5,0-3,0-4.5,0c-0.7,0-0.9-0.2-0.9-0.9c0-7.5,0-15,0-22.6
			c0-0.9,0.5-0.9,1.1-0.9C75.3,29.9,80.1,29.9,84.9,29.9z"/>
		<path class="st25" d="M16,42.1c0,3.7,0,7.4,0,11.1c0,0.8-0.2,1-1,1c-4.7,0-9.3,0-14,0c-0.9,0-1-0.3-1-1.1C0,45.7,0,38.3,0,31
			c0-0.8,0.2-1.1,1.1-1.1c4.6,0,9.2,0,13.9,0c0.9,0,1.1,0.3,1.1,1.2C16,34.7,16,38.4,16,42.1z"/>
		<path class="st18" d="M126.7,44.6c-1.6,0-3,0-4.5,0c0.7-2.2,1.4-4.3,2.2-6.7C125.2,40.3,125.9,42.4,126.7,44.6z"/>
	</g>
</g>
<g class="st0">
	<g class="st1">
		<path class="st26" d="M0,68.8c0.7-1.1,1.2-2.2,1.8-3.3C2,65.1,2.2,65,2.6,65.3c1.4,0.9,2.8,1.8,4.5,2c0.9,0.1,1.7,0,2.5-0.4
			c1.2-0.6,1.6-1.8,0.9-2.9c-0.4-0.6-1-1.1-1.6-1.5c-1-0.6-2.1-1.1-3.1-1.7c-0.6-0.3-1.2-0.7-1.7-1.1c-2.3-1.6-3.3-3.8-2.8-6.5
			c0.5-2.8,2.4-4.5,5.1-5.2c2.7-0.7,5.4-0.4,8,0.8c0.4,0.2,0.6,0.4,0.5,0.9c0,1.3,0,2.5,0,3.7c-0.4,0.1-0.5-0.1-0.7-0.2
			c-1.3-0.7-2.6-1.3-4.1-1.5c-0.8-0.1-1.6-0.1-2.3,0.1c-1.5,0.5-2,2-1,3.2c0.5,0.6,1.2,1.1,1.9,1.5c1.1,0.6,2.2,1.2,3.3,1.8
			c1.6,0.9,3.1,2,3.7,3.9c1.2,3.4-0.1,7-4.1,8.5c-3.5,1.2-6.9,0.8-10.1-0.8C1,69.6,0.5,69.3,0,69C0,69,0,68.9,0,68.8z"/>
		<path class="st27" d="M137.6,22.6c0.2-0.1,0.5,0.1,0.7-0.2c0.3,0,0.6,0,0.9,0c0.2,0.1,0.5,0.1,0.7,0c0.2,0,0.3,0,0.5,0
			c0.2,0.1,0.5,0.1,0.7,0c0.2,0,0.5,0,0.7,0c0.4,0.1,0.8,0.1,1.1,0.1c1.8,0.3,3.1,1.7,3,3.4c-0.4,0.1-0.8-0.1-1.2-0.2
			c-1.8-0.5-3.6-1-5.5-1.4c-0.5-0.2-0.6-0.8-1-1.1c-0.2-0.1-0.3-0.3-0.5-0.4C137.7,22.8,137.6,22.8,137.6,22.6z"/>
		<path class="st28" d="M139.2,24.2c1,0,1.9,0.4,2.8,0.6c1.3,0.3,2.6,0.7,4,1.1c0.2,0.1,0,0.3,0.1,0.4c0,0.5,0,1,0,1.5
			c-0.1,0.1-0.3,0.1-0.5,0c-1.9-0.5-3.8-1-5.7-1.5c-0.1,0-0.2-0.1-0.3-0.2C139.4,25.5,139.1,24.9,139.2,24.2z"/>
		<path class="st29" d="M139.7,26.1c2.1,0.6,4.3,1.1,6.4,1.7c0,0.4,0,0.9,0,1.3c-0.1,0.3-0.4,0.2-0.6,0.1c-1.8-0.5-3.7-1-5.6-1.5
			c-0.1,0-0.2-0.1-0.3-0.2C139.6,27.1,139.3,26.6,139.7,26.1z"/>
		<path class="st30" d="M146.1,30.1c0,0.4,0,0.8,0,1.2c-0.7,0-1.3-0.3-1.9-0.4c-1.1-0.3-2.1-0.6-3.2-0.8c-0.9-0.2-0.9-0.3-1.2,0.6
			c-0.1,0-0.1,0-0.2,0c-0.3-0.6,0-1.1,0-1.7c0-0.2,0-0.5,0-0.7c0-0.1,0.1-0.2,0.1-0.3c0.7,0.7,1.7,0.8,2.6,1.1
			c1.1,0.3,2.1,0.6,3.2,0.9C145.7,29.9,145.9,29.9,146.1,30.1z"/>
		<path class="st31" d="M139.8,30.6c0-1.1,0-1,1-0.8c1.6,0.4,3.2,1,4.9,1.3c0.2,0,0.3,0.2,0.4,0.2c0,0.2,0,0.3,0,0.5
			c-0.3,0.1,0,0.5-0.2,0.6c-0.5-0.4-1.1-0.5-1.7-0.6c-1.4-0.3-2.7-0.8-4.2-1.1C139.9,30.7,139.8,30.6,139.8,30.6z"/>
		<path class="st32" d="M146.1,30.1c-2-0.4-3.9-1-5.9-1.5c-0.4-0.1-0.2-0.5-0.4-0.7c-0.1-0.1-0.1-0.2,0-0.2c1.3,0.1,2.5,0.6,3.8,0.9
			c0.6,0.2,1.3,0.4,1.9,0.5c0.2,0,0.4,0.1,0.6,0C146.1,29.4,146.1,29.8,146.1,30.1z"/>
		<path class="st18" d="M146.1,26.3c-0.2-0.1-0.1-0.3-0.1-0.4c-0.4-2.1-1.4-3.1-3.7-3.4c-0.1,0-0.3,0.1-0.4-0.1c1.3,0,2.6,0,4,0
			c0.3,0,0.3,0.1,0.3,0.3C146.1,23.9,146.1,25.1,146.1,26.3z"/>
		<path class="st33" d="M141.1,22.4c-0.2,0.2-0.5,0.2-0.7,0C140.6,22.4,140.9,22.4,141.1,22.4z"/>
		<path class="st33" d="M139.9,22.4c-0.2,0.2-0.5,0.2-0.7,0C139.4,22.4,139.6,22.4,139.9,22.4z"/>
		<path class="st26" d="M116.5,64.8c0,2.1,0,3.8,0,5.5c0,0.5-0.1,0.7-0.6,0.6c-0.8,0-1.7,0-2.5,0c-0.5,0-0.8-0.1-1-0.6
			c-0.3-0.8-0.4-0.8-1.1-0.3c-1.9,1.3-4,1.6-6.1,0.9c-2.1-0.7-3.4-2.7-3.4-5c0-2.3,1.3-4.1,3.7-4.9c1.2-0.4,2.4-0.6,3.6-0.6
			c0.6,0,1.1,0,1.7,0c1,0,1.1-0.1,0.7-1.1c-0.4-1-1.2-1.5-2.2-1.6c-1.5-0.2-3,0.1-4.4,0.8c-0.4,0.2-0.5,0.1-0.7-0.3
			c-0.3-0.6-0.6-1.3-0.9-1.8c-0.3-0.5-0.2-0.7,0.3-0.9c1.3-0.7,2.8-1.2,4.3-1.4c1.7-0.2,3.4-0.2,5.1,0.3c2.1,0.7,3.4,2.3,3.6,4.6
			C116.6,61.1,116.4,63.1,116.5,64.8z"/>
		<path class="st26" d="M27.3,64c-1.6,0-3.1,0-4.7,0c-0.6,0-0.6,0.2-0.5,0.7c0.4,1.6,2.1,2.7,4,2.8c1.6,0.1,3.1-0.3,4.5-1
			c0.4-0.2,0.5-0.1,0.7,0.3c0.2,0.7,0.5,1.4,0.8,2.2c0.1,0.2,0.1,0.4-0.2,0.6c-3.1,1.7-6.3,2.4-9.7,1.1c-2.5-0.9-4-2.9-4.6-5.4
			c-0.6-2.3-0.4-4.6,0.6-6.8c1.4-3.1,4.2-4.7,7.8-4.3c3.1,0.3,5.6,2.5,6.4,5.7c0.3,1.3,0.4,2.6,0.4,3.9c0,0.5-0.3,0.4-0.6,0.4
			C30.5,64,28.9,64,27.3,64z"/>
		<path class="st26" d="M58,64c-1.6,0-3.2,0-4.7,0c-0.4,0-0.6,0-0.4,0.5c0.4,1.6,2,2.8,4,2.9c1.6,0.1,3.1-0.3,4.5-1
			c0.4-0.2,0.6-0.1,0.7,0.3c0.2,0.7,0.5,1.5,0.8,2.2c0.1,0.2,0.1,0.4-0.1,0.5c-3.3,1.8-6.6,2.5-10.2,1c-1.9-0.8-3.2-2.3-3.8-4.2
			c-0.9-2.7-0.8-5.3,0.4-7.9c1.4-3.1,4.1-4.5,7.6-4.3c3,0.2,5.5,2.3,6.4,5.4c0.4,1.4,0.4,2.8,0.4,4.2c0,0.4-0.2,0.4-0.5,0.4
			C61.2,64,59.6,64,58,64z"/>
		<path class="st26" d="M96.3,49.2c0,1.8,0,3.4,0,5.1c0,0.4,0.1,0.6,0.6,0.6c1.4,0,2.8,0,4.1,0c0.4,0,0.5,0.1,0.4,0.5
			c-0.3,0.9-0.5,1.9-0.7,2.8c-0.1,0.4-0.3,0.5-0.7,0.5c-1.1,0-2.1,0-3.2,0c-0.4,0-0.5,0.1-0.5,0.5c0,2.2,0,4.3,0,6.5
			c0,1.3,0.7,1.8,2,1.7c0.7-0.1,1.3-0.3,1.9-0.6c0.2-0.1,0.4-0.1,0.5,0.2c0.3,0.8,0.6,1.5,0.9,2.2c0.2,0.4,0,0.5-0.3,0.7
			c-1.8,1.1-3.8,1.6-5.9,1.5c-0.6,0-1.2-0.1-1.8-0.3c-1.5-0.6-2.1-1.9-2.1-3.4c0-2.8,0-5.6,0-8.3c0-0.5-0.1-0.7-0.6-0.6
			c-0.7,0-1.3,0-2,0c-0.3,0-0.4-0.1-0.4-0.4c0-1,0-1.9,0-2.9c0-0.4,0.2-0.5,0.5-0.5c0.6,0,1.3,0,1.9,0c0.5,0,0.6-0.2,0.6-0.6
			c0-1.1,0-2.1,0-3.2c0-0.3,0-0.5,0.3-0.6C93.3,50.1,94.8,49.6,96.3,49.2z"/>
		<path class="st26" d="M87.7,56.8c0,0.5,0,1,0,1.5c0,0.5-0.2,0.5-0.5,0.4c-1.4-0.6-2.9-0.9-4.4-0.9c-0.4,0-0.8,0-1.2,0.2
			c-0.4,0.1-0.7,0.3-0.8,0.8c-0.1,0.5,0.1,0.8,0.5,1c0.5,0.3,1,0.5,1.5,0.7c1.1,0.4,2.1,0.7,3.1,1.3c1.8,1,2.8,2.5,2.6,4.6
			c-0.1,2.2-1.3,3.7-3.3,4.4c-3.3,1.1-6.5,0.8-9.7-0.8c-0.3-0.2-0.4-0.3-0.2-0.7c0.4-0.9,0.8-1.7,1.1-2.6c0.1-0.4,0.3-0.4,0.6-0.2
			c1.4,0.9,2.9,1.3,4.5,1.3c0.5,0,1-0.1,1.5-0.3c0.9-0.4,1-1.4,0.3-2.1c-0.4-0.4-0.9-0.6-1.4-0.8c-1-0.4-2-0.7-2.9-1.2
			c-2-1-2.9-2.5-2.7-4.7c0.2-2.1,1.4-3.4,3.3-4.1c2.7-0.9,5.3-0.6,7.9,0.2c0.3,0.1,0.3,0.2,0.3,0.5C87.7,55.7,87.7,56.3,87.7,56.8z"
			/>
		<path class="st26" d="M40.5,64.9c0.9-2.5,1.8-5,2.7-7.4c0.3-0.9,0.7-1.7,0.9-2.6c0.1-0.3,0.2-0.5,0.6-0.4c1.2,0,2.5,0,3.7,0
			c0.4,0,0.4,0.1,0.3,0.5c-2.2,5.3-4.4,10.6-6.6,15.9c-0.1,0.3-0.2,0.4-0.5,0.4c-0.9,0-1.7,0-2.6,0c-0.3,0-0.5-0.1-0.6-0.4
			c-2.2-5.3-4.4-10.5-6.6-15.8c-0.2-0.4-0.1-0.5,0.3-0.5c1.3,0,2.5,0,3.8,0c0.5,0,0.7,0.1,0.8,0.6c1.1,3.1,2.3,6.2,3.4,9.3
			C40.3,64.5,40.3,64.7,40.5,64.9z"/>
		<path class="st26" d="M123.3,57.7c0,4.2,0,8.4,0,12.6c0,0.6-0.1,0.8-0.7,0.8c-1.2,0-2.4,0-3.6,0c-0.4,0-0.5-0.1-0.5-0.5
			c0-8.1,0-16.1,0-24.2c0-0.4,0.1-0.5,0.5-0.6c1.3-0.4,2.6-0.7,3.8-1.2c0.5-0.2,0.6,0,0.6,0.4C123.3,49.2,123.3,53.4,123.3,57.7z"/>
		<path class="st26" d="M69.3,56.1c0.5-0.4,1-0.8,1.5-1.1c1.6-1,3.2-1.2,5-0.5c0.5,0.2,0.5,0.4,0.3,0.9c-0.5,1-0.9,2-1.3,3
			c-0.1,0.3-0.2,0.4-0.5,0.2c-1.5-0.7-2.9-0.5-4.3,0.5c-0.3,0.2-0.5,0.5-0.5,0.9c0,3.4,0,6.9,0,10.3c0,0.5-0.1,0.6-0.6,0.6
			c-1.2,0-2.4,0-3.7,0c-0.4,0-0.5-0.1-0.5-0.5c0-5.2,0-10.4,0-15.6c0-0.4,0.1-0.5,0.5-0.5c1,0,2,0,3,0c0.4,0,0.5,0.1,0.6,0.5
			C69,55.3,69.2,55.6,69.3,56.1z"/>
		<path class="st34" d="M124.6,36.8c-1.2-1.5-2.1-3-2.6-4.8c-0.5-1.5-0.1-2.7,1-3.8c1.4-1.3,3.1-2.2,4.8-3c0.3-0.2,0.7-0.3,1.1-0.4
			c0.4,0.2,0.4,0.6,0.5,0.9c0.4,1.5,0.9,3,1.3,4.5c0.1,0.2,0.2,0.5,0.2,0.7c0,0.2-0.2,0.3-0.3,0.4c-0.4,0.2-0.9,0.5-1.3,0.6
			c-0.1,0-0.2,0.1-0.3,0.1c-0.3,0.2-0.6,0.4-1,0.6c-0.8,0.5-1.6,1-2.2,1.8c-0.4,0.5-0.8,1.1-0.9,1.7
			C124.8,36.4,124.9,36.6,124.6,36.8z"/>
		<path class="st35" d="M143.4,40.9c-0.5,1.5-1.4,2.8-2.3,4.1c-0.3,0.5-0.7,0.8-1.2,1.2c-0.9,0.7-1.8,0.7-2.8,0.5
			c-0.1-0.3,0-0.6,0.2-0.8c1.1-1.3,2.2-2.6,3.3-4c0.2-0.2,0.4-0.5,0.7-0.6c0.4,0,0.8,0,1.2-0.1c0.3,0,0.5-0.2,0.7-0.3
			C143.3,40.8,143.3,40.9,143.4,40.9z"/>
		<path class="st36" d="M130.9,30.9c-0.3-0.1-0.3-0.4-0.4-0.6c-0.5-1.8-1-3.7-1.6-5.5c0.7-0.3,1.4-0.6,2.2-0.8
			c0.6,2.1,1.1,4.1,1.7,6.2C132.3,30.8,131.6,30.9,130.9,30.9z"/>
		<path class="st26" d="M132.8,30.2c-0.2,0-0.2-0.1-0.3-0.3c-0.5-1.8-1-3.6-1.5-5.4c-0.1-0.2-0.1-0.4,0-0.6c0.3-0.1,0.6-0.2,1-0.3
			c0.3,0,0.3,0.2,0.3,0.4c0.5,1.7,1,3.5,1.5,5.2c0.1,0.2,0.1,0.4,0,0.6C133.6,30.2,133.2,30.4,132.8,30.2z"/>
		<path class="st37" d="M136.2,46.4c-0.2,0-0.4-0.1-0.6-0.2c-0.1-0.1-0.3-0.1-0.4-0.2c-0.2-0.2-0.5-0.1-0.5-0.4c1-1.3,2-2.6,3.1-3.8
			c0.3-0.4,0.6-0.9,1.1-1.2c0.5,0.1,0.9,0.2,1.2,0.5c-0.9,1.2-1.9,2.4-2.9,3.5c-0.2,0.3-0.5,0.6-0.7,0.9c-0.2,0.2-0.4,0.4-0.1,0.7
			C136.6,46.4,136.4,46.5,136.2,46.4z"/>
		<path class="st38" d="M133.8,29.9c-0.1-1-0.5-2-0.8-3c-0.3-1.1-0.5-2.2-1-3.2c0.3-0.2,0.7-0.3,1.1-0.3c0.3,0.1,0.3,0.4,0.4,0.6
			c0.5,1.7,0.9,3.3,1.4,5c0.1,0.2,0.1,0.4,0,0.7C134.6,30,134.3,30.1,133.8,29.9z"/>
		<path class="st39" d="M136.2,46.4c0,0,0.1,0,0.1,0c-0.5-0.3-0.2-0.6,0-0.9c1.1-1.4,2.3-2.8,3.5-4.2c0.1-0.1,0.2-0.1,0.3-0.1
			c0.4-0.1,0.8-0.2,1.1,0.2c-0.5,0.2-0.7,0.7-1,1c-1,1.2-2,2.5-3.1,3.6c-0.2,0.2,0.1,0.5-0.1,0.6C136.8,46.6,136.5,46.6,136.2,46.4z
			"/>
		<path class="st40" d="M138.9,40.7c-1,1.2-2,2.5-3.1,3.7c-0.4,0.4-0.6,0.9-1.1,1.2c0,0.1-0.1,0.1-0.1,0.1c0,0-0.1,0-0.1,0
			c-0.1-0.3-0.5-0.2-0.6-0.5c0-0.2,0.1-0.4,0.2-0.5c1.3-1.5,2.5-3.1,3.8-4.5C138.4,40.1,138.7,40.2,138.9,40.7z"/>
		<path class="st41" d="M131.5,43.7c-0.1-0.1-0.2-0.1-0.3-0.2c-0.1-0.2-0.1-0.3,0.1-0.4c1.4-1.5,2.6-3.2,4-4.7
			c0.3,0,0.5,0.2,0.7,0.5c0.1,0.3-0.1,0.5-0.2,0.7c-0.9,1.1-1.9,2.3-2.8,3.4c-0.3,0.3-0.5,0.7-0.8,1C131.9,44,131.7,43.8,131.5,43.7
			z"/>
		<path class="st42" d="M130,42.5c-0.1-0.1-0.1-0.2-0.2-0.2c-0.1-0.2-0.3-0.2-0.3-0.4c0-0.1,0-0.3,0.1-0.4c1.3-1.5,2.5-3.1,3.9-4.6
			c0.3,0,0.5,0.2,0.7,0.5c0.1,0.2,0,0.4-0.1,0.6c-1.2,1.4-2.3,2.9-3.5,4.3c-0.1,0.1-0.2,0.2-0.3,0.3C130.1,42.5,130.1,42.5,130,42.5
			z"/>
		<path class="st43" d="M134.9,29.6c-0.1-1-0.5-1.9-0.7-2.9c-0.3-1.1-0.5-2.2-1-3.3c0.3-0.1,0.6-0.2,1-0.2c0.3,0.7,0.4,1.5,0.6,2.3
			c0.4,1.3,0.8,2.6,1.1,4C135.6,29.7,135.3,29.8,134.9,29.6z"/>
		<path class="st44" d="M135.3,38.4c-0.5,0.9-1.2,1.6-1.9,2.4c-0.7,0.8-1.4,1.6-2.1,2.4c-0.1,0.1-0.1,0.2-0.1,0.3c0,0-0.1,0-0.1-0.1
			c-0.1-0.2-0.3-0.4-0.5-0.5l0,0c0,0-0.1-0.1-0.1-0.2c0.4-0.7,1-1.3,1.5-1.9c0.7-0.8,1.3-1.7,2-2.5c0.2-0.2,0.3-0.4,0.6-0.5
			C135,37.9,135.2,38.1,135.3,38.4z"/>
		<path class="st45" d="M135.9,29.4c-0.5-0.5-0.5-1.3-0.7-1.9c-0.4-1.2-0.6-2.4-1-3.5c-0.1-0.3-0.1-0.5-0.1-0.8
			c0.2,0,0.4-0.1,0.6-0.1c0.3,0.4,0.3,0.8,0.5,1.2c0.4,1.5,0.8,3,1.3,4.5c0,0.2,0.1,0.3,0,0.5C136.4,29.5,136.2,29.5,135.9,29.4z"/>
		<path class="st46" d="M126.2,38.7c-0.1-0.1-0.1-0.1-0.2-0.2c0-0.1-0.1-0.2-0.1-0.3c0.7-1,1.5-1.9,2.3-2.9c0.6-0.7,1.2-1.5,1.8-2.2
			c0.4,0,0.5,0.3,0.6,0.6c-0.1,0.5-0.5,0.8-0.8,1.2c-1.1,1.3-2.1,2.6-3.2,3.9C126.4,38.9,126.3,38.8,126.2,38.7z"/>
		<path class="st47" d="M126.5,38.9c1.2-1.4,2.3-2.8,3.5-4.2c0.2-0.2,0.4-0.5,0.6-0.8c0.4,0,0.6,0.2,0.5,0.6
			c-1.1,1.5-2.3,2.9-3.5,4.3c-0.2,0.3-0.4,0.6-0.6,0.9c0,0-0.1-0.1-0.1-0.1C126.8,39.2,126.4,39.2,126.5,38.9z"/>
		<path class="st48" d="M128.3,40.9c-0.2-0.1-0.4-0.3-0.5-0.5c-0.1-0.2,0-0.3,0.1-0.5c1.3-1.6,2.5-3.2,3.9-4.7
			c0.3,0,0.5,0.2,0.5,0.5c0,0.2-0.1,0.3-0.2,0.4C130.9,37.8,129.7,39.4,128.3,40.9z"/>
		<path class="st49" d="M145.6,34.2c-0.1,0.2,0,0.5-0.2,0.7c-0.2,0.1-0.4,0-0.6,0c-1.6-0.4-3.2-0.9-4.9-1.3
			c-0.3-0.1-0.5-0.1-0.8-0.1c-0.1-0.2-0.1-0.5,0.1-0.7c0.2-0.2,0.4-0.3,0.6-0.2c1.9,0.5,3.7,1,5.6,1.5
			C145.5,34.1,145.5,34.2,145.6,34.2z"/>
		<path class="st50" d="M145.1,36.1c0,0.1,0,0.3-0.1,0.4c-1.8-0.5-3.6-1-5.4-1.5c-0.3-0.1-0.5-0.1-0.8-0.2c-0.1-0.4-0.1-0.7,0.2-0.9
			c0.1,0,0.1,0,0.2,0c1.8,0.4,3.7,1,5.5,1.5C145,35.4,145.3,35.6,145.1,36.1z"/>
		<path class="st51" d="M137.6,22.6c0.1,0.1,0.1,0.1,0.2,0.2c0.2,0.3,0.3,0.6,0.4,0.9c0.4,1.5,0.8,2.9,1.2,4.4
			c0.1,0.3,0.2,0.5,0,0.8c-0.1,0.1-0.2,0.1-0.3,0.1c-0.4,0-0.5-0.2-0.6-0.5c-0.5-1.8-1-3.5-1.5-5.3c0-0.2-0.1-0.4,0-0.5
			C137.3,22.6,137.4,22.5,137.6,22.6z"/>
		<path class="st52" d="M139.8,30.6c1.2,0,2.2,0.5,3.4,0.8c0.8,0.2,1.6,0.4,2.4,0.6c0.3,0.1,0.4,0.1,0.4,0.4c0,0.1,0,0.1,0,0.2
			c-0.1,0.1-0.2,0.1-0.3,0.1c-0.8,0-1.5-0.3-2.2-0.5c-1-0.3-2.1-0.5-3.1-0.9c-0.3-0.1-0.5-0.1-0.7,0.2c-0.1,0-0.1,0-0.2,0
			c-0.2-0.4-0.1-0.7,0.2-0.9C139.7,30.6,139.7,30.6,139.8,30.6z"/>
		<path class="st36" d="M139.5,31.6c0,0,0.1,0,0.1,0c0.1-0.1,0.3-0.1,0.5,0c1.8,0.5,3.7,0.9,5.5,1.5c0.1,0,0.1,0.1,0.1,0.1
			c0,0.2,0,0.5-0.1,0.7c-1.7-0.4-3.3-0.9-4.9-1.3c-0.4-0.1-0.9-0.2-1.3-0.3C139.2,32,139.2,31.7,139.5,31.6z"/>
		<path class="st53" d="M127.7,40.3c-0.2-0.1-0.4-0.3-0.5-0.6c-0.1-0.2,0-0.3,0.1-0.4c1.2-1.5,2.5-3,3.8-4.6c0,0,0.1-0.1,0.2-0.1
			c0.3,0,0.4,0.2,0.5,0.4c-0.1,0.7-0.7,1.1-1.1,1.6C129.7,37.9,128.6,39,127.7,40.3z"/>
		<path class="st26" d="M139.4,32.3c0.3-0.2,0.6-0.1,0.9,0c1.6,0.4,3.3,0.9,4.9,1.3c0.2,0,0.3,0.1,0.4,0.3c0,0.1,0,0.2,0,0.4
			c-1.1-0.1-2.1-0.5-3.2-0.8c-0.9-0.2-1.7-0.4-2.6-0.7c-0.2-0.1-0.4,0-0.5,0.1C139.1,32.6,139.1,32.4,139.4,32.3z"/>
		<path class="st54" d="M135.4,22.9c0.2,0,0.4-0.1,0.6-0.1c0.4,1.8,0.9,3.5,1.4,5.2c0.1,0.4,0.3,0.8,0,1.1c-0.1,0-0.1,0.1-0.2,0.1
			c-0.4,0-0.5-0.3-0.6-0.5c-0.5-1.7-1-3.4-1.4-5.1C135.1,23.3,135.1,23.1,135.4,22.9z"/>
		<path class="st55" d="M137.3,29.1c0.2-0.7-0.2-1.2-0.3-1.8c-0.3-1.3-0.7-2.6-1.1-3.9c-0.1-0.2,0-0.4,0.1-0.6c0.1,0,0.2,0,0.4,0
			c0.3,0.3,0.3,0.7,0.4,1c0.5,1.5,0.9,3,1.3,4.6c0.1,0.2,0.2,0.5,0.1,0.7C137.9,29.3,137.6,29.3,137.3,29.1z"/>
		<path class="st56" d="M135.4,22.9c-0.3,0.5,0.1,0.9,0.2,1.3c0.3,1.4,0.8,2.8,1.2,4.2c0.1,0.3,0.1,0.6,0.5,0.7
			c-0.2,0.4-0.5,0.3-0.7,0.1c-0.6-1.9-1.1-3.9-1.7-5.8c0-0.1,0-0.3,0-0.4C135,23,135.2,22.9,135.4,22.9z"/>
		<path class="st57" d="M138.8,34.8c0.1-0.1,0.2-0.2,0.4-0.1c1.8,0.5,3.7,1,5.5,1.5c0.2,0,0.2,0.1,0.3,0.3c0,0.2,0,0.3-0.1,0.5
			c-1.7-0.5-3.5-0.9-5.2-1.4c-0.3-0.1-0.7-0.2-1.1-0.2C138.5,35.1,138.6,34.9,138.8,34.8z"/>
		<path class="st58" d="M128.9,31.9c0-0.1,0.1-0.1,0.2-0.1c0.2,0.1,0.3,0.2,0.3,0.4c-0.1,0.6-0.6,1-0.9,1.4
			c-1.1,1.3-2.1,2.6-3.2,3.8c-0.1,0-0.2,0-0.3,0l0,0l0,0c0-0.2-0.2-0.3-0.2-0.4c0.7-1,1.5-1.9,2.3-2.9
			C127.7,33.3,128.3,32.6,128.9,31.9z"/>
		<path class="st59" d="M128.9,41.6c-0.1-0.1-0.2-0.2-0.4-0.3c-0.1-0.2-0.1-0.3,0.1-0.5c1.3-1.6,2.6-3.2,4-4.7
			c0.3,0,0.4,0.1,0.4,0.4c-0.2,0.7-0.8,1.1-1.2,1.6c-0.9,1.2-1.9,2.2-2.8,3.4C129,41.5,129,41.6,128.9,41.6z"/>
		<path class="st60" d="M144,39.5c0,0.1,0,0.3-0.1,0.3c-1.7-0.2-3.3-0.8-4.9-1.2c-0.5-0.1-1-0.1-1.3-0.5c-0.1-0.2,0-0.3,0.1-0.4
			c0.2-0.2,0.5-0.1,0.7,0c1.7,0.4,3.3,0.9,5,1.3C143.7,39.1,144.1,39.1,144,39.5z"/>
		<path class="st61" d="M131.2,34.7c-0.6,1-1.4,1.8-2.1,2.7c-0.6,0.8-1.3,1.6-1.9,2.4c-0.1,0-0.2-0.1-0.2-0.1c0-0.2,0-0.4,0.2-0.6
			c1.3-1.5,2.5-3,3.8-4.5c0,0,0.1-0.1,0.2-0.1C131.2,34.5,131.3,34.5,131.2,34.7z"/>
		<path class="st62" d="M138.1,29c-0.6-2.1-1.3-4.1-1.7-6.2c0.1-0.1,0.3-0.1,0.5-0.1c0.5,1.2,0.7,2.5,1.1,3.7
			c0.2,0.6,0.3,1.2,0.5,1.9c0.1,0.3,0.2,0.6-0.1,0.8C138.2,29.1,138.1,29.1,138.1,29z"/>
		<path class="st63" d="M144.4,38.5c-0.2,0.2,0,0.5-0.2,0.6c-1.6-0.5-3.3-0.9-4.9-1.3c-0.4-0.1-0.9-0.2-1.4-0.3
			c-0.1-0.3,0-0.5,0.2-0.7c0.9,0,1.7,0.4,2.6,0.6C141.9,37.7,143.2,38,144.4,38.5C144.3,38.4,144.4,38.5,144.4,38.5z"/>
		<path class="st38" d="M145.1,36.1c0-0.3-0.1-0.4-0.4-0.5c-1.6-0.4-3.2-0.9-4.8-1.3c-0.3-0.1-0.5-0.2-0.7-0.2
			c0-0.4,0.1-0.5,0.5-0.4c1.2,0.3,2.5,0.7,3.7,1c0.5,0.1,1,0.2,1.5,0.4c0.2,0.1,0.4,0.2,0.3,0.5C145.2,35.7,145.3,35.9,145.1,36.1z"
			/>
		<path class="st64" d="M137.7,38.1c1.8,0.5,3.5,0.9,5.3,1.4c0.3,0.1,0.7-0.1,0.9,0.3c0,0.2-0.1,0.4-0.2,0.6
			c-0.3-0.3-0.8-0.4-1.2-0.5c-1.4-0.4-2.7-0.7-4.1-1.1c-0.3-0.1-0.6-0.1-0.9-0.4C137.5,38.3,137.4,38.2,137.7,38.1z"/>
		<path class="st62" d="M144.5,38.1c0,0.1,0,0.3-0.1,0.4l0,0c-0.2-0.2-0.4-0.2-0.6-0.3c-1.6-0.5-3.3-0.9-4.9-1.3
			c-0.2-0.1-0.5-0.1-0.6-0.3c0-0.2,0-0.3,0.2-0.4c0.5-0.1,0.9,0.1,1.4,0.2c1.5,0.4,2.9,0.8,4.4,1.2
			C144.5,37.6,144.7,37.8,144.5,38.1z"/>
		<path class="st65" d="M137.5,38.5c1.9,0.5,3.8,1.1,5.7,1.6c0.2,0.1,0.4,0.1,0.4,0.4c0,0.1,0,0.2-0.1,0.3c-2.1-0.6-4.1-1.1-6.2-1.7
			C137.2,38.8,137.3,38.6,137.5,38.5z"/>
		<path class="st56" d="M138.7,35.3c0.2-0.3,0.4-0.1,0.7-0.1c1.7,0.4,3.3,0.9,5,1.3c0.2,0.1,0.5,0.1,0.6,0.3c0,0.1,0,0.3-0.1,0.4
			c-1.8-0.5-3.6-0.9-5.3-1.4c-0.3-0.1-0.6-0.1-0.9-0.1C138.4,35.5,138.5,35.4,138.7,35.3z"/>
		<path class="st66" d="M125.5,38c0,0,0-0.1,0-0.1c-0.2-0.4,0.1-0.7,0.3-0.9c1.1-1.3,2.1-2.5,3.1-3.8c0.2-0.2,0.3-0.5,0.6-0.7
			c0.2,0,0.3,0.2,0.3,0.4c0,0.2-0.1,0.4-0.2,0.5c-1.3,1.5-2.5,3.1-3.9,4.6C125.7,38.1,125.6,38.1,125.5,38z"/>
		<path class="st67" d="M129.5,32.5c-0.1,0.6-0.7,1-1,1.4c-0.9,1.2-1.9,2.3-2.8,3.5c-0.1,0.2-0.2,0.3-0.2,0.5c0,0-0.1-0.1-0.1-0.1
			c0-0.1-0.2-0.3-0.1-0.4c0.6-1,1.5-1.8,2.1-2.7c0.6-0.8,1.4-1.5,1.9-2.5C129.5,32.3,129.6,32.3,129.5,32.5z"/>
		<path class="st68" d="M132.6,36.1c-0.6,1-1.5,1.8-2.1,2.7c-0.6,0.8-1.4,1.5-1.9,2.5c-0.1-0.1-0.2-0.2-0.2-0.3c0.3-0.8,1-1.3,1.5-2
			c0.8-1.1,1.7-2.1,2.6-3.1C132.5,35.8,132.6,35.9,132.6,36.1z"/>
		<path class="st69" d="M137.9,37.5c0.5-0.3,1,0.1,1.5,0.2c1.4,0.4,2.8,0.8,4.2,1.2c0.2,0.1,0.4,0.1,0.5,0.3c0,0.1,0,0.3-0.1,0.4
			c-0.1-0.2-0.2-0.3-0.4-0.3c-1.8-0.5-3.6-1-5.4-1.4c-0.1,0-0.3-0.1-0.4,0C137.7,37.6,137.7,37.5,137.9,37.5z"/>
		<path class="st55" d="M144.5,38.1c0-0.2,0-0.4-0.3-0.5c-1-0.1-1.8-0.5-2.8-0.7c-1-0.3-2-0.5-3-0.7c-0.1-0.2-0.1-0.3,0.1-0.4
			c0.8-0.1,1.5,0.3,2.2,0.5c1.2,0.3,2.3,0.6,3.5,0.9c0.3,0.1,0.6,0.1,0.5,0.5C144.6,37.9,144.6,38,144.5,38.1z"/>
		<path class="st70" d="M138.3,29c0.3-0.5-0.1-0.9-0.2-1.4c-0.4-1.5-0.8-3.1-1.3-4.6c0-0.1-0.1-0.2,0-0.3c0.1,0,0.2,0,0.2,0
			c0.5,1.9,1.1,3.8,1.6,5.8c0.1,0.3,0.2,0.5,0.5,0.5C138.9,29.3,138.6,29.2,138.3,29z"/>
		<path class="st71" d="M137.3,39c0.7-0.1,1.3,0.3,2,0.4c1.3,0.3,2.6,0.7,3.8,1c0.2,0,0.3,0.1,0.4,0.3c0,0.1-0.1,0.1-0.1,0.2
			c-0.1,0-0.2,0-0.2,0c-1.8-0.4-3.6-1-5.4-1.4c-0.2-0.1-0.4-0.1-0.6-0.2C137.1,39.1,137.1,39,137.3,39z"/>
		<path class="st72" d="M144.6,37.7c0-0.3-0.3-0.3-0.5-0.4c-1.9-0.5-3.8-1-5.6-1.5c0,0,0-0.1,0.1-0.1c0.3-0.3,0.7,0,1,0
			c1.6,0.4,3.2,0.9,4.8,1.3c0.2,0.1,0.4,0.1,0.5,0.3C144.8,37.4,144.8,37.6,144.6,37.7z"/>
		<path class="st26" d="M145.3,35.5c0-0.3-0.2-0.4-0.5-0.4c-1.7-0.5-3.5-1-5.2-1.4c-0.3-0.1-0.4,0-0.4,0.3c0,0-0.1,0-0.1,0
			c-0.1-0.2-0.2-0.4,0.1-0.5c0.1-0.1,0.2-0.2,0.4-0.1c1.9,0.5,3.9,1.1,5.8,1.6C145.4,35.2,145.4,35.3,145.3,35.5z"/>
		<path class="st73" d="M127.7,40.3c0-0.7,0.6-1.1,1-1.5c0.8-1.1,1.7-2.1,2.6-3.2c0.1-0.2,0.3-0.3,0.3-0.6c0.2,0,0.3,0.1,0.2,0.3
			c-0.4,0.8-1.1,1.3-1.6,2c-0.8,1-1.6,1.9-2.3,2.8c-0.1,0.1-0.1,0.2-0.1,0.3C127.8,40.4,127.7,40.4,127.7,40.3z"/>
		<path class="st47" d="M128.9,41.6c0-0.1,0-0.1,0-0.2c0.4-0.1,0.5,0.3,0.6,0.5c0.1,0.1,0.2,0.3,0.2,0.4
			C129.4,42.1,129.2,41.9,128.9,41.6z"/>
		<path class="st74" d="M126.5,38.9c0.1,0.2,0.4,0.3,0.4,0.7c-0.3-0.2-0.5-0.5-0.7-0.8C126.3,38.8,126.4,38.8,126.5,38.9z"/>
		<path class="st75" d="M134,45.2c0.1,0.2,0.5,0.2,0.5,0.5c-0.3-0.2-0.6-0.2-0.9-0.5c0-0.1,0.1-0.1,0.1-0.2
			C133.9,45,134,45.1,134,45.2z"/>
		<path class="st76" d="M130.6,42.9c0,0,0,0.1,0,0.1c-0.3-0.1-0.5-0.3-0.6-0.5c0-0.1,0-0.1,0-0.2C130.4,42.4,130.5,42.6,130.6,42.9z
			"/>
		<path class="st75" d="M134.6,45.7c0,0,0.1-0.1,0.1-0.1c0.2,0.1,0.3,0.2,0.5,0.4c0,0,0.1,0.1,0,0.1c0,0,0,0,0,0
			C135.1,45.9,134.8,45.8,134.6,45.7z"/>
		<path class="st77" d="M125.5,38c0.1,0,0.1,0,0.2,0c0.1,0,0.2,0.1,0.2,0.2c0,0.1,0,0.2,0,0.3C125.8,38.4,125.6,38.2,125.5,38z"/>
		<path class="st78" d="M133.8,45.1c0,0-0.1,0.1-0.1,0.1c-0.2-0.1-0.4-0.2-0.5-0.3c0,0,0,0,0.1-0.1
			C133.5,44.7,133.7,44.8,133.8,45.1z"/>
		<path class="st79" d="M124.6,36.8c0.1-0.2,0-0.5,0.1-0.7c0.1,0.1,0.1,0.1,0.1,0.2c0,0.2,0,0.4-0.1,0.6
			C124.8,36.9,124.7,37,124.6,36.8C124.6,36.9,124.6,36.9,124.6,36.8z"/>
		<path class="st80" d="M131.5,43.7c0.3-0.1,0.4,0.1,0.6,0.2c0,0,0,0.1,0,0.1c-0.1,0-0.1,0-0.1,0C131.8,44,131.7,43.9,131.5,43.7z"
			/>
		<path class="st81" d="M130.6,43c0.3,0,0.5,0.2,0.5,0.5C130.9,43.3,130.7,43.2,130.6,43z"/>
		<path class="st82" d="M135.3,46c0,0,0-0.1,0-0.1c0.1,0.1,0.4,0,0.4,0.3C135.5,46.1,135.4,46.1,135.3,46z"/>
		<path class="st83" d="M133.2,44.8c-0.2,0-0.3-0.1-0.5-0.3c0,0,0.1-0.1,0.1-0.1c0.2,0,0.3,0,0.4,0.2
			C133.2,44.7,133.2,44.8,133.2,44.8L133.2,44.8z"/>
		<path class="st84" d="M132.8,44.6c0,0-0.1,0-0.1,0c-0.1-0.1-0.2-0.2-0.4-0.2c0,0,0.1-0.1,0.1-0.1c0.1,0,0.1,0,0.2,0
			C132.8,44.3,132.9,44.4,132.8,44.6z"/>
		<path class="st85" d="M132.5,44.3c0,0-0.1,0-0.1,0c-0.1-0.1-0.2-0.2-0.4-0.2c0,0,0.1,0,0.1,0C132.3,44,132.5,44.1,132.5,44.3z"/>
		<path class="st33" d="M125.3,37.4c0,0.1,0.1,0.3,0.1,0.4c-0.2-0.1-0.3-0.2-0.3-0.4C125.1,37.4,125.2,37.4,125.3,37.4z"/>
		<path class="st86" d="M124.7,36.9C124.7,36.9,124.7,36.9,124.7,36.9c0.1,0,0.2,0,0.2,0c0,0.1,0.1,0.3,0.1,0.4
			C124.9,37.2,124.7,37.1,124.7,36.9z"/>
		<path class="st87" d="M145.6,32.6c0.1,0,0.2,0,0.2,0c0,0.2,0,0.4-0.1,0.5c0,0,0,0,0,0C145.6,33,145.5,32.8,145.6,32.6z"/>
		<path class="st88" d="M139.4,28.9c-0.4-1.8-1-3.6-1.5-5.4c-0.1-0.2-0.2-0.5-0.1-0.7c0.2,0,0.4,0.2,0.5,0.3c0.6,1.6,1.1,3.3,1.4,5
			c0,0.2,0,0.5,0,0.7C139.6,29,139.5,29,139.4,28.9z"/>
		<path class="st60" d="M139.7,28.1c-0.6-1.6-1.1-3.3-1.4-5c0.4,0.3,0.6,0.7,0.9,1.2c0.2,0.6,0.4,1.2,0.5,1.8c0,0.5,0.1,1.1,0.1,1.6
			c0,0.1,0,0.2,0,0.2C139.8,28,139.8,28.1,139.7,28.1z"/>
		<path class="st18" d="M139.4,28.9c0.1,0,0.2,0,0.3,0c0,0.6-0.1,1.1-0.1,1.7c-0.1,0.3-0.1,0.6-0.1,1c-0.1,0.2-0.1,0.5-0.1,0.7
			c-0.1,0.2-0.1,0.4-0.1,0.6c-0.1,0.2-0.1,0.4-0.1,0.6c-0.1,0.1-0.1,0.3-0.1,0.5c-0.1,0.3-0.2,0.6-0.2,0.9c-0.1,0.1-0.1,0.3-0.1,0.5
			c-0.1,0.1-0.1,0.2-0.1,0.4c0,0,0,0.1-0.1,0.1c-0.1,0.1-0.1,0.2-0.1,0.4c-0.1,0.1-0.1,0.2-0.1,0.4c0,0.1,0,0.3-0.1,0.4
			c-0.1,0.2-0.2,0.4-0.2,0.6c-0.1,0.1-0.1,0.1-0.1,0.2c-0.1,0.1-0.2,0.2-0.1,0.4c-0.1,0.1-0.1,0.2-0.2,0.4c-0.1,0.2-0.2,0.3-0.2,0.5
			c-0.1,0.1-0.1,0.1-0.1,0.2c0,0.2-0.1,0.3-0.2,0.3c-0.2,0-0.3,0-0.5-0.1c-0.3-0.1-0.4-0.3-0.6-0.6c-0.2-0.2-0.4-0.3-0.6-0.5
			c-0.2-0.1-0.3-0.4-0.6-0.4c-0.3,0-0.4-0.3-0.6-0.6c-0.2-0.2-0.4-0.3-0.6-0.5c-0.3,0-0.4-0.3-0.5-0.5c-0.1-0.2-0.2-0.3-0.4-0.4
			c0-0.1-0.1-0.2-0.2-0.2c-0.2-0.2-0.2-0.4-0.5-0.5c-0.1-0.1-0.2-0.2-0.2-0.3c-0.1-0.1-0.2-0.3-0.4-0.4c-0.1-0.1-0.1-0.2-0.2-0.2
			c-0.1-0.2-0.3-0.4-0.5-0.6c-0.1-0.2-0.3-0.4-0.5-0.6c-0.2-0.1-0.2-0.2-0.3-0.3c-0.1-0.1-0.2-0.2-0.2-0.3c-0.1-0.1-0.1-0.2-0.2-0.3
			c-0.1-0.1-0.1-0.3-0.2-0.4c0.6-0.3,1.2-0.6,1.7-0.9c0.7-0.2,1.3-0.5,2-0.7c0.3-0.1,0.6-0.2,1-0.3c0.4-0.1,0.7-0.2,1.1-0.3
			c0.4,0,0.7-0.1,1-0.2c0.2,0,0.4,0,0.6-0.1c0.3,0,0.5,0,0.7-0.1c0,0,0.1,0,0.1,0c0.3,0,0.5,0,0.7-0.1c0.1,0,0.2,0,0.2,0
			c0.3,0,0.6,0,0.9-0.1C139.3,28.9,139.3,28.9,139.4,28.9z"/>
		<path class="st18" d="M111.5,65.2c0,0.3,0,0.6,0,0.9c0.1,0.6-0.2,0.9-0.7,1.1c-0.9,0.3-1.8,0.4-2.7,0.2c-1-0.2-1.6-1-1.6-1.9
			c0-0.9,0.5-1.5,1.5-1.8c1.1-0.3,2.2-0.2,3.3-0.3c0.3,0,0.3,0.2,0.3,0.4C111.5,64.3,111.5,64.8,111.5,65.2z"/>
		<path class="st18" d="M24.8,60.7c-0.8,0-1.6,0-2.4,0c-0.5,0-0.6-0.2-0.5-0.6c0.2-1.4,1.4-2.5,2.7-2.5c1.5-0.1,2.6,0.8,3,2.3
			c0.2,0.8,0.2,0.8-0.6,0.8C26.3,60.7,25.5,60.7,24.8,60.7z"/>
		<path class="st18" d="M55.6,60.7c-0.9,0-1.7,0-2.6,0c-0.2,0-0.4,0-0.4-0.3c0.3-1.9,1.8-3.3,3.9-2.7c1,0.3,1.8,1.5,1.9,2.6
			c0,0.3-0.1,0.4-0.4,0.4C57.3,60.7,56.4,60.7,55.6,60.7z"/>
		<path class="st74" d="M124.8,36.3c0-0.1,0-0.2,0-0.2c0.1-1,0.7-1.6,1.3-2.2c0.6-0.5,1.2-1,1.8-1.4c0.2,0.2,0,0.4-0.1,0.6
			c-0.8,1-1.7,2-2.5,3.1C125.2,36.3,125,36.5,124.8,36.3z"/>
		<path class="st89" d="M124.8,36.3c0.6-0.3,0.8-0.9,1.3-1.4c0.6-0.6,1.2-1.4,1.7-2.1c0.1-0.1,0.2-0.2,0.1-0.4
			c0.3-0.2,0.6-0.5,1-0.6c-0.2,0.8-0.9,1.2-1.3,1.8c-0.7,1-1.6,1.9-2.4,2.9c-0.1,0.1-0.2,0.2-0.3,0.3c0,0-0.1,0-0.1,0
			C124.8,36.7,124.8,36.5,124.8,36.3z"/>
		<path class="st90" d="M137,39.5c0.1-0.1,0.1-0.2,0.2-0.3c1.3,0.2,2.5,0.6,3.7,0.9c0.5,0.1,1.1,0.3,1.6,0.4
			c0.2,0.1,0.5,0.1,0.6,0.3c-0.2,0.2-0.3,0.3-0.6,0.3c-1.7-0.5-3.3-0.9-5-1.3c-0.1,0-0.1,0-0.2,0C137.2,39.8,136.9,39.8,137,39.5z"
			/>
		<path class="st91" d="M137.4,39.8c0.4-0.3,0.7,0.1,1.1,0.1c1.2,0.3,2.4,0.6,3.6,0.9c0.2,0.1,0.4,0.1,0.5,0.3
			c-0.4,0.2-0.9,0.1-1.3,0.1c-0.4-0.1-0.7-0.2-1.1-0.2c-0.4-0.2-0.8-0.3-1.2-0.5c-0.3-0.2-0.7-0.3-1-0.5
			C137.7,40.2,137.5,40.1,137.4,39.8z"/>
		<path class="st92" d="M137.4,39.8c0.2,0.1,0.3,0.2,0.5,0.3c-0.3,0.7-0.9,1.2-1.3,1.8c-0.8,1-1.6,2-2.5,3c-0.1,0.1-0.1,0.2-0.1,0.3
			c-0.1,0-0.2-0.1-0.2-0.1c-0.2-0.1-0.4-0.2-0.6-0.2c0,0,0-0.1,0-0.1c-0.1-0.3,0.1-0.5,0.3-0.6c1.1-1.3,2.2-2.6,3.3-4
			c0.1-0.2,0.3-0.4,0.6-0.3C137.4,39.8,137.4,39.8,137.4,39.8z"/>
		<path class="st93" d="M135.9,38.9c0.2,0.2,0.4,0.3,0.6,0.5c0.1,0.2,0,0.4-0.1,0.5c-1.2,1.5-2.4,2.9-3.6,4.4c0,0-0.1,0.1-0.1,0.1
			c0,0-0.1,0-0.1,0c-0.1-0.2-0.2-0.2-0.4-0.2c0,0,0-0.1,0-0.1c0.1-0.8,0.8-1.2,1.3-1.8c0.8-1,1.6-2,2.4-2.9
			C135.9,39.1,135.9,39,135.9,38.9z"/>
		<path class="st94" d="M132.9,36.4c0.2,0.1,0.4,0.3,0.5,0.5c-0.3,0.7-0.9,1.1-1.3,1.7c-0.8,1-1.7,2-2.5,3c-0.1,0.1-0.1,0.2-0.1,0.3
			c-0.2-0.2-0.4-0.3-0.6-0.5c1-1.4,2.2-2.7,3.3-4.1C132.5,37,132.7,36.7,132.9,36.4z"/>
		<path class="st83" d="M134,37.4c0.3,0.1,0.4,0.3,0.6,0.6c-1.3,1.6-2.7,3.3-4,4.9c-0.2-0.2-0.4-0.3-0.6-0.5
			c0.9-0.8,1.5-1.7,2.3-2.6c0.5-0.6,1-1.2,1.5-1.9C133.9,37.8,134.1,37.6,134,37.4z"/>
		<path class="st95" d="M129.8,32.9c0.1,0.1,0.2,0.2,0.3,0.3c-0.2,0.8-0.9,1.2-1.3,1.8c-0.7,1-1.6,2-2.4,2.9
			c-0.1,0.1-0.2,0.2-0.3,0.3c-0.1-0.1-0.2-0.2-0.2-0.2c0.6-1,1.4-1.8,2.1-2.7C128.5,34.5,129.3,33.8,129.8,32.9z"/>
		<path class="st96" d="M145.6,32.6c0.1,0.1,0.1,0.3,0.1,0.5c-1.6-0.4-3.2-0.8-4.8-1.3c-0.4-0.1-0.8-0.2-1.2-0.3c0-0.2,0-0.3,0-0.5
			c1.2,0.4,2.4,0.7,3.7,1C144.1,32.2,144.8,32.5,145.6,32.6z"/>
		<path class="st70" d="M138.2,36.9c0-0.1,0-0.3,0.1-0.4c1.2,0.3,2.5,0.6,3.7,1c0.6,0.2,1.3,0.4,2,0.5c0.3,0.1,0.4,0.2,0.5,0.4
			c-0.9,0-1.8-0.4-2.7-0.6C140.5,37.6,139.3,37.2,138.2,36.9z"/>
		<path class="st97" d="M132.6,44.3c0.4-0.9,1.2-1.5,1.8-2.3c0.7-0.9,1.5-1.7,2.1-2.7c0.2,0,0.3,0.1,0.5,0.1
			c0.1,0.1,0.2,0.2,0.3,0.3c-0.4,0-0.5,0.4-0.7,0.7c-1.2,1.4-2.3,2.8-3.4,4.2c-0.1,0-0.2-0.1-0.4-0.1
			C132.7,44.5,132.7,44.4,132.6,44.3z"/>
	</g>
</g>
</svg>
