<svg id="Слой_1" data-name="Слой 1" xmlns="http://www.w3.org/2000/svg" viewBox="0 0 146.1 91.8"><defs><style>.cls-1{}.cls-2{fill:#414141;}.cls-3{fill:#666;}.cls-4{fill:#969696;}.cls-5{fill:#5b5b5b;}.cls-6{fill:#727272;}.cls-7{fill:#424242;}.cls-8{fill:#444;}.cls-9{fill:#454545;}.cls-10{fill:#4a4a4a;}.cls-11{fill:#474747;}.cls-12{fill:#4e4e4e;}.cls-13{fill:#8b8b8b;}.cls-14{fill:#828282;}.cls-15{fill:#7c7c7c;}.cls-16{fill:#a5a5a5;}.cls-17{fill:#c6c6c6;}.cls-18{fill:#747474;}.cls-19{fill:#8e8e8e;}.cls-20{fill:#6e6e6e;}.cls-21{fill:#656565;}.cls-22{fill:#fefefe;}.cls-23{fill:#fdfdfd;}.cls-24{fill:#464646;}.cls-25{fill:#565656;}.cls-26{fill:#575757;}.cls-27{fill:#4f4f4f;}.cls-28{fill:#b3b3b3;}.cls-29{fill:#505050;}.cls-30{fill:#868686;}</style></defs><title>pepsico</title><g class="cls-1"><path class="cls-2" d="M136,61.23a17.27,17.27,0,0,1-3.93-.37,6.12,6.12,0,0,1-5-5.18,11.31,11.31,0,0,1,.1-4.88,6,6,0,0,1,4.71-4.64,17.1,17.1,0,0,1,7.29-.1,6.15,6.15,0,0,1,5.32,5.55,11.2,11.2,0,0,1-.12,4.39,6.25,6.25,0,0,1-5.55,5A17.09,17.09,0,0,1,136,61.23Z"/><path class="cls-2" d="M86.32,56.33h2.57c.31,0,.56,0,.6.42a.85.85,0,0,0,.25.42,3.78,3.78,0,0,0,3.7.05.93.93,0,0,0,.25-.92,1,1,0,0,0-.87-.74l-4.29-.72c-.75-.13-1.51-.23-2.24-.42a3.51,3.51,0,0,1-2.81-3A4.12,4.12,0,0,1,85.1,47,6.8,6.8,0,0,1,88.24,46a17.83,17.83,0,0,1,7.76.5A4.26,4.26,0,0,1,99.21,50c.07.43,0,.54-.45.54q-2.5,0-5,0c-.31,0-.47-.07-.54-.39a1.17,1.17,0,0,0-.83-.82,4.49,4.49,0,0,0-2.74-.1.87.87,0,0,0-.77,1c0,.53.46.6.87.67l6,1a7.66,7.66,0,0,1,1,.22,3.92,3.92,0,0,1,3.14,3.61,4.37,4.37,0,0,1-2.59,4.58,12.08,12.08,0,0,1-4.65.94,17.06,17.06,0,0,1-6.21-.63A4.16,4.16,0,0,1,83.25,57c-.07-.51.06-.68.58-.66C84.65,56.36,85.49,56.33,86.32,56.33Z"/><path class="cls-2" d="M66.34,53.45c0-2.21,0-4.42,0-6.63,0-.52.13-.7.68-.7,3.54,0,7.08,0,10.62,0a4,4,0,0,1,3.89,2.12,7.31,7.31,0,0,1,.5,4.49,4.32,4.32,0,0,1-4.4,3.51c-1.73-.08-3.47,0-5.2,0-.49,0-.67.14-.65.65,0,1.09,0,2.19,0,3.28,0,.48-.12.67-.64.66-1.4,0-2.8,0-4.2,0-.48,0-.6-.17-.6-.62C66.35,58,66.34,55.71,66.34,53.45Z"/><path class="cls-2" d="M122.69,52c-.76,0-1.52,0-2.28,0a.58.58,0,0,1-.7-.5,2.49,2.49,0,0,0-2.42-2,3,3,0,0,0-3.19,1.77,6.23,6.23,0,0,0,0,4.6,2.7,2.7,0,0,0,2.83,1.75,2.56,2.56,0,0,0,2.68-1.82c.2-.57.49-.68,1-.67,1.47,0,2.95,0,4.42,0,.45,0,.57.12.48.57a5.9,5.9,0,0,1-5.07,5.25,16.49,16.49,0,0,1-7,0,6.1,6.1,0,0,1-5.06-5.3,11.67,11.67,0,0,1,.07-4.53,6,6,0,0,1,4.67-4.84,16.18,16.18,0,0,1,7.56,0,6,6,0,0,1,4.83,5.1c.1.5,0,.75-.56.71C124.22,51.92,123.45,52,122.69,52Z"/><path class="cls-2" d="M50.5,53.44c0-2.19,0-4.37,0-6.56,0-.5.14-.63.63-.63q6.27,0,12.55,0c.48,0,.68.12.65.63,0,.78,0,1.57,0,2.35,0,.49-.16.59-.62.59-2.42,0-4.85,0-7.27,0-.6,0-.84.1-.8.76.06,1.14,0,1.15,1.18,1.15,2.09,0,4.18,0,6.27,0,.45,0,.63.1.61.59,0,.81,0,1.62,0,2.42,0,.44-.14.56-.57.56-2.23,0-4.47,0-6.7,0-.62,0-.89.14-.78.78a1.32,1.32,0,0,1,0,.43c-.09.56.13.72.7.72,2.42,0,4.85,0,7.27,0,.58,0,.74.17.71.72,0,.76,0,1.52,0,2.28,0,.38-.07.55-.51.55q-6.42,0-12.83,0c-.46,0-.48-.2-.48-.56C50.51,57.91,50.5,55.68,50.5,53.44Z"/><path class="cls-2" d="M33.26,53.47c0-2.19,0-4.37,0-6.56,0-.48.1-.66.62-.66,3.42,0,6.84,0,10.26,0a7.53,7.53,0,0,1,1.34.14,3.7,3.7,0,0,1,3.15,3,7.78,7.78,0,0,1,.06,3.33A4,4,0,0,1,45,56.14a54,54,0,0,1-5.91.08c-.58,0-.72.17-.69.72,0,1.09,0,2.19,0,3.28,0,.38-.12.49-.49.48-1.35,0-2.71,0-4.06,0-.47,0-.61-.14-.6-.6C33.27,57.89,33.26,55.68,33.26,53.47Z"/><path class="cls-2" d="M101.49,53.42c0-2.18,0-4.37,0-6.55,0-.45.11-.62.59-.61,1.33,0,2.66,0,4,0,.42,0,.58.1.58.55q0,6.66,0,13.32c0,.43-.11.58-.56.57-1.35,0-2.71,0-4.06,0-.47,0-.54-.19-.54-.59C101.5,57.88,101.49,55.65,101.49,53.42Z"/><path class="cls-3" d="M2,42.15c1.34,2,3.34,2.37,5.53,2.28a2.05,2.05,0,0,1,1-.18,17.51,17.51,0,0,0,4.49-.8A7.41,7.41,0,0,0,14.1,43a17.67,17.67,0,0,0,4.59-2.29c.31-.19.61-.4.91-.6a12,12,0,0,0,2.84-2.86c.23-.26.35-.62.68-.8a4.89,4.89,0,0,0,.5-4.2,3,3,0,0,1,1.21,2.39,6.7,6.7,0,0,1-.79,3.2c0,.44-.35.74-.55,1.09a11.36,11.36,0,0,1-2.85,2.86l-1,.73A24.22,24.22,0,0,1,15,44.88c-.35.12-.7.24-1.06.34a17.84,17.84,0,0,1-5,.85,1.74,1.74,0,0,1-1-.18A8.9,8.9,0,0,1,4.09,45a4.12,4.12,0,0,1-2.25-2.43C1.81,42.41,1.64,42.18,2,42.15Z"/><path class="cls-4" d="M6.85,40.86A8.26,8.26,0,0,1,4,40,3.08,3.08,0,0,1,3,35.4a2.92,2.92,0,0,0,.82,3,3.86,3.86,0,0,0,3,.9,1.1,1.1,0,0,1,.71-.19,12.21,12.21,0,0,0,3.67-.62,4.59,4.59,0,0,0,.92-.28,15.7,15.7,0,0,0,3.63-1.84,6.26,6.26,0,0,0,.79-.58,12.66,12.66,0,0,0,2.18-2.21,2.37,2.37,0,0,1,.54-.64c.82-1.56.62-2.61-.73-3.9a.15.15,0,0,1,.2,0,3,3,0,0,1,2.21,3.78c-.1.39-.24.77-.36,1.15,0,.34-.19.56-.34.83a11,11,0,0,1-2.46,2.6c-.31.2-.59.44-.89.64a21.44,21.44,0,0,1-4.11,2c-.31.12-.64.2-1,.3a17.07,17.07,0,0,1-4.24.72A.93.93,0,0,1,6.85,40.86Z"/><path class="cls-5" d="M4.72,48.28a10.5,10.5,0,0,0,5.22,1c.28-.23.62-.16.94-.19A25.18,25.18,0,0,0,15.7,48a9.49,9.49,0,0,0,.9-.33A20.78,20.78,0,0,0,21,45.37a3.45,3.45,0,0,0,.78-.57,11.74,11.74,0,0,0,2.91-2.93c.31-.27.4-.72.78-.93a7.7,7.7,0,0,0,1-3.37c.6,1.76,0,3.37-.69,5-.13.34-.19.71-.57.89a19.49,19.49,0,0,1-2.88,2.92c-.13.33-.45.46-.69.67a19.77,19.77,0,0,1-4.09,2.13c-.3.13-.61.24-.91.35a18.16,18.16,0,0,1-4.54,1A1.79,1.79,0,0,1,11,50.43a12.42,12.42,0,0,1-4.21-.56A6.42,6.42,0,0,1,4.4,48.45C4.4,48.19,4.53,48.19,4.72,48.28Z"/><path class="cls-6" d="M12,28.44a5.66,5.66,0,0,1,3-.07,2,2,0,0,1,1.59,2.78c0,.14,0,.28-.07.42a.93.93,0,0,1-.21.53A7.7,7.7,0,0,1,14.48,34l-.65.46a20.64,20.64,0,0,1-2.69,1.27c-.24.07-.45.2-.69.27a14.26,14.26,0,0,1-2.79.25A.92.92,0,0,1,7.08,36c-1-.12-1.92-.34-2.33-1.35A2.66,2.66,0,0,1,5.44,32,7.85,7.85,0,0,1,8,29.88c.15-.11.26-.06.33.1s-.31.45-.53.63A9.69,9.69,0,0,0,6.36,32,1.77,1.77,0,0,0,6,33.88a1.48,1.48,0,0,0,1.55.76c.17,0,.35,0,.52,0A7.41,7.41,0,0,0,10,34.42a2.58,2.58,0,0,0,.68-.23,8,8,0,0,0,2.08-1,4,4,0,0,0,.59-.34,4.51,4.51,0,0,0,1.42-1.47,1.56,1.56,0,0,0,.28-.5c.34-1.06,0-1.64-1-1.92a5.16,5.16,0,0,0-1.55-.21C12.28,28.73,12,28.8,12,28.44Z"/><path class="cls-7" d="M21.68,46.81l.67-.48.74,2.77c.62-.25.89-.92,1.45-1.25.15,0,.21,0,.18.19a12,12,0,0,1-4.22,3.83A12.23,12.23,0,0,1,11.12,53c.29-.44.7-.15,1.06-.17l1.05,0a5.07,5.07,0,0,0,1-.11A11.31,11.31,0,0,1,11,50.43l1-.12a6.45,6.45,0,0,1,1.54,1.14,3.4,3.4,0,0,0,3.59.56c1.18-.46,1.57-.24.4-1.4a2.2,2.2,0,0,1-.87-1.32l.78-.29c.57.34.82,1,1.21,1.44.64.79.64.81,1.57.34.47-.23.91-.51,1.35-.78.78-.48.78-.51.52-1.43A5.65,5.65,0,0,1,21.68,46.81Z"/><path class="cls-8" d="M11,49.21a2.56,2.56,0,0,1-1,0A17.1,17.1,0,0,1,8,45.89H9a.92.92,0,0,1,.4.48,12.5,12.5,0,0,0,1.39,2.32A.61.61,0,0,1,11,49.21Z"/><path class="cls-9" d="M20.11,34.69l.43-.75a16.3,16.3,0,0,1,2.57,2.54,1.86,1.86,0,0,1-.55.83l-.07,0A18,18,0,0,1,20.11,34.69Z"/><path class="cls-9" d="M25.5,40.94a2.87,2.87,0,0,1-.6,1c-.07,0-.15,0-.18-.08-.39-1-1-1.95-1.3-3l.61-.93A15.43,15.43,0,0,1,25.5,40.94Z"/><path class="cls-9" d="M6.85,40.86h.76a.85.85,0,0,1,.28.55,22.91,22.91,0,0,0,.55,2.41c.06.2.13.41,0,.6-.29,0-.59.11-.88,0A16.14,16.14,0,0,1,6.85,40.86Z"/><path class="cls-10" d="M7.08,36l.66,0a.79.79,0,0,1,.13.67,12.32,12.32,0,0,0-.1,1.82.87.87,0,0,1-.26.77,1.27,1.27,0,0,1-.73,0A18.32,18.32,0,0,1,7.08,36Z"/><path class="cls-11" d="M16.22,32a.63.63,0,0,1,.3-.47,14.72,14.72,0,0,1,2.71,1.35,1.37,1.37,0,0,1-.42.68A7.75,7.75,0,0,1,16.22,32Z"/><path class="cls-12" d="M25.23,43.41l.57-.89a6.52,6.52,0,0,1-.21,3.69A14,14,0,0,0,25.23,43.41Z"/><path class="cls-13" d="M9,29.37a3.49,3.49,0,0,1,1.15-.47c.09.08.3,0,.31.21a1.51,1.51,0,0,1-1.32.54A.3.3,0,0,1,9,29.37Z"/><path class="cls-14" d="M10.47,29.05l-.33-.15a3.15,3.15,0,0,1,1-.29c.12.13.39-.06.45.2A.89.89,0,0,1,10.47,29.05Z"/><path class="cls-9" d="M12.19,52.83c-.35.09-.75-.13-1.06.17a1.62,1.62,0,0,1-.7-.17c.06-.34.28-.15.45-.14A5.34,5.34,0,0,1,12.19,52.83Z"/><path class="cls-15" d="M11.59,28.76c-.16,0-.34,0-.46-.15a1.71,1.71,0,0,1,.85-.16c.16.22.41.11.61.17C12.32,29.07,12,29,11.59,28.76Z"/><path class="cls-16" d="M2,42.15c-.22.09-.09.3-.16.44a1.5,1.5,0,0,1-.21-1A.52.52,0,0,1,2,42.15Z"/><path class="cls-17" d="M18.7,29l-.2,0a.55.55,0,0,1-.57-.32C18.21,28.73,18.54,28.59,18.7,29Z"/><path class="cls-18" d="M4.72,48.28c-.13,0-.25,0-.32.18a1.26,1.26,0,0,1-.56-.62A1.78,1.78,0,0,1,4.72,48.28Z"/><path class="cls-19" d="M8.27,30c-.06-.12-.18-.11-.29-.14a1.09,1.09,0,0,1,.57-.29c.14,0,.29,0,.32.22C8.74,30.06,8.56,30.19,8.27,30Z"/><path class="cls-20" d="M10.87,52.69c-.14.07-.33,0-.45.14l-.56-.17A1.25,1.25,0,0,1,10.87,52.69Z"/><path class="cls-21" d="M24.71,48l-.18-.19.58-.65A1.08,1.08,0,0,1,24.71,48Z"/><path class="cls-18" d="M8.86,29.74c-.12,0-.24,0-.3-.16L9,29.37l.14.2C9.09,29.71,9,29.79,8.86,29.74Z"/><path class="cls-22" d="M139.15,53.49c0,.4,0,.81-.11,1.2a3.34,3.34,0,0,1-4.83,2.58,2.81,2.81,0,0,1-1.67-2,6.84,6.84,0,0,1,0-3.52,3.36,3.36,0,0,1,6.41,0A7.61,7.61,0,0,1,139.15,53.49Z"/><path class="cls-23" d="M40.43,52.69c-.54,0-1.09,0-1.63,0-.31,0-.42-.11-.41-.42,0-.71,0-1.42,0-2.13,0-.4.17-.46.51-.46,1,0,2,0,3.05,0s1.52.51,1.53,1.47S43,52.61,42,52.67c-.52,0-1,0-1.56,0Z"/><path class="cls-23" d="M73.74,52.69c-.54,0-1.09,0-1.63,0-.31,0-.42-.11-.41-.42,0-.71,0-1.42,0-2.13,0-.4.17-.46.51-.46,1,0,2,0,3.05,0s1.52.51,1.53,1.47-.45,1.45-1.49,1.51c-.52,0-1,0-1.56,0Z"/><path class="cls-22" d="M21.17,45.44a17.37,17.37,0,0,1-4.48,2.37.79.79,0,0,1-.48-.4c-.38-.68-.78-1.36-1.16-2-.11-.2-.25-.42-.1-.66a30.53,30.53,0,0,0,4.73-2.33A5.78,5.78,0,0,1,21.17,45.44Z"/><path class="cls-22" d="M12.7,39.9a25.59,25.59,0,0,0,4.12-2,6.35,6.35,0,0,1,2,3,15.24,15.24,0,0,1-4.68,2.33,7.65,7.65,0,0,1-1.2-2.28A1.3,1.3,0,0,1,12.7,39.9Z"/><path class="cls-22" d="M11,49.21a14.19,14.19,0,0,1-2-3.32A22.21,22.21,0,0,0,14,45c.44.15.52.6.7.93a7.7,7.7,0,0,1,1.16,2.15A16.31,16.31,0,0,1,11,49.21Z"/><path class="cls-22" d="M8.41,44.43a19.3,19.3,0,0,1-.79-3.57,22.78,22.78,0,0,0,4.18-.68c.24.11.31.35.39.57.28.7.55,1.41.9,2.08a.74.74,0,0,1,.09.74A16,16,0,0,1,8.41,44.43Z"/><path class="cls-22" d="M20.11,34.69a16.59,16.59,0,0,1,2.45,2.63,10.7,10.7,0,0,1-2.88,3,.78.78,0,0,1-.48-.39c-.48-.69-.92-1.41-1.42-2.09a.6.6,0,0,1-.15-.52A16.11,16.11,0,0,0,20.11,34.69Z"/><path class="cls-22" d="M23.42,38.81a11.59,11.59,0,0,1,1.48,3.08,10.5,10.5,0,0,1-3,3c-.49-.3-.55-.87-.73-1.33s-.71-1.13-.66-1.84A14.22,14.22,0,0,0,23.42,38.81Z"/><path class="cls-8" d="M13.18,43.57,11.8,40.19l.9-.29,1.43,3.29A2.6,2.6,0,0,1,13.18,43.57Z"/><path class="cls-8" d="M17.64,37.27l2.05,3-.87.59-2-3Z"/><path class="cls-8" d="M15.83,48.11,14,45l1-.31a27.78,27.78,0,0,0,1.73,3.1A2.53,2.53,0,0,1,15.83,48.11Z"/><path class="cls-8" d="M20.5,41.75l1.39,3.17a1.58,1.58,0,0,1-.71.52l-1.49-3.06A3.34,3.34,0,0,1,20.5,41.75Z"/><path class="cls-22" d="M11.11,35.56l2.74-1.31c.74.21,1,1,1.47,1.42a1.09,1.09,0,0,1,.48.82,13,13,0,0,1-3.7,1.86A4.67,4.67,0,0,1,11.11,35.56Z"/><path class="cls-22" d="M7.52,39.29A18.41,18.41,0,0,1,7.75,36a9.82,9.82,0,0,0,2.18-.24c.21,0,.41-.13.59.07a5.65,5.65,0,0,1,.74,2.77A10.77,10.77,0,0,1,7.52,39.29Z"/><path class="cls-23" d="M16.22,32a21.74,21.74,0,0,1,2.59,1.56,7.86,7.86,0,0,1-2.28,2.34,5.92,5.92,0,0,1-2.09-2.1Z"/><path class="cls-9" d="M14.44,33.84a24.52,24.52,0,0,1,2.09,2.1,2.22,2.22,0,0,1-.74.55l-1.95-2.24A1.55,1.55,0,0,1,14.44,33.84Z"/><path class="cls-24" d="M11.26,38.64a15.39,15.39,0,0,1-.74-2.77c.08-.33.35-.28.59-.3l1,2.79A1.88,1.88,0,0,1,11.26,38.64Z"/><path class="cls-22" d="M21.68,46.81a19.64,19.64,0,0,1,.82,2.33.49.49,0,0,1-.23.65,21.32,21.32,0,0,1-2.58,1.47.46.46,0,0,1-.66-.15A18.86,18.86,0,0,1,17.49,49,30.72,30.72,0,0,0,21.68,46.81Z"/><path class="cls-23" d="M16.71,49.3a23.05,23.05,0,0,0,2,2.34,13.78,13.78,0,0,1-3.16.91.74.74,0,0,1-.41-.06,8.62,8.62,0,0,1-3.11-2.18A27,27,0,0,0,16.71,49.3Z"/><path class="cls-22" d="M8.86,29.74l.27-.17a5.47,5.47,0,0,0,1.34-.52l1.12-.3a3,3,0,0,0,1-.14,5.72,5.72,0,0,1,1.67.23,1.43,1.43,0,0,1,.88,2.28c-.47.19-.9-.07-1.35-.11a4,4,0,0,0-.62-.15,2.19,2.19,0,0,0-.72-.12c.3,0,.56.14.86.15.51.21,1.14.11,1.53.6-.2.75-.86,1.07-1.4,1.51a5.62,5.62,0,0,1-1.51-.85c0-.05-.11-.1-.15-.15s0,.06.08.1c.38.39,1,.6,1,1.23a4.66,4.66,0,0,1-2.18,1c-.45-.44-.37-1.07-.57-1.59a3.2,3.2,0,0,0,.13.75,1.67,1.67,0,0,1-.11,1.12A7.11,7.11,0,0,1,8,34.87c-.23-.83.25-1.48.57-2.16a.3.3,0,0,1,.08-.11c-.11,0,0,.09-.09.1-.46.62-.5,1.45-1,2a1.46,1.46,0,0,1-1.86-1.51,3,3,0,0,1,1.13-2c.46-.44,1-.81,1.48-1.21A.78.78,0,0,0,8.86,29.74Z"/><path class="cls-25" d="M7.52,34.73a6.49,6.49,0,0,1,1-2.16.11.11,0,0,1,.16,0A21.19,21.19,0,0,0,8,34.87.51.51,0,0,1,7.52,34.73Z"/><path class="cls-26" d="M10.18,34.59l-.08-1.24c0-.3-.23-.65.15-.89l.47,1.85A.92.92,0,0,1,10.18,34.59Z"/><path class="cls-27" d="M12.9,33.32l-1.19-1.19c0-.18.09-.22.24-.11a6.08,6.08,0,0,1,1.49,1A1.08,1.08,0,0,1,12.9,33.32Z"/><path class="cls-25" d="M14.84,31.49,13.27,31c.05-.39.31-.18.49-.16a4.31,4.31,0,0,1,1.38.26A.36.36,0,0,1,14.84,31.49Z"/><path class="cls-26" d="M13.76,30.86c-.17,0-.37,0-.49.16l-1.13-.16c.28-.38.65-.17,1-.14Z"/><path class="cls-28" d="M13.13,30.72c-.32.11-.69-.13-1,.14-.14,0-.32.06-.36-.11s.13-.18.25-.16C12.4,30.63,12.79,30.5,13.13,30.72Z"/><path class="cls-15" d="M10.25,32.46c-.25.26,0,.6-.15.89a2.27,2.27,0,0,1-.12-1c0-.1,0-.28.12-.26S10.27,32.32,10.25,32.46Z"/><path class="cls-29" d="M11.95,32l-.24.11-.46-.34A.55.55,0,0,1,11.95,32Z"/><path class="cls-30" d="M8.69,32.59l-.16,0a.59.59,0,0,1,.27-.45C9,32.36,8.85,32.48,8.69,32.59Z"/></g></svg>