<?xml version="1.0" encoding="utf-8"?>
<!-- Generator: Adobe Illustrator 21.0.0, SVG Export Plug-In . SVG Version: 6.00 Build 0)  -->
<svg version="1.1" id="Слой_1" xmlns="http://www.w3.org/2000/svg" xmlns:xlink="http://www.w3.org/1999/xlink" x="0px" y="0px"
	 viewBox="0 0 146.1 91.8" style="enable-background:new 0 0 146.1 91.8;" xml:space="preserve">
<style type="text/css">
	.st0{}
	.st1{fill:#676767;}
	.st2{fill:#7F7F7F;}
	.st3{fill:#595959;}
	.st4{fill:#474747;}
	.st5{fill:#010101;}
	.st6{fill:#FEFEFE;}
	.st7{fill:#FDFDFD;}
	.st8{fill:#FCFCFC;}
</style>
<g class="st0">
	<path d="M21.6,29.9c0.1,0.3,0.4,0.2,0.6,0.2c9.1,1.4,15.9,9.2,16.1,18.5C38.6,57.9,32,66,23,67.8C10.6,70.2-0.7,60.4,0,47.8
		c0.5-8.8,7.4-16.3,16-17.7c0.2,0,0.5,0.1,0.6-0.3c0.3,0,0.5,0,0.8,0c0.1,0.1,0.2,0.1,0.3,0.1c0.1,0,0.2,0,0.3-0.1
		c0.8,0,1.6,0,2.5,0c0.1,0.1,0.2,0.1,0.3,0.1c0.1,0,0.2,0,0.3-0.1C21.2,29.9,21.4,29.9,21.6,29.9z"/>
	<path class="st1" d="M17.7,30c-0.1,0-0.2,0-0.3-0.1c0.1,0,0.2,0,0.3,0C17.8,29.9,17.8,30,17.7,30C17.8,30,17.8,30,17.7,30z"/>
	<path class="st2" d="M21,29.9c0,0.2-0.2,0.1-0.3,0.1c-0.1,0-0.1,0-0.1-0.1c0,0,0,0,0,0C20.9,29.9,20.9,29.9,21,29.9z"/>
	<path class="st3" d="M20.8,29.9c0,0,0,0.1,0,0.1c-0.1,0-0.2,0-0.3-0.1C20.6,29.9,20.7,29.9,20.8,29.9z"/>
	<path class="st4" d="M17.7,30c0,0,0-0.1,0-0.1c0.1,0,0.2,0,0.3,0C18,30,17.9,30,17.7,30z"/>
	<path d="M105,47c1.7-1.4,3.4-1.7,5.2-0.8c1.9,0.9,2.6,2.6,2.6,4.6c-0.1,3.8-3.3,6.1-6.8,4.9c-1.8-0.6-2.9-1.9-3.4-3.7
		c-0.5-2-0.4-4,0.3-6c0.8-2,2.2-3.3,4.3-3.9c1.1-0.3,2.3-0.6,3.4-0.8c0.3-0.1,0.4,0,0.5,0.3c0.4,1.5,0.4,1.5-1.1,1.9
		c-0.7,0.2-1.4,0.3-2.1,0.5C106.4,44.5,105.4,45.3,105,47z"/>
	<path d="M49.8,49c0-2,0-4.1,0-6.1c0-0.4,0-0.6,0.5-0.6c1.8,0,3.6,0,5.5,0c3,0.1,4.9,2.6,4.3,5.5c-0.4,2-2.2,3.3-4.6,3.4
		c-0.9,0-1.7,0-2.6,0c-0.4,0-0.5,0.1-0.5,0.5c0,1.2,0,2.4,0,3.5c0,0.4-0.1,0.6-0.5,0.5c-0.7,0-1.5,0.2-1.9-0.1
		c-0.4-0.3-0.1-1.2-0.1-1.9C49.7,52.2,49.8,50.6,49.8,49z"/>
	<path d="M66.1,45.7c3.1,0,5.3,2.1,5.3,5.1c0,3-2.2,5.2-5.3,5.1c-3.1,0-5.3-2.1-5.3-5.2C60.8,47.8,63,45.7,66.1,45.7z"/>
	<path d="M122.6,51.2c0,0.7,0,1.4,0,2c0,0.5,0.2,0.9,0.8,0.8c0.4,0,0.5,0.1,0.5,0.5c0,0,0,0.1,0,0.1C124,56,124,56,122.5,56
		c-0.7,0-1.4-0.3-1.8-0.9c-0.2-0.3-0.3-0.3-0.6-0.1c-1.2,0.9-2.5,1.2-4,0.9c-1.4-0.3-2.3-1.4-2.4-2.7c-0.1-1.4,0.6-2.5,2-3
		c1.3-0.5,2.6-0.5,4-0.3c0.4,0.1,0.5,0,0.5-0.4c0-0.9-0.7-1.6-1.7-1.7c-1.1-0.1-2.1,0.1-3.1,0.5c-0.4,0.2-0.5,0-0.7-0.3
		c-0.5-1.3-0.5-1.3,0.9-1.7c1.4-0.4,2.8-0.6,4.2-0.2c1.8,0.4,2.8,1.7,2.8,3.5C122.6,50,122.6,50.6,122.6,51.2z"/>
	<path d="M125.2,50.9c0-1.5,0-2.9,0-4.4c0-0.5,0.1-0.6,0.6-0.6c0.6,0.1,1.5-0.3,1.9,0.1c0.3,0.4,0.1,1.2,0.1,1.8c0,0.5,0,1,0,1.4
		c0,0.4,0.1,0.5,0.5,0.5c1.1,0,2.2,0,3.3,0c0.4,0,0.5-0.2,0.5-0.5c0-1,0-1.9,0-2.9c0-0.4,0.1-0.5,0.5-0.5c0.5,0,1,0,1.6,0
		c0.4,0,0.5,0.2,0.5,0.6c0,2.9,0,5.8,0,8.7c0,0.4-0.1,0.6-0.5,0.5c-0.7-0.1-1.5,0.3-1.9-0.1c-0.4-0.4-0.1-1.2-0.1-1.9
		c0-0.6,0.2-1.5-0.1-1.8c-0.4-0.4-1.2-0.1-1.9-0.1c-0.6,0-1.2,0-1.8,0c-0.4,0-0.5,0.1-0.5,0.5c0,1,0,2,0,3c0,0.4-0.1,0.5-0.5,0.5
		c-0.7,0-1.5,0.3-2-0.1c-0.4-0.4-0.1-1.2-0.1-1.9C125.2,52.8,125.2,51.8,125.2,50.9z"/>
	<path d="M88.5,51.5c-1,0-2,0-3.1,0c-0.4,0-0.5,0.1-0.4,0.5c0.3,1.2,1.4,2,2.7,2.1c1,0.1,1.9-0.2,2.7-0.6c0.4-0.2,0.5-0.2,0.7,0.2
		c0.6,1.4,0.6,1.4-0.8,1.8c-1.5,0.5-2.9,0.6-4.4,0.2c-2.9-0.9-4.3-3.9-3.2-6.9c1-2.6,4-3.9,6.7-2.7c2,0.9,2.9,2.9,2.7,5
		c0,0.4-0.2,0.4-0.5,0.4C90.6,51.5,89.5,51.5,88.5,51.5z"/>
	<path d="M82,45.9c-1.1,1.4-2.1,2.8-3.1,4.1c-0.4,0.4-0.4,0.7,0,1.2c1.1,1.4,2.2,2.9,3.4,4.5c-1,0-1.8,0-2.6,0
		c-0.3,0-0.4-0.2-0.5-0.4c-0.8-1.1-1.6-2.1-2.4-3.2c-0.2-0.2-0.3-0.4-0.6-0.4c-0.4,0-0.6,0-0.6,0.5c0,1,0,2,0,3.1
		c0,0.3-0.1,0.5-0.5,0.5c-0.5,0-1.1,0-1.6,0c-0.3,0-0.4-0.1-0.4-0.4c0-3,0-6,0-9c0-0.3,0.1-0.4,0.4-0.4c0.5,0,1.1,0,1.6,0
		c0.4,0,0.5,0.1,0.5,0.5c0,0.9,0,1.8,0,2.7c0,0.2-0.1,0.5,0.2,0.6c0.3,0.1,0.6,0.1,0.9-0.2c0.8-1,1.6-2,2.3-3c0.3-0.4,0.5-0.5,1-0.5
		C80.6,46,81.2,45.9,82,45.9z"/>
	<path d="M145.8,45.9c-1.2,1.5-2.2,2.9-3.3,4.2c-0.3,0.3-0.3,0.6,0,0.9c1.2,1.5,2.3,3,3.5,4.6c-1,0-1.8,0-2.7,0
		c-0.2,0-0.3-0.3-0.4-0.4c-0.8-1.1-1.6-2.1-2.4-3.2c-0.1-0.2-0.2-0.4-0.5-0.4c-0.4,0-0.7,0-0.7,0.5c0.1,1,0,2,0,3
		c0,0.4-0.1,0.5-0.5,0.5c-0.6,0-1.4,0.2-1.8-0.1c-0.4-0.3-0.1-1.1-0.1-1.7c0-2.5,0-4.9,0-7.4c0-0.4,0.1-0.6,0.6-0.6
		c0.6,0.1,1.4-0.2,1.8,0.1c0.4,0.4,0.1,1.2,0.1,1.8c0,0.5,0,0.9,0,1.4c0,0.2-0.2,0.5,0.2,0.6c0.3,0,0.6,0,0.8-0.3
		c0.7-1,1.5-1.8,2.1-2.8c0.4-0.6,0.8-0.8,1.5-0.7C144.6,46,145.1,45.9,145.8,45.9z"/>
	<path class="st5" d="M97,45.9c1.2,0,2.4,0,3.6,0c0.5,0,0.7,0.1,0.7,0.6c0,1.3,0,1.3-1.4,1.3c-1.6,0-1.6,0-1.6,1.7
		c0,1.9,0,3.7,0,5.6c0,0.5-0.1,0.6-0.6,0.6c-0.6,0-1.5,0.2-1.8-0.1c-0.4-0.3-0.1-1.2-0.1-1.8c0-1.8,0-3.6,0-5.3
		c0-0.5-0.1-0.6-0.6-0.6c-0.6,0-1.2,0-1.8,0c-0.1,0-0.3,0.1-0.4,0c-0.4-0.5-0.1-1.1-0.2-1.6c-0.1-0.4,0.3-0.3,0.5-0.3
		C94.5,45.9,95.8,45.9,97,45.9z"/>
	<path class="st6" d="M27.6,40c0.5,0,0.8,0.4,0.6,0.9c-0.5,1.3-1.1,2.7-1.7,4C24.4,50,22.3,55,20.2,60c-0.1,0.3-0.2,0.6-0.6,0.7
		c-0.5,0-0.6-0.3-0.7-0.7c-0.5-2.5-1.6-4.8-3.4-6.6c-2-2.1-4.4-3.5-7.3-4c-0.3-0.1-0.7-0.1-0.8-0.5c-0.1-0.5,0.3-0.6,0.6-0.7
		c6.3-2.6,12.7-5.2,19-7.9C27.3,40.1,27.5,40,27.6,40z"/>
	<path class="st6" d="M104.9,50.7c0-1.9,1.3-3.1,3.1-2.9c0.1,0,0.2,0,0.3,0c1.4,0.3,2.2,1.7,2,3.5c-0.2,1.6-1.3,2.6-2.7,2.6
		C106,53.9,104.9,52.6,104.9,50.7z"/>
	<path class="st6" d="M52.3,46.7c0-0.6,0-1.3,0-1.9c0-0.4,0.1-0.5,0.5-0.5c0.8,0,1.5,0,2.3,0c1.4,0.1,2.3,1,2.3,2.3
		c0,1.3-0.8,2.3-2.2,2.4c-0.9,0.1-1.7,0-2.6,0.1c-0.3,0-0.4-0.2-0.4-0.4C52.3,48,52.3,47.4,52.3,46.7z"/>
	<path class="st6" d="M63.4,50.8c0-2.1,1.4-3.4,3.3-3.1c1.5,0.3,2.4,1.9,2.1,3.8c-0.3,1.6-1.5,2.6-3,2.4
		C64.3,53.8,63.4,52.5,63.4,50.8z"/>
	<path class="st7" d="M120.2,52c-0.1,1.6-1.4,2.6-2.9,2.1c-0.6-0.2-1-0.6-1.1-1.2c-0.1-0.7,0.2-1.1,0.8-1.4c0.9-0.5,1.9-0.4,2.9-0.2
		C120.4,51.3,120.1,51.7,120.2,52z"/>
	<path class="st8" d="M87.3,50c-0.7,0-1.3,0-2,0c-0.2,0-0.4,0-0.3-0.3c0.1-1.1,1.2-2,2.3-2c1.2,0,2.1,0.7,2.3,1.8
		c0.1,0.4,0,0.6-0.4,0.5C88.6,49.9,87.9,50,87.3,50z"/>
</g>
</svg>
