<svg id="Слой_1" data-name="Слой 1" xmlns="http://www.w3.org/2000/svg" viewBox="0 0 146.1 91.8"><defs><style>.cls-1{}.cls-2{fill:#616161;}.cls-3{fill:#343434;}.cls-4{fill:#a5a5a5;}.cls-5{fill:#fefefe;}.cls-6{fill:#474747;}</style></defs><title>selectel</title><g class="cls-1"><path class="cls-2" d="M0,40.7c.25-.29.19-.67.27-1C1,36.63,3.07,35,6,34.18a18.91,18.91,0,0,1,6.51-.41c2.43.19,4.83.56,7.23,1,.37.06.46.2.46.55,0,1.24,0,2.47,0,3.71,0,.4-.14.47-.5.45-2.94-.2-5.88-.47-8.83-.49a10.83,10.83,0,0,0-2.95.25,2.13,2.13,0,0,0-1.81,1.87,2.26,2.26,0,0,0,1.27,2.29,23.32,23.32,0,0,0,4,1.55c2,.69,4,1.31,5.94,2.16A7,7,0,0,1,21.77,53c0,.34,0,.51-.41.51-1.79,0-3.58,0-5.36,0a.53.53,0,0,1-.57-.33A2.63,2.63,0,0,0,13.82,52c-2.19-.81-4.39-1.6-6.56-2.43A16.61,16.61,0,0,1,2.57,47,6.55,6.55,0,0,1,.16,43.2c0-.15,0-.36-.16-.45v-.57a1.17,1.17,0,0,0,0-.8Z"/><path class="cls-3" d="M146.09,62.38c-1.67,0-3.35,0-5,0-.51,0-.66-.11-.66-.65q0-14,0-28c0-.23,0-.45,0-.68,1.73,0,3.46,0,5.18,0,.41,0,.54.07.53.51Q146.08,48,146.09,62.38Z"/><path class="cls-3" d="M55.13,33.05a1.33,1.33,0,0,1,.05.62q0,14,0,28c0,.53-.1.72-.67.7-1.5,0-3,0-4.51,0-.34,0-.5,0-.49-.45q0-14.44,0-28.87Z"/><path class="cls-4" d="M0,41.38a.65.65,0,0,1,0,.8Z"/><path class="cls-3" d="M38.57,53.19c-2.17,0-4.33,0-6.5,0-.45,0-.58.1-.52.57a4,4,0,0,0,3.91,3.86,26.12,26.12,0,0,0,5.29-.19c.89-.07,1.78-.17,2.66-.28.31,0,.43,0,.42.37,0,1.14,0,2.28,0,3.42,0,.22,0,.38-.28.46a24.94,24.94,0,0,1-9.62,1.07,9,9,0,0,1-7.73-6,13.7,13.7,0,0,1,.16-10.76,8.62,8.62,0,0,1,6.12-5.17,13.37,13.37,0,0,1,7.69.25,7.51,7.51,0,0,1,5.37,6.81c.19,1.72.07,3.46.12,5.19,0,.44-.25.37-.51.37H38.57Z"/><path class="cls-3" d="M71.82,53.19c-2.17,0-4.33,0-6.5,0-.43,0-.54.1-.51.54a4,4,0,0,0,3.83,3.88A25.52,25.52,0,0,0,74,57.42c.91-.07,1.82-.18,2.72-.29.3,0,.4,0,.39.36,0,1.16,0,2.32,0,3.48,0,.21,0,.34-.27.41a23.51,23.51,0,0,1-10.35,1,8.79,8.79,0,0,1-6.86-5.49,13.79,13.79,0,0,1-.28-10.44,9,9,0,0,1,7.9-6.16,13,13,0,0,1,6.72.74,7.42,7.42,0,0,1,4.8,6.33,52.82,52.82,0,0,1,.14,5.53c0,.43-.28.32-.5.32H71.82Z"/><path class="cls-3" d="M129.46,53.19c-2.15,0-4.3,0-6.45,0-.51,0-.59.16-.55.62a4,4,0,0,0,3.79,3.81,25.1,25.1,0,0,0,5.4-.18c.87-.07,1.74-.17,2.61-.28.41-.05.52.07.51.48,0,1.08,0,2.17,0,3.25,0,.23,0,.43-.29.52a24.48,24.48,0,0,1-9.85,1A9,9,0,0,1,117,56.11a13.72,13.72,0,0,1,.37-10.55,8.68,8.68,0,0,1,6.38-5.09,13.26,13.26,0,0,1,7.68.45,7.37,7.37,0,0,1,5,6.2,46.08,46.08,0,0,1,.16,5.75c0,.38-.25.31-.46.31h-6.62Z"/><path class="cls-3" d="M95.22,57.49c1-.05,2-.1,3-.17.32,0,.48,0,.48.4,0,1.31,0,2.62,0,3.94,0,.19,0,.37-.26.4-3.08.34-6.17.77-9.24,0a8.65,8.65,0,0,1-6.09-5.59,13.37,13.37,0,0,1,.06-10.33,8.72,8.72,0,0,1,7.91-5.77,34.83,34.83,0,0,1,7.17.27c.37,0,.47.18.46.53,0,1.24,0,2.47,0,3.71,0,.42-.13.5-.52.48a49.55,49.55,0,0,0-6.33,0,2.92,2.92,0,0,0-3,2.35,14.34,14.34,0,0,0-.4,5.2,8.21,8.21,0,0,0,.31,1.85,3.18,3.18,0,0,0,3.38,2.69c1,0,2,0,3,0Z"/><path class="cls-2" d="M102.59,43.42c0-3.16,0-6.31,0-9.47,0-.44.1-.58.56-.57,1.62,0,3.23,0,4.85,0,.54,0,.62.17.61.64,0,2.05,0,4.11,0,6.16,0,.55.17.65.67.64,1.27,0,2.55,0,3.82,0,.41,0,.51.12.5.51q0,1.8,0,3.59c0,.41-.13.5-.52.5-1.31,0-2.62,0-3.94,0-.45,0-.54.14-.53.55,0,2.34,0,4.68,0,7,0,.44-.1.59-.56.58-1.63,0-3.27,0-4.91,0-.48,0-.55-.17-.55-.59C102.6,49.78,102.59,46.6,102.59,43.42Z"/><path class="cls-3" d="M.35,59.14c0-.68,0-1.37,0-2.05,0-.4.12-.47.49-.43,2.1.19,4.2.39,6.3.53a25.23,25.23,0,0,0,6.19,0,2.86,2.86,0,0,0,2.08-1.25c.15-.24.38-.23.6-.23,1.79,0,3.57,0,5.36,0,.38,0,.38.15.33.43A7.18,7.18,0,0,1,18,61.36a13.89,13.89,0,0,1-6.35,1.56A47.55,47.55,0,0,1,.69,61.76c-.29-.06-.35-.18-.35-.45C.36,60.58.35,59.86.35,59.14Z"/><path class="cls-3" d="M105.59,55.65c.86,0,1.71,0,2.57,0,.28,0,.43,0,.49.37a1.47,1.47,0,0,0,1.51,1.35,18.54,18.54,0,0,0,3.19,0c.43,0,.6.07.58.55,0,1.21,0,2.43,0,3.65,0,.21,0,.4-.29.42-1.53.12-3.05.38-4.6.38a6.39,6.39,0,0,1-6.42-6.23c0-.41.09-.51.49-.5C103.92,55.67,104.75,55.65,105.59,55.65Z"/><path class="cls-5" d="M35.93,48.94c-1.27,0-2.54,0-3.81,0-.35,0-.43-.07-.4-.44a3.54,3.54,0,0,1,3.82-3.59,9.67,9.67,0,0,1,1.82.09c1.9.32,2.68,1.15,2.81,3.05.06.87.06.87-.82.87Z"/><path class="cls-5" d="M69.15,48.94c-1.25,0-2.51,0-3.76,0-.36,0-.5-.07-.44-.47.24-1.55.76-2.89,2.45-3.35a7.13,7.13,0,0,1,4.2.14,2.64,2.64,0,0,1,1.77,2.59c.08,1.07.08,1.07-1,1.07Z"/><path class="cls-5" d="M126.86,48.94c-1.29,0-2.58,0-3.87,0-.31,0-.47-.05-.37-.41s.07-.45.12-.67A3.29,3.29,0,0,1,126,45a7.7,7.7,0,0,1,2.88.18A2.66,2.66,0,0,1,131,47.76c.1,1.18.1,1.18-1.09,1.18Z"/><path class="cls-6" d="M17.67,56.22a1.19,1.19,0,0,1-.29,0c0-.14.11-.06.17-.08a.39.39,0,0,1,.15,0Z"/></g></svg>