<?xml version="1.0" encoding="utf-8"?>
<!-- Generator: Adobe Illustrator 21.0.0, SVG Export Plug-In . SVG Version: 6.00 Build 0)  -->
<svg version="1.1" id="Слой_1" xmlns="http://www.w3.org/2000/svg" xmlns:xlink="http://www.w3.org/1999/xlink" x="0px" y="0px"
	 viewBox="0 0 146.1 91.8" style="enable-background:new 0 0 146.1 91.8;" xml:space="preserve">
<style type="text/css">
	.st0{opacity:1;}
	.st1{fill:#7D7D7D;}
</style>
<g class="st0">
	<g>
		<path class="st1" d="M28.5,51c0,4.6-3.7,8.3-8.3,8.3h-2.5c-4.6,0-8.3-3.7-8.3-8.3v-8.4c0-4.6,3.7-8.3,8.3-8.3h2.5
			c4.6,0,8.3,3.7,8.3,8.3L28.5,51L28.5,51z M35.5,37.9h1.4v-4.8c0-3.6-2.3-5.9-5.9-5.9H7.1c-3.6,0-5.9,2.3-5.9,5.9v4.8h1.4
			c2.6,0,4.5,2.3,4.5,4.8v4.8c0,2.5-1.9,4.8-4.5,4.8H1.2V57c0,3.6,2.3,5.9,5.9,5.9h23.8c3.6,0,5.9-2.3,5.9-5.9v-4.8h-1.4
			c-2.6,0-4.5-2.3-4.5-4.8v-4.8C30.9,40.2,32.8,37.9,35.5,37.9z"/>
		<path class="st1" d="M25,47.4c0,2.5-2.6,4.8-5.2,4.8h-1.4c-2.6,0-5.2-2.3-5.2-4.8v-4.8c0-2.5,2.6-4.8,5.2-4.8h1.4
			c2.6,0,5.2,2.3,5.2,4.8V47.4z M20.3,35.6h-2.6c-3.8,0-6.9,3.5-6.9,7.3v8c0,3.8,3.1,7.3,6.9,7.3h2.6c3.8,0,7.1-3.5,7.1-7.3v-8
			C27.4,39,24.1,35.6,20.3,35.6z"/>
		<path class="st1" d="M19.6,49.7h-0.1c-2,0-3.9-1.2-3.9-3.2v-1.9c0,0,0-0.7-0.7-0.7s-0.7,0.7-0.7,0.7v1.9c0,2.7,2.5,4.5,5.2,4.5
			h0.1c0,0,0.6,0,0.6-0.6C20.2,49.7,19.6,49.7,19.6,49.7"/>
	</g>
	<g>
		<path class="st1" d="M60,53.1h-2v-1.3c-0.2,0.1-0.4,0.3-0.7,0.5c-0.3,0.2-0.6,0.4-0.9,0.5c-0.3,0.2-0.7,0.3-1.1,0.4
			c-0.4,0.1-0.9,0.2-1.5,0.2c-1.1,0-2-0.3-2.7-1c-0.7-0.7-1.1-1.6-1.1-2.7c0-0.9,0.2-1.6,0.6-2.1s0.9-1,1.6-1.3
			c0.7-0.3,1.6-0.5,2.6-0.6c1-0.1,2.1-0.2,3.2-0.2v-0.3c0-0.4-0.1-0.8-0.2-1.1c-0.2-0.3-0.4-0.5-0.7-0.7c-0.3-0.2-0.6-0.3-1-0.3
			c-0.4,0-0.8-0.1-1.2-0.1c-0.5,0-1.1,0.1-1.7,0.2c-0.6,0.1-1.3,0.3-2,0.6h-0.1v-2c0.4-0.1,0.9-0.2,1.7-0.3c0.7-0.1,1.4-0.2,2.1-0.2
			c0.8,0,1.5,0.1,2.1,0.2c0.6,0.1,1.1,0.4,1.6,0.7c0.4,0.3,0.8,0.7,1,1.3c0.2,0.5,0.3,1.1,0.3,1.9L60,53.1L60,53.1z M58.1,50.3V47
			c-0.6,0-1.3,0.1-2.1,0.1c-0.8,0.1-1.4,0.2-1.9,0.3c-0.6,0.2-1,0.4-1.4,0.7c-0.3,0.3-0.5,0.8-0.5,1.4c0,0.7,0.2,1.2,0.6,1.5
			c0.4,0.3,1,0.5,1.9,0.5c0.7,0,1.3-0.1,1.9-0.4C57.1,51,57.6,50.6,58.1,50.3z"/>
		<path class="st1" d="M73.7,41.5L69,53.1h-2l-4.7-11.7h2.1l3.6,9.3l3.6-9.3H73.7z"/>
		<path class="st1" d="M78.4,39.5h-2.2v-2h2.2V39.5z M78.3,53.1h-2V41.5h2V53.1z"/>
		<path class="st1" d="M91.2,53.1h-2v-1.3c-0.2,0.1-0.4,0.3-0.7,0.5c-0.3,0.2-0.6,0.4-0.9,0.5c-0.3,0.2-0.7,0.3-1.1,0.4
			c-0.4,0.1-0.9,0.2-1.5,0.2c-1.1,0-2-0.3-2.7-1s-1.1-1.6-1.1-2.7c0-0.9,0.2-1.6,0.6-2.1c0.4-0.6,0.9-1,1.6-1.3
			c0.7-0.3,1.6-0.5,2.6-0.6c1-0.1,2.1-0.2,3.2-0.2v-0.3c0-0.4-0.1-0.8-0.2-1.1c-0.2-0.3-0.4-0.5-0.7-0.7c-0.3-0.2-0.6-0.3-1-0.3
			c-0.4,0-0.8-0.1-1.2-0.1c-0.5,0-1.1,0.1-1.7,0.2c-0.6,0.1-1.3,0.3-2,0.6h-0.1v-2c0.4-0.1,0.9-0.2,1.7-0.3s1.4-0.2,2.1-0.2
			c0.8,0,1.5,0.1,2.1,0.2c0.6,0.1,1.1,0.4,1.6,0.7c0.4,0.3,0.8,0.7,1,1.3c0.2,0.5,0.3,1.1,0.3,1.9L91.2,53.1L91.2,53.1z M89.3,50.3
			V47c-0.6,0-1.3,0.1-2.1,0.1c-0.8,0.1-1.4,0.2-1.9,0.3c-0.6,0.2-1,0.4-1.4,0.7c-0.4,0.3-0.5,0.8-0.5,1.4c0,0.7,0.2,1.2,0.6,1.5
			c0.4,0.3,1,0.5,1.9,0.5c0.7,0,1.3-0.1,1.9-0.4C88.2,51,88.8,50.6,89.3,50.3z"/>
		<path class="st1" d="M103.3,49.8c0,1.1-0.4,1.9-1.3,2.6s-2.1,1-3.6,1c-0.9,0-1.7-0.1-2.4-0.3c-0.7-0.2-1.3-0.4-1.8-0.7v-2.2h0.1
			c0.6,0.5,1.3,0.8,2.1,1.1c0.7,0.3,1.5,0.4,2.2,0.4c0.9,0,1.5-0.1,2-0.4c0.5-0.3,0.7-0.7,0.7-1.3c0-0.5-0.1-0.8-0.4-1
			c-0.3-0.2-0.8-0.4-1.5-0.6c-0.3-0.1-0.7-0.1-1.1-0.2c-0.5-0.1-0.9-0.2-1.2-0.3c-1-0.3-1.7-0.7-2.2-1.2c-0.4-0.5-0.7-1.2-0.7-1.9
			c0-0.5,0.1-0.9,0.3-1.4c0.2-0.4,0.5-0.8,0.9-1.1c0.4-0.3,0.9-0.6,1.5-0.8c0.6-0.2,1.3-0.3,2-0.3c0.7,0,1.4,0.1,2.1,0.3
			c0.7,0.2,1.3,0.4,1.8,0.6v2.1h-0.1c-0.5-0.4-1.1-0.7-1.8-0.9c-0.7-0.3-1.4-0.4-2.1-0.4c-0.7,0-1.3,0.1-1.8,0.4
			c-0.5,0.3-0.7,0.7-0.7,1.2c0,0.5,0.1,0.8,0.5,1.1c0.3,0.2,0.8,0.4,1.4,0.6c0.4,0.1,0.8,0.2,1.2,0.2c0.5,0.1,0.8,0.2,1.1,0.2
			c0.9,0.2,1.6,0.6,2.1,1.1C103.1,48.2,103.3,48.9,103.3,49.8z"/>
		<path class="st1" d="M115.2,53.1h-2v-1.3c-0.2,0.1-0.4,0.3-0.7,0.5c-0.3,0.2-0.6,0.4-0.9,0.5c-0.3,0.2-0.7,0.3-1.1,0.4
			c-0.4,0.1-0.9,0.2-1.5,0.2c-1.1,0-2-0.3-2.7-1s-1.1-1.6-1.1-2.7c0-0.9,0.2-1.6,0.6-2.1c0.4-0.6,0.9-1,1.6-1.3
			c0.7-0.3,1.6-0.5,2.6-0.6c1-0.1,2.1-0.2,3.2-0.2v-0.3c0-0.4-0.1-0.8-0.2-1.1c-0.2-0.3-0.4-0.5-0.7-0.7c-0.3-0.2-0.6-0.3-1-0.3
			c-0.4,0-0.8-0.1-1.2-0.1c-0.5,0-1.1,0.1-1.7,0.2c-0.6,0.1-1.3,0.3-2,0.6h-0.1v-2c0.4-0.1,0.9-0.2,1.7-0.3s1.4-0.2,2.1-0.2
			c0.8,0,1.5,0.1,2.1,0.2c0.6,0.1,1.1,0.4,1.6,0.7c0.4,0.3,0.8,0.7,1,1.3c0.2,0.5,0.3,1.1,0.3,1.9L115.2,53.1L115.2,53.1z
			 M113.2,50.3V47c-0.6,0-1.3,0.1-2.1,0.1c-0.8,0.1-1.4,0.2-1.9,0.3c-0.6,0.2-1,0.4-1.4,0.7c-0.3,0.3-0.5,0.8-0.5,1.4
			c0,0.7,0.2,1.2,0.6,1.5c0.4,0.3,1,0.5,1.9,0.5c0.7,0,1.3-0.1,1.9-0.4C112.2,51,112.8,50.6,113.2,50.3z"/>
		<path class="st1" d="M121,53.1h-2V36.9h2V53.1z"/>
		<path class="st1" d="M134.6,47.5H126c0,0.7,0.1,1.4,0.3,1.9c0.2,0.5,0.5,1,0.9,1.3c0.4,0.3,0.8,0.6,1.3,0.7c0.5,0.2,1,0.2,1.6,0.2
			c0.8,0,1.6-0.2,2.4-0.5c0.8-0.3,1.4-0.6,1.7-0.9h0.1v2.1c-0.7,0.3-1.3,0.5-2,0.7c-0.7,0.2-1.4,0.3-2.2,0.3c-1.9,0-3.4-0.5-4.5-1.6
			c-1.1-1-1.6-2.5-1.6-4.5c0-1.9,0.5-3.4,1.6-4.5c1-1.1,2.4-1.7,4.1-1.7c1.6,0,2.8,0.5,3.6,1.4c0.8,0.9,1.3,2.2,1.3,3.9L134.6,47.5
			L134.6,47.5z M132.7,46c0-1-0.3-1.8-0.8-2.4c-0.5-0.6-1.3-0.8-2.3-0.8s-1.9,0.3-2.5,0.9c-0.6,0.6-1,1.4-1.1,2.3L132.7,46L132.7,46
			z"/>
		<path class="st1" d="M145.9,49.8c0,1.1-0.4,1.9-1.3,2.6s-2.1,1-3.6,1c-0.9,0-1.7-0.1-2.4-0.3c-0.7-0.2-1.3-0.4-1.8-0.7v-2.2h0.1
			c0.6,0.5,1.3,0.8,2.1,1.1c0.7,0.3,1.5,0.4,2.2,0.4c0.9,0,1.5-0.1,2-0.4c0.5-0.3,0.7-0.7,0.7-1.3c0-0.5-0.1-0.8-0.4-1
			c-0.3-0.2-0.8-0.4-1.5-0.6c-0.3-0.1-0.7-0.1-1.1-0.2c-0.5-0.1-0.9-0.2-1.2-0.3c-1-0.3-1.7-0.7-2.2-1.2c-0.4-0.5-0.7-1.2-0.7-1.9
			c0-0.5,0.1-0.9,0.3-1.4c0.2-0.4,0.5-0.8,0.9-1.1c0.4-0.3,0.9-0.6,1.5-0.8c0.6-0.2,1.3-0.3,2-0.3c0.7,0,1.4,0.1,2.1,0.3
			c0.7,0.2,1.3,0.4,1.8,0.6v2.1h-0.1c-0.5-0.4-1.1-0.7-1.8-0.9c-0.7-0.3-1.4-0.4-2.1-0.4c-0.7,0-1.3,0.1-1.8,0.4
			c-0.5,0.3-0.7,0.7-0.7,1.2c0,0.5,0.1,0.8,0.5,1.1c0.3,0.2,0.8,0.4,1.4,0.6c0.4,0.1,0.8,0.2,1.2,0.2c0.5,0.1,0.8,0.2,1.1,0.2
			c0.9,0.2,1.6,0.6,2.1,1.1C145.7,48.2,145.9,48.9,145.9,49.8z"/>
	</g>
</g>
</svg>
