<?xml version="1.0" encoding="utf-8"?>
<!-- Generator: Adobe Illustrator 21.0.0, SVG Export Plug-In . SVG Version: 6.00 Build 0)  -->
<svg version="1.1" id="Слой_1" xmlns="http://www.w3.org/2000/svg" xmlns:xlink="http://www.w3.org/1999/xlink" x="0px" y="0px"
	 viewBox="0 0 146.1 91.8" style="enable-background:new 0 0 146.1 91.8;" xml:space="preserve">
<style type="text/css">
	.st0{}
	.st1{fill:#202020;}
	.st2{fill:#212121;}
	.st3{fill:#242424;}
	.st4{fill:#333333;}
	.st5{fill:#2E2E2E;}
	.st6{fill:#2A2A2A;}
	.st7{fill:#909090;}
	.st8{fill:#FEFEFE;}
	.st9{fill:#D7D7D7;}
	.st10{fill:#FDFDFD;}
	.st11{fill:#FBFBFB;}
	.st12{fill:#F4F4F4;}
	.st13{fill:#F9F9F9;}
	.st14{fill:#F3F3F3;}
	.st15{fill:#F5F5F5;}
	.st16{fill:#EAEAEA;}
	.st17{fill:#C9C9C9;}
	.st18{fill:#E6E6E6;}
	.st19{fill:#E1E1E1;}
	.st20{fill:#DADADA;}
	.st21{fill:#E4E4E4;}
	.st22{fill:#A5A5A5;}
	.st23{fill:#363636;}
	.st24{fill:#D3D3D3;}
	.st25{fill:#4B4B4B;}
	.st26{fill:#939393;}
	.st27{fill:#303030;}
	.st28{fill:#2F2F2F;}
	.st29{fill:#2B2B2B;}
	.st30{fill:#292929;}
	.st31{fill:#282828;}
	.st32{fill:#424242;}
	.st33{fill:#C8C8C8;}
	.st34{fill:#616161;}
	.st35{fill:#2C2C2C;}
	.st36{fill:#2D2D2D;}
	.st37{fill:#4E4E4E;}
	.st38{fill:#3C3C3C;}
	.st39{fill:#BDBDBD;}
	.st40{fill:#313131;}
	.st41{fill:#8A8A8A;}
	.st42{fill:#252525;}
	.st43{fill:#484848;}
	.st44{fill:#3B3B3B;}
	.st45{fill:#4F4F4F;}
	.st46{fill:#383838;}
	.st47{fill:#6B6B6B;}
	.st48{fill:#F6F6F6;}
	.st49{fill:#C2C2C2;}
	.st50{fill:#A9A9A9;}
</style>
<g class="st0">
	<path class="st1" d="M1.2,62.8c5.1,0,10.3,0,15.4,0c0.6,0,0.8,0.2,0.7,0.8c-0.1,0.8,0,1.5,0,2.3c0,0.4-0.1,0.6-0.6,0.6
		c-1.5,0-3.1,0-4.6,0c-0.6,0-0.7,0.2-0.7,0.7c0,5.7,0,11.3,0,17c0,0.6-0.1,0.8-0.8,0.8c-0.9-0.1-1.9-0.1-2.8,0
		c-0.6,0-0.7-0.2-0.7-0.7c0-5.6,0-11.2,0-16.9c0-0.7-0.2-0.9-0.9-0.9c-1.7,0.1-3.4,0-5.1,0C1.2,65.2,1.2,64,1.2,62.8z"/>
	<path class="st1" d="M134,91.8c0-2,0-4,0-5.9c0-0.5-0.1-0.7-0.6-0.7c-1.1-0.1-2.2-0.3-3.3-0.8c-2.9-1.4-4.3-3.8-4.4-6.9
		c-0.1-3.3,1.4-5.7,4.3-7.3c1-0.5,2.1-0.9,3.3-0.9c0.5,0,0.6-0.2,0.6-0.7c0-1.1,0-2.1,0-3.2c0-0.4,0.1-0.6,0.5-0.7
		c1-0.3,1.9-0.7,2.8-1.1c0.5-0.2,0.6-0.1,0.6,0.4c0,1.5,0,3,0,4.6c0,0.5,0.1,0.7,0.7,0.7c3.6,0.3,6.4,2.5,7.3,5.8
		c1.3,5-2,9.7-7.1,10.2c-0.6,0.1-0.8,0.2-0.8,0.9c0.1,1.3,0,2.6,0,3.8c0,0.3,0,0.5-0.3,0.6C136.4,90.9,135.3,91.3,134,91.8z"/>
	<path class="st1" d="M111.5,88.5c0-0.9,0-1.8,0-2.7c0-0.4-0.1-0.6-0.5-0.6c-1.1-0.1-2.2-0.3-3.2-0.8c-2.7-1.2-4.2-3.4-4.4-6.4
		c-0.5-5.6,3.7-8.4,7.5-8.8c0.6-0.1,0.7-0.2,0.7-0.8c0-1,0-2.1,0-3.1c0-0.4,0.1-0.6,0.5-0.7c1-0.3,1.9-0.7,2.8-1.1
		c0.5-0.2,0.6-0.1,0.6,0.4c0,1.5,0,3,0,4.5c0,0.6,0.1,0.7,0.7,0.8c3.3,0.4,5.9,1.9,7,5.3c1.7,5.1-1.6,10.2-6.9,10.7
		c-0.6,0.1-0.8,0.2-0.8,0.9c0.1,1.3,0,2.6,0,3.8c0,0.3-0.1,0.5-0.4,0.7c-1,0.4-2.1,0.8-3.1,1.2c-0.4,0.1-0.5,0.1-0.4-0.3
		C111.6,90.4,111.5,89.4,111.5,88.5z"/>
	<path class="st1" d="M61.9,23.2c2.6,0,4.9,0,7.3,0c-0.5-1.4-1.7-2.4-2.8-2.4c-0.9,0-1.6,0.3-1.9,1.2c-0.2,0.7-0.6,0.6-1.1,0.5
		c0.2-1,0.7-1.7,1.5-2.1c1.4-0.8,2.9-1.7,4.3-2.5c0.4-0.2,0.5-0.4,0.4-0.9c-0.4-1.8-0.6-3.6-1-5.4c-0.2-0.9,0.2-1.5,0.8-2
		c1.5-1.1,3.3-1.4,5.2-1.2c1.1,0.1,2.2,0.4,3.1,1.1c0.7,0.5,1.1,1.2,0.9,2.2c-0.4,1.8-0.6,3.6-1,5.4c-0.1,0.4,0,0.5,0.4,0.7
		c1.5,0.8,2.9,1.7,4.4,2.5c0.7,0.4,1.1,0.9,1.4,1.6c0.1,0.2,0.3,0.5,0,0.6s-0.6,0.2-0.8-0.3c-0.4-1.1-1.1-1.5-2.1-1.4
		c-0.9,0.1-2.5,1.4-2.7,2.2c-0.1,0.4,0.2,0.2,0.4,0.2c1.3,0,2.7,0,4,0c0.9,0,1.9,0,2.8,0c0.1,0.3-0.1,0.4-0.2,0.6
		c-0.6,1.1-0.8,2.3-0.8,3.6c0,4.8-0.1,9.6,0,14.4c0.1,4.3-3,6.1-6.1,6.2c-0.3,0-0.6,0-0.9,0c-1.4-0.1-2.7,0.1-3.6,1.4
		c-0.9-1.2-2.1-1.4-3.4-1.4c-1.1,0-2.1,0-3.2-0.3c-2.5-0.7-4.1-2.7-4.1-5.3c0-4.6,0-9.1,0-13.7C63.1,26.9,63.1,25,61.9,23.2z"/>
	<path class="st1" d="M22.3,78.8c0.9-1.3,1.8-2.7,2.7-4c1.1-1.6,2.1-3.3,3.2-4.9c0.2-0.3,0.4-0.5,0.7-0.5c1.1,0,2.1,0,3.2,0
		c0.4,0,0.5,0.1,0.5,0.5c0,4.8,0,9.6,0,14.4c0,0.5-0.2,0.6-0.6,0.5c-1,0-2,0-3,0c-0.5,0-0.6-0.1-0.6-0.6c0-2.6,0-5.2,0-7.7
		c0-0.2,0-0.5,0-0.7c-0.1,0-0.1,0-0.2-0.1c-0.2,0.3-0.4,0.5-0.5,0.8c-1.7,2.6-3.5,5.1-5.2,7.7c-0.3,0.4-0.6,0.6-1.1,0.6
		c-0.9,0-1.8,0-2.7,0c-0.6,0-0.8-0.1-0.8-0.7c0-4.3,0-8.7,0-13c0-1.7,0-1.7,1.7-1.7c0.6,0,1.2,0,1.8,0c0.5,0,0.6,0.1,0.6,0.6
		c0,2.7,0,5.4,0,8c0,0.2,0,0.5,0,0.7C22.2,78.8,22.2,78.8,22.3,78.8z"/>
	<path class="st1" d="M50.9,77.2c0,2.4,0,4.7,0,7.1c0,0.5-0.1,0.7-0.6,0.6c-0.9,0-1.8,0-2.8,0c-0.6,0-0.8-0.1-0.8-0.7
		c0-1.7,0-3.4,0-5.1c0-0.5-0.1-0.6-0.6-0.6c-1.6,0-3.3,0-4.9,0c-0.5,0-0.6,0.2-0.6,0.7c0,1.7,0,3.5,0,5.2c0,0.4-0.1,0.6-0.6,0.6
		c-1,0-2,0-3,0c-0.4,0-0.6-0.1-0.6-0.5c0-4.8,0-9.7,0-14.5c0-0.4,0.1-0.5,0.5-0.5c1.1,0,2.1,0,3.2,0c0.4,0,0.5,0.2,0.5,0.5
		c0,1.6,0,3.2,0,4.8c0,0.5,0.1,0.6,0.6,0.6c1.7,0,3.3,0,5,0c0.5,0,0.6-0.2,0.6-0.6c0-1.6,0-3.1,0-4.7c0-0.4,0.1-0.6,0.6-0.6
		c1,0,2,0,3,0c0.5,0,0.5,0.2,0.5,0.6C50.9,72.4,50.9,74.8,50.9,77.2z"/>
	<path class="st1" d="M101.1,77.4c0,0.8-0.1,1.9-0.5,2.9c-1.2,3.5-4.4,5.4-8.1,4.9c-4.3-0.6-6.8-3.8-6.5-8.4c0-0.8,0.1-1.7,0.4-2.5
		c0.9-3,3.3-5,6.4-5.1C97.9,68.9,101.2,72.1,101.1,77.4z"/>
	<path class="st1" d="M85.3,84.9c-1.6,0-3.1,0-4.6,0c-0.4,0-0.5-0.3-0.6-0.5c-1.5-2.1-3-4.2-4.5-6.2c-0.1-0.2-0.3-0.4-0.6-0.8
		c0,2.3,0,4.4,0,6.5c0,1,0,1-1,1c-0.9,0-1.7,0-2.6,0c-0.4,0-0.5-0.1-0.5-0.5c0-4.9,0-9.7,0-14.6c0-0.4,0.2-0.5,0.5-0.5c1,0,2,0,3,0
		c0.5,0,0.6,0.2,0.6,0.6c0,2,0,3.9,0,5.9c0.3,0.1,0.3-0.2,0.4-0.3c1.6-1.9,3.2-3.8,4.8-5.6c0.3-0.3,0.5-0.4,0.9-0.4
		c1.3,0,2.7,0,4.2,0c-0.9,1.1-1.8,2.1-2.6,3.1c-1,1.2-2,2.4-3.1,3.6c-0.3,0.3-0.3,0.5,0,0.9C81.4,79.6,83.3,82.2,85.3,84.9z"/>
	<path class="st1" d="M83.6,13c1.1,0,2.2,0.1,2.8-0.9c0.6-1-0.1-1.8-0.7-2.5c1.1-0.4,2.2-0.2,2.8,0.7c0.2,0.3,0.4,0.2,0.6,0.1
		c0.7-0.4,1.5-0.5,2.2,0c0.3,0.2,0.4,0.3,0.1,0.6s-0.6,0.6-0.9,1c-0.8,1.1-1.6,2.3-3,2.9c1.8,0.9,3.2,0.4,5.3-1.9
		c1.7,2.5,1.7,4.1-0.7,6.2c2.6,1.1,4.1,3.2,5.6,5.4c1,1.5,2.2,2.8,3.8,3.6c0.3,0.1,0.3,0.3,0.1,0.5c-0.3,0.4-0.6,0.7-1.2,0.7
		c-0.4,0-0.8,0-1.3,0c0.8,1.1,1,2.4,1.2,3.7c0.2,1.1,0.7,2.1,1.8,2.5c0.3,0.1,0.3,0.2,0.2,0.5c-0.3,0.8-0.8,1.4-1.8,1.3
		c0.2,0.5,0.7,0.6,0.9,1c-1.3,0.8-2.5,0.5-3.3-0.7c-0.5-0.7-0.7-1.5-0.8-2.3c0-0.2,0-0.6-0.4-0.5c-0.3,0.1-0.3,0.4-0.2,0.7
		c0.8,1.6,0.4,3.2-0.3,4.8c-0.3,0.7-0.6,1.3-0.9,2c-0.5,1.1-0.7,2.2-0.1,3.3c-1.1-0.1-2.1-0.1-3-0.5c-0.3-0.2-0.4-0.1-0.5,0.2
		c-0.1,0.2-0.1,0.5-0.2,0.7s0.1,0.6-0.2,0.7c-0.3,0-0.6-0.2-0.8-0.5c-0.1-0.1-0.2-0.3-0.3-0.5c-1.2,2.2-3.2,3.1-5.7,3.2
		c0.9-1.4,0.9-3,1.1-4.4c0.1-1,0.5-2,1.1-2.8c0.3-0.4,0.2-0.5-0.1-0.8c-0.7-0.5-1-1.1-0.9-2c1.4,0.5,2.8,0.4,4.2-0.1
		c0.7-0.3,1.2-0.6,1.7-1.2c0.1-0.2,0.3-0.4,0.1-0.6c-0.2-0.2-0.4,0-0.5,0.2c-0.8,0.8-1.8,0.7-2.8,0.5c-0.5-0.1-0.6-0.4-0.3-0.8
		c0.4-0.4,0.3-0.7-0.1-0.9c-0.1-0.1-0.2-0.2-0.3-0.4c-0.2-0.3-0.2-0.5,0.2-0.5c0.4-0.1,0.8-0.1,1.2-0.2c0.1-0.1,0-0.2-0.1-0.3
		c-0.3-0.8-0.2-1,0.7-0.9c0.8,0.1,1.6-0.1,2.4-0.4c0.2-0.1,0.4-0.2,0.5-0.5c0.1-0.2,0.2-0.4,0-0.6c-0.2-0.2-0.3,0-0.5,0.1
		C91,33,89.5,33.3,88,33c-0.4-0.1-0.8-0.2-1.1-0.5c0.3-0.3,0.8-0.4,1-0.9c-1-0.3-1.9-0.6-2.2-1.8c0.8-0.1,1.6,0,2.3-0.4
		c-0.4-0.3-0.9-0.5-1-1.1c1.1-0.2,2.1-0.6,2.4-2.1c-0.8,0.3-1.6,0.5-2.4,0.3c-0.6-0.2-1-0.6-1-1.2c0-0.4,0-0.7,0.5-0.8
		c0.9-0.3,1.1-1.2,0.6-2c-0.4-0.7-1.1-1.2-1.8-1.6c-1.1-0.7-2.3-1.3-3.4-2c-0.8-0.5-1.6-1.1-2.2-2c-1.1-1.5-1-3,0.4-4.3
		c0.8-0.8,1.8-1.3,2.5-2.1c0.2-0.2,0.3,0,0.4,0C83.8,11.1,83.9,11.7,83.6,13z"/>
	<path class="st1" d="M48,29.4c-0.5,0-0.9,0-1.3,0c-0.4,0-0.7-0.2-0.9-0.5c-0.3-0.4-0.5-0.6,0.2-0.9c1.2-0.6,2.1-1.5,2.9-2.6
		c0.5-0.6,0.9-1.2,1.4-1.9c1.3-1.9,2.9-3.5,5-4.5c-2.4-2.1-2.5-3.8-0.7-6.2c2,2.3,3.4,2.8,5.4,1.9c-1.9-0.8-2.6-2.7-4-4
		c-0.2-0.2-0.1-0.3,0.1-0.4c0.7-0.6,1.5-0.5,2.2-0.1c0.4,0.2,0.5,0.2,0.8-0.2c0.7-1,1.7-0.8,2.8-0.7c-0.6,0.9-1.4,1.7-0.6,2.7
		c0.7,0.9,1.7,0.9,2.7,0.8c-0.3-1.3-0.2-1.9,0.7-2.3c0.1-0.1,0.3-0.2,0.4,0c0.7,0.8,1.6,1.3,2.3,2c1.6,1.4,1.7,3,0.3,4.6
		c-0.8,1-1.9,1.7-2.9,2.3c-0.9,0.5-1.8,1-2.6,1.5c-0.7,0.4-1.3,0.8-1.6,1.5c-0.4,0.8-0.2,1.6,0.5,2c0.8,0.4,0.8,1.4,0,1.8
		c-0.8,0.5-1.7,0.4-2.5,0.1c-0.1,0-0.2-0.1-0.3-0.1c0,0.9,0.6,1.6,1.6,1.9c0.2,0.1,0.6-0.1,0.6,0.2c0,0.3-0.2,0.5-0.5,0.7
		c-0.1,0.1-0.3,0.2-0.5,0.3c0.6,0.4,1.2,0.4,1.8,0.3c0.5,0,0.5,0.2,0.3,0.6c-0.4,0.8-1.2,1.1-2,1.2c0.1,0.5,0.6,0.6,1,0.9
		c-1.2,0.8-2.4,0.7-3.7,0.4c-0.7-0.1-1.3-0.3-1.8-0.8c-0.1-0.1-0.3-0.2-0.4,0c-0.1,0.1-0.1,0.3,0,0.5c0.1,0.3,0.3,0.4,0.6,0.5
		c0.8,0.4,1.6,0.5,2.5,0.5c0.8-0.1,1,0.1,0.6,0.9c0,0.1-0.1,0.2-0.1,0.3c0.4,0.1,0.8,0.2,1.1,0.2c0.6,0.1,0.5,0.3,0.2,0.7
		c-0.1,0.1-0.1,0.2-0.2,0.2c-0.4,0.3-0.6,0.5-0.2,1c0.3,0.3,0.2,0.6-0.3,0.7c-1,0.2-2.1,0.4-2.9-0.5c-0.1-0.1-0.3-0.3-0.4-0.1
		c-0.2,0.2,0,0.3,0.1,0.5c0.3,0.5,0.9,0.9,1.4,1.2c1.4,0.7,2.9,0.8,4.5,0.3c0.1,0.9-0.3,1.6-0.9,2.1c-0.2,0.2-0.5,0.3-0.2,0.7
		c0.9,1,1.2,2.3,1.3,3.6s0.2,2.5,0.9,3.7c-2.2,0.3-4.4-0.9-5.6-3c-0.3,0.1-0.2,0.3-0.4,0.5s-0.5,0.5-0.8,0.4s-0.1-0.4-0.2-0.6
		c0-0.1-0.1-0.2-0.1-0.3c-0.1-0.5-0.3-0.8-0.9-0.5c-0.8,0.4-1.8,0.3-2.8,0.4c0.6-1.3,0.3-2.5-0.3-3.6c-0.5-1.1-1.1-2.2-1.4-3.5
		c-0.2-1-0.1-1.9,0.3-2.8c0-0.1,0.1-0.2,0.1-0.3c0.1-0.3,0-0.5-0.3-0.6s-0.3,0.2-0.4,0.4c-0.1,0.7-0.3,1.4-0.6,2
		c-0.8,1.5-2.1,1.9-3.6,1.1c0.2-0.4,0.7-0.5,0.9-1.1c-1,0.1-1.5-0.4-1.8-1.2c-0.1-0.3-0.1-0.5,0.2-0.6c1.2-0.5,1.6-1.5,1.8-2.7
		c0.1-0.6,0.2-1.2,0.4-1.8C47.4,30.5,47.7,30,48,29.4z"/>
	<path class="st1" d="M54.8,77.2c0-2.4,0-4.7,0-7.1c0-0.5,0.1-0.7,0.6-0.7c1,0,1.9,0,2.9,0c0.6,0,0.7,0.2,0.7,0.7c0,1.4,0,2.8,0,4.3
		c0,0.5,0.1,0.6,0.6,0.6c1.4,0,2.9-0.1,4.3,0.2c3.5,0.7,4.7,3.5,3.9,6.7c-0.5,1.8-1.9,2.5-3.6,2.9C63.6,85,62.9,85,62.3,85
		c-2.3,0-4.5,0-6.8,0c-0.5,0-0.6-0.2-0.6-0.7C54.8,81.9,54.8,79.5,54.8,77.2z"/>
	<path class="st1" d="M75.9,50.5c0-0.2,0-0.4,0.3-0.5c2.2-0.2,4.3-0.7,6.4-1.6c0,0.2,0.1,0.4,0,0.5c-0.3,1.3,0.3,2.1,1.6,2.3
		c0.2,0,0.4,0.2,0.7,0.3c-1.7,0.9-3.5,1.5-5.3,2c-0.4,0.1-0.7,0.3-0.5,0.8c0.2,0.4-0.1,0.4-0.3,0.5c-2.4,0.6-4.8,0.8-7.2,0.6
		c-1-0.1-2.1-0.3-3.1-0.5c-0.3-0.1-0.6-0.2-0.4-0.6c0.2-0.4,0-0.5-0.4-0.6c-1.8-0.5-3.6-1.1-5.4-2c0.6-0.4,1.2-0.6,1.8-0.8
		c0.4-0.1,0.5-0.3,0.5-0.7c0-0.5,0-1,0-1.7c1.7,0.7,3.3,1.2,5,1.4c0.4,0.1,0.8,0.2,1.2,0.2c0.5,0,0.6,0.3,0.5,0.6
		c-0.2,0.5,0.2,0.4,0.4,0.4c1.3,0.1,2.6,0.1,3.9,0c0.2-0.1,0.4-0.1,0.6,0C76.2,50.9,75.8,51,75.9,50.5z"/>
	<path class="st1" d="M97,15.4c0,1.4-1.1,1.9-2,2.6c0.4,0.2,0.8,0,1.1-0.1c1.8-0.3,3.5,0.1,5.3,0.5c0.4,0.1,0.7,0.2,1,0.3
		c0.2,0.1,0.7,0.1,0.7,0.2c0.1,0.3-0.2,0.5-0.4,0.8c-0.2,0.2-0.4,0.3-0.6,0.5c0.5,0.5,0.8,1.1,1.3,1.6c0.2,0.3,0.2,0.4-0.1,0.6
		c-0.7,0.4-1.5,0.5-2.2,0c-0.4-0.3-0.6-0.2-0.8,0.2c-0.2,0.4-0.5,0.8-0.7,1.1c-0.2,0.4-0.5,0.4-0.8,0c-0.6-0.7-1.2-1.4-1.8-2.1
		c-0.8-1-1.7-1.9-2.9-2.6c-0.4-0.2-0.4-0.4-0.1-0.6c0.5-0.6,1.1-1.1,1.7-1.5c0.5-0.4,1-0.8,1-1.5c-0.4-0.1-0.7,0-1-0.3
		c-0.2-0.2-0.5-0.4-0.4-0.7c0.1-0.5,0.8-0.8,0.5-1.5c0,0,0.3,0,0.5,0c0.3,0.1,0.4,0.3,0.6,0.5c0.1-0.3,0.1-0.6,0.2-0.8
		s0.2-0.4,0.5-0.4c0.2,0,0.2,0.3,0.2,0.5c0,0.3-0.1,0.6-0.2,0.9c0.4-0.1,0.6-0.4,0.9-0.3c0.1,0,0.3,0,0.4,0.1s0,0.3-0.1,0.4
		c-0.2,0.4-0.7,0.5-1.2,0.6c0.3,0.3,0.5,0.1,0.6,0.1c0.3,0,0.5,0.1,0.6,0.4c0.1,0.3-0.2,0.4-0.4,0.6C98,15.9,97.5,15.7,97,15.4z"/>
	<path class="st1" d="M45.3,20.1c-0.4-0.3-1.1-0.6-1-1.2c0.1-0.4,0.8-0.3,1.3-0.5c2.2-0.6,4.3-1,6.6-0.4c0,0,0.1,0,0.2-0.1
		c-0.8-0.7-1.9-1.2-1.9-2.5c-0.4,0-0.8,0.3-1.2,0.1c-0.3-0.1-0.6-0.3-0.6-0.6c0.1-0.4,0.4-0.5,0.8-0.4c0.1,0,0.3,0.1,0.4-0.1
		c-0.3-0.1-0.6-0.2-0.8-0.3c-0.2-0.2-0.5-0.4-0.4-0.7c0.1-0.2,0.5-0.1,0.7-0.1c0.2,0.1,0.3,0.2,0.6,0.3c-0.1-0.4-0.3-0.7-0.2-1.1
		c0-0.2,0.1-0.4,0.2-0.4c0.2-0.1,0.3,0.1,0.4,0.3c0.2,0.2,0.2,0.6,0.3,0.9c0.3-0.3,0.6-0.9,1.1-0.6c0.3,0.2-0.1,0.6-0.2,0.9
		c0.2,0.2,0.8-0.1,0.7,0.5s-0.4,1-1,1c-0.8,0-0.5,0.4-0.4,0.8c0.2,0.5,0.6,0.7,1,1c0.6,0.4,1.1,0.8,1.5,1.4c0.1,0.2,0.3,0.3,0,0.5
		c-1.9,1-3.1,2.7-4.4,4.3C48.2,24,48.2,24,47.5,23c0-0.1-0.1-0.1-0.1-0.2c-0.3-0.7-0.6-1.1-1.4-0.5c-0.2,0.2-0.6,0.2-1,0.1
		c-1-0.2-1.2-0.5-0.6-1.3C44.7,20.9,45,20.5,45.3,20.1z"/>
	<path class="st2" d="M79.5,5.7c-0.5,1.1-0.9,2-1.2,3.1C75.2,7,72.1,7,69,8.8c-0.3-1-0.6-2-1.1-2.9c0.1,0,0.1-0.1,0.2-0.1
		c1.4,0.2,1.4,0.2,2-1.2c0.2-0.4,0.3-0.5,0.8-0.3C72.1,5,72.1,5,73,4.1c0.7-0.7,0.7-0.7,1.3,0c0.1,0.1,0.1,0.1,0.2,0.2
		C75.3,5,75.4,5,76.4,4.5c0.5-0.3,0.8-0.3,1,0.3C77.6,6,78.4,6.1,79.5,5.7z"/>
	<path class="st3" d="M67.6,22.5c-0.9,0-1.6,0-2.4,0c0.1-0.5,0.5-0.6,0.9-0.7C66.7,21.8,67.2,21.9,67.6,22.5z"/>
	<path class="st3" d="M82.4,22.6c-0.9,0-1.7,0-2.4,0C80.5,21.6,81.6,21.6,82.4,22.6z"/>
	<path class="st4" d="M78.8,3.9c0,0.6,0.2,1-0.4,1.2C78.2,5.2,78,5,77.9,4.8C77.8,4.3,78.4,4.3,78.8,3.9z"/>
	<path class="st4" d="M68.6,4c0.4,0.3,0.9,0.3,0.9,0.9c0,0.2-0.2,0.4-0.5,0.3C68.5,5,68.6,4.5,68.6,4z"/>
	<path class="st5" d="M71.8,2.8c0.3,0.4,0.7,0.7,0.5,1.1C72.2,4.1,72,4.2,71.7,4C71.3,3.7,71.7,3.3,71.8,2.8z"/>
	<path class="st6" d="M75.6,2.8c0.2,0.5,0.6,0.8,0.1,1.2c-0.2,0.1-0.4,0.1-0.5-0.1C74.8,3.5,75.3,3.2,75.6,2.8z"/>
	<path class="st7" d="M75.9,50.5c0,0.3,0.3,0.3,0.5,0.5c-0.2,0.1-0.4,0.1-0.6,0C75.9,50.9,75.8,50.7,75.9,50.5z"/>
	<path class="st8" d="M134,77.2c0,1.4,0,2.8,0,4.3c0,0.7-0.2,0.7-0.8,0.6c-1.9-0.4-3.2-1.9-3.5-4.2c-0.4-2.7,1.1-5,3.5-5.6
		c0.6-0.2,0.8,0,0.8,0.6C134,74.4,134,75.8,134,77.2z"/>
	<path class="st8" d="M137.9,77.2c0-1.5,0-2.9,0-4.4c0-0.5,0.1-0.6,0.6-0.5c2.4,0.5,3.9,2.7,3.6,5.4c-0.2,2.4-1.6,4-3.5,4.4
		c-0.5,0.1-0.7,0-0.7-0.6C137.9,80.1,137.9,78.7,137.9,77.2z"/>
	<path class="st8" d="M111.5,77.2c0,1.4,0,2.8,0,4.2c0,0.8,0,0.8-0.8,0.6c-1.9-0.5-3.1-1.9-3.4-4c-0.2-1.8,0.1-3.5,1.5-4.8
		c0.6-0.6,1.3-0.8,2.1-1c0.4-0.1,0.6,0,0.6,0.5C111.5,74.3,111.5,75.7,111.5,77.2z"/>
	<path class="st8" d="M115.4,77.2c0-1.5,0-2.9,0-4.4c0-0.5,0.2-0.6,0.6-0.5c2.1,0.4,3.4,1.9,3.6,4.4c0.3,2.5-1.1,4.8-3.3,5.4
		c-0.9,0.3-0.9,0.3-0.9-0.7C115.4,80,115.4,78.6,115.4,77.2z"/>
	<path class="st9" d="M67.3,45.3c-0.1,0.3-0.3,0.5-0.4,0.8c-0.1,0.1-0.1,0.4-0.4,0.3c-0.2-0.1-0.1-0.3-0.1-0.4
		c0-0.2,0.4-0.4,0.1-0.6c-0.3-0.2-0.4,0.2-0.5,0.4c-0.2,0.3-0.3,0.1-0.5,0c-1-0.9-1.4-2.1-1.4-3.4c0-1.8,0-3.7,0-5.5
		c0-0.6,0.4-0.5,0.7-0.5c4.8,0,9.5,0,14.3,0c1.2,0,2.5,0,3.7,0c0.2,0,0.6-0.1,0.5,0.4c-0.1,2.2,0.1,4.3-0.1,6.5
		c-0.2,1.3-0.9,2.4-2,3v-0.1c0.1-0.2,0.5-0.6,0.2-0.7c-0.4-0.2-0.5,0.3-0.6,0.5c-0.2,0.7-0.8,1-1.5,1.1c-1-0.1-1.9-0.1-2.9-0.1
		c-0.9,0-1.8,0.2-2.5,0.8c-0.2,0.2-0.3,0.2-0.5,0c-0.7-0.7-1.6-0.8-2.6-0.8c-1.1,0-2.3,0.1-3.4-0.3c0-0.1,0.1-0.2,0.2-0.3
		c0.6-0.6,1.3-1.2,1.3-2.2c0-0.6,0.3-0.9,0.9-0.8c0.4,0.1,0.7,0.2,1.1,0.2c0.2,0,0.4,0.1,0.6,0c0.7-0.5,1.5-0.3,2.3-0.3
		c0.6,0,1.1,0,1.6-0.2c0.8-0.3,1.4,0.2,1.3,1.1c-0.1,0.5-0.3,0.9-0.5,1.3c-0.1,0.2-0.5,0.6,0,0.8c0.4,0.2,0.7,0,0.9-0.5
		c0.1-0.4,0.2-0.8,0.6-1c0.1,0,0.2,0.1,0.3,0.2c0.1,0.5,0,0.9-0.2,1.4c0.4,0.1,0.7,0,1.1,0c0.1,0,0.1,0,0.2,0c0.5,0,0.6-0.4,0.8-0.7
		c-0.3,0.2-0.3,0.5-0.6,0.6c-0.2,0-0.2-0.2-0.2-0.3c-0.1-0.5,0.1-1,0.2-1.6c0.1-0.4,0-0.8-0.2-1.1c-0.4-0.5-0.5-1.1-0.6-1.7
		c0-0.2,0-0.3,0.2-0.4c0.2-0.1,0.4,0,0.5,0.1c0.2,0.1,0.3,0.4,0.4,0.6c0.2,0.4,0.5,0.8,0.8,1.2c0.2,0.3,0.5,0.5,0.8,0.5
		c0.4,0.1,0.7-0.1,0.9-0.3c0.2-0.3-0.1-0.5-0.2-0.7c-0.3-0.4-0.7-0.7-1-1.1c-0.1-0.2-0.3-0.4-0.5-0.5c-0.6-0.6-1.3-0.7-2.1-0.5
		c-0.3,0.1-0.7,0.1-1,0c-0.4-0.1-0.8-0.1-1.2,0c-0.9,0.3-1.7,0.1-2.6,0c-0.3,0-0.4-0.1-0.5-0.5c-0.1-1-0.7-1.8-1.6-2.3
		c-0.3-0.1-0.6-0.2-0.9-0.4c-0.1-0.1-0.2-0.1-0.3-0.1c-0.7,0.6-1.4,0.1-2.1-0.2c0.3,0.2,0.5,0.4,0.7,0.6c0.4,0.4,0.3,0.7,0,1.1
		c-0.1,0.1-0.1,0.2-0.2,0.2c-0.2,0.3-0.5,0.5-0.3,0.9s0.6,0.2,0.9,0.2c0.4,0,0.8-0.2,0.8,0.5c0,0.6-0.3,0.9-0.8,0.8
		c-1-0.2-1.6,0.3-2.2,0.9c-0.4,0.3-0.3,1.2,0.1,1.5c0.1,0.1,0,0.1,0.1,0c1.2-0.2,0.5,0.6,0.6,1c0,0.2,0.1,0.3,0,0.5
		C67.8,45.4,67.5,45.1,67.3,45.3z"/>
	<path class="st9" d="M69.3,30.4c0.4-1.2,0.8-2.3,1.2-3.4c0.1-0.3-0.4-1.9-0.6-2c-0.1-0.1-0.2,0-0.3,0.1c-0.8,0.6-1.6,1.2-1.4,2.4
		c0.1,0.7,0,1.4,0,2.2c0,0.4-0.1,0.6-0.5,0.4s-0.8-0.2-0.9,0.3c-0.2,0.5-0.1,0.8,0.5,0.9c0.4,0,0.3,0.3,0.3,0.5c0,0.4,0,0.9,0,1.3
		c0,0.3,0.1,0.6,0.4,0.7c0.3,0.1,0.6,0,0.7-0.2c0.2-0.5,0.6-0.4,1-0.2c1.5,0.5,3,0.9,4.4,1.4c1,0.3,1.8,0.2,2.6-0.6
		c0.3-0.3,0.7-0.6,1.1-1c0,0.7,0.2,1.3,0.7,1.7c0.4,0.4,0,1-0.6,1c-4.3,0-8.6,0-13,0c-0.6,0-0.7-0.2-0.7-0.7c0-1.9,0-3.8,0-5.6
		c0-1.7,0.2-3.4-0.5-5.1c2.3,0,4.5,0,6.7,0c0.1,0,0.3,0,0.4,0.1c0.5,0.6,1.3,0.9,2,1.3c0.4,0.2,0.8,0.8,0.8,1.5
		c0,0.8,0.3,1.4,1.1,1.8c0.6,0.2,0.6,1,1.2,1.2c0,0,0,0.1,0,0.2c-0.2,0.6-1.2,1.2-1.8,1.2c-0.8-0.1-1.7-0.2-2.5-0.3
		c-0.4,0-0.7,0-0.9-0.5C70.3,30.3,69.8,30.4,69.3,30.4z"/>
	<path class="st8" d="M75.5,25.5c0.5-0.3,0.9-0.6,1.2-1c0.1-0.1,0.3-0.2,0.4-0.2c2.2,0,4.4,0,6.5,0c-0.7,3.6-0.2,7.2-0.4,10.8
		c0,0.6-0.4,0.9-1,0.7c-0.2-0.1-0.3-0.3-0.4-0.6c-0.2-0.4-0.3-0.8-0.5-1.3c-0.2,0.7,0,1.2,0.2,1.8c-1.2,0.2-1.2,0.2-1.9-1.7
		c-0.3,0.5-0.3,0.7,0,1.7c-0.8,0.2-0.8,0.2-0.7-0.6c0.1-0.4,0-0.7-0.4-0.8c-0.2-0.1-0.4-0.2-0.4-0.5c0.3,0,0.5,0,0.9-0.2
		c-0.4-0.2-0.8-0.3-0.9-0.8c0-0.5,0.2-0.8,0.5-1.2c-0.1-0.2-0.3-0.2-0.5-0.2c-0.3-0.1-0.7-0.3-0.7-0.5c0-0.8-0.5-1.4-0.8-2.1
		c0-0.1-0.1-0.2,0-0.3c0.4-0.8-0.2-1.5,0-2.3c0.1-0.3-0.1-0.3-0.3-0.3C76.1,25.9,75.8,25.8,75.5,25.5z"/>
	<path class="st8" d="M67.5,19.9c0.9-0.5,1.7-1,2.6-1.5c0.3-0.2,0.4,0,0.6,0.1c0.9,0.5,1.7,0.9,2.6,1.4c0.4,0.2,0.6,0.2,1,0
		c0.8-0.5,1.7-0.9,2.5-1.4c0.4-0.2,0.7-0.2,1,0c0.7,0.4,1.4,0.8,2.2,1.3c-1.2,0.5-1.8,1.5-2.5,2.5c-0.1,0.1-0.2,0.3-0.2,0.2
		c-0.8-0.2-0.7,0.5-0.9,0.9c-0.6,1.2-1.7,1.4-2.9,1.4c-1.2-0.1-2-0.7-2.3-1.7c-0.1-0.3-0.1-0.6-0.5-0.5c-0.3,0.1-0.5-0.2-0.6-0.4
		C69.3,21.4,68.7,20.5,67.5,19.9z"/>
	<path class="st8" d="M77.8,10.8c-1.3,0.5-2.6,1-3.9,1.6c-0.2,0.1-0.3,0-0.5,0c-1.1-0.5-2.3-0.9-3.4-1.3c-0.4-0.1-0.4-0.3-0.1-0.5
		c0.4-0.4,0.8-0.6,1.3-0.8c1.7-0.5,3.4-0.5,5.1,0C76.9,9.9,77.4,10.1,77.8,10.8z"/>
	<path class="st10" d="M74,19c0-1.9,0-3.7,0-5.5c0-0.2,0.1-0.4,0.3-0.5c1.1-0.4,2.2-0.7,3.4-1.2c-0.3,1.9-0.6,3.7-0.9,5.5
		c0,0.2-0.2,0.3-0.3,0.4C75.7,18.1,74.9,18.5,74,19z"/>
	<path class="st10" d="M73.4,19c-0.9-0.5-1.7-0.9-2.6-1.3c-0.1-0.1-0.2-0.2-0.2-0.3c-0.3-1.8-0.6-3.6-0.9-5.5
		c1.2,0.4,2.3,0.8,3.5,1.2c0.2,0.1,0.3,0.2,0.3,0.4C73.4,15.2,73.4,17.1,73.4,19z"/>
	<path class="st10" d="M73.9,27.2c0.1,0,0.2,0,0.2,0c0.2,0,0.4,0.3,0.5,0s-0.1-0.3-0.3-0.4c-0.4-0.2-0.7-0.4-0.8-0.8
		c1-0.6,1.9,0,2.6,0.5c0.3,0.2,0.4,1,0.3,1.5s-0.1,1,0.1,1.5c0.1,0.1,0.1,0.2,0,0.3c-0.1,0.1-0.3,0.1-0.4,0
		c-0.7-0.7-1.6-1.2-2.1-2.1C73.9,27.5,73.9,27.3,73.9,27.2z"/>
	<path class="st11" d="M68.9,28.5c-0.1,0.2-0.1,0.4-0.2,0.6c-0.4-0.3-0.1-0.7-0.1-1.1c0-0.8-0.2-1.7,0.8-2.3
		c0.2-0.1,0.3-0.2,0.5,0.1c0.2,0.5,0.4,0.9,0.1,1.5c-0.3,0.5-0.4,1.2-0.6,1.7c-0.3,0-0.2-0.2-0.2-0.4c0-0.2-0.1-0.4,0-0.6
		C69,28.2,69,28.4,68.9,28.5z"/>
	<path class="st12" d="M75.8,33.9c0.1-0.8,0-1.5-0.4-2.1c-0.2-0.3-0.1-0.4,0.1-0.6c0.3-0.2,0.4,0.1,0.5,0.2c0.2,0.2,0.4,0.5,0.5,0.8
		C76.8,33.1,76.7,33.3,75.8,33.9z"/>
	<path class="st13" d="M75.2,33.4c0,0.2,0,0.4-0.1,0.6c-0.1,0.4-0.4,0.2-0.7,0.1c-0.3,0-0.2-0.2-0.2-0.4c0.1-0.5,0.2-1,0.1-1.5
		c0-0.2-0.1-0.3,0.2-0.4c0.2,0,0.3,0,0.4,0.2C75.1,32.5,75.1,32.9,75.2,33.4z"/>
	<path class="st14" d="M69.1,30.9c0.1,0.5,0.8,0.7,0.5,1.3c-0.1,0.2,0,0.5-0.3,0.5s-0.5-0.2-0.5-0.5c0-0.6,0-1-0.8-0.8
		c-0.1,0-0.2-0.1-0.2-0.2c0-0.2,0.2-0.2,0.4-0.3C68.5,30.7,68.8,31,69.1,30.9L69.1,30.9z"/>
	<path class="st15" d="M72.5,32.1c-0.1,0.3-0.2,0.7-0.3,1c-0.1,0.4-0.4,0.3-0.6,0.2c-0.4-0.1-0.2-0.3-0.2-0.5
		c0.1-0.3,0.2-0.6,0.2-0.8c0-0.3,0.1-0.4,0.4-0.4C72.3,31.7,72.5,31.8,72.5,32.1z"/>
	<path class="st16" d="M76.8,30c0.1,0.7,0.3,1.3,0.9,1.7c0.5,0.4-0.2,0.6-0.5,1c-0.1-0.8-0.4-1.5-0.8-2C76.1,30.3,76.7,30.3,76.8,30
		z"/>
	<path class="st11" d="M72.7,33.6c0.2-0.5,0.4-0.9,0.4-1.5c0-0.2,0-0.4,0.3-0.4s0.4,0.1,0.4,0.4s0,0.6-0.1,0.9
		C73.5,33.9,73.4,34,72.7,33.6z"/>
	<path class="st12" d="M71,32.1c-0.1,0.3,0.1,0.9-0.5,1c-0.1,0-0.7,0-0.5-0.4s-0.2-1.1,0.5-1.2C70.9,31.4,71.2,31.6,71,32.1z"/>
	<path class="st17" d="M67.3,45.3c0.1-0.2,0.5,0,0.6-0.3c0.4,0,0.5,0.3,0.4,0.6c-0.1,0.4-0.2,0.7-0.5,1l-0.1,0.1
		c-0.3,0-0.5-0.1-0.3-0.4c0.1-0.2,0.2-0.4,0.3-0.6C67.8,45.3,67.6,45.3,67.3,45.3z"/>
	<path class="st18" d="M68.6,28c0.1,0.3-0.1,0.7,0.1,1.1c0,0.2-0.1,0.5-0.1,0.7c-0.1,0.1-0.2,0-0.1-0.1C68.5,29.1,68.4,28.6,68.6,28
		z"/>
	<path class="st19" d="M67.9,30.7c-0.3,0.1-0.6,0.2-0.8-0.1c-0.1-0.1,0-0.2,0.1-0.2C67.4,30.2,67.6,30.4,67.9,30.7z"/>
	<path class="st20" d="M69.1,30.9c0.3-0.3,0.6-0.2,0.9,0.1C69.7,31.3,69.4,31,69.1,30.9L69.1,30.9z"/>
	<path class="st21" d="M69.1,28.6c0,0.2,0,0.3,0.1,0.5c-0.1,0.2-0.1,0.4-0.2,0.6c-0.1,0-0.2,0-0.2-0.1c0-0.3,0-0.5,0.1-0.8
		C69,28.6,69.1,28.6,69.1,28.6z"/>
	<path class="st22" d="M67.9,31.8c0.3-0.1,0.5-0.1,0.8,0.1C68.3,32,68.2,32,67.9,31.8z"/>
	<path class="st23" d="M69.1,28.6c0,0-0.1,0-0.1,0.1c0-0.1-0.1-0.1-0.1-0.2c0-0.2,0.1-0.5,0.3-0.7C69.1,28.1,69.1,28.4,69.1,28.6z"
		/>
	<path class="st24" d="M68.1,33.3c-0.1-0.1-0.2-0.1-0.2-0.2c0-0.1,0.1-0.2,0.2-0.1c0.1,0,0.3,0,0.2,0.2
		C68.3,33.2,68.2,33.2,68.1,33.3z"/>
	<path class="st25" d="M68.4,29.7l0.1,0.1c0,0.2,0,0.4-0.2,0.3C68.2,30,68.3,29.8,68.4,29.7z"/>
	<path class="st26" d="M69,29.5c0.1,0,0.1,0.1,0.2,0.1c-0.1,0.2-0.1,0.3-0.2,0.6C68.8,29.9,68.8,29.7,69,29.5z"/>
	<path class="st8" d="M97,77.2c0,1.1-0.2,2.2-0.7,3.1c-0.6,1.1-1.5,1.6-2.8,1.6s-2.2-0.6-2.7-1.8c-0.8-2-0.8-4,0.1-6
		c0.5-1.1,1.4-1.6,2.6-1.7c1.3,0,2.2,0.5,2.9,1.6C96.8,75.1,97,76.1,97,77.2z"/>
	<path class="st8" d="M82.3,13.7c1.2,0.2,2.3,0.3,3.4-0.2c1.5-0.6,1.9-1.5,1.6-3c0-0.1,0-0.1,0-0.2c0.7,0.3,0.8,1,1,1.5
		c0.7-0.3,1.2-1,2.2-1c-1,2.1-2.7,3.2-4.7,3.9c2.1,1.5,5.1,1.3,7.1-0.3c1.1,1.5,0.6,2.5-2.1,4.7c0.1,0.3,0.3,0.3,0.5,0.4
		c2.3,1.1,4.2,2.7,5.6,4.8c1.1,1.6,2.2,3.1,3.9,4.2c-1.1,0.2-2.1-0.1-3.1-0.2c0,0.1,0,0.1,0,0.1c1.4,1.4,2,3.2,2.3,5.1
		c0.1,1,0.6,1.8,1.5,2.4c0.1,0.1,0.4,0.1,0.3,0.3s-0.3,0.3-0.5,0.3c-0.5,0.1-1-0.2-1.5-0.3c0,0.6,0.3,1.1,0.5,1.7
		c-0.6-0.1-1-0.4-1.2-0.9c-0.3-0.7-0.5-1.4-0.7-2c-0.3-0.9-0.7-1.1-1.4-0.9c-0.7,0.3-1.1,1-0.8,1.7c0.7,1.5,0.4,2.9-0.3,4.3
		c-0.4,1-1,1.9-1.3,3c0,0.1,0,0.2-0.1,0.3c-0.2,0.3,0.2,0.9-0.3,1c-0.6,0.1-1.2-0.1-1.6-0.5c-0.1-0.2-0.3-0.3-0.4-0.5
		c-0.4,0.6-0.7,1.3-0.9,1.9c-0.4-0.2-0.4-0.7-0.7-0.9c-0.7,2.2-2.2,3.4-4.6,3.7c0.5-1.1,0.5-2.1,0.6-3.2c0.1-1.3,0.6-2.5,1.6-3.4
		c0.4-0.3,0.3-0.5-0.1-0.7c-0.3-0.2-0.6-0.5-1-0.8c1.5,0.1,2.8-0.2,4-0.8c0.6-0.3,1.2-0.7,1.6-1.4c0.3-0.5,0.4-0.9-0.1-1.4
		c-0.4-0.4-0.9-0.4-1.4-0.1c-0.5,0.3-1,0.7-1.7,0.6c0-0.3,0.3-0.3,0.4-0.6c-0.2-0.2-0.4-0.4-0.5-0.6c0.3-0.5,1.7,0,1-1.3
		c0.6-0.1,1.2-0.1,1.8-0.3c0.6-0.2,1.1-0.5,1.5-1.1c0.3-0.5,0.3-1.1-0.1-1.5s-0.9-0.3-1.4-0.1c-1,0.6-2.1,1-3.4,0.8
		c0-0.1-0.1-0.1,0-0.1c0.2-0.4,0.5-0.8,0.4-1.1c-0.1-0.4-0.7-0.1-1-0.2c-0.2-0.1-0.3-0.1-0.7-0.2c1.1-0.2,1.8-0.7,2.4-1.3
		c-0.2-0.3-0.6-0.2-0.9-0.5c0.6-0.4,1.1-0.9,1.3-1.6c0.2-0.7,0.2-1.4,0.2-2.2c-0.5,0.3-0.9,0.5-1.4,0.7C88.6,26,88,26,87.4,25.9
		c-0.2-0.1-0.3-0.1-0.4-0.3c-0.1-0.2,0.2-0.2,0.3-0.3c1.2-0.8,1.4-2,0.6-3.2c-0.6-0.8-1.4-1.3-2.2-1.8c-1.2-0.6-2.3-1.2-3.4-2
		c-0.6-0.4-1.2-0.9-1.6-1.5c-0.8-1.1-0.8-2.2,0.1-3.2c0.6-0.7,1.4-1.1,2.1-1.7c0.4-0.3,0.4,0.1,0.4,0.3C83,12.6,82.6,13.1,82.3,13.7
		z"/>
	<path class="st8" d="M57.3,24.9c0,1.5,0,2.9,1.5,3.8c-0.2,0.3-0.6,0.2-0.9,0.5c0.6,0.6,1.3,1.1,2.4,1.3c-0.4,0.1-0.7,0.2-0.9,0.2
		c-1,0.1-1,0.1-0.6,1.1c0,0.1,0.1,0.2,0.2,0.4c-0.9,0.2-1.7,0-2.5-0.3c-0.3-0.1-0.6-0.3-1-0.5c-0.5-0.3-1-0.4-1.5,0.1
		c-0.4,0.5-0.3,1,0,1.5c0.4,0.7,1.1,1,1.8,1.2c0.4,0.1,0.9,0.1,1.3,0.2c-0.2,0.8-0.2,0.8,1,1.2c0,0.4-1.1,0.7,0,1.2
		c-0.6,0.2-1,0-1.3-0.2c-0.3-0.1-0.5-0.3-0.8-0.5c-0.4-0.2-0.8-0.1-1.1,0.2s-0.4,0.6-0.3,1c0.2,0.6,0.6,1,1.1,1.4
		c1.3,0.9,2.8,1.3,4.5,1.2c-0.3,0.6-0.9,0.7-1.3,1.2c1.5,1.3,1.9,3.1,2,4.9c0,0.7,0.2,1.3,0.5,2c-2,0.1-3.8-1.4-4.5-3.6
		c-0.4,0.2-0.4,0.7-0.7,0.9c-0.3-0.6-0.6-1.2-0.9-1.9c-0.5,0.7-1.1,1.1-1.9,1.1c-0.2,0-0.4,0-0.4-0.3c0-1.2-0.6-2.2-1.1-3.3
		c-0.3-0.7-0.7-1.4-0.9-2.2c-0.2-0.9-0.2-1.7,0.2-2.5c0.1-0.3,0.2-0.6,0.2-1c-0.1-0.6-0.5-1-1.1-1.1s-0.8,0.3-1,0.7
		c-0.3,0.7-0.4,1.4-0.7,2.1c-0.2,0.5-0.4,1-1.2,1c0.2-0.5,0.4-1,0.5-1.6c-0.5,0-0.9,0.3-1.3,0.3c-0.3,0-0.6-0.1-0.7-0.3
		C45.7,36,46,36,46.2,35.9c0.7-0.6,1.1-1.3,1.3-2.2c0.2-1,0.3-2,0.7-2.9s1.1-1.6,1.7-2.5c-1.1,0.1-2.1,0.4-3.1,0.3
		c-0.1-0.1,0-0.2,0.1-0.3c1.4-0.9,2.4-2.1,3.3-3.5c1.6-2.4,3.6-4.3,6.3-5.5c0.1,0,0.2-0.1,0.3-0.2c-0.6-0.6-1.4-1-1.9-1.6
		c-0.8-0.9-1-1.8-0.5-2.9c0.1-0.2,0.1-0.5,0.4-0.2c2.2,1.9,4.6,1.2,7.1,0.2c-2.2-0.7-3.9-1.8-4.9-3.9c0.9,0,1.5,0.6,2.2,1
		c0.3-0.5,0.3-1.3,1.1-1.5c-0.1,0.4-0.1,0.7-0.2,1c0,1,0.5,1.7,1.5,2.1c0.9,0.4,1.6,0.4,3.5,0.2C65,13,64.6,12.6,64.5,12
		c0-0.2-0.1-0.4,0.1-0.5c0.2-0.2,0.3,0.1,0.5,0.2c0.6,0.4,1.1,0.8,1.7,1.3c1.2,1.1,1.3,2.3,0.3,3.6c-0.6,0.8-1.4,1.4-2.3,1.9
		c-0.9,0.6-1.9,1.1-2.8,1.6c-0.8,0.5-1.6,1-2.1,1.8c-0.8,1.2-0.5,2.3,0.6,3.1c0.1,0.1,0.4,0.1,0.3,0.3c0,0.3-0.3,0.3-0.5,0.4
		c-0.5,0.1-1.1,0.1-1.6-0.2C58.2,25.5,57.8,25.2,57.3,24.9z"/>
	<path class="st8" d="M59,79.9c0-0.6-0.2-1.4,0.1-1.7c0.3-0.4,1.2-0.1,1.8-0.1s1.2-0.1,1.8,0.1c0.8,0.3,1.2,0.9,1.2,1.8
		s-0.4,1.4-1.3,1.7c-1.1,0.3-2.2,0.1-3.3,0.1c-0.3,0-0.3-0.2-0.3-0.4C59,80.9,59,80.4,59,79.9L59,79.9z"/>
	<path class="st8" d="M73.7,54.9c-1.5,0-2.9-0.2-4.4-0.5c-0.5-0.1-0.6-0.3-0.4-0.7c0.3-0.8,0.3-1.8,0.8-2.2s1.5,0.1,2.3,0.1
		c1.6,0.1,3.3,0.1,4.9-0.2c0.6-0.1,0.9,0.1,1,0.7c0.1,0.6,0.3,1.2,0.5,1.7c0.1,0.4,0.1,0.5-0.4,0.6C76.7,54.8,75.2,54.9,73.7,54.9z"
		/>
	<path class="st8" d="M63.8,51.7c1.5-0.2,1.6-1.2,1.3-2.5c1.4,0.5,2.7,0.8,4,1.1c0.3,0.1,0.3,0.2,0.2,0.4c-0.1,0.3-0.2,0.6-0.3,0.9
		c-0.5,1.7-0.5,1.7-2.3,1.2c-0.8-0.3-1.7-0.6-2.5-0.9C64.1,51.8,64,51.7,63.8,51.7z"/>
	<path class="st8" d="M82.2,49.2c0.1,1.7,0.1,1.7,1.5,2.4c-1.5,0.7-3,1.2-4.5,1.6c-0.2,0.1-0.3-0.1-0.4-0.2
		c-0.2-0.8-0.4-1.5-0.7-2.3c-0.1-0.4,0.1-0.4,0.3-0.4C79.7,50,80.9,49.7,82.2,49.2z"/>
	<path class="st10" d="M95.7,18.9c1-1,4.5-0.3,6.2,0.4c-0.3,0.3-0.8,0.5-1.3,0.6c0.6,0.7,1.3,1.1,1.7,2c-1.2,0-1.9-0.9-2.8-1.3
		c0.2,1,0.3,1.8-0.4,2.7C98.2,21.6,97.2,20,95.7,18.9z"/>
	<path class="st8" d="M45.1,21.8c0.5-0.8,1.1-1.3,1.8-1.9c-0.5-0.2-1-0.3-1.4-0.7c2.1-0.6,4.1-1.3,6.4-0.4c-1.6,1.2-2.6,2.8-3.6,4.5
		c-0.6-0.9-0.6-1.8-0.4-2.7C46.9,20.9,46.2,21.8,45.1,21.8z"/>
	<path class="st8" d="M68.9,6.6c1,0.4,1.2-0.3,1.4-1c0.2-0.5,0.4-0.6,0.9-0.3c0.7,0.6,1.1,0.3,1.7-0.3c0.8-0.9,0.9-0.9,1.7,0
		c0.6,0.7,1.1,0.8,1.8,0.3C76.6,5,76.9,5.1,77,5.5c0,0.1,0.1,0.1,0.1,0.2c0.2,0.6,0.4,1.3,1.4,0.9C78,7.9,78,7.9,76.8,7.5
		c-2.2-0.8-4.4-0.8-6.6,0.2c-0.6,0.3-0.9,0.3-1-0.4C69.2,7.1,69,6.9,68.9,6.6z"/>
	<path class="st2" d="M67.7,46.6c0-0.3,0.2-0.6,0.3-0.8c0.2-0.3,0.1-0.6-0.2-0.8c-0.3-0.5-0.1-1,0-1.5c-0.3-0.2-0.4,0.6-0.8,0.1
		c-0.5-0.6-0.6-1.4-0.2-1.8c0.7-0.6,1.4-1.4,2.5-1c0.2,0.1,0.4,0.2,0.5-0.1c0.1-0.2,0.2-0.6,0.1-0.8s-0.4-0.1-0.7-0.1
		c-0.3,0.1-0.5,0.3-0.8,0.1c-0.3-0.3-0.7-0.7-0.2-1.1c0.2-0.2,0.3-0.4,0.5-0.6c0.3-0.3,0.2-0.5,0-0.8c0-0.2,0.1-0.2,0.3-0.2
		c0.8,0.5,0.8,0.6,0.3,1.3c-0.1,0.1-0.2,0.3-0.3,0.4c0,0.2,0,0.3,0,0.4c0.1,0.2,0.2,0.1,0.4,0.1c1.4-0.1,1.4-0.1,1.2,1.3
		c-0.1,0.5,0.2,0.9,0.4,1.4c0.3,0.6,0.2,0.8-0.5,0.8c-0.2,0-0.4,0-0.7,0c-1,0-1.5,0.7-1.3,1.7c0.1-0.3,0-0.7,0.2-1.1
		c0.2-0.4,0.5-0.7,1-0.6c0.8,0.2,1.5,0.3,2.4-0.1c0.5-0.2,1.2,0.1,1.9,0c0.4,0,0.8,0.1,1.1-0.1c0.8-0.4,1.4-0.2,2.1,0.2
		c1.5,0.9,1.5,0.8,1.4,2.6c0.1-0.4,0.1-0.8,0.2-1.2c0.1-0.5,0-0.8-0.2-1.2c-0.4-0.6-0.5-1.3-0.6-2c-0.1-0.3,0.1-0.6,0.4-0.8
		s0.6-0.1,0.9,0.1c0.2,0.2,0.3,0.3,0.5,0.5c0.2,0.3,0.2,0.7,0.8,0.5c0.2-0.1,0.4,0.3,0.5,0.5s0.2,0.5,0.6,0.7c0-0.7-0.7-1-0.8-1.6
		c0-0.1,0.1-0.2,0.2-0.2c0.4,0.4,0.7,0.8,1.1,1.2c0.2,0.2,0.7,0.5,0.2,0.9c-0.4,0.4-0.8,0.7-1.3,0.4c-0.7-0.4-1.1-1-1.5-1.7
		c-0.1-0.2-0.3-0.5-0.4-0.7c-0.1-0.1-0.3-0.1-0.4-0.1c-0.1,0.1-0.1,0.2-0.1,0.3c0.2,0.6,0.2,1.3,0.7,1.8c0.3,0.2,0.3,0.5,0.2,0.9
		c-0.1,0.6-0.2,1.1-0.2,1.7c-0.2,0.2,0.1,0.5-0.1,0.7c-1.3,0-1.3,0-1.1-1.3c0-0.1,0-0.2,0-0.3s0.1-0.3-0.1-0.2
		c-0.1,0.2-0.2,0.5-0.3,0.7c-0.4,1.1-0.4,1.1-1.8,0.9c0.3-0.7,0.5-1.4,0.8-2c0.3-0.5,0-0.9-0.3-1.2c-0.3-0.4-0.5,0-0.7,0.1
		c-0.9,0.3-1.9,0.2-2.8,0.1c-0.3,0-0.7-0.1-0.9,0.3c-0.2,0.3-0.5,0.2-0.7,0.1c-0.4-0.1-0.8-0.2-1.3-0.3s-0.8,0.2-0.7,0.7
		c0.1,0.2,0.1,0.3,0,0.5c-0.3,0.5-0.8,1-1,1.6C68.1,46.7,67.9,46.6,67.7,46.6z"/>
	<path class="st3" d="M69.2,37.3c-0.1,0-0.2,0-0.3,0.1c-0.3-0.3-0.6-0.5-0.9-0.8c0.5-0.1,0.8,0.2,1.2,0.3c0.2,0.1,0.4,0.2,0.7,0.2
		c0.4,0,0.5-0.7,0.8-0.4c1,0.8,2.4,1.2,2.7,2.6c0.1,0.3,0.1,0.4,0,0.8c1,0.1,2,0.2,3.1,0c0.9-0.2,2,0,3-0.1c0.5,0,1,0.3,1.3,0.7
		c0,0.2-0.1,0.2-0.2,0.2c-0.3,0-0.5-0.2-0.8-0.3c-0.4-0.2-0.9-0.3-1.3,0c-0.1,0-0.2,0.1-0.3,0.1c-1.5-0.2-3.1,0.3-4.6,0
		c-0.6-0.1-1-0.5-1.1-1.1c-0.2-1.1-0.9-1.7-1.8-2.1c-0.1,0-0.1-0.1-0.2-0.1C69.9,37.8,69.5,37.5,69.2,37.3z"/>
	<path class="st27" d="M70.7,46.6c0.2-0.4,0.3-0.7,0.5-1c0.1-0.2,0.3-0.4,0.5-0.3c0.3,0.1,0,0.4-0.1,0.5
		C71.3,46.1,71.4,46.8,70.7,46.6z"/>
	<path class="st27" d="M71.7,46.6c0.2-0.4,0.4-0.8,0.6-1.2c0.1-0.2,0.3-0.2,0.4-0.1c0.2,0.1,0,0.3,0,0.4
		C72.4,46,72.5,46.7,71.7,46.6z"/>
	<path class="st28" d="M69.9,46.6c0,0-0.2,0-0.2-0.1c-0.1-0.2,0.6-1.3,0.8-1.3c0.1,0,0.2,0,0.2,0.1C70.8,45.5,70.2,46.6,69.9,46.6z"
		/>
	<path class="st29" d="M72.7,46.6c0.2-0.4,0.4-0.8,0.6-1.2c0.1-0.2,0.3-0.2,0.4-0.1c0.2,0.1,0,0.3,0,0.4
		C73.4,46,73.5,46.7,72.7,46.6z"/>
	<path class="st30" d="M74.7,46.6c0.2-0.5,0.4-0.8,0.6-1.1c0.1-0.2,0.3-0.2,0.4-0.2c0.2,0.1,0.1,0.3,0,0.4
		C75.4,46,75.5,46.7,74.7,46.6z"/>
	<path class="st30" d="M74.7,45.3c-0.3,0.4-0.1,1.2-1.1,1.3C74,46.1,74,45.4,74.7,45.3z"/>
	<path class="st31" d="M79.4,46.2C79.4,46.1,79.4,46.1,79.4,46.2c0.3-0.3,0.2-0.9,0.7-0.9c0.1,0,0.2,0.1,0.1,0.2
		c-0.3,0.4-0.2,1.2-1,1.1C79.1,46.4,79.3,46.3,79.4,46.2z"/>
	<path class="st31" d="M68.6,46.6c0.2-0.5,0.4-0.8,0.6-1.2c0.1-0.1,0.2-0.2,0.4-0.1c0.2,0.1,0.1,0.2,0,0.3
		C69.4,46,69.4,46.6,68.6,46.6z"/>
	<path class="st32" d="M80.4,40.8c0.1-0.1,0.1-0.1,0.2-0.2c0.2,0.1,0.3,0.3,0.4,0.4c0,0.1-0.1,0.1-0.1,0.2
		C80.6,41.3,80.4,41.1,80.4,40.8z"/>
	<path class="st26" d="M79.4,46.2c0,0.1-0.1,0.3-0.1,0.4c-0.1,0-0.1,0-0.2,0c0-0.2,0-0.5,0.1-0.7C79.3,46,79.4,46.1,79.4,46.2z"/>
	<path class="st33" d="M77.9,44.9c0-0.1,0.1-0.3,0.1-0.4c0.2,0.2,0.1,0.4,0,0.6C78,45,77.9,44.9,77.9,44.9z"/>
	<path class="st6" d="M80,29.9c0.5,0.7,1,1.3,1.9,1.2c-0.2,1-0.1,1.2,1,1.4c0.1,0,0.2,0.1,0.2,0.2c0,0.2-0.1,0.2-0.2,0.3
		c-0.6,0.2-1.4-0.3-1.5-0.9c0-0.4-0.2-0.5-0.5-0.7C80.2,31.3,80,30.8,80,29.9z"/>
	<path class="st29" d="M79.2,31c0.4,0.8,0.8,1.5,1.7,1.5c0.1,0,0.2,0.1,0.2,0.3S80.9,33,80.7,33C79.8,33,79.1,32.2,79.2,31z"/>
	<path class="st4" d="M81.2,28.1c0.3,0.8,0.7,1.4,1.5,1.5c0.2,0,0.3,0.1,0.2,0.3c0,0.2-0.2,0.2-0.3,0.2C81.7,30.1,81,29.2,81.2,28.1
		z"/>
	<path class="st28" d="M79.6,25c0.3,0.5,0.7,0.8,1.3,0.9c0.2,0.1,0.4,0.2,0.3,0.4c-0.1,0.2-0.3,0.1-0.4,0.1
		c-0.6-0.2-1.1-0.5-1.2-1.1C79.4,25.2,79.3,25,79.6,25z"/>
	<path class="st34" d="M79.6,25c0,0.1-0.1,0.2-0.1,0.3c-0.2-0.2-0.1-0.5-0.1-0.8C79.5,24.7,79.5,24.9,79.6,25z"/>
	<path class="st3" d="M73.1,23.8c0.2-0.5,0.2-1,0.2-1.5c0-0.9,0-0.9-0.9-0.7c-0.2-0.6,0-0.9,0.7-0.8c0.4,0,0.9,0.1,1.3,0
		c0.7-0.1,0.9,0.2,0.7,0.8c-0.9-0.2-0.9-0.2-0.9,0.7c0,0.5,0,1,0.2,1.5C73.9,23.8,73.6,23.8,73.1,23.8z"/>
	<path class="st35" d="M76.8,13c-0.7,0.6-1.3,0.9-2,1.2C74.6,13.6,75.4,13.1,76.8,13z"/>
	<path class="st29" d="M76.6,14.4c-0.4,0.6-1,0.8-1.5,1c-0.1,0.1-0.3,0.3-0.4,0c-0.1-0.2-0.1-0.4,0.1-0.5
		C75.4,14.8,75.9,14.5,76.6,14.4z"/>
	<path class="st31" d="M74.7,17.1c0-0.6,0.6-1,1.9-1.2C76,16.6,75.4,16.8,74.7,17.1z"/>
	<path class="st31" d="M70.8,15.9c0.7,0.1,1.3,0.4,1.8,0.6c0.3,0.1,0.2,0.3,0.1,0.5c-0.1,0.3-0.3,0-0.4,0
		C71.8,16.7,71.3,16.5,70.8,15.9z"/>
	<path class="st6" d="M70.7,14.4c0.8,0,1.3,0.4,1.9,0.6c0.3,0.1,0.2,0.3,0.1,0.5c-0.1,0.3-0.3,0-0.4,0
		C71.8,15.2,71.3,14.9,70.7,14.4z"/>
	<path class="st36" d="M71.2,13.1c0.4,0.1,0.8,0.3,1.2,0.4c0.4,0.1,0.4,0.3,0.3,0.7c-0.6-0.2-1.2-0.5-1.7-0.9
		C71,13.1,71.1,13.1,71.2,13.1z"/>
	<path class="st37" d="M71.2,13.1c-0.1,0.1-0.1,0.1-0.2,0.2c-0.1-0.1-0.4-0.1-0.3-0.3C70.9,12.9,71.1,13,71.2,13.1z"/>
	<path class="st1" d="M91,41.3c0.1-0.5,0.5-0.8,0.8-1.1c1.3-1.6,2.5-3.2,3.1-5.1c0-0.1,0-0.1,0-0.3c-0.4,0.3-0.8,0.5-1.3,0.5
		c-0.2,0-0.5,0.2-0.6-0.2c1.5-0.3,2.1-0.9,2.2-2.4c0.2-2.1-0.5-4-1.4-5.9c-0.3,1.5-1,2.6-2.4,3.1c0.8-0.7,1.4-1.4,1.7-2.4
		c0.2-0.9,0.2-1.8-0.4-2.6c-0.6-0.8-1.1-1.6-1.8-2.5c-0.2,1.1-0.8,1.7-1.7,2.1c1-1.5,0.3-2.6-0.5-3.7c0.2-0.2,0.3,0.1,0.6,0
		c-2-2.4-5.2-3.3-7.5-5.4c2.7,1.2,5.5,1.5,8.5,1.6c0.2,0,0.5-0.2,0.6,0.1c-1.4,0.5-2.9,0.4-4.5,0.3c2.9,2.6,6.4,4.1,9,6.9
		c-0.9-0.5-1.7-1.1-2.7-1.3c0,0.3,0.2,0.5,0.4,0.7c0.7,1.1,1.4,2.2,1.9,3.5c0.6,1.3,1.5,2.4,2.4,3.4c0.5,0.6,1.1,1.2,1.2,2
		c0.1,0.1,0,0.2-0.1,0.2c-0.7-1.2-1.8-2.1-2.9-3.2c0.4,2.2,0.3,4.3-0.4,6.3c-0.3,0.8,0,1.7-0.2,2.6c-0.2,0.6-0.3,1.3-0.8,1.8
		c0.3-1,0.5-2,0.5-3.2c-0.9,1.5-2,2.7-3,3.9C91.4,41,91.3,41.3,91,41.3L91,41.3z"/>
	<path class="st38" d="M91,41.2c0,0.5-0.4,0.7-0.8,0.9C90.4,41.8,90.6,41.4,91,41.2C91,41.3,91,41.2,91,41.2z"/>
	<path class="st39" d="M93.1,35c0.1,0.3,0.4,0.1,0.6,0.2c-0.3,0.2-0.7,0.1-1.1,0.1C92.6,34.9,92.9,35,93.1,35z"/>
	<path class="st40" d="M90.9,17c-0.2-0.2-0.4-0.1-0.6-0.1c0.4-0.2,0.7-0.1,1.2-0.2C91.3,17,91.1,17,90.9,17z"/>
	<path class="st41" d="M94.2,40.2c0,0.3-0.1,0.5-0.2,0.6C93.7,40.5,93.9,40.4,94.2,40.2z"/>
	<path class="st42" d="M98.4,32.7c0-0.1,0.1-0.1,0.1-0.2c0.2,0.2,0.1,0.4,0.1,0.9C98.6,33,98.5,32.9,98.4,32.7z"/>
	<path class="st43" d="M89.5,43.2c-0.1-0.3,0-0.4,0.4-0.4C89.7,42.9,89.6,43,89.5,43.2z"/>
	<path class="st1" d="M56.4,41.4c-1.3-1.3-2.5-2.8-3.6-4.5c-0.2,1.1,0.2,2,0.4,3c0.1,0.2,0,0.2-0.1,0.1c-0.3-0.6-0.6-1.3-0.6-2
		c0-1.7-0.5-3.3-0.8-4.9c-0.2-1.2,0-2.3,0.1-3.7c-1.1,1.1-2.2,1.9-2.8,3.2c-0.1,0-0.2,0-0.1-0.2c0.1-0.7,0.5-1.3,1-1.8
		c1.3-1.3,2.3-2.8,3.1-4.5c0.4-0.9,1-1.8,1.5-2.6c0.1-0.2,0.3-0.3,0.3-0.7c-1.1,0.2-1.9,0.8-2.8,1.6c0.2-0.6,0.2-0.6,0.8-1.1
		c1.1-0.9,2.2-1.7,3.4-2.5c1.7-1.1,3.4-2.2,5-3.6c-1.6,0-3.1,0.1-4.5-0.3c0.2-0.4,0.5-0.1,0.8-0.1c1.4,0,2.8-0.1,4.2-0.4
		c1.4-0.2,2.7-0.6,4.1-1.3c-0.2,0.5-0.5,0.7-0.8,0.9c-0.8,0.5-1.7,1-2.5,1.5c-1.4,0.8-2.6,1.7-3.8,2.7c-0.2,0.2-0.2,0.2,0.1,0.3
		c0.2,0.1,0.1,0.2,0,0.3c-0.2,0.2-0.3,0.5-0.5,0.7c-0.5,0.9-0.6,1.7,0,2.6c-0.9-0.2-1.5-0.8-1.7-1.9c-0.8,1-1.6,1.9-2.1,3
		c-0.5,1.3-0.1,2.5,0.8,3.5c0.2,0.3,0.5,0.5,0.7,0.8c-1.4-0.5-2-1.6-2.3-3.1c-1.1,2.1-1.7,4.3-1.4,6.6c0.1,0.7,0.6,1.1,1.1,1.4
		c0.3,0.2,0.7,0.3,1.1,0.4c-0.7,0.1-1.3,0-2-0.4c0.3,1.4,1,2.5,1.7,3.5s1.5,2,2.3,3C56.6,41.4,56.5,41.4,56.4,41.4z"/>
	<path class="st44" d="M56.4,41.4L56.4,41.4c0.5,0.2,0.7,0.6,1,0.9C57,42.1,56.7,41.8,56.4,41.4z"/>
	<path class="st4" d="M57.3,16.9c-0.2,0.1-0.5-0.1-0.8,0.1c-0.2-0.1-0.4-0.1-0.6-0.2C56.4,16.8,56.9,16.8,57.3,16.9z"/>
	<path class="st45" d="M57.8,42.8c0.3,0,0.4,0.3,0.6,0.5C58,43.2,58,43.2,57.8,42.8z"/>
	<path class="st46" d="M48.9,32.5c0,0.1,0.1,0.1,0.1,0.2c0,0.2-0.1,0.3-0.2,0.4C48.7,32.9,48.7,32.7,48.9,32.5z"/>
	<path class="st47" d="M53.1,40.1L53.1,40.1c0.2,0,0.4,0.3,0.2,0.4C53.2,40.5,53.2,40.2,53.1,40.1z"/>
	<path class="st8" d="M80.4,40.8c0.1,0.1,0.3,0.3,0.4,0.4c0.3,0.4,0.6,0.8,0.9,1.2c0.1,0.2,0.4,0.4,0,0.6c-0.3,0.2-0.5,0.1-0.7-0.2
		c-0.2-0.4-0.3-0.9-0.7-1.2c-0.2,0.1,0.1,0.4-0.2,0.5c-0.3-0.4-0.5-0.8-0.8-1.3c-0.2-0.3-0.5-0.6-1-0.3c-0.4,0.2-0.3,0.5-0.2,0.8
		c0.2,0.7,0.2,1.5,0.8,2c0.1,0.1,0.1,0.3,0.1,0.4c-0.1,0.6-0.2,1.3-0.3,1.9c0,0.2-0.1,0.4-0.4,0.3c-0.3-0.1-0.1-0.2-0.1-0.4
		c0.1-0.6,0.4-1.2,0.2-1.7c-0.2-0.5-0.9-0.5-1.4-0.8c-0.7-0.4-1.1-0.4-1.9-0.3c-0.8,0.2-1.7,0.1-2.5,0c-0.2,0-0.5-0.1-0.6,0
		c-0.6,0.7-1.3,0.3-2,0.2c-0.9-0.2-1.5,0.4-1.2,1.3c0.1,0.3,0,0.5-0.2,0.6c-0.3,0.1-0.4-0.2-0.5-0.3c-0.3-0.6,0.5-2,1.2-2
		c0.5,0,1.1,0,1.8,0c-0.9-1-0.9-2.1-0.5-3.3c-0.5,0.3-1,0-1.4,0.2c-0.2,0.1-0.3,0.1-0.4-0.1c-0.1-0.2-0.1-0.3,0-0.5s0.3-0.4,0.4-0.5
		c0.6-0.4,0.6-0.8,0-1.2c0.4-0.1,0.9,0.4,1.2-0.2c0.1-0.1,0.3,0.3,0.5,0.4c0.9,0.3,1.5,1,1.6,2c0.1,0.7,0.5,1,1.1,1
		c1,0,1.9,0.1,2.9-0.1c0.8-0.2,1.7,0.1,2.6-0.1C79.6,40.1,80,40.6,80.4,40.8z"/>
	<path class="st48" d="M70.1,41.8c-0.2,0.1-0.4,0-0.6,0c-1.1-0.3-1.5,0-1.8,1.1c0,0.2-0.2,0.2-0.3,0.3c-0.2,0.1-0.2-0.1-0.3-0.2
		c-0.2-0.3-0.2-0.7,0.1-1c0.7-0.6,1.3-1,2.3-0.8C69.9,41.3,70.1,41.4,70.1,41.8z"/>
	<path class="st48" d="M77.2,43.7c0.4,0.1,0.7,0.2,0.4,0.7c-0.2,0.5-0.4,1-0.6,1.5c-0.1,0.2-0.2,0.4-0.5,0.3c-0.3-0.1,0-0.3,0-0.5
		C76.7,45.1,77.3,44.5,77.2,43.7z"/>
	<path class="st49" d="M68.9,42.4c-0.4,0-0.5,0.3-0.7,0.6c-0.2-0.2-0.3-0.3,0-0.5c0.4-0.4,0.8-0.5,1.3-0.3
		C69.4,42.5,69,42.2,68.9,42.4z"/>
	<path class="st50" d="M68.9,42.4c0.1-0.2,0.4,0,0.6-0.3c0.2,0.1,0.5,0.1,0.7,0.2v0.1C69.7,42.4,69.3,42.4,68.9,42.4z"/>
</g>
</svg>
