<?xml version="1.0" encoding="utf-8"?>
<!-- Generator: Adobe Illustrator 21.0.0, SVG Export Plug-In . SVG Version: 6.00 Build 0)  -->
<svg version="1.1" id="Слой_1" xmlns="http://www.w3.org/2000/svg" xmlns:xlink="http://www.w3.org/1999/xlink" x="0px" y="0px"
	 viewBox="0 0 146.1 91.8" style="enable-background:new 0 0 146.1 91.8;" xml:space="preserve">
<style type="text/css">
	.st0{display:none;}
	.st1{display:inline;fill:#646464;}
	.st2{display:inline;fill:#D0D0D0;}
	.st3{display:inline;fill:#C8C8C8;}
	.st4{display:inline;fill:#838383;}
	.st5{display:inline;fill:#FEFEFE;}
	.st6{}
	.st7{fill:#151515;}
	.st8{fill:#050505;}
	.st9{fill:#0D0D0D;}
	.st10{fill:#131313;}
	.st11{fill:#111111;}
	.st12{fill:#0C0C0C;}
	.st13{fill:#121212;}
	.st14{fill:#0E0E0E;}
	.st15{fill:#040404;}
	.st16{fill:#0B0B0B;}
	.st17{fill:#0F0F0F;}
	.st18{fill:#070707;}
	.st19{fill:#090909;}
	.st20{fill:#080808;}
	.st21{fill:#0A0A0A;}
	.st22{fill:#060606;}
	.st23{fill:#FEFEFE;}
	.st24{fill:#141414;}
</style>
<g class="st6">
	<g>
		<path class="st7" d="M45.4,24.2c-0.1,0.2-0.3,0.1-0.4,0.1c-0.4,0-0.7,0.1-1,0.3c-1.2,0.8-2.2,1.9-3.2,2.9
			c-0.8,0.8-1.6,1.7-2.4,2.5c-0.1,0.2-0.2,0.2,0,0.4c1.9,2.5,3.8,5.1,5.8,7.6c0.5,0.6,1.1,1,1.8,1.4c0.8,0.4,1.9,0,2.5-0.7
			c0.1-0.2,0.2-0.3,0.2-0.5c0-2.2,0-4.5,0-6.7c0-0.6-0.8-1.3-1.4-1.3c-0.2,0-0.4,0.1-0.5-0.1c-0.1-0.2,0-0.5,0-0.7
			c0-0.1,0.2-0.1,0.3-0.1c1.1,0,2.3,0,3.4,0c0.3,0,0.3,0.1,0.3,0.3c0,1.5,0,3,0,4.6c0,1.3,0,2.6,0,3.9c0,0.7,0.7,1.4,1.4,1.4
			c0.2,0,0.5,0,0.7,0c0.6,0.1,1.1-0.3,1.4-0.7c0.2-0.2,0.2-0.4,0.2-0.7c0-2.2,0-4.3,0-6.5c0-0.6-0.7-1.4-1.4-1.4
			c-0.6,0-0.7-0.3-0.4-0.8c0.2,0.1,0.5,0,0.8,0c0.9,0,1.8,0,2.6,0c0.1,0.7,0.3,1.4,0.4,2.1c0.5-0.5,1-1,1.5-1.4c0.7-0.6,1.5-1,2.5-1
			c0.3,0.1,0.5,0.1,0.8,0c1.5,0.1,2.7,1.3,2.7,2.8c0,2,0,4,0,6c0,0.8,0.7,1.5,1.4,1.5c0.3,0,0.4,0.1,0.3,0.3c0,0.2,0.1,0.4-0.1,0.5
			c-0.1-0.1-0.2,0-0.3,0c-1.6,0-3.2,0-4.8,0c-0.1,0-0.2,0-0.3,0c-0.2-0.2-0.1-0.5-0.1-0.8c0-0.1,0.2-0.1,0.3-0.1
			c0.9,0,1.5-0.7,1.5-1.6c0-1.9,0-3.8,0-5.7c0-1.3-1-2-2.3-1.7c-1,0.2-1.9,0.7-2.7,1.5c-0.2,0.3-0.4,0.6-0.4,0.9c0,1.7,0,3.4,0,5.1
			c0,0.8,0.7,1.4,1.5,1.5c0.1,0,0.3-0.1,0.3,0.1c0,0.7,0,0.7-0.8,0.7c-4.8,0-9.7,0-14.5,0c-0.2,0-0.3,0-0.5,0
			c-0.7-0.9-1.3-1.9-2-2.8c-1.2-1.7-2.4-3.5-3.6-5.3c-0.2-0.3-0.3-0.4-0.5-0.1c-0.3,0.4-0.6,0.7-0.9,1c-0.4,0.4-0.5,0.8-0.5,1.3
			c0,1.2,0,2.3,0,3.5c0,0.6,0.9,1.5,1.5,1.5c0.7,0,0.8,0.1,0.7,0.8c0,0,0,0-0.1,0c-0.2-0.1-0.4,0-0.6,0c-1.8,0-3.6,0-5.4,0
			c-0.4,0-0.4,0-0.4-0.4c0-0.1,0-0.2,0-0.3c0.2-0.2,0.4-0.1,0.6-0.1c0.7,0,1.5-0.8,1.5-1.5c0-4,0-8.1,0-12.1c0-0.8-0.8-1.6-1.6-1.6
			c-0.1,0-0.3,0-0.4,0c0,0,0,0,0-0.1c-0.1-0.7-0.1-0.7,0.6-0.7c1.8,0,3.7,0,5.5,0c0.3,0,0.4,0.1,0.4,0.2c0.1-0.2-0.1-0.2-0.4-0.2
			c-1.9,0-3.8,0-5.7,0c-0.1,0-0.3,0-0.4,0c0.1-0.2,0.2-0.1,0.3-0.1c2,0,4,0,5.9,0c0.4,0,0.3,0.2,0.4,0.5c0,0.3,0,0.4-0.4,0.4
			c-0.9-0.1-1.3,0.5-1.7,1.1c-0.1,0.1-0.1,0.2-0.1,0.3c0,2.2,0,4.4,0,6.6c0,0,0,0,0,0.1c0.2-0.2,0.4-0.5,0.6-0.7
			c1.7-1.9,3.4-3.8,5.2-5.7c0.3-0.3,0.3-0.5,0.1-0.8c-0.3-0.5-0.7-1-1.4-0.8c-0.2,0-0.3-0.1-0.3-0.3c0-0.1,0-0.3,0-0.4
			c0.1-0.1,0.3-0.1,0.5-0.1c1.7,0,3.4,0,5.1,0c0.5,0,0.5,0,0.5,0.5C45.4,24.1,45.4,24.2,45.4,24.2z"/>
		<path class="st7" d="M13.7,39.6c0.1-0.1,0.2-0.1,0.3-0.1c0.9,0.1,1.3-0.5,1.7-1.1c0.1-0.1,0.1-0.2,0.1-0.4c0-3.9,0-7.8,0-11.8
			c0,0,0-0.1,0-0.3c-2.1,4.9-4.1,9.8-6.1,14.7c-2.1-5-4.1-9.9-6.1-14.8c0,0-0.1,0-0.1,0c0,0.2,0,0.3,0,0.5c0,3.8,0,7.7,0,11.5
			c0,0.8,0.8,1.6,1.6,1.6c0.2,0,0.4-0.1,0.5,0.1c-0.2,0.1-0.4,0-0.5,0c-0.1,0,0,0.1,0,0c0,0,0,0,0,0c0.1,0,0.1,0,0.2,0
			c0.3,0,0.4,0,0.4,0.3c0,0.3-0.1,0.4-0.4,0.4c-1.5,0-2.9,0-4.4,0c-0.2,0-0.4,0-0.4-0.3c0-0.3,0.1-0.4,0.4-0.3
			c-0.3-0.1-0.4,0-0.4,0.3c0,0.1,0,0.3,0,0.4c-0.2-0.2-0.1-0.5-0.1-0.7c0-0.2,0.2-0.1,0.3-0.1C1.2,39.7,1.6,39.4,2,39
			c0.3-0.3,0.5-0.7,0.5-1.2c0-4,0-8,0-12.1c0-0.2-0.1-0.4-0.2-0.6c-0.5-0.6-1-1-1.8-0.9c-0.1-0.1-0.1-0.3-0.1-0.5
			c0-0.2,0.1-0.3,0.3-0.3c1.5,0,2.9,0,4.4,0c0.1,0,0.1,0,0.2,0c0.7,1.5,1.2,3,1.8,4.5c1.1,2.6,2.1,5.3,3.1,7.9
			c0,0.1,0.1,0.1,0.1,0.2c0.2-0.1,0.2-0.2,0.2-0.3c1.7-4,3.4-8.1,5.1-12.1c0.1-0.1,0.1-0.3,0.2-0.4c1.2,0,2.4,0,3.7,0
			c0.8,0,0.8,0,0.6,0.8c-0.8-0.1-1.4,0.3-1.8,0.9c-0.1,0.2-0.2,0.3-0.2,0.5c0,4.1,0,8.3,0,12.4c0,0.6,0.9,1.4,1.4,1.4
			c0.2,0,0.4-0.1,0.7,0.1c-0.2,0.1-0.3,0-0.5,0c0.4,0,0.4,0,0.4,0.4c0,0.3-0.1,0.3-0.3,0.3c-1.9,0-3.8,0-5.7,0c-0.4,0-0.4,0-0.4-0.4
			c0-0.4,0.2-0.3,0.5-0.3C14,39.6,13.9,39.7,13.7,39.6z"/>
		<path class="st7" d="M130.6,51.9c1.3,0.1,2.4,1.1,2.6,2.5c0,0.3,0.1,0.6,0.1,0.9c0,1.8,0,3.6,0,5.4c0,0.6,0.2,1,0.6,1.3
			c0.1,0.1,0.2,0.1,0.2,0.2c0.1,0.2,0.3,0.2,0.5,0.2c0.3,0,0.3,0.2,0.3,0.4c0,0.2,0,0.4-0.3,0.4c-1.7,0-3.4,0-5.1,0
			c-0.1,0-0.1,0-0.2-0.1c0-0.2-0.1-0.5,0.1-0.7c0.2,0.1,0.4,0.1,0.6,0c0.2-0.1,0.4-0.2,0.6-0.4c0.4-0.3,0.6-0.7,0.6-1.2
			c0-1.8,0-3.6,0-5.4c0-0.2,0-0.3,0-0.5c-0.1-1.2-1-1.8-2.1-1.6c-1.1,0.2-2,0.7-2.8,1.6c-0.2,0.3-0.4,0.6-0.4,0.9c0,1.7,0,3.3,0,5
			c0,0.8,0.7,1.4,1.5,1.5c0.1,0,0.2,0,0.3,0c-0.1,0.1-0.1,0-0.2,0c0,0,0,0,0,0c0.3,0.1,0.1,0.4,0.1,0.6c0,0.2-0.2,0.1-0.4,0.1
			c-2.8,0-5.6,0-8.4,0c2.8,0,5.6,0,8.5,0c0.2,0,0.3-0.1,0.3-0.3c0-0.1-0.1-0.3,0-0.4c0.1,0.2,0,0.5,0.1,0.7c0,0.1-0.1,0.2-0.2,0.2
			c-0.1,0-0.1,0-0.2,0c-2.9,0-5.7,0-8.6,0c-0.3,0-0.4-0.1-0.4-0.4c0-0.6-0.1-1.2-0.2-1.8c-0.2,0.2-0.4,0.4-0.5,0.6
			c-0.7,0.8-1.4,1.4-2.4,1.7c-1.7,0.4-3.4-0.8-3.5-2.6c0-0.2,0-0.5,0-0.7c0.1-1,0.7-1.7,1.5-2.2c0.9-0.5,1.9-0.7,2.8-0.9
			c0.6-0.1,1.1-0.2,1.7-0.3c0.2,0,0.3-0.1,0.3-0.3c0-0.5,0-0.9,0-1.4c0-1.2-0.6-1.9-1.8-2.1c-0.4-0.1-0.9-0.1-1.3,0
			c-1.2,0.2-1.7,0.9-1.4,2.1c0.1,0.3,0.2,0.6,0.3,0.9c-0.5,0.1-0.9,0-1.1-0.5c-0.3-0.5-0.6-1-0.9-1.4c-0.1-0.2-0.1-0.3,0.1-0.5
			c1.2-1.1,2.6-1.5,4.2-1.5c1.2,0,2.3,0.2,3.2,1c0.6,0.5,0.9,1.2,0.9,2c-0.1,0.1,0,0.2,0,0.3c0,2,0,3.9,0,5.9c0,0.1,0,0.2,0,0.2
			c0.1,0.1,0.2,0.3,0.3,0.4c0.4,0.5,0.9,0.7,1.6,0.7c0.7,0,1.2-0.2,1.6-0.8c0.1-0.2,0.2-0.3,0.2-0.6c0-2.2,0-4.5,0-6.7
			c0-0.5-0.8-1.3-1.3-1.3c-0.6,0-0.7-0.1-0.5-0.8c1.1,0,2.2,0.1,3.4,0c0.2,0.5,0.2,1.1,0.4,1.6c0,0.2,0.1,0.3,0.1,0.6
			c0.4-0.3,0.7-0.7,1-1c0.7-0.7,1.5-1.2,2.5-1.4c0.1,0,0.2,0,0.3,0C130,52,130.3,52,130.6,51.9z"/>
		<path class="st7" d="M36.3,46c0.7,0,1.4,0.2,2.1,0.3c0.3,0.1,0.7,0.1,1,0.1c0.2,0,0.3,0,0.4-0.1c0.2-0.2,0.5-0.1,0.8-0.1
			c0.1,0,0.1,0.1,0.1,0.2c0,1.2,0,2.4,0,3.5c0,0.2,0,0.3-0.2,0.3c-0.2-0.1-0.5,0.2-0.5-0.2c-0.4-2.1-2.8-3.6-4.9-3.1
			c-1.7,0.4-2.4,2-1.6,3.6c0.4,0.8,1,1.3,1.8,1.6c0.2,0.1,0.4,0.2,0.6,0.4c2.1,2.2,4.3,4.3,6.6,6.4c0.2,0.2,0.3,0.2,0.4-0.1
			c0.6-1.2,0.8-2.4,0.7-3.7c-0.1-1.2-1-2-2.3-2.1c-0.5,0-0.3-0.4-0.3-0.6c-0.1-0.3,0.1-0.3,0.3-0.3c1.8,0,3.6,0,5.3,0
			c0.4,0,0.3,0.2,0.3,0.4c0,0.2,0.1,0.5-0.3,0.4c-0.3-0.1-0.6,0.1-0.8,0.3c-0.2,0.2-0.4,0.5-0.6,0.7c-0.3,0.3-0.4,0.7-0.4,1.2
			c-0.1,1.5-0.5,2.9-1.3,4.2c-0.1,0.2-0.1,0.3,0.1,0.4c1.1,0.9,2.1,1.8,3.2,2.6c0.3,0.1,0.7,0,1,0.1c0.1,0.7,0.1,0.8-0.7,0.7
			c-0.5,0-1.1,0.1-1.6,0c0.7-0.1,1.3,0,2-0.1c-0.8,0-1.6,0-2.4,0c-1.2-0.1-2.2-0.6-3.1-1.4c-0.2-0.2-0.3-0.2-0.6,0
			c-1.4,1.3-3.1,1.7-5,1.8c-1.7,0-3.2-0.5-4.4-1.7c-0.7-0.7-1.2-1.6-1.3-2.7c0-0.4,0.1-0.8,0-1.2c0.1-1.7,0.9-3.1,2.3-4.2
			c0.3-0.3,0.3-0.4,0.1-0.7c-0.8-1.1-1.2-2.3-1-3.6c0.2-2.3,2-3.3,3.9-3.3C36,46.1,36.1,46.1,36.3,46z"/>
		<path class="st7" d="M87.2,51.9c1.3,0,2.2,0.7,2.7,2.2c0.5-0.5,1-1,1.5-1.4c0.9-0.7,2-1,3.2-0.8c1.3,0.2,2.3,1.3,2.3,2.6
			c-0.1,0.1,0,0.3,0,0.4c0,1.8,0,3.7,0,5.5c0,0.1,0,0.3,0,0.4c0.1,0,0-0.1,0-0.1c0-1.9,0-3.8,0-5.7c0-0.1,0-0.2,0.1-0.3
			c0.1,0.1,0,0.3,0,0.4c0,1.8,0,3.7,0,5.5c0,0.8,0.7,1.5,1.5,1.5c0.2,0,0.3,0.1,0.3,0.3c0,0.2,0.1,0.4-0.1,0.6c-0.1-0.1-0.3,0-0.4,0
			c-1.5,0-3,0-4.5,0c-0.1,0-0.3,0-0.4,0c-0.1-0.2,0-0.5-0.1-0.7c0-0.1,0.1-0.1,0.2-0.1c0.9,0.1,1.3-0.5,1.6-1.1
			c0.1-0.1,0.1-0.1,0.1-0.2c0-2,0-3.9,0-5.9c0,0,0-0.1,0-0.1c0-0.1,0-0.1-0.1-0.2c-0.1-1.1-0.9-1.6-2-1.5c-1,0.2-1.9,0.7-2.6,1.4
			c-0.2,0.3-0.4,0.6-0.4,0.9c0,1.8,0,3.6,0,5.4c0,0.6,0.7,1.3,1.2,1.3c0.6,0,0.7,0.3,0.4,0.8c-0.1-0.1-0.1,0-0.2,0c-1.7,0-3.3,0-5,0
			c-0.1,0-0.2,0-0.2,0c-0.2-0.2-0.1-0.5-0.1-0.7c0-0.1,0.2-0.1,0.3-0.1c0.9,0,1.5-0.7,1.5-1.6c0-1.8,0-3.7,0-5.5c0-0.2,0-0.3,0-0.5
			c-0.1-1.1-0.9-1.7-2-1.5c-1.1,0.2-1.9,0.7-2.6,1.5C83.1,55,83,55.3,83,55.7c0,1.7,0,3.4,0,5.2c0,0.8,0.7,1.4,1.4,1.4
			c0.1,0,0.2-0.1,0.3,0.1c-0.1,0.1-0.2,0-0.3,0c0.4,0,0.2,0.3,0.2,0.5c0,0.2-0.1,0.2-0.3,0.2c-1.6,0-3.2,0-4.8,0c-0.1,0-0.3,0-0.4,0
			c-0.2-0.2-0.1-0.5-0.1-0.7c0-0.2,0.2-0.1,0.2-0.1c1,0,1.5-0.6,1.5-1.6c0-2.1,0-4.1,0-6.2c0-0.8-0.7-1.5-1.5-1.5
			c-0.4,0-0.3-0.3-0.3-0.5c0-0.2,0-0.4,0.3-0.4c0.9,0,1.9,0,2.8,0c0.2,0,0.3,0.1,0.3,0.3c0.1,0.6,0.2,1.2,0.4,1.8
			c0.5-0.5,0.9-1,1.4-1.4c0.7-0.5,1.4-0.9,2.3-0.9C86.9,52,87,52,87.2,51.9z"/>
		<path class="st7" d="M110.6,57.9c-0.1,1.8-0.6,3.5-2.1,4.6c-0.6,0.5-1.3,0.8-2.1,0.8c-0.2,0-0.5,0-0.7,0c-1.5,0-2.6-0.7-3.3-2
			c-0.1,0.1-0.1,0.2-0.1,0.3c0,1.5,0,3,0,4.5c0,0.8,0.7,1.5,1.5,1.5c0.1,0,0.4-0.1,0.4,0.1c0.1,0.2,0,0.5,0,0.7
			c0,0.1-0.1,0.1-0.2,0.1c-1.8,0-3.6,0-5.4,0c-0.2,0-0.2-0.1-0.2-0.2c0-0.6,0-0.6,0.6-0.6c0.6,0,1.3-0.7,1.3-1.3c0-3.9,0-7.9,0-11.8
			c0-0.8-0.7-1.5-1.5-1.5c-0.1,0-0.2,0-0.2,0c-0.1-0.1-0.1-0.2-0.1-0.4c0-0.3,0.1-0.4,0.4-0.4c0.9,0,1.8,0,2.7,0c0.1,0,0.3,0,0.4,0
			c0.2,0.6,0.3,1.3,0.4,2c0,0,0,0.1,0,0.2c0.8-1.4,1.8-2.3,3.4-2.4c0.4,0.1,0.7,0.1,1.1,0c1.2,0.1,2.1,0.7,2.8,1.7
			c0.7,1,1,2.2,1,3.5C110.5,57.3,110.5,57.6,110.6,57.9z"/>
		<path class="st7" d="M52.2,54.1c0.2-3.2,1.3-6,4.3-7.5c1.7-0.9,3.5-0.9,5.3-0.5c0.6,0.2,1.3,0.4,1.9,0.4c0.5,0,0.9,0,1.3-0.3
			c0.2-0.2,0.4-0.1,0.6-0.1c0.2,0,0.1,0.3,0.1,0.4c0,1.7,0,3.5,0,5.2c0,0.2,0.1,0.4-0.2,0.4c-0.2,0-0.5,0.1-0.5-0.3
			c-0.4-2.3-1.6-4-3.9-4.8c-2.7-0.9-5.2,0.6-5.9,3.4c-0.4,1.6-0.4,3.3-0.3,5c0,0.9,0.1,1.7,0.4,2.6c0.8,2.5,2.9,4,5.6,4
			c1.5,0,2.8-0.3,3.9-1.4c0.5-0.5,0.9-1.1,1.3-1.8c0.1-0.2,0.7-0.4,1-0.3c0.1,0.1,0,0.2,0,0.2c-1,2.5-2.8,4.1-5.5,4.5
			c-2.4,0.4-4.7-0.2-6.5-1.9c-1.6-1.5-2.4-3.3-2.7-5.5c0-0.3-0.1-0.6-0.1-1C52.3,54.7,52.3,54.4,52.2,54.1z"/>
		<path class="st7" d="M73.9,51.8c2-0.1,4.1,1.4,4.8,3.5c0.2,0.6,0.3,1.1,0.4,1.7c0,0.4,0,0.8,0,1.1c-0.1,2.8-2.5,5.2-5.2,5.2
			c-3.3,0.1-6-2.6-5.7-6.4c0.2-1.8,0.9-3.3,2.4-4.3c0.8-0.6,1.7-0.9,2.8-0.9C73.5,51.9,73.7,51.9,73.9,51.8z"/>
		<path class="st7" d="M75.3,34.7c0-2.3,1.5-5.1,4.4-5.5c0.2,0,0.3,0,0.5,0c0.1,0.1,0.3,0,0.4,0c1.8-0.1,3.4,1.3,3.8,3.1
			c0.1,0.4,0.1,0.8,0.1,1.3c0,0.2,0,0.3-0.3,0.3c-1.9,0.1-3.9,0.3-5.8,0.5c-0.3,0-0.7,0.1-1,0.1c-0.2,0-0.2,0.1-0.2,0.3
			c0.1,2.2,1.7,4.3,4.3,4.1c1.3-0.1,2.4-0.6,3-1.8c0.2-0.3,0.5-0.1,0.7-0.2c0.1,0,0,0.1,0,0.2c-0.8,2.5-2.4,3.9-5.2,3.7
			c-2.4-0.2-4.2-2-4.6-4.6c0-0.3-0.1-0.6-0.1-1C75.3,35,75.3,34.8,75.3,34.7z"/>
		<path class="st7" d="M96.3,29.4c0.2,0.2,0.1,0.5,0.1,0.7c0,0.2-0.1,0.1-0.2,0.1c-0.3,0-0.6,0.1-0.8,0.3c-0.4,0.4-0.8,0.9-1,1.4
			c-2,4.6-4.1,9.1-6.1,13.7c-0.1,0.3-0.2,0.3-0.5,0.2c-0.7-0.3-0.7-0.3-0.4-1c0.8-1.7,1.6-3.4,2.5-5c0.1-0.2,0.1-0.4,0-0.6
			c-1.2-2.5-2.3-5-3.5-7.5c-0.3-0.6-0.7-1-1.3-1.4c-0.1,0-0.2-0.1-0.2-0.1c-0.2,0-0.4,0.1-0.5-0.1c-0.1-0.2-0.1-0.5,0-0.8
			c0.1,0.1,0.3,0,0.4,0c1.6,0,3.3,0,4.9,0c0.1,0,0.3,0,0.4,0c0,0.1,0,0.1,0,0.2c0,0.6,0,0.6-0.6,0.6c-0.6,0-1.2,0.9-1,1.5
			c0.8,1.8,1.6,3.6,2.4,5.5c0.1-0.1,0.1-0.2,0.2-0.3c0.7-1.7,1.5-3.5,2.2-5.2c0.2-0.5-0.3-1.4-0.9-1.5c-0.2,0-0.4,0.1-0.5-0.1
			c0,0,0-0.1,0-0.1c0-0.6,0-0.6,0.6-0.6c1.1,0,2.2,0,3.3,0C96,29.5,96.2,29.5,96.3,29.4z"/>
		<path class="st7" d="M145.8,52.9c-0.9,0.1-1.4,0.8-1.8,1.5c-1.4,3-2.7,6.1-4.1,9.1c-0.7,1.6-1.5,3.3-2.2,4.9
			c-0.1,0.2-0.2,0.3-0.5,0.2c-0.7-0.4-0.7-0.3-0.4-1.1c0.8-1.7,1.6-3.4,2.5-5c0.1-0.2,0.1-0.3,0-0.5c-1.2-2.5-2.3-5-3.5-7.6
			c-0.3-0.6-0.8-1-1.3-1.4c-0.1,0-0.1-0.1-0.2-0.1c-0.2,0-0.4,0.1-0.4-0.1c-0.1-0.2-0.1-0.5,0-0.7c0.1,0.1,0.3,0,0.4,0
			c1.6,0,3.2,0,4.8,0c0.6,0,0.7,0.1,0.5,0.7c-0.7-0.1-1.2,0.3-1.5,0.9c-0.1,0.1-0.1,0.3,0,0.4c0.8,1.9,1.6,3.7,2.4,5.6
			c0,0,0,0,0.1,0.1c0.2-0.4,0.4-0.9,0.6-1.3c0.6-1.4,1.2-2.7,1.8-4.1c0.3-0.6-0.3-1.5-1-1.5c-0.1,0-0.3,0-0.4,0
			c-0.1-0.1-0.1-0.2-0.1-0.4c0-0.3,0.1-0.4,0.4-0.4c1.1,0,2.2,0,3.4,0C145.9,52.2,146,52.3,145.8,52.9z"/>
		<path class="st7" d="M67.1,36.6c0.3,1.1,0.9,2,1.9,2.6c0.9,0.6,1.9,0.7,2.9,0.5c0.6-0.1,1-0.4,1.2-1.1c0.1-0.7-0.1-1.2-0.6-1.6
			c-0.5-0.4-1-0.6-1.5-0.8c-0.9-0.4-1.7-0.7-2.6-1.1c-0.9-0.5-1.6-1.1-1.8-2.1c-0.4-2,0.6-3.6,2.7-3.8c0.3,0,0.6,0.1,0.9,0
			c0.5,0,0.9,0.2,1.4,0.3c0.3,0.1,0.6,0.2,1,0.2c0.2,0,0.4,0,0.5-0.2c0.2-0.2,0.4-0.1,0.6-0.1c0.2,0,0.1,0.3,0.1,0.4
			c0,0.9,0,1.7,0,2.6c0,0.2,0.1,0.4-0.2,0.4c-0.2,0-0.4,0.1-0.5-0.3c-0.4-1.7-2.3-2.9-4-2.5c-0.6,0.1-1.1,0.5-1.2,1.1
			c-0.1,0.6,0.1,1.1,0.7,1.5c0.7,0.4,1.4,0.7,2.1,1c0.6,0.3,1.2,0.5,1.7,0.7c1.1,0.5,1.9,1.2,2.1,2.5c0.3,2.1-1,3.7-3.1,3.9
			c-0.7,0-1.4-0.1-2.1-0.3c-0.3-0.1-0.5-0.2-0.8-0.2c-0.5-0.1-1-0.1-1.4,0.3c-0.2,0-0.3-0.1-0.5,0c-0.1,0-0.1-0.1-0.1-0.2
			c0-1.1,0-2.3,0-3.4c0-0.1-0.1-0.2,0.1-0.2C66.8,36.6,67,36.6,67.1,36.6z"/>
		<path class="st7" d="M26,29.1c1.3,0,2.5,0.4,3.5,1.3c0.2,0.1,0.2,0.2,0,0.4c-0.4,0.6-0.8,1.2-1.2,1.8c-0.2,0.4-0.5,0.5-1,0.5
			c0-0.4,0.1-0.9,0.1-1.3c-0.1-1.6-1.1-2.1-2.5-1.9c-1,0.1-1.7,0.7-2.1,1.6c-0.8,1.8-0.9,3.5,0.1,5.3c1,1.8,3.6,2.5,5.5,1.5
			c0.5-0.3,0.9-0.7,1.2-1.2c0.2-0.4,0.5-0.3,0.8-0.2c0.2,0,0.1,0.2,0,0.2c-0.6,2.2-2.2,3.5-4.3,3.6c-2.4,0.1-4.2-0.9-5.1-3.1
			c-0.9-2.5-0.7-4.8,1.1-6.9c0.9-1,2.1-1.5,3.5-1.6C25.7,29.2,25.9,29.2,26,29.1z"/>
		<path class="st7" d="M49.6,26.8c-0.9,0-1.5-0.6-1.5-1.4c0-0.8,0.6-1.4,1.5-1.4c0.8,0,1.4,0.6,1.4,1.4C51,26.3,50.4,26.8,49.6,26.8
			z"/>
		<path class="st8" d="M42.7,40.4c0.1-0.1,0.3-0.1,0.4-0.1c4.9,0,9.7,0,14.6,0c0.6,0,0.5,0,0.6-0.5c0-0.1,0.1-0.1,0.1-0.2
			c0,0,0,0,0,0c0.1,0.7,0.1,0.7-0.7,0.7c-4.9,0-9.8,0-14.7,0C43,40.4,42.8,40.4,42.7,40.4z"/>
		<path class="st7" d="M129.4,63c1.7,0,3.4,0,5.1,0c0.2,0,0.4,0.1,0.4-0.3c0-0.3-0.1-0.4-0.4-0.4c-0.2,0-0.3-0.1-0.4-0.2
			c0,0,0,0,0,0c0,0,0,0,0,0c0.2,0.1,0.4,0.1,0.6,0.1c0.2,0,0.3,0.1,0.3,0.3c0,0.1,0,0.2,0,0.3c0,0.2-0.1,0.2-0.2,0.2
			c-1.7,0-3.5,0-5.2,0C129.5,63.1,129.4,63.2,129.4,63z"/>
		<path class="st9" d="M45.4,24.2c-0.2-0.2,0-0.5-0.1-0.6c-0.2-0.1-0.5,0-0.7,0c-1.7,0-3.5,0-5.2,0c0-0.1,0.1-0.1,0.2-0.1
			c1.9,0,3.8,0,5.7,0c0.2,0,0.2,0,0.2,0.2C45.4,23.9,45.4,24,45.4,24.2z"/>
		<path class="st10" d="M5.3,23.6c-0.4,0-0.8,0-1.3,0c-1,0-2.1,0-3.1,0c-0.4,0-0.6,0.1-0.5,0.5c0,0.1,0,0.2,0,0.2
			c-0.3-0.2-0.1-0.5-0.1-0.7c0-0.2,0.2-0.1,0.3-0.1c1.4,0,2.9,0,4.3,0C5.1,23.5,5.3,23.4,5.3,23.6z"/>
		<path class="st11" d="M13.7,39.6c0.3,0,0.5,0,0.8,0c0,0,0,0.1,0,0.1c-0.1,0-0.2,0-0.3,0c-0.2,0-0.3,0.1-0.3,0.3
			c0,0.3,0.1,0.3,0.4,0.3c1.9,0,3.8,0,5.7,0c0.2,0,0.4,0,0.4-0.3c0-0.3-0.2-0.3-0.4-0.3c-0.1,0-0.3,0-0.5-0.1c0.4,0,0.6,0,0.9,0
			c0,0,0,0,0,0.1c0.1,0.7,0.1,0.7-0.7,0.7c-1.8,0-3.6,0-5.4,0c-0.5,0-0.5,0-0.5-0.5C13.7,39.8,13.6,39.7,13.7,39.6z"/>
		<path class="st12" d="M20.2,24.3c0-0.7,0-0.7-0.7-0.7c-1.1,0-2.1,0-3.2,0c-0.1,0-0.3,0.1-0.4-0.1c0.5-0.1,1,0,1.6,0
			c0.8,0,1.7,0,2.5,0c0.3,0,0.4,0.1,0.4,0.4C20.2,24,20.4,24.2,20.2,24.3z"/>
		<path class="st13" d="M0.4,40.4c0,0,0-0.1,0-0.1c0-0.7,0-0.7,0.8-0.6c-0.1,0.1-0.2,0-0.4,0c-0.2,0-0.3,0.1-0.3,0.3
			c0,0.2,0.1,0.3,0.3,0.3c1.5,0,3,0,4.4,0c0.2,0,0.3-0.1,0.3-0.3c0-0.2-0.1-0.3-0.3-0.3c-0.1,0-0.3,0-0.5-0.1c0.3,0,0.5,0,0.8,0
			c0.1,0.8,0.1,0.8-0.7,0.8c-1.4,0-2.7,0-4.1,0C0.6,40.4,0.5,40.4,0.4,40.4z"/>
		<path class="st13" d="M30.7,23.5c2,0,4,0,6,0c0.6,0,0.6,0,0.5,0.6c0,0,0,0,0,0c0.1-0.4-0.2-0.5-0.5-0.5c-1.7,0-3.4,0-5.1,0
			c-0.7,0-0.7,0-0.7,0.7C30.5,24.1,30.7,23.8,30.7,23.5z"/>
		<path class="st14" d="M139.7,52.9c0-0.7,0-0.7-0.7-0.7c-1.5,0-3,0-4.6,0c-0.1,0-0.3,0.1-0.4-0.1c0.6-0.1,1.1,0,1.7,0
			c1.2,0,2.4,0,3.6,0c0.4,0,0.5,0.1,0.4,0.5C139.8,52.7,139.9,52.9,139.7,52.9z"/>
		<path class="st15" d="M30.7,39.6c0,0,0.1,0.1,0.1,0.1c0.1,0.6,0.1,0.6,0.7,0.6c1.8,0,3.6,0,5.4,0c0.1,0,0.3,0,0.4,0.1
			c-1.7,0-3.4,0-5.1,0c-0.4,0-0.8,0-1.1,0c-0.2,0-0.3,0-0.3-0.3C30.7,40,30.6,39.8,30.7,39.6z"/>
		<path class="st9" d="M79.2,63.1c0.1-0.1,0.3-0.1,0.4-0.1c1.5,0,3,0,4.5,0c0.2,0,0.5,0.1,0.5-0.3c0-0.4-0.2-0.3-0.4-0.3
			c0,0-0.1,0-0.1-0.1c0.2,0,0.4,0,0.6,0c0.1,0.8,0.1,0.8-0.7,0.8C82.4,63.1,80.8,63.1,79.2,63.1z"/>
		<path class="st16" d="M95,54.9c0-0.1,0-0.1,0-0.2C95.1,54.7,95.1,54.8,95,54.9c0.1,2,0.1,4,0.1,6c0,0.1,0,0.1,0,0.2c0,0,0,0,0,0
			c0,0,0,0,0,0C95,59.1,95,57,95,54.9z"/>
		<path class="st12" d="M96.9,54.8c0,1.9,0,3.9,0,5.8c0,0.1,0,0.3,0,0.4c0,0,0-0.1,0-0.1C96.8,58.9,96.8,56.9,96.9,54.8
			c-0.1,0-0.1-0.1,0-0.2C96.9,54.6,96.9,54.7,96.9,54.8z"/>
		<path class="st15" d="M120.1,61.2c-0.2,0-0.1-0.1-0.1-0.1c0-2,0-4,0-6c0-0.1,0-0.2,0.1-0.2C120.1,56.9,120.1,59,120.1,61.2z"/>
		<path class="st17" d="M145.8,52.9c0-0.7,0-0.7-0.7-0.7c-1,0-1.9,0-2.9,0c-0.5,0-0.5,0-0.5,0.5c0,0.1,0,0.1,0,0.2
			c-0.3-0.2-0.1-0.5-0.1-0.7c0-0.2,0.2-0.1,0.4-0.1c1.3,0,2.6,0,4,0C145.9,52.4,145.9,52.6,145.8,52.9
			C145.9,52.9,145.8,52.9,145.8,52.9z"/>
		<path class="st18" d="M90.2,29.5c-1.8,0-3.5,0-5.3,0c-0.1,0-0.3,0.1-0.4-0.1c1.4,0,2.8,0,4.2,0c0.4,0,0.8,0,1.3,0
			C90,29.4,90.1,29.3,90.2,29.5z"/>
		<path class="st19" d="M86.2,63.1c0.1-0.1,0.2-0.1,0.3-0.1c1.6,0,3.2,0,4.8,0c0.1,0,0.2,0,0.3,0.1C89.9,63.1,88.1,63.1,86.2,63.1z"
			/>
		<path class="st15" d="M60.2,40.4c0.1-0.1,0.2-0.1,0.3-0.1c1.6,0,3.2,0,4.8,0c0.1,0,0.2,0,0.3,0.1C63.8,40.4,62,40.4,60.2,40.4z"/>
		<path class="st15" d="M93.2,63.1c0.1-0.1,0.2-0.1,0.3-0.1c1.6,0,3.1,0,4.7,0c0.1,0,0.2,0,0.3,0.1C96.8,63.1,95,63.1,93.2,63.1z"/>
		<path class="st18" d="M96.3,29.4c-0.1,0.1-0.3,0.1-0.4,0.1c-1.1,0-2.2,0-3.4,0c-0.4,0-0.5,0.1-0.5,0.5c0,0.1,0,0.2-0.1,0.2
			c-0.1-0.8-0.1-0.8,0.7-0.8C93.9,29.4,95.1,29.4,96.3,29.4z"/>
		<path class="st17" d="M101.9,52.1c-0.1,0.1-0.3,0.1-0.4,0.1c-0.8,0-1.7,0-2.5,0c-0.4,0-0.5,0.1-0.5,0.5c0,0.1,0,0.2,0,0.2
			c-0.3-0.2-0.1-0.5-0.1-0.7c0-0.2,0.2-0.1,0.3-0.1C99.7,52.1,100.8,52.1,101.9,52.1z"/>
		<path class="st18" d="M56.1,29.5c-1,0-2.1,0-3.1,0c-0.1,0-0.2,0-0.3-0.1c1.1,0,2.2,0,3.3,0C56.1,29.4,56.1,29.4,56.1,29.5z"/>
		<path class="st20" d="M125.4,52.1c-0.1,0.1-0.1,0.1-0.2,0.1c-1,0-2,0-2.9,0c-0.1,0-0.2,0-0.2-0.1
			C123.2,52.1,124.3,52.1,125.4,52.1z"/>
		<path class="st12" d="M44.9,63.1c0.2-0.1,0.5-0.1,0.7-0.1c0.6,0,1.2,0,1.8,0.1c-0.7,0-1.4,0-2.1,0C45.2,63.1,45.1,63.1,44.9,63.1z
			"/>
		<path class="st12" d="M110.6,57.9c-0.1-0.3-0.1-0.6,0-0.9C110.6,57.3,110.6,57.6,110.6,57.9z"/>
		<path class="st20" d="M30.7,57.8c0.1,0.4,0.1,0.8,0,1.2C30.6,58.6,30.6,58.2,30.7,57.8z"/>
		<path class="st12" d="M79.1,58.2c-0.1-0.4-0.1-0.8,0-1.1C79.1,57.4,79.1,57.8,79.1,58.2z"/>
		<path class="st21" d="M47.6,62.4c-0.3,0-0.6,0-1,0c0,0,0,0,0,0c0,0,0,0,0-0.1C47,62.3,47.3,62.2,47.6,62.4z"/>
		<path class="st18" d="M106.8,51.8c-0.4,0.1-0.7,0.1-1.1,0C106.1,51.8,106.4,51.8,106.8,51.8z"/>
		<path class="st15" d="M52.2,54.1c0.1,0.3,0.1,0.6,0,0.9C52.2,54.7,52.2,54.4,52.2,54.1z"/>
		<path class="st20" d="M130.6,51.9c-0.3,0.1-0.6,0.1-0.9,0C130,51.9,130.3,51.8,130.6,51.9z"/>
		<path class="st18" d="M70.2,29.1c-0.3,0.1-0.6,0.1-0.9,0C69.6,29.1,69.9,29.1,70.2,29.1z"/>
		<path class="st22" d="M61.2,29.2c-0.3,0.1-0.5,0.1-0.8,0C60.7,29.2,61,29.2,61.2,29.2z"/>
		<path class="st7" d="M145.9,52.9c0-0.3,0-0.5,0-0.8C146,52.4,146,52.6,145.9,52.9z"/>
		<path class="st21" d="M111.7,60c0.1,0.2,0.1,0.5,0,0.7C111.7,60.5,111.7,60.3,111.7,60z"/>
		<path class="st16" d="M105.6,63.3c0.2-0.1,0.5-0.1,0.7,0C106.1,63.3,105.9,63.3,105.6,63.3z"/>
		<path class="st19" d="M130.1,62.3c-0.2,0.2-0.4,0.1-0.6,0C129.7,62.3,129.9,62.3,130.1,62.3z"/>
		<path class="st8" d="M67.1,36.6c-0.2,0.1-0.4,0.1-0.5,0C66.8,36.6,67,36.5,67.1,36.6z"/>
		<path class="st15" d="M73.9,51.8c-0.2,0.1-0.4,0.1-0.5,0C73.5,51.8,73.7,51.8,73.9,51.8z"/>
		<path class="st8" d="M87.2,51.9c-0.2,0.1-0.3,0.1-0.5,0C86.9,51.9,87,51.9,87.2,51.9z"/>
		<path class="st15" d="M75.3,34.7c0.1,0.2,0.1,0.3,0,0.5C75.3,35,75.2,34.8,75.3,34.7z"/>
		<path class="st20" d="M66.6,40.4c0.1-0.1,0.3-0.1,0.5,0C66.9,40.5,66.8,40.4,66.6,40.4z"/>
		<path class="st22" d="M26,29.1c-0.1,0.1-0.3,0.1-0.4,0C25.7,29.1,25.9,29.1,26,29.1z"/>
		<path class="st22" d="M80.5,29.1c-0.1,0.1-0.3,0.1-0.4,0C80.2,29.1,80.4,29.1,80.5,29.1z"/>
		<path class="st22" d="M36.3,46c-0.1,0.1-0.3,0.1-0.4,0C36,46,36.1,46,36.3,46z"/>
		<path class="st17" d="M32.8,38.3c0-4.2,0-8.5,0-12.7c0,0,0,0,0,0C32.9,29.8,32.9,34.1,32.8,38.3C32.8,38.3,32.8,38.3,32.8,38.3z"
			/>
		<path class="st17" d="M48.8,31.4c0,2.3,0,4.7,0,7c0,0,0,0,0,0C48.8,36,48.8,33.7,48.8,31.4C48.8,31.4,48.8,31.4,48.8,31.4z"/>
		<path class="st12" d="M47,29.5c1.2,0,2.4,0,3.5,0c0,0,0,0,0,0C49.4,29.5,48.2,29.5,47,29.5C47,29.5,47,29.5,47,29.5z"/>
		<path class="st17" d="M15.9,38.3c0-4,0-8.1,0-12.1c0,0,0,0,0,0C15.9,30.2,15.9,34.3,15.9,38.3C15.9,38.3,15.9,38.3,15.9,38.3z"/>
		<path class="st23" d="M118.1,59.9c-0.4,0.7-1,1.2-1.7,1.6c-1,0.6-2.1,0.3-2.6-0.6c-0.5-1-0.1-2.3,0.9-2.8c0.6-0.3,1.3-0.4,2-0.6
			c0.5-0.1,0.9-0.2,1.4-0.3c0,0,0.1,0,0.1,0.1C118.2,58.1,118.2,59,118.1,59.9z"/>
		<path class="st24" d="M127.7,62.3c0,0.8,0,0.8-0.8,0.8c-2.7,0-5.3,0-8,0c-0.1,0-0.3,0-0.4-0.1c1,0,2,0,3,0c1.9,0,3.8,0,5.7,0
			c0.2,0,0.5,0.1,0.5-0.3c0-0.4-0.3-0.3-0.5-0.3c0,0,0,0-0.1-0.1C127.3,62.3,127.5,62.3,127.7,62.3
			C127.7,62.3,127.7,62.3,127.7,62.3z"/>
		<path class="st14" d="M125.8,61.1c0-1.9,0-3.8,0-5.7c0,0,0,0,0,0C125.8,57.4,125.8,59.3,125.8,61.1
			C125.8,61.2,125.8,61.2,125.8,61.1z"/>
		<path class="st15" d="M118.1,59.9c0-0.9,0-1.8,0-2.7c0.1,0,0.1,0.1,0.1,0.1C118.2,58.2,118.2,59,118.1,59.9
			C118.2,59.8,118.2,59.9,118.1,59.9C118.2,59.9,118.2,59.9,118.1,59.9z"/>
		<path class="st23" d="M37.7,62.1c-0.8,0.1-1.5-0.1-2.2-0.4c-1.5-0.7-2.6-1.8-3-3.5c-0.3-1.5-0.1-2.9,1-4.2c0.2-0.2,0.2-0.2,0.4,0
			c2.1,2.4,4.4,4.6,6.9,6.7c0.3,0.2,0.2,0.3-0.1,0.5C39.8,61.7,38.8,62,37.7,62.1z"/>
		<path class="st17" d="M81,54.1c0,2.3,0,4.6,0,7c0,0,0,0,0,0C81,58.8,81,56.4,81,54.1C81,54.1,81,54.1,81,54.1z"/>
		<path class="st11" d="M88.1,54.7c0,2.1,0,4.2,0,6.3c0,0,0,0,0,0C88,59,88,56.9,88.1,54.7C88,54.7,88.1,54.7,88.1,54.7z"/>
		<path class="st23" d="M102.3,57.8c0-0.5,0-0.9,0-1.2c0-1.2,1-2.7,2.1-3.2c1.8-0.8,3.4,0,3.9,1.9c0.4,1.5,0.3,3.1,0,4.7
			c-0.4,1.5-1.4,2.2-2.8,2.2c-1.4,0-2.6-0.9-3.1-2.2C102.2,59.2,102.3,58.5,102.3,57.8z"/>
		<path class="st17" d="M100.3,66.5c0-4.1,0-8.3,0-12.4c0,0,0,0,0,0C100.3,58.2,100.3,62.4,100.3,66.5
			C100.3,66.5,100.3,66.5,100.3,66.5z"/>
		<path class="st23" d="M77,57.6c0,0.7,0,1.4-0.1,2.1c-0.2,1.2-0.7,2.1-1.9,2.5c-1.2,0.4-2.4,0.4-3.5-0.5c-0.6-0.5-0.9-1.3-1.1-2.1
			c-0.2-1.4-0.2-2.9,0.1-4.3c0.3-1.2,0.9-2.1,2.1-2.4c1.2-0.3,2.4-0.2,3.4,0.7c0.5,0.5,0.7,1.2,0.9,1.9C77,56.2,77,56.9,77,57.6z"/>
		<path class="st23" d="M80.7,30c0.8,0.2,1.5,0.5,1.7,1.4c0.1,0.5,0.1,1,0.1,1.6c0,0.2-0.1,0.2-0.2,0.2c-1.5,0.1-2.9,0.2-4.4,0.4
			c-0.1,0-0.1,0-0.2,0c-0.7,0.1-0.7,0.1-0.6-0.7c0.3-1.3,0.9-2.3,2.3-2.7c0.1,0,0.3-0.1,0.4-0.1C80.1,29.9,80.4,29.9,80.7,30z"/>
		<path class="st10" d="M80.7,30c-0.3,0-0.6,0-0.9,0c0,0-0.1-0.1-0.1-0.1C80.1,29.9,80.4,29.9,80.7,30C80.7,29.9,80.7,29.9,80.7,30
			C80.7,30,80.7,30,80.7,30z"/>
	</g>
</g>
</svg>
