<?xml version="1.0" encoding="utf-8"?>
<!-- Generator: Adobe Illustrator 21.0.0, SVG Export Plug-In . SVG Version: 6.00 Build 0)  -->
<svg version="1.1" id="Слой_1" xmlns="http://www.w3.org/2000/svg" xmlns:xlink="http://www.w3.org/1999/xlink" x="0px" y="0px"
	 viewBox="0 0 146.1 91.8" style="enable-background:new 0 0 146.1 91.8;" xml:space="preserve">
<style type="text/css">
	.st0{opacity: 0.7;}
	.st1{fill:#000;}
</style>
<g class="st0">
	<path class="st1" d="M85,44.5l-2.3-2.9c-0.3-0.3,0-0.8,0.3-0.8h4.9c0.3-0.7,0.4-1.5,0.4-2.2c0-3.5-2.6-6.6-6.3-6.6
		c-3.6,0-6.3,3.1-6.3,6.6c0,3.5,2.6,6.6,6.3,6.6C83.1,45.2,84.1,44.9,85,44.5L85,44.5z M29.3,70.7C13.1,70.7,0,57.6,0,41.3
		c0-16.2,13.1-29.4,29.3-29.4c16.2,0,29.3,13.2,29.3,29.4c0,5.5-1.5,10.7-4.1,15.1c-0.1,0.1-0.3,0.1-0.3-0.1
		c-1-7.2-5.4-11.2-11.8-12.4c-0.6-0.1-0.6-0.4,0.1-0.5c2-0.2,4.7-0.1,6.2,0.1c0.1-0.7,0.1-1.5,0.1-2.3c0-10.7-8.7-19.4-19.4-19.4
		C18.7,21.9,10,30.6,10,41.3c0,10.7,8.7,19.4,19.4,19.4h0.9c-0.3-1.7-0.4-3.5-0.4-5.3c0-1.2,0.3-1.4,0.8-0.4
		c2.7,4.7,6.5,8.8,14,10.5c6.1,1.4,12.3,2.9,18.9,11.4c0.6,0.7-0.3,1.5-1,0.9c-6.7-6-12.9-7.9-18.5-7.9
		C37.9,69.9,33.6,70.7,29.3,70.7L29.3,70.7z M44.3,58.4c0.7,0,1.4,0.3,2.1,0.9c1.3,1.1,1.7,2.4,1,3.3c-0.4,0.5-1,0.8-1.7,0.8
		c-0.7,0-1.5-0.3-2-0.7c-1.2-1-1.5-2.7-0.8-3.7C43.2,58.6,43.7,58.4,44.3,58.4L44.3,58.4z M50.7,53.5c1.1,0.4,1.5,2.1,1.6,2.8
		c0.2,1.3-0.2,1.8-0.6,1.8c-0.4,0-1-0.5-1.7-1.5c-0.6-1-0.9-2.2-0.6-2.8C49.7,53.5,50.2,53.3,50.7,53.5L50.7,53.5z M95.7,49.3
		c0.3,0.3,0,0.7-0.3,0.7h-5.4c-0.2,0-0.4-0.1-0.6-0.3l-0.9-1.1c-1.9,1.2-4.1,1.9-6.4,1.9c-6.6,0-11.9-5.3-11.9-11.9
		c0-6.6,5.3-11.9,11.9-11.9c6.6,0,11.9,5.3,11.9,11.9c0,2.3-0.7,4.6-1.9,6.4L95.7,49.3L95.7,49.3z M145.5,27.3
		c0.3,0,0.6,0.3,0.6,0.6v21.6c0,0.4-0.2,0.6-0.6,0.6h-4.4c-0.4,0-0.6-0.2-0.6-0.6V27.9c0-0.4,0.2-0.6,0.6-0.6H145.5z M138.1,27.3
		c0.2,0,0.4,0.1,0.6,0.3c0.1,0.1,0.1,0.3,0.1,0.5l-7.3,21.6c-0.1,0.3-0.3,0.4-0.6,0.4H127c-0.3,0-0.5-0.1-0.6-0.4L122.3,37L118,49.6
		c-0.1,0.3-0.3,0.4-0.6,0.4h-3.9c-0.3,0-0.5-0.1-0.6-0.4L105.8,28c0-0.2,0-0.3,0.1-0.5c0.1-0.2,0.3-0.3,0.5-0.3h4.9
		c0.3,0,0.5,0.2,0.6,0.4l3.9,12.8l4.3-12.8c0.1-0.3,0.3-0.4,0.6-0.4h3.5c0.3,0,0.5,0.1,0.6,0.4l4.3,12.8l3.9-12.8
		c0.1-0.3,0.3-0.4,0.6-0.4H138.1L138.1,27.3z M103.8,27.9v21.6c0,0.4-0.2,0.6-0.6,0.6h-4.4c-0.4,0-0.6-0.2-0.6-0.6V27.9
		c0-0.4,0.2-0.6,0.6-0.6h4.4C103.6,27.2,103.8,27.4,103.8,27.9L103.8,27.9z"/>
</g>
</svg>
