<?xml version="1.0" encoding="utf-8"?>
<!-- Generator: Adobe Illustrator 21.0.0, SVG Export Plug-In . SVG Version: 6.00 Build 0)  -->
<svg version="1.1" id="Слой_1" xmlns="http://www.w3.org/2000/svg" xmlns:xlink="http://www.w3.org/1999/xlink" x="0px" y="0px"
	 viewBox="0 0 146.1 91.8" style="enable-background:new 0 0 146.1 91.8;" xml:space="preserve">
<style type="text/css">
	.st0{display:none;}
	.st1{display:inline;fill:#464646;}
	.st2{display:inline;fill:#FDFDFD;}
	.st3{display:inline;fill:#C0C0C0;}
	.st4{display:inline;fill:#535353;}
	.st5{display:inline;fill:#5B5B5B;}
	.st6{display:inline;fill:#D3D3D3;}
	.st7{display:inline;fill:#DDDDDD;}
	.st8{display:inline;fill:#5A5A5A;}
	.st9{display:inline;fill:#A3A3A3;}
	.st10{display:inline;fill:#FEFEFE;}
	.st11{display:inline;fill:#474747;}
	.st12{display:inline;fill:#F8F8F8;}
	.st13{opacity: 0.7;}
	.st14{fill:#0E0E0E;}
	.st15{fill:#656565;}
	.st16{fill:#131313;}
	.st17{fill:#1C1C1C;}
	.st18{fill:#FDFDFD;}
</style>
<g class="st0">
	<path class="st1" d="M74,74h-0.2c-0.1-0.1-0.1-0.1-0.2,0c0,0,0,0,0,0h-0.5c-0.2-0.1-0.4-0.1-0.6,0h-14c-0.2-0.1-0.2-0.3-0.2-0.6
		c0-0.2,0-0.5,0-0.7c0-13.3,0-26.6,0-39.9c0-0.4-0.1-0.9,0.2-1.2c0.2-0.1,0.4-0.1,0.6,0h14c1.4,0,2.8,0.1,4.1,0.4
		c3.1,0.8,5.5,3.2,6.2,6.3c0.7,2.2,0.8,4.5,0.4,6.8c-0.5,2.9-2.3,5.3-4.8,6.7c-0.1,0-0.2,0.1-0.2,0.2c0.4,0.3,1,0.5,1.5,0.8
		c1.7,1.3,2.9,3.1,3.2,5.2c0.7,3,0.6,6.1-0.2,9.1c-0.8,3.3-3.5,5.9-6.8,6.7C75.7,73.9,74.8,73.9,74,74z"/>
	<path class="st1" d="M44.3,31.4h0.2c0.3,0.1,0.5,0,0.8,0.1c1.9-0.1,3.8,0.3,5.6,1.1c1.9,0.9,3.3,2.5,4.1,4.4
		c1.4,3.3,1.4,7,0.1,10.3c-0.9,2.1-2.6,3.8-4.7,4.7c0.3-0.1,0.5,0,0.7,0.1c2.2,1,3.8,2.9,4.3,5.2c0.6,2.2,0.7,4.5,0.5,6.8
		c-0.1,1.7-0.6,3.4-1.4,5c-1.4,2.8-4.2,4.6-7.4,4.8c-0.4,0-0.8,0-1.1,0.1H30.5c-0.2-0.1-0.2-0.3-0.2-0.6c0-0.2,0-0.5,0-0.7
		c0-13.3,0-26.6,0-39.9c0-0.4-0.1-0.9,0.2-1.2c0.2-0.1,0.4-0.1,0.6,0h12.6C43.9,31.5,44.1,31.5,44.3,31.4z"/>
	<path class="st1" d="M28.7,74h-8.5c-0.3-0.2-0.5-0.6-0.5-1c-0.4-2.1-0.8-4.3-1.3-6.4c-0.3-1.6-0.1-1.4-1.7-1.4c-1.8,0-3.6,0-5.5,0
		c-0.7,0-0.8,0-0.9,0.8c-0.5,2.3-0.9,4.7-1.4,7c-0.1,0.4-0.1,0.8-0.6,0.9H0.6c-0.2,0-0.4,0.1-0.6-0.2c0.1-1.6,0.3-3.1,0.7-4.7
		c1.2-5.8,2.3-11.5,3.5-17.3c1.3-6.5,2.7-13.1,4-19.6c0.1-0.3,0.1-0.6,0.5-0.7H20c0.4,0.1,0.4,0.4,0.5,0.7c0.4,2,0.8,3.9,1.2,5.9
		c1.3,6.3,2.5,12.6,3.8,18.9c1.1,5.3,2.2,10.7,3.2,16C28.8,73.3,29,73.7,28.7,74z"/>
	<path class="st1" d="M129.7,74h-9.9c-0.3-0.3-0.2-0.6-0.2-1c0-3.8,0-7.6,0-11.4c0-1.5-0.2-3-0.6-4.4c-1.1-3.5-2.2-7.1-3.2-10.6
		l-4.3-14.2c-0.1-0.3-0.2-0.6,0-0.9c0.2-0.1,0.4-0.1,0.6-0.1h8.4c0.5,0,0.5,0.4,0.6,0.8c0.6,2.3,1.1,4.6,1.7,6.9
		c0.7,2.7,1.3,5.5,2,8.2c0,0.2,0.1,0.3,0.1,0.4c0.1-0.6,0.2-1.1,0.4-1.7c1.1-4,2.2-8,3.2-12c0.2-0.7,0.3-1.3,0.5-2
		c0.1-0.3,0.2-0.6,0.5-0.6h8.4c0.4,0.2,0.2,0.6,0.1,0.9c-0.5,1.7-1,3.5-1.6,5.2c-1.7,5.6-3.4,11.3-5.1,16.9
		c-0.4,1.4-0.8,2.7-1.2,4.1c-0.1,0.5-0.2,0.9-0.2,1.4c0,4.4,0,8.7,0,13.1C129.9,73.4,130,73.7,129.7,74z"/>
	<path class="st1" d="M101.8,74H92c-0.3-0.3-0.2-0.6-0.2-1c0-3.7,0-7.3,0-11c0-1.7-0.2-3.4-0.8-5.1c-1.6-4.9-3-9.9-4.5-14.8
		c-1-3.2-2-6.5-3-9.8c-0.1-0.3-0.3-0.6,0.1-0.9h9c0.4,0,0.4,0.3,0.5,0.6c0.8,3.2,1.6,6.5,2.4,9.7c0.5,1.9,0.9,3.8,1.5,5.8
		c0.3-1,0.6-1.9,0.8-2.8c1.1-4.2,2.2-8.4,3.3-12.5c0.1-0.3,0.2-0.7,0.6-0.7h8.4c0.4,0.2,0.2,0.5,0.1,0.8c-0.5,1.7-1,3.4-1.5,5.1
		l-3.6,12c-0.9,3.1-1.9,6.2-2.8,9.3c-0.1,0.5-0.2,0.9-0.2,1.4c0,4.3,0,8.6,0,12.9C102.1,73.4,102.1,73.7,101.8,74z"/>
	<path class="st1" d="M146.1,35.2c-0.2,0.9-0.8,1.7-1.7,2.2c-1.1,0.6-2.4,0.5-3.4-0.3c-1-0.7-1.5-1.9-1.2-3.1
		c0.2-1.2,1.1-2.2,2.3-2.5c0.1,0,0.2,0,0.2-0.1h0.1c0.3,0.1,0.7,0.1,1,0h0.1c0.6,0.1,1.1,0.3,1.6,0.6c0.5,0.5,0.9,1.2,0.9,2
		L146.1,35.2z"/>
	<path class="st2" d="M146.1,34c-0.3-1.3-1.3-2.3-2.5-2.6c0.8,0,1.5,0,2.3,0c0.2,0,0.3,0,0.3,0.3C146.1,32.5,146.1,33.3,146.1,34z"
		/>
	<path class="st3" d="M30.5,31.6v-0.1h13.8c-0.2,0.2-0.4,0.1-0.6,0.1H31.2L30.5,31.6z"/>
	<path class="st3" d="M58.5,31.6v-0.1h13.8c0.1,0,0.1,0,0,0.1H59.3L58.5,31.6z"/>
	<path class="st3" d="M8.6,31.6v-0.1h11.5v0.1L8.6,31.6z"/>
	<path class="st3" d="M120.5,31.4c0,0,0,0.1,0,0.1H112c-0.2,0-0.5-0.1-0.6,0.1l-0.1-0.2L120.5,31.4z"/>
	<path class="st3" d="M92.8,31.4v0.1h-9.2v-0.1H92.8z"/>
	<path class="st3" d="M101.6,31.5c0,0,0-0.1,0-0.1h8.7v0.1L101.6,31.5z"/>
	<path class="st3" d="M129.3,31.5v-0.1h8.7v0.1L129.3,31.5z"/>
	<path class="st4" d="M8.5,73.9V74c-2.7,0-5.4,0-8.1,0C0.1,74,0,73.9,0,73.7c0,0,0.1,0,0.1,0c0.1,0.3,0.4,0.2,0.7,0.2L8.5,73.9z"/>
	<path class="st5" d="M143.5,31.4c-0.3,0.2-0.7,0.2-1,0H143.5z"/>
	<path class="st6" d="M72.3,31.5v-0.1h0.9v0.1H72.3z"/>
	<path class="st7" d="M45.3,31.4c0,0,0,0.1,0,0.1c-0.3,0-0.6,0.1-0.8-0.1H45.3z"/>
	<path class="st8" d="M72.5,74c0.2-0.2,0.4-0.2,0.6,0H72.5z"/>
	<path class="st9" d="M73.5,74c0.1-0.1,0.2-0.2,0.2,0H73.5z"/>
	<path class="st10" d="M68.4,61.2c0-1.7,0-3.3,0-5c0-0.3,0.1-0.5,0.4-0.5c0.9,0,1.8,0,2.6,0c1.3-0.1,2.5,0.9,2.7,2.2
		c0.5,2,0.5,4.2-0.1,6.2c-0.3,1.5-1.6,2.5-3.1,2.4c-0.7,0-1.4,0-2.1,0c-0.4,0-0.5-0.1-0.5-0.5C68.4,64.5,68.4,62.9,68.4,61.2z"/>
	<path class="st10" d="M68.4,43.6c0-1.4,0-2.8,0-4.3c0-0.4,0.1-0.5,0.5-0.5c0.7,0,1.4,0,2.1,0c1.1-0.1,2.1,0.6,2.5,1.7
		c0.5,1.4,0.7,2.9,0.5,4.4c0,0.7-0.2,1.4-0.5,2.1c-0.3,0.9-1.3,1.6-2.3,1.5c-0.8,0-1.6,0-2.3,0c-0.4,0-0.6-0.1-0.6-0.5
		C68.4,46.5,68.4,45,68.4,43.6z"/>
	<path class="st10" d="M40.4,61.2c0-1.7,0-3.3,0-5c0-0.3,0.1-0.5,0.4-0.5c0.9,0,1.8,0,2.6,0c1.4-0.1,2.5,0.9,2.8,2.3
		c0.5,2,0.4,4.1-0.1,6.1c-0.2,1.5-1.6,2.6-3.1,2.6c-0.7,0-1.4,0-2,0c-0.4,0-0.5-0.1-0.5-0.5C40.4,64.5,40.4,62.9,40.4,61.2z"/>
	<path class="st10" d="M40.4,43.6c0-1.4,0-2.9,0-4.3c0-0.4,0.1-0.5,0.5-0.4c0.7,0,1.4,0,2.2,0c1.1-0.1,2.1,0.6,2.5,1.7
		c0.5,1.3,0.7,2.7,0.5,4.1c0,0.8-0.2,1.6-0.5,2.4c-0.3,0.9-1.3,1.6-2.3,1.5c-0.8,0-1.6,0-2.3,0c-0.4,0-0.6-0.1-0.6-0.5
		C40.4,46.5,40.4,45,40.4,43.6z"/>
	<path class="st10" d="M14.4,45.1l0.6,3c0.6,3,1.2,6,1.8,9c0.1,0.4,0,0.4-0.4,0.4c-1.4,0-2.8,0-4.2,0c-0.3,0-0.5,0-0.4-0.4
		C12.7,53.2,13.5,49.2,14.4,45.1L14.4,45.1z"/>
	<path class="st10" d="M140.4,34.6c0-1.4,1.1-2.6,2.5-2.7c0,0,0,0,0,0c1.5,0.1,2.6,1.4,2.5,2.8c-0.1,1.4-1.2,2.4-2.5,2.5
		C141.5,37.2,140.4,36.1,140.4,34.6C140.4,34.6,140.4,34.6,140.4,34.6z"/>
	<path class="st11" d="M141.8,34.6c0-0.4,0-0.8,0-1.2c0-0.2,0.1-0.3,0.3-0.3c0.4,0,0.9,0,1.3,0c0.3,0,0.6,0.2,0.7,0.5
		c0.1,0.3,0.1,0.7-0.2,0.9c-0.1,0.1-0.2,0.2-0.1,0.3s0.2,0.8,0.3,1.2c0,0.2-0.1,0.2-0.2,0.2s-0.4,0.1-0.4-0.2s0-0.3,0-0.4
		c0-0.4-0.3-0.7-0.7-0.7c-0.1,0-0.2,0-0.3,0.1c-0.3,0.1-0.1,0.4-0.2,0.5s0.3,0.7-0.3,0.7s-0.2-0.5-0.3-0.8
		C141.8,35.1,141.8,34.8,141.8,34.6z"/>
	<path class="st12" d="M142.8,34.4c-0.3,0.1-0.5,0-0.5-0.5s0-0.6,0.4-0.5s0.8-0.1,0.8,0.5S143.2,34.4,142.8,34.4z"/>
</g>
<g class="st13">
	<path class="st14" d="M36.4,35.5c-0.1,0.1-0.2,0.1-0.2,0.2c-0.6,2.3-1.3,4.7-1.8,7c-0.2,0.9-0.4,1.7-0.6,2.6
		c-0.1,0.3-0.2,0.4-0.5,0.4c-2,0-4,0-6,0c-0.1-0.2-0.1-0.3,0-0.4c1.9-5.9,3.7-11.8,5.6-17.7c0.2-0.5,0.2-0.5,0.7-0.5c2,0,4,0,5.9,0
		c0.5,0,0.5,0,0.6,0.5c0.2,1.6,0.3,3.3,0.5,4.9c0.1,1.4,0.3,2.9,0.4,4.3c0,0.1,0,0.1,0.2,0.1c0.1-0.1,0.2-0.3,0.2-0.5
		c0.3-1.2,0.8-2.4,1.3-3.5c0.8-1.7,1.6-3.5,2.4-5.3c0.2-0.3,0.3-0.5,0.7-0.5c1.9,0,3.9,0,5.8,0c0.5,0,0.5,0,0.5,0.6
		c0.1,5.8,0.1,11.7,0.2,17.5c0,0.5,0,0.5-0.5,0.5c-1.8,0-3.6,0-5.5,0c-0.5,0-0.5,0-0.5-0.5c0.1-2.4,0.3-4.7,0.5-7.1
		c0.1-0.8,0.1-1.6,0.1-2.4c-0.3,0-0.2,0.2-0.2,0.3c-0.5,1.5-1.2,2.8-1.8,4.2c-0.8,1.7-1.6,3.4-2.4,5.1c-0.2,0.4-0.4,0.5-0.8,0.5
		c-1,0-2,0-2.9,0c-0.3,0-0.5-0.1-0.6-0.5c-0.3-1.8-0.6-3.6-0.9-5.5C36.4,38.4,36.3,37,36.4,35.5z"/>
	<path class="st15" d="M10.3,35.1c0.9,1.5,2.1,2.5,3.9,2.7c0.3,0,0.7,0,1,0c3.7,0,7.4,0,11.1,0c0.2,0,0.4,0,0.6,0c0,0,0,0.1,0.1,0.1
		c-0.4,0.4-0.7,0.7-1.1,1.1c-0.4,0.4-0.7,0.9-1.2,1.1c-0.5,0.2-1.1,0.1-1.6,0.1c-2.2,0-4.4,0-6.6,0c-0.2,0-0.4,0-0.6,0
		c-0.1,0.2,0,0.3,0.1,0.5c1.1,1.6,2.5,2.5,4.5,2.4c1.4,0,2.8,0,4.3,0c0.2,0,0.4,0,0.7,0.1c-0.3,0.3-0.6,0.6-0.9,0.9
		c-0.5,0.5-0.9,1.2-1.6,1.5c-0.6,0.2-1.4,0.1-2.1,0.1c-0.2,0-0.5,0-0.7,0c-3.4,0.1-5.7-1.6-7.2-4.5c-0.3-0.6-0.7-1-1.3-1.3
		c-2-0.9-3.3-2.4-4.3-4.3C7.2,35.2,7,35,6.6,34.8c-2-0.9-3.5-2.4-4.8-4.1c-0.8-1.1-1.5-2.2-2.1-3.5c0-0.1,0-0.1,0-0.1c0,0,0,0,0,0
		c10.2,0,20.4,0,30.6,0c0.1,0.2,0,0.3-0.1,0.3c-0.6,0.6-1.3,1.3-1.9,1.9c-0.2,0.2-0.4,0.3-0.7,0.3c-0.2,0-0.3,0-0.5,0
		c-7.1,0-14.3,0-21.4,0c-0.3,0-0.5,0-0.7,0c-0.1,0.3,0,0.4,0.1,0.5C6,31.3,7,32.2,8.5,32.4c0.4,0.1,0.7,0.1,1.1,0.1
		c6.2,0,12.3,0,18.5,0c0.2,0,0.5,0,0.9,0c-0.6,0.6-1.2,1.1-1.6,1.6c-0.6,0.7-1.3,0.9-2.2,0.9c-4.6-0.1-9.2,0-13.9,0
		C10.9,35,10.7,35,10.3,35.1z"/>
	<path class="st14" d="M137.5,32.6c0,0.3-0.2,0.5-0.3,0.7c-3.5,5.7-7,11.5-10.5,17.2c-0.3,0.4-0.5,0.6-1,0.6c-1.8,0-3.6,0-5.3,0
		c-0.2,0-0.4,0-0.6-0.1c0.1-0.2,0.2-0.4,0.4-0.6c1.2-1.8,2.4-3.7,3.7-5.5c0.3-0.4,0.3-0.7,0.1-1.1c-1.1-3.5-2.3-6.9-3.4-10.4
		c-0.1-0.2-0.2-0.4-0.2-0.7c0.1-0.1,0.2-0.1,0.3-0.1c2,0,4,0,5.9,0c0.5,0,0.5,0,0.6,0.5c0.2,1.3,0.4,2.6,0.6,3.9
		c0.1,0.6,0.1,1.3,0.1,1.9c0,0.2,0,0.5,0,0.8c0.3-0.3,0.3-0.5,0.4-0.7c0.6-2.2,1.7-4.1,2.5-6.2c0.1-0.3,0.3-0.3,0.5-0.3
		C133.3,32.6,135.4,32.6,137.5,32.6z"/>
	<path class="st14" d="M108,32.7c-0.2,1.3-0.4,2.6-0.6,3.8c-0.2,1.1-0.4,2.3-0.6,3.4c-0.4,2.4-1.7,4.1-3.9,5.2
		c-2.3,1.1-4.7,1.2-7.2,0.5c-0.3-0.1-0.5-0.2-0.7-0.3c-2.2-0.9-3.2-2.8-2.8-5.2c0.4-2.3,0.7-4.5,1-6.8c0-0.1,0-0.2,0.1-0.3
		c0-0.3,0.1-0.5,0.5-0.4c0.1,0,0.1,0,0.2,0c1.7,0,3.3,0,5,0c0.2,0,0.4,0,0.6,0.1c-0.1,0.9-0.2,1.7-0.4,2.6c-0.2,1.4-0.4,2.8-0.6,4.2
		c0,0.2,0,0.3,0,0.5c0,0.6,0.2,0.9,0.6,1c0.5,0.1,1.1-0.1,1.4-0.6c0.1-0.2,0.1-0.4,0.2-0.6c0.3-2.2,0.7-4.3,1-6.4
		c0.1-0.7,0-0.6,0.7-0.6c1.8,0,3.5,0,5.3,0C107.7,32.6,107.8,32.7,108,32.7z"/>
	<path class="st14" d="M67.8,41.5c-0.4,0.9-0.9,1.6-1.6,2.3c-1.2,1.1-2.7,1.7-4.2,2c-1.7,0.4-3.3,0.3-5-0.1c-3.5-1-4.6-3.8-3.9-6.8
		c0.9-3.7,4.1-6.3,7.9-6.5c1.5-0.1,2.9,0.1,4.2,0.7c2.5,1.1,3.6,3.4,3.4,5.9c0,0.3-0.1,0.7-0.1,1c0,0.2-0.1,0.3-0.4,0.3
		c-0.2,0-0.3,0-0.5,0c-2.6,0-5.2,0-7.9,0c-0.6,0-0.6,0-0.7,0.6c0,0.1,0,0.2,0,0.3c0.1,0.5,0.2,1,0.8,1.2c0.6,0.2,1.2,0,1.5-0.4
		c0.4-0.6,0.8-0.6,1.4-0.6c1.5,0,3,0,4.5,0C67.3,41.4,67.5,41.3,67.8,41.5z"/>
	<path class="st14" d="M91.3,38.1c-0.3-0.2-0.5-0.3-0.7-0.5c-0.7-0.4-1.4-0.5-2.1-0.4c-1,0.2-1.7,1-1.7,2c0,1.1,1,1.9,2.2,1.6
		c0.5-0.1,0.9-0.3,1.3-0.6c0.3-0.1,0.5-0.3,0.8-0.4c0.1,0.1,0,0.3,0,0.4c-0.3,1.5-0.7,2.9-1,4.4c-0.1,0.4-0.2,0.6-0.6,0.7
		c-1.8,0.6-3.6,0.7-5.4,0.1c-2.1-0.7-3.3-2.3-3.5-4.5c-0.4-4.1,2.5-7.9,6.6-8.7c1.4-0.3,2.8-0.1,4.1,0.3c1.2,0.3,1,0,0.8,1.3
		C91.8,35.3,91.6,36.7,91.3,38.1z"/>
	<path class="st14" d="M68.3,45.6c0.3-1.8,0.5-3.5,0.8-5.2c0.4-2.4,0.8-4.9,1.2-7.3c0.1-0.3,0.2-0.4,0.5-0.4c1.9,0,3.8,0,5.7,0
		c0.1,0,0.1,0,0.2,0c0,0.6-0.4,1.1-0.3,1.8c1.2-1.7,2.8-2.3,4.8-2.1c-0.3,2.1-0.7,4.1-1.1,6.2c-0.3,0-0.4-0.2-0.6-0.2
		c-1.7-0.9-3.7,0.1-4,2c-0.3,1.6-0.5,3.2-0.8,4.9c0,0.3-0.1,0.5-0.5,0.5c-1.9,0-3.8,0-5.7,0C68.5,45.7,68.4,45.6,68.3,45.6z"/>
	<path class="st14" d="M115.3,32.6c0,0.6-0.3,1.1-0.4,1.8c0.7-0.7,1.3-1.4,2.2-1.7c0.9-0.3,1.8-0.4,2.7-0.4
		c-0.4,2.1-0.7,4.1-1.1,6.2c-0.1,0.1-0.2,0-0.3-0.1c-0.7-0.5-1.5-0.5-2.2-0.4c-1.1,0.2-1.9,1-2,2.3c-0.2,1.5-0.5,3.1-0.7,4.6
		c0,0.2-0.1,0.3-0.1,0.5c0,0.2-0.1,0.2-0.3,0.2c-0.1,0-0.1,0-0.2,0c-1.8,0-3.6,0-5.4,0c-0.5,0-0.5,0-0.4-0.5
		c0.3-1.8,0.6-3.7,0.9-5.5c0.3-2.1,0.7-4.2,1-6.3c0-0.1,0-0.3,0.1-0.4c0-0.2,0.2-0.3,0.4-0.3c0.1,0,0.2,0,0.3,0c1.6,0,3.3,0,4.9,0
		C114.8,32.6,115,32.6,115.3,32.6z"/>
	<path class="st16" d="M142.8,33.7c0,0.6,0,1.1,0,1.7c0,0.2,0,0.3,0,0.5c0,0.1,0,0.3-0.2,0.3c-0.2,0-0.2-0.1-0.2-0.2
		c0,0,0-0.1,0-0.1c0-0.9,0-1.8,0-2.7c0-0.2-0.1-0.4,0.2-0.4c0.2,0,0.4,0,0.5,0.3c0.3,0.8,0.6,1.6,0.9,2.4c0.3-0.1,0.2-0.3,0.3-0.5
		c0.2-0.6,0.4-1.3,0.6-1.9c0.1-0.3,0.3-0.3,0.5-0.3c0.3,0,0.2,0.2,0.2,0.4c0,0.9,0,1.8,0,2.7c0,0.2,0,0.4-0.3,0.4
		c-0.3,0-0.2-0.2-0.2-0.4c0-0.7,0-1.4-0.1-2.1c-0.2,0.6-0.4,1.1-0.6,1.7c0,0.1-0.1,0.3-0.1,0.4c-0.1,0.2-0.2,0.3-0.4,0.3
		c-0.2,0-0.3-0.1-0.3-0.3c-0.2-0.6-0.4-1.3-0.6-1.9C143,33.9,143,33.7,142.8,33.7z"/>
	<path class="st17" d="M140.4,34.6c0-0.4,0-0.7,0-1.1c0-0.3-0.1-0.4-0.4-0.4c-0.2,0-0.4,0-0.5,0c-0.2,0-0.2-0.1-0.2-0.3
		c0-0.1,0.1-0.2,0.2-0.2c0.8,0,1.6,0,2.3,0c0.1,0,0.2,0.1,0.2,0.2c0,0.1,0,0.2-0.2,0.3c-0.1,0-0.1,0-0.2,0c-0.7,0.1-0.7,0.1-0.7,0.8
		c0,0.6,0,1.2,0,1.9c0,0.2,0,0.3-0.2,0.3c-0.2,0-0.3-0.1-0.3-0.3C140.4,35.4,140.4,35,140.4,34.6C140.4,34.6,140.4,34.6,140.4,34.6z
		"/>
	<path class="st18" d="M59.6,37.6c0-1.1,0.6-1.8,1.6-1.7c0.8,0,1.3,0.7,1.2,1.5c0,0.2-0.1,0.3-0.3,0.2
		C61.3,37.6,60.5,37.6,59.6,37.6z"/>
</g>
</svg>
