<?xml version="1.0" encoding="utf-8"?>
<!-- Generator: Adobe Illustrator 21.0.0, SVG Export Plug-In . SVG Version: 6.00 Build 0)  -->
<svg version="1.1" id="Слой_1" xmlns="http://www.w3.org/2000/svg" xmlns:xlink="http://www.w3.org/1999/xlink" x="0px" y="0px"
	 viewBox="0 0 146.1 91.8" style="enable-background:new 0 0 146.1 91.8;" xml:space="preserve">
<style type="text/css">
	.st0{}
	.st1{fill:#FEFEFE;}
	.st2{fill:#2B2B2B;}
	.st3{fill:#767676;}
</style>
<g class="st0">
	<path class="st1" d="M73,77C49,77,25,77,1,77c-0.4,0-0.5-0.1-0.5-0.5c0-17,0-34.1,0-51.1c0-0.4,0.1-0.5,0.5-0.5
		c48,0,96.1,0,144.1,0c0.4,0,0.5,0.1,0.5,0.5c0,17,0,34.1,0,51.1c0,0.4-0.1,0.5-0.5,0.5C121.1,77,97.1,77,73,77z"/>
	<path class="st2" d="M73.1,54.6c0.6,0.3,1.2,0.6,1.8,0.9c2.8,1.5,4.8,3.7,5.4,7c0.5,2.7,0.3,5.3-0.8,7.8c-1.7,3.9-4.9,5.7-9,6.2
		c-1,0.1-2,0.1-3,0.1c-5,0-10,0-15.1,0c-0.5,0-0.6-0.1-0.6-0.6c0-13.4,0-26.7,0-40.1c0-0.4,0-0.6,0.5-0.6c5,0,10,0,15,0
		c2.6,0,5.2,0.6,7.4,2.1c2.6,1.7,4,4.1,4.2,7.1c0.2,2.6-0.3,5-1.9,7.1c-0.9,1.1-2,2.1-3.4,2.7C73.5,54.4,73.4,54.5,73.1,54.6z"/>
	<path class="st2" d="M116.5,55.9c0-6.7,0-13.3,0-20c0-0.5,0.1-0.7,0.6-0.7c8.5,0,17,0,25.4,0c0.6,0,0.6,0,0.4,0.6
		c-0.7,1.9-1.3,3.9-2,5.8c-0.1,0.4-0.3,0.5-0.7,0.5c-5,0-10,0-15.1,0c-0.5,0-0.6,0.1-0.6,0.6c0,2.7,0,5.4,0,8c0,0.4,0.1,0.5,0.5,0.5
		c2.6,0,5.2,0,7.8,0.1c2.8,0.1,5.6,0.7,7.9,2.5c2.4,1.9,3.8,4.5,4.2,7.5c0.4,2.8,0.3,5.6-0.9,8.3c-1.7,3.6-4.5,5.8-8.4,6.5
		c-1.4,0.3-2.8,0.4-4.2,0.4c-4.8,0-9.7,0-14.5,0c-0.5,0-0.6-0.1-0.6-0.6C116.5,69.3,116.5,62.6,116.5,55.9z"/>
	<path class="st2" d="M92.9,59.4c0-5.5,0-10.9,0-16.4c0-0.8,0-0.8-0.8-0.8c-3.5,0-7,0-10.5,0c-0.4,0-0.5-0.1-0.5-0.5
		c0-2,0-3.9,0-5.9c0-0.4,0.1-0.5,0.5-0.5c10.6,0,21.3,0,31.9,0c0.5,0,0.5,0.1,0.3,0.5c-0.7,2-1.4,4-2,5.9c-0.1,0.4-0.3,0.5-0.7,0.5
		c-3.1,0-6.2,0-9.3,0c-0.5,0-0.7,0.1-0.7,0.7c0,11,0,22.1,0,33.1c0,0.5-0.1,0.6-0.6,0.6c-2.4,0-4.7,0-7.1,0c-0.4,0-0.5-0.1-0.5-0.5
		C92.9,70.5,92.9,64.9,92.9,59.4z"/>
	<path class="st3" d="M21.4,41.9c-5.5,0-11,0-16.5,0c-0.6,0-0.6,0-0.4-0.6c0.7-1.9,1.4-3.8,2.1-5.7c0.1-0.3,0.3-0.4,0.6-0.4
		c11,0,22.1,0,33.1,0c0.5,0,0.5,0.1,0.4,0.5c-0.7,1.9-1.4,3.8-2.1,5.7c-0.1,0.4-0.3,0.5-0.7,0.5C32.4,41.9,26.9,41.9,21.4,41.9z"/>
	<path class="st3" d="M44.6,25c-0.4,1.1-0.8,2.2-1.2,3.3c-0.3,0.9-0.7,1.9-1,2.8c-0.2,0.5-0.4,0.6-0.9,0.6c-4.6,0-9.3,0-13.9,0
		c-6.3,0-12.6,0-18.9,0c-0.7,0-0.7,0-0.5-0.6c0.7-1.9,1.4-3.8,2.1-5.7c0.1-0.3,0.2-0.4,0.6-0.4c11.1,0,22.3,0,33.4,0
		C44.3,25,44.4,25,44.6,25z"/>
	<path class="st3" d="M20.1,45.2c5.5,0,11,0,16.5,0c0.5,0,0.6,0.1,0.4,0.6c-0.7,1.9-1.4,3.8-2.1,5.7c-0.1,0.4-0.3,0.5-0.7,0.5
		c-11,0-22.1,0-33.1,0c-0.5,0-0.5-0.1-0.4-0.5c0.7-1.9,1.4-3.8,2.1-5.7c0.1-0.4,0.3-0.5,0.7-0.5C9.1,45.2,14.6,45.2,20.1,45.2z"/>
	<path class="st1" d="M60.1,64.3c0-1.6,0-3.3,0-4.9c0-0.4,0.1-0.5,0.5-0.5c2.1,0,4.2,0,6.3,0.1c2.9,0.2,4.7,2,4.9,4.9
		c0,0.8,0,1.5-0.2,2.3c-0.6,2.1-2.1,3.4-4.4,3.6c-2.2,0.1-4.5,0-6.7,0.1c-0.4,0-0.4-0.2-0.4-0.5C60.1,67.7,60.1,66,60.1,64.3z"/>
	<path class="st1" d="M60,46.9c0-1.5,0-2.9,0-4.4c0-0.2,0-0.5,0.3-0.5c2.1,0,4.2-0.1,6.3,0.1c3.1,0.4,4.1,2.6,3.9,5.2
		c-0.1,2-1.1,3.5-3.1,4.2c-0.4,0.1-0.8,0.2-1.2,0.2c-1.9,0-3.9,0-5.8,0c-0.3,0-0.5-0.1-0.4-0.4C60,49.8,60,48.4,60,46.9z"/>
	<path class="st1" d="M124.7,63.8c0-1.8,0-3.5,0-5.3c0-0.3,0.1-0.5,0.4-0.5c2.2,0,4.4,0,6.6,0.1c3,0.1,4.9,2.1,5.1,5.1
		c0,0.8,0,1.6-0.2,2.4c-0.6,2.5-2.3,3.9-5,4c-2.2,0.1-4.4,0-6.6,0c-0.4,0-0.4-0.2-0.4-0.5C124.7,67.4,124.7,65.6,124.7,63.8z"/>
</g>
</svg>
