<?xml version="1.0" encoding="utf-8"?>
<!-- Generator: Adobe Illustrator 21.0.0, SVG Export Plug-In . SVG Version: 6.00 Build 0)  -->
<svg version="1.1" id="Слой_1" xmlns="http://www.w3.org/2000/svg" xmlns:xlink="http://www.w3.org/1999/xlink" x="0px" y="0px"
	 viewBox="0 0 146.1 91.8" style="enable-background:new 0 0 146.1 91.8;" xml:space="preserve">
<style type="text/css">
	.st0{}
	.st1{fill:#EAEAEA;}
	.st2{fill:#EDEDED;}
	.st3{fill:#737373;}
	.st4{fill:#9C9C9C;}
	.st5{fill:#CECECE;}
	.st6{fill:#CBCBCB;}
	.st7{fill:#D8D8D8;}
	.st8{fill:#BBBBBB;}
	.st9{fill:#E1E1E1;}
	.st10{fill:#9D9D9D;}
	.st11{fill:#6C6C6C;}
	.st12{fill:#333333;}
	.st13{fill:#FFFFFF;}
</style>
<g class="st0">
	<path class="st1" d="M0,45.1c0.1-0.1,0-0.2,0.1-0.2c0-0.1,0-0.2,0-0.2c0.1,0.1,0.1,0.2,0.1,0.3c0,0.5,0,1.1,0,1.6
		c0,0.1,0,0.2-0.1,0.3c-0.1-0.1,0-0.2,0-0.2c0-0.1,0-0.2-0.1-0.2C0,45.9,0,45.5,0,45.1z"/>
	<path class="st2" d="M17.5,27.7C17.5,27.7,17.5,27.7,17.5,27.7c0.4-0.1,0.7-0.1,1.1-0.1c0,0,0,0,0,0.1
		C18.2,27.8,17.9,27.8,17.5,27.7z"/>
	<path class="st3" d="M146.1,65c0,0.2,0,0.4,0,0.6c0,0-0.1,0-0.1,0C145.9,65.4,145.9,65.2,146.1,65C146,65,146.1,65,146.1,65z"/>
	<path class="st4" d="M99.6,74.7c-0.2,0-0.4,0-0.6,0c0,0,0-0.1,0-0.1C99.2,74.5,99.4,74.5,99.6,74.7C99.6,74.6,99.6,74.7,99.6,74.7z
		"/>
	<path class="st5" d="M146.1,64.7C146.1,64.7,146.1,64.7,146.1,64.7c0,0.1,0,0.1,0,0.2c0,0-0.1,0-0.1,0
		C146,64.8,146,64.8,146.1,64.7z"/>
	<path class="st6" d="M146.1,65.7C146.1,65.7,146.1,65.7,146.1,65.7c0,0.1,0,0.1,0,0.2l0,0l0,0C146,65.8,146,65.7,146.1,65.7z"/>
	<path class="st7" d="M98.9,74.7C98.9,74.7,98.9,74.7,98.9,74.7c-0.1,0-0.1,0-0.2,0c0,0,0,0,0,0C98.8,74.6,98.9,74.6,98.9,74.7z"/>
	<path class="st8" d="M99.6,74.7C99.6,74.7,99.6,74.7,99.6,74.7c0.1-0.1,0.1-0.1,0.2-0.1c0,0,0,0,0,0.1
		C99.7,74.7,99.7,74.7,99.6,74.7z"/>
	<path class="st9" d="M99.8,74.7C99.8,74.7,99.8,74.7,99.8,74.7c0.1-0.1,0.1-0.1,0.2-0.1c0,0,0,0,0,0.1
		C100,74.7,99.9,74.7,99.8,74.7z"/>
	<path class="st10" d="M146.1,64.9C146.1,64.9,146.1,64.9,146.1,64.9c0,0,0,0.1,0,0.1c0,0,0,0,0,0C146,65,146,64.9,146.1,64.9z"/>
	<path class="st11" d="M17.5,27.7c0.4,0,0.7,0,1.1,0c0.8,0.1,1.7,0.1,2.5,0.3c3.1,0.5,5.8,1.8,8.2,3.7c3.1,2.5,5.1,5.6,6.1,9.4
		C36,43,36.1,45,36,47c-0.1,1.2-0.2,2.3-0.6,3.4c-0.5,1.4-1.4,2.6-2.7,3.5c-2.7,1.7-6.2,1.1-8.1-1.6c0,0,0-0.1-0.1-0.1
		c0-0.1-0.1-0.1-0.2,0c-0.1,0.1-0.2,0.2-0.3,0.3c-1.4,1.3-3,2-4.9,2.3c-4.8,0.6-9.2-2.6-10.1-7.3c-0.9-4.8,2.1-9.5,6.9-10.6
		c5.1-1.1,9.8,2.1,10.9,6.9c0.1,0.6,0.2,1.3,0.2,2c0,1,0,1.9,0,2.9c0,0.3,0,0.6,0.1,0.9c0.5,1.5,2.2,2.1,3.5,1.2
		c0.5-0.4,0.8-0.8,1-1.4c0.2-0.6,0.3-1.1,0.4-1.7c0.1-0.8,0.1-1.6,0.1-2.3c-0.1-3-1.1-5.8-2.9-8.2c-2.2-2.8-5.1-4.7-8.6-5.4
		c-4.9-0.9-9.2,0.4-12.8,3.9c-2.1,2.1-3.5,4.6-4,7.5c-0.8,4.4,0.2,8.4,3.1,11.8c2.1,2.6,4.9,4.2,8.2,4.9c3.6,0.7,7.1,0.1,10.3-1.8
		c0.3-0.2,0.2-0.2,0.5,0.1c0.7,0.8,1.4,1.6,2.1,2.4c0,0,0.1,0.1,0.1,0.1c0,0.1-0.1,0.1-0.2,0.1c-2.1,1.4-4.4,2.4-7,2.8
		c-1.2,0.2-2.5,0.3-3.7,0.2c-4-0.2-7.6-1.5-10.7-4.1c-3-2.5-5-5.7-6-9.5c-0.3-1.1-0.4-2.2-0.5-3.3c0-0.7,0-1.5,0-2.2
		c0.1-1.5,0.4-3,0.8-4.4c1.6-4.6,4.5-8.1,8.8-10.4c1.9-1,3.9-1.6,6-1.9C16.3,27.8,16.9,27.8,17.5,27.7z"/>
	<path class="st12" d="M58.7,39.9C58.8,39.9,58.8,39.9,58.7,39.9c1.4-1.4,2.9-2.2,4.8-2.5c1.4-0.2,2.8,0,4.1,0.6
		c1.9,0.8,3.1,2.3,3.6,4.3c0.2,0.7,0.3,1.4,0.3,2.2c0,3.1,0,6.3,0,9.4c0,0.1,0,0.1,0,0.2c0,0.1,0,0.1-0.1,0.1c-0.1,0-0.1,0-0.2,0
		c-0.9,0-1.9,0-2.8,0c0,0-0.1,0-0.1,0c-0.1,0-0.2,0-0.2-0.2c0-0.1,0-0.1,0-0.2c0-3.1,0-6.1,0-9.2c0-1.7-1.2-3.5-3.3-3.9
		c-2.2-0.4-4.1,1.2-4.4,3.2c-0.1,0.3-0.1,0.6-0.1,0.9c0,3,0,6,0,9c0,0.1,0,0.1,0,0.2c0,0.2,0,0.2-0.2,0.2c-1,0-2,0-2.9,0
		c-0.2,0-0.2,0-0.2-0.2c0-1,0-2.1,0-3.1c0-2.1,0-4.2,0-6.2c0-1.8-1.2-3.3-2.9-3.8c-2.3-0.6-4.6,1-4.8,3.4c0,0.2,0,0.4,0,0.6
		c0,3,0,6,0,9c0,0.4,0,0.4-0.3,0.4c-0.9,0-1.8,0-2.7,0c-0.1,0-0.1,0-0.2,0c-0.1,0-0.1,0-0.1-0.1c0-0.1,0-0.1,0-0.2
		c0-5.3,0-10.5,0-15.8c0-0.3,0-0.3,0.3-0.3c0.9,0,1.8,0,2.8,0c0.3,0,0.3,0,0.3,0.3c0,0.3,0,0.5,0,0.7c0.1,0,0.1,0,0.2-0.1
		c1.3-1,2.7-1.5,4.4-1.4c1.4,0.1,2.6,0.5,3.7,1.4c0.4,0.3,0.7,0.6,1,1C58.6,39.8,58.7,39.9,58.7,39.9z"/>
	<path class="st12" d="M88.2,39.4c0-0.5,0-0.9,0-1.2c0-0.1,0-0.1,0-0.2c0-0.1,0.1-0.2,0.2-0.2c1,0,2,0,3,0c0.2,0,0.2,0,0.2,0.2
		c0,0,0,0.1,0,0.1c0,5.2,0,10.5,0,15.7c0,0.4,0.1,0.3-0.3,0.3c-0.9,0-1.8,0-2.7,0c-0.1,0-0.1,0-0.2,0c-0.1,0-0.2,0-0.2-0.2
		c0-0.3,0-0.6,0-0.9c0-0.2,0-0.4,0-0.6c-0.1,0-0.1,0-0.1,0c-1,1-2.2,1.6-3.6,1.9c-2.9,0.6-5.4-0.2-7.5-2.2c-1.5-1.4-2.4-3.2-2.7-5.3
		c-0.5-4.6,2.6-8.5,6.8-9.4c2-0.4,3.9-0.2,5.7,0.8C87.3,38.6,87.8,39,88.2,39.4z"/>
	<path class="st12" d="M141.5,52.5c-0.9,0.9-2,1.6-3.3,1.9c-0.6,0.2-1.3,0.2-2,0.2c-1,0-1.9-0.2-2.8-0.6c-1.8-0.7-3-2.1-3.5-4
		c-0.2-0.8-0.3-1.6-0.3-2.4c0-3.2,0-6.4,0-9.6c0-0.3,0-0.3,0.3-0.3c0.9,0,1.9,0,2.8,0c0.3,0,0.3,0,0.3,0.3c0,1.7,0,3.4,0,5.1
		c0,1.4,0,2.7,0,4.1c0,0.6,0.1,1.2,0.4,1.8c0.6,1.3,1.6,2,3,2.2c2.4,0.3,4.5-1.3,4.9-3.5c0.1-0.3,0.1-0.6,0.1-0.9c0-2.9,0-5.7,0-8.6
		c0-0.1,0-0.1,0-0.2c0-0.2,0-0.2,0.2-0.2c1,0,2,0,2.9,0c0.2,0,0.2,0,0.2,0.2c0,0,0,0.1,0,0.1c0,5.3,0,10.5,0,15.8
		c0,0.4,0,0.3-0.3,0.3c-0.9,0-1.8,0-2.8,0c-0.3,0-0.3,0-0.3-0.3c0-0.4,0-0.7,0-1.1C141.5,52.7,141.5,52.6,141.5,52.5z"/>
	<path class="st12" d="M100,74.7c-0.1,0-0.1,0-0.2,0c-0.1,0-0.1,0-0.2,0c-0.2,0-0.4,0-0.7,0c-0.1,0-0.1,0-0.2,0
		c-1.3-0.2-2.5-0.7-3.5-1.6c-0.1-0.1-0.2-0.2-0.3-0.3c-0.1-0.1-0.1-0.1,0-0.2c0.5-0.5,1-0.9,1.5-1.4c0.1,0,0.2,0.1,0.2,0.2
		c0.8,0.7,1.8,1.1,2.9,1.1c0.3,0,0.6,0,0.9-0.1c0.8-0.2,1.3-0.7,1.6-1.5c0.2-0.5,0.2-1,0.2-1.5c-0.1,0-0.1,0.1-0.2,0.1
		c-1,0.7-2,1.1-3.2,0.9c-2-0.2-3.5-1.3-4.2-3.2c-1.1-2.9,0.7-6.2,3.9-6.8c1.3-0.2,2.6,0,3.7,0.9c0,0,0,0,0.1,0.1c0-0.2,0-0.4,0-0.6
		c0-0.1,0-0.2,0.2-0.2c0.6,0,1.2,0,1.8,0c0.1,0,0.2,0,0.2,0.2c0,0,0,0.1,0,0.1c0,2.9,0,5.7,0,8.6c0,0.8-0.1,1.6-0.4,2.4
		c-0.6,1.6-1.7,2.4-3.3,2.8C100.5,74.6,100.3,74.6,100,74.7z"/>
	<path class="st12" d="M120.5,39.8c0.1,0,0.1,0,0.1-0.1c0.2-0.2,0.3-0.4,0.5-0.5c0.9-0.9,2-1.3,3.2-1.4c1-0.1,1.9,0,2.9-0.1
		c0.1,0,0.2,0,0.2,0.2c0,1,0,1.9,0,2.9c0,0.1-0.1,0.2-0.2,0.2c-0.6,0-1.2,0-1.8,0c-0.8,0-1.5,0.1-2.2,0.5c-1.2,0.6-2,1.6-2.4,2.9
		c-0.2,0.6-0.3,1.2-0.3,1.9c0,2.6,0,5.1,0,7.7c0,0.4,0,0.3-0.3,0.3c-0.9,0-1.8,0-2.7,0c-0.1,0-0.1,0-0.2,0c-0.1,0-0.1,0-0.1-0.1
		c0-0.1,0-0.1,0-0.2c0-5.3,0-10.5,0-15.8c0-0.3,0-0.3,0.3-0.3c0.9,0,1.9,0,2.8,0c0.2,0,0.2,0,0.2,0.2c0,0.5,0,1.1,0,1.6
		C120.5,39.7,120.5,39.8,120.5,39.8z"/>
	<path class="st12" d="M102.4,42.6c0-3.7,0-7.5,0-11.2c0-0.3-0.1-0.3,0.3-0.3c1,0,1.9,0,2.9,0c0.2,0,0.2,0,0.2,0.2
		c0,1.3,0,2.5,0,3.8c0,6.3,0,12.5,0,18.8c0,0.4,0,0.4-0.4,0.4c-0.9,0-1.8,0-2.7,0c-0.1,0-0.1,0-0.2,0c-0.1,0-0.1,0-0.1-0.1
		c0-0.1,0-0.1,0-0.2C102.4,50.1,102.4,46.3,102.4,42.6z"/>
	<path class="st12" d="M146.1,64.9c0,0,0,0.1,0,0.1c0,0.2,0,0.4,0,0.7c0,0.1,0,0.1,0,0.2c-0.2,1.8-1.1,3.1-2.7,3.9
		c-1.4,0.7-2.8,0.8-4.2,0.2c-0.4-0.2-0.7-0.4-1-0.6c-0.1,0.1,0,0.2,0,0.3c0,1.1,0,2.3,0,3.4c0,0.1,0,0.1,0,0.2c0,0.3,0,0.3-0.3,0.3
		c-0.6,0-1.1,0-1.7,0c-0.1,0-0.2,0-0.2-0.2c0-0.1,0-0.1,0-0.2c0-4.1,0-8.2,0-12.3c0-0.4,0-0.3,0.3-0.3c0.5,0,1.1,0,1.6,0
		c0.2,0,0.2,0,0.2,0.2c0,0.2,0,0.3,0,0.5c0.1,0.1,0.1,0,0.1,0c1.5-1.1,3.2-1.2,4.9-0.5c1.6,0.7,2.5,2,2.8,3.6c0,0.1,0,0.2,0,0.3
		C146.1,64.8,146.1,64.8,146.1,64.9z"/>
	<path class="st12" d="M95.3,46c0-2.6,0-5.3,0-7.9c0-0.3,0-0.3,0.3-0.3c0.9,0,1.9,0,2.8,0c0.3,0,0.3,0,0.3,0.3c0,4.4,0,8.9,0,13.3
		c0,0.8,0,1.7,0,2.5c0,0.3,0,0.3-0.3,0.3c-1,0-1.9,0-2.9,0c-0.3,0-0.3,0-0.3-0.3C95.3,51.3,95.3,48.6,95.3,46z"/>
	<path class="st12" d="M123.3,65.3c0,2.8-2.3,5-5.1,5c-2.8,0-5-2.3-5-5.1c0-2.8,2.3-5,5.1-5C121.1,60.3,123.3,62.5,123.3,65.3z"/>
	<path class="st12" d="M131.7,69.3c-0.1,0-0.1,0.1-0.2,0.1c-1,0.8-2.1,1.1-3.3,0.9c-0.4-0.1-0.8-0.2-1.1-0.3c-1.1-0.5-1.8-1.4-2-2.6
		c-0.1-0.4-0.1-0.9-0.1-1.3c0-1.8,0-3.5,0-5.3c0,0,0-0.1,0-0.1c0-0.1,0-0.2,0.2-0.2c0.5,0,0.9,0,1.4,0c0.1,0,0.3,0,0.4,0
		c0.1,0,0.2,0,0.2,0.2c0,0.1,0,0.1,0,0.2c0,1.7,0,3.4,0,5.1c0,0.4,0,0.7,0.2,1.1c0.3,0.8,0.9,1.2,1.8,1.2c1.2,0.1,2.3-0.7,2.6-1.9
		c0-0.2,0.1-0.4,0.1-0.7c0-1.6,0-3.3,0-4.9c0-0.3,0-0.3,0.3-0.3c0.5,0,1,0,1.6,0c0.3,0,0.3,0,0.3,0.3c0,2.9,0,5.7,0,8.6
		c0,0.2,0,0.4,0,0.6c0,0.1,0,0.2-0.2,0.2c-0.6,0-1.2,0-1.8,0c-0.1,0-0.2,0-0.2-0.2C131.7,69.8,131.7,69.6,131.7,69.3z"/>
	<path class="st12" d="M108.7,61.7c0.1-0.1,0.2-0.2,0.3-0.3c0.5-0.5,1.2-0.8,1.9-0.9c0.5,0,1,0,1.6,0c0.2,0,0.2,0,0.2,0.2
		c0,0.6,0,1.2,0,1.7c0,0.1-0.1,0.2-0.2,0.2c-0.4,0-0.9,0-1.3,0c-1.4,0.1-2.3,1-2.5,2.3c0,0.2-0.1,0.4-0.1,0.7c0,1.4,0,2.8,0,4.2
		c0,0.1,0,0.1,0,0.2c0,0.1,0,0.2-0.2,0.2c-0.6,0-1.2,0-1.8,0c-0.1,0-0.2,0-0.2-0.2c0-0.1,0-0.1,0-0.2c0-3,0-6,0-9c0,0,0-0.1,0-0.1
		c0-0.1,0.1-0.2,0.2-0.2c0.6,0,1.2,0,1.8,0c0.1,0,0.2,0,0.2,0.2C108.7,61,108.7,61.3,108.7,61.7z"/>
	<path class="st12" d="M99.3,32.8c0,1.3-1,2.3-2.3,2.3c-1.3,0-2.3-1-2.3-2.3c0-1.3,1.1-2.3,2.3-2.3C98.3,30.5,99.3,31.5,99.3,32.8z"
		/>
	<path class="st12" d="M113.8,52.3c0,1.3-1,2.3-2.3,2.3c-1.3,0-2.3-1-2.3-2.3c0-1.3,1-2.3,2.3-2.3C112.8,50,113.8,51,113.8,52.3z"/>
	<path class="st13" d="M18.1,40.3c2.8,0,5.4,2.2,5.4,5.4c0,3.1-2.6,5.4-5.4,5.4c-2.9,0-5.4-2.3-5.4-5.4
		C12.7,42.6,15.2,40.3,18.1,40.3z"/>
	<path class="st13" d="M88.3,46c0,1.9-0.8,3.4-2.4,4.4c-1,0.6-2.2,0.9-3.4,0.7C81,51,79.7,50.3,78.8,49c-0.7-1-1-2.1-0.9-3.3
		c0-1.3,0.5-2.4,1.3-3.3c0.9-1,2-1.5,3.2-1.6c1.1-0.1,2.2,0.1,3.2,0.6c1.5,0.8,2.4,2.1,2.6,3.8c0,0.1,0,0.2,0,0.3
		C88.3,45.7,88.3,45.9,88.3,46z"/>
	<path class="st13" d="M96.6,65.3c0-1.6,1.2-2.8,2.9-2.8c1.5,0,2.9,1,2.9,2.9c0,1.7-1.2,2.8-2.9,2.8C97.8,68.2,96.6,66.9,96.6,65.3z
		"/>
	<path class="st13" d="M141,62.5c1.6,0,2.8,1.2,2.8,2.9c0,1.6-1.2,2.9-2.9,2.8c-1.7,0-2.9-1.2-2.9-2.9
		C138.1,63.7,139.3,62.5,141,62.5z"/>
	
		<ellipse transform="matrix(1 -1.460911e-03 1.460911e-03 1 -9.528775e-02 0.1729)" class="st13" cx="118.3" cy="65.3" rx="2.9" ry="2.9"/>
</g>
</svg>
