<svg id="Слой_1" data-name="Слой 1" xmlns="http://www.w3.org/2000/svg" viewBox="0 0 146.1 91.8"><defs><style>.cls-1{opacity:1;}.cls-2{fill:#464646;}.cls-3{fill:#fdfdfd;}.cls-4{fill:silver;}.cls-5{fill:#535353;}.cls-6{fill:#5b5b5b;}.cls-7{fill:#d3d3d3;}.cls-8{fill:#ddd;}.cls-9{fill:#5a5a5a;}.cls-10{fill:#a3a3a3;}.cls-11{fill:#fefefe;}.cls-12{fill:#474747;}.cls-13{fill:#f8f8f8;}</style></defs><title>abbyy</title><g class="cls-1"><path class="cls-2" d="M74,74h-.23a.15.15,0,0,0-.23,0h-.46a.63.63,0,0,0-.57,0h-14a.7.7,0,0,1-.24-.55c0-.25,0-.49,0-.74q0-20,0-39.91c0-.42-.14-.88.21-1.25a1.26,1.26,0,0,1,.61-.05H73.07a15.44,15.44,0,0,1,4.12.41,8.8,8.8,0,0,1,6.25,6.3A14.39,14.39,0,0,1,83.81,45,9.37,9.37,0,0,1,79,51.69a.36.36,0,0,0-.19.19c.45.32,1,.49,1.46.82a8.21,8.21,0,0,1,3.24,5.25A19,19,0,0,1,83.31,67,9.1,9.1,0,0,1,76.5,73.7C75.67,73.92,74.81,73.86,74,74Z"/><path class="cls-2" d="M44.3,31.43h.23c.26.12.53,0,.8.06a12.18,12.18,0,0,1,5.59,1.07A8.27,8.27,0,0,1,55,37a13.12,13.12,0,0,1,.07,10.26A8.71,8.71,0,0,1,50.37,52c.26-.14.49,0,.72.11a7.47,7.47,0,0,1,4.26,5.25,20.05,20.05,0,0,1,.5,6.78,12.49,12.49,0,0,1-1.37,5,8.89,8.89,0,0,1-7.36,4.78A5.85,5.85,0,0,0,46,74H30.49a.7.7,0,0,1-.24-.55c0-.25,0-.49,0-.74q0-20,0-39.91c0-.42-.14-.88.21-1.25a1.22,1.22,0,0,1,.61-.05H43.68A1.2,1.2,0,0,0,44.3,31.43Z"/><path class="cls-2" d="M28.66,74H20.21a1.29,1.29,0,0,1-.45-1c-.42-2.14-.83-4.29-1.29-6.42-.34-1.6-.14-1.38-1.7-1.39-1.83,0-3.65,0-5.48,0-.74,0-.79,0-.94.77-.48,2.34-.93,4.7-1.44,7-.08.36-.07.79-.55.9H.63c-.19,0-.43.12-.55-.16a24.16,24.16,0,0,1,.66-4.66q1.73-8.65,3.49-17.29,2-9.82,4-19.63c.06-.3.1-.61.46-.71H20c.38.06.44.37.5.67.44,2,.82,3.94,1.22,5.91q1.91,9.45,3.82,18.9,1.62,8,3.23,16C28.82,73.31,29,73.68,28.66,74Z"/><path class="cls-2" d="M129.66,74h-9.93c-.32-.26-.24-.62-.24-1,0-3.8,0-7.6,0-11.4a13.53,13.53,0,0,0-.6-4.37c-1.14-3.52-2.17-7.08-3.25-10.62l-4.3-14.17c-.09-.3-.22-.62,0-.92a1.1,1.1,0,0,1,.61-.06h8.4c.48,0,.53.42.62.77.57,2.3,1.1,4.61,1.68,6.91.69,2.72,1.3,5.46,2,8.17,0,.16.05.32.08.42a9,9,0,0,1,.43-1.7c1.1-4,2.15-8,3.17-12,.17-.66.34-1.32.53-2,.08-.28.16-.56.52-.6h8.45c.42.24.22.6.13.9-.51,1.73-1,3.46-1.56,5.19-1.7,5.64-3.42,11.27-5.12,16.91-.41,1.36-.82,2.73-1.25,4.09a4.59,4.59,0,0,0-.2,1.4q0,6.53,0,13.07C129.91,73.37,130,73.74,129.66,74Z"/><path class="cls-2" d="M101.82,74H92c-.32-.26-.24-.62-.24-1,0-3.65,0-7.3,0-11A15.94,15.94,0,0,0,91,56.94c-1.56-4.93-3-9.88-4.53-14.83-1-3.25-2-6.5-3-9.77-.08-.29-.3-.61.1-.86h9c.39,0,.45.34.53.64.82,3.22,1.55,6.46,2.37,9.68.47,1.88.91,3.76,1.48,5.78.31-1,.55-1.92.79-2.82,1.13-4.18,2.21-8.37,3.32-12.55.09-.33.15-.69.6-.73h8.42c.39.2.22.51.14.79-.51,1.71-1,3.42-1.54,5.13l-3.64,12q-1.41,4.66-2.84,9.32a4.7,4.7,0,0,0-.21,1.4q0,6.44,0,12.88C102.06,73.38,102.13,73.74,101.82,74Z"/><path class="cls-2" d="M146.1,35.19a3.48,3.48,0,0,1-1.68,2.18A3.08,3.08,0,0,1,141,37.1a3,3,0,0,1-1.2-3.11,3,3,0,0,1,2.26-2.45c.09,0,.19,0,.23-.12h.11a2,2,0,0,0,1,0h.11a3.49,3.49,0,0,1,1.61.62,2.93,2.93,0,0,1,.9,2Z"/><path class="cls-3" d="M146.1,34.05a3.55,3.55,0,0,0-2.51-2.62c.75,0,1.51,0,2.26,0,.21,0,.26,0,.26.26C146.09,32.47,146.1,33.26,146.1,34.05Z"/><path class="cls-4" d="M30.5,31.56l0-.13H44.3c-.18.22-.42.11-.63.11H31.24Z"/><path class="cls-4" d="M58.47,31.56l0-.14H72.26q.12,0,0,.1l-12.94,0Z"/><path class="cls-4" d="M8.59,31.56v-.13H20.1v.12Z"/><path class="cls-4" d="M120.53,31.43a.42.42,0,0,1,0,.11H112c-.21,0-.46-.11-.63.12l-.09-.24Z"/><path class="cls-4" d="M92.8,31.43v.13H83.57l0-.13Z"/><path class="cls-4" d="M101.59,31.54a.47.47,0,0,1,0-.11h8.67l0,.14Z"/><path class="cls-4" d="M129.33,31.55v-.13H138v.12Z"/><path class="cls-5" d="M8.46,73.88V74c-2.7,0-5.41,0-8.11,0C.06,74,0,73.93,0,73.65a.12.12,0,0,0,.11,0c.13.35.43.24.68.24Z"/><path class="cls-6" d="M143.47,31.43a1.07,1.07,0,0,1-1,0Z"/><path class="cls-7" d="M72.26,31.52v-.1h.91v.1Z"/><path class="cls-8" d="M45.32,31.43a.81.81,0,0,0,0,.1c-.27,0-.56.12-.8-.1Z"/><path class="cls-9" d="M72.49,74a.41.41,0,0,1,.57,0Z"/><path class="cls-10" d="M73.51,74c.08-.13.15-.15.23,0Z"/><path class="cls-11" d="M68.38,61.21c0-1.65,0-3.3,0-5,0-.34.07-.47.44-.45.87,0,1.75,0,2.62,0a2.65,2.65,0,0,1,2.73,2.21,12.93,12.93,0,0,1-.07,6.2,2.93,2.93,0,0,1-3.1,2.4c-.7,0-1.41,0-2.11,0-.39,0-.52-.09-.51-.5C68.39,64.52,68.38,62.87,68.38,61.21Z"/><path class="cls-11" d="M68.38,43.6c0-1.42,0-2.85,0-4.27,0-.41.12-.51.51-.49.7,0,1.41,0,2.11,0a2.58,2.58,0,0,1,2.54,1.68,8.83,8.83,0,0,1,.5,4.37,6.33,6.33,0,0,1-.48,2.1,2.25,2.25,0,0,1-2.26,1.49c-.78,0-1.56,0-2.34,0-.43,0-.58-.08-.57-.55C68.4,46.48,68.38,45,68.38,43.6Z"/><path class="cls-11" d="M40.41,61.21c0-1.65,0-3.3,0-5,0-.33.06-.47.43-.46.87,0,1.75,0,2.62,0a2.66,2.66,0,0,1,2.75,2.26,13.09,13.09,0,0,1-.07,6.09A3,3,0,0,1,43,66.66c-.68,0-1.37,0-2.05,0-.4,0-.52-.1-.51-.5C40.42,64.52,40.41,62.87,40.41,61.21Z"/><path class="cls-11" d="M40.41,43.6c0-1.44,0-2.89,0-4.33,0-.36.1-.45.45-.44.72,0,1.44,0,2.16,0a2.58,2.58,0,0,1,2.54,1.68,8.5,8.5,0,0,1,.52,4.08A6.9,6.9,0,0,1,45.57,47a2.25,2.25,0,0,1-2.26,1.49c-.78,0-1.56,0-2.34,0-.43,0-.58-.08-.57-.55C40.43,46.49,40.41,45,40.41,43.6Z"/><path class="cls-11" d="M14.39,45.12,15,48.17c.6,3,1.2,6,1.82,9,.08.39,0,.44-.36.44q-2.11,0-4.22,0c-.34,0-.46,0-.38-.43q1.23-6,2.44-12Z"/><path class="cls-11" d="M140.39,34.56a2.6,2.6,0,0,1,2.55-2.66,2.68,2.68,0,0,1,0,5.35A2.59,2.59,0,0,1,140.39,34.56Z"/><path class="cls-12" d="M141.78,34.56c0-.42,0-.83,0-1.25,0-.25.09-.34.33-.33.44,0,.87,0,1.31,0a.76.76,0,0,1,.74.52.78.78,0,0,1-.17.89c-.11.1-.25.15-.06.34s.18.79.26,1.19c0,.19-.11.16-.21.16s-.36.07-.39-.2,0-.27,0-.4a.73.73,0,0,0-1-.68c-.29.1-.1.36-.17.53s.29.74-.29.73-.22-.49-.28-.75A3.77,3.77,0,0,1,141.78,34.56Z"/><path class="cls-13" d="M142.82,34.39c-.33.08-.51,0-.47-.47s0-.59.43-.52.83-.09.83.51S143.23,34.39,142.82,34.39Z"/></g></svg>