<svg id="Слой_1" data-name="Слой 1" xmlns="http://www.w3.org/2000/svg" viewBox="0 0 33 34"><defs><style>.cls-1{fill:none;}.cls-2{fill:#3cd52e;}</style></defs><title>Иконка профиля </title><path class="cls-1" d="M19.69,20.42H14.14a7.27,7.27,0,0,0-7.26,7.26v2.07A15.87,15.87,0,0,0,14.8,32.9H15l.6,0h.19l.77,0c.27,0,.51,0,.77,0l.3,0,.45,0,.39,0,.39,0,.39-.07.33-.06.42-.09.31-.07.42-.1.31-.09.39-.12.35-.12.34-.12.61-.24.07,0A16,16,0,0,0,27,29V27.66A7.27,7.27,0,0,0,19.69,20.42Z"/><path class="cls-1" d="M16.91,6a6.18,6.18,0,1,0,6.23,6.13A6.19,6.19,0,0,0,16.91,6Z"/><path class="cls-1" d="M16.5,1.05A16,16,0,0,0,6.34,29.31V27.69a7.81,7.81,0,0,1,7.8-7.82h5.55a7.81,7.81,0,0,1,7.78,7.82v.9a16,16,0,0,0-11-27.53Zm.41,17.72a6.73,6.73,0,0,1-6.77-6.65,6.78,6.78,0,0,1,13.55,0A6.73,6.73,0,0,1,16.91,18.77Z"/><path class="cls-2" d="M33,17A16.51,16.51,0,1,0,6.41,30.08l0,0A16.35,16.35,0,0,0,14,33.34h0l.72.09h.17l.62,0h.2l.77,0c.25,0,.53,0,.8,0l.32,0,.47,0,.39,0,.39,0,.43-.07.33-.06.44-.09.31-.07.44-.11.31-.09.42-.13.34-.12.39-.13.45-.18.24-.1a16.51,16.51,0,0,0,4.45-2.79l0,0A16.47,16.47,0,0,0,33,17ZM27.47,28.59v-.9a7.81,7.81,0,0,0-7.78-7.8H14.14a7.81,7.81,0,0,0-7.8,7.8v1.64a16,16,0,1,1,21.14-.74Z"/><path class="cls-2" d="M16.91,5.45a6.73,6.73,0,0,0-6.77,6.67,6.78,6.78,0,0,0,13.55,0A6.73,6.73,0,0,0,16.91,5.45Z"/></svg>